<svg width="71" height="47" viewBox="0 0 71 47" fill="none" xmlns="http://www.w3.org/2000/svg">
<g clip-path="url(#clip0_2016_1592)">
<path d="M13.6305 11.5711H12.8705L11.1508 8.93557H10.9649V11.5711H10.3398V5.99065H11.506C12.1049 5.99065 12.5607 6.12071 12.8746 6.37947C13.1885 6.63823 13.3455 7.01062 13.3455 7.49391C13.3455 7.92517 13.2119 8.26745 12.9434 8.51799C12.6763 8.7699 12.3046 8.90134 11.8296 8.91366L13.6291 11.5697L13.6305 11.5711ZM12.7218 7.51582C12.7218 7.18997 12.6185 6.95312 12.4133 6.80252C12.2068 6.65192 11.886 6.57662 11.4509 6.57662H10.9677V8.40162H11.4509C11.897 8.40162 12.2206 8.3318 12.4216 8.19215C12.6226 8.0525 12.7231 7.8266 12.7231 7.51582M18.9436 11.5711H18.2525L17.5214 9.88298H15.1918L14.469 11.5711H13.7792L16.3635 5.83594L18.9436 11.5711ZM17.2928 9.35177L16.3621 7.19819L15.4314 9.35177H17.2928ZM23.7777 8.7877C23.7777 9.70636 23.5133 10.3991 22.9833 10.8674C22.4532 11.3356 21.6739 11.5697 20.644 11.5697H19.5784V5.98928H20.6798C21.678 5.98928 22.4435 6.23161 22.9764 6.71763C23.5092 7.20366 23.7763 7.89232 23.7763 8.78633M23.1526 8.78086C23.1526 8.06345 22.9461 7.51582 22.5344 7.14068C22.1227 6.76418 21.5211 6.57662 20.7321 6.57662H20.2048V10.9865H20.6661C21.5211 10.9865 22.1489 10.8071 22.5509 10.4484C22.9516 10.0897 23.1526 9.53386 23.1526 8.78223M25.2537 5.99065H24.6286V11.5711H25.2537V5.99065ZM31.9739 8.78086C31.9739 9.59821 31.6903 10.2855 31.1231 10.8441C30.5558 11.4027 29.8591 11.682 29.033 11.682C28.2069 11.682 27.5075 11.4013 26.9416 10.8413C26.3758 10.2814 26.0935 9.5941 26.0935 8.77949C26.0935 7.96488 26.3744 7.26253 26.9348 6.70805C27.4965 6.15357 28.1959 5.87701 29.0344 5.87701C29.8729 5.87701 30.5696 6.15357 31.1313 6.70805C31.6931 7.26253 31.9739 7.95256 31.9739 8.77949M31.3489 8.78086C31.3489 8.1278 31.1272 7.57879 30.6839 7.13247C30.2405 6.68614 29.6898 6.46435 29.033 6.46435C28.3377 6.46435 27.7774 6.69025 27.3533 7.14342C26.9293 7.59659 26.7172 8.14149 26.7172 8.78086C26.7172 9.42022 26.9375 9.98292 27.3781 10.4292C27.8187 10.8756 28.3708 11.0974 29.0317 11.0974C29.6925 11.0974 30.235 10.8742 30.6797 10.4265C31.1244 9.98018 31.3461 9.43118 31.3461 8.77949" fill="white"/>
<path d="M64.5226 32.4356H5.72656V11.3516H64.5226V32.4356ZM6.00193 32.1618H64.2473V11.6254H6.00193V32.1618Z" fill="white"/>
<path d="M16.1489 12.4453L17.4115 12.4686L22.2758 26.0678H19.8897L18.2376 21.3677H14.8189L12.7991 26.0226L10.5039 25.9993L16.1489 12.4453ZM15.5748 19.5646L17.5023 19.5879L16.6762 16.8497L15.5748 19.5646ZM29.9626 15.4806C29.9626 15.4806 23.3883 16.4554 23.3883 16.4102C23.8467 20.9734 23.0441 31.7386 23.0441 31.7386L24.9716 31.5674C25.1781 30.4037 25.4879 23.216 25.4879 23.216L28.5514 23.0106L28.4481 20.7516L25.5568 20.6489L25.4879 17.8081L29.9626 17.5V15.4806ZM38.4535 18.4926C38.4535 18.4926 30.892 19.6563 30.8576 19.6221C31.0985 24.6877 29.8938 30.5173 29.8938 30.5173L38.1093 30.5858V27.4821L32.854 27.4588L33.0371 26.1582L36.2038 26.113L36.1804 23.7855L33.2436 23.7622L33.3358 21.6401L39.0497 20.7051L38.4535 18.4912M54.941 14.7043L56.2036 14.7276L61.0679 28.3268H58.6819L57.0297 23.6267H53.611L51.5912 28.2816L49.296 28.2583L54.941 14.7043ZM54.3669 21.8236L56.2945 21.8469L55.4684 19.1087L54.3669 21.8236Z" fill="white"/>
<path d="M11.5624 36.2936L11.7992 37.1548C11.8144 37.2095 11.8282 37.2684 11.8419 37.3314C11.8557 37.3944 11.8681 37.4642 11.8791 37.5422C11.8805 37.4765 11.886 37.4108 11.8943 37.3478C11.9025 37.2835 11.9149 37.2191 11.9314 37.1548L12.1393 36.2936H12.4767L12.0595 37.8818H11.7318L11.4454 36.8686C11.4316 36.8221 11.4206 36.7755 11.4124 36.729C11.4041 36.6824 11.3986 36.6331 11.3958 36.5825C11.3917 36.6359 11.3862 36.6865 11.3793 36.7345C11.3724 36.7824 11.3614 36.8276 11.349 36.8686L11.0613 37.8818H10.7336L10.3164 36.2936H10.6579L10.8685 37.1753C10.8795 37.226 10.8892 37.2807 10.8974 37.3396C10.9043 37.3985 10.9098 37.4628 10.9139 37.5326C10.9277 37.4409 10.9539 37.3245 10.9897 37.1835L10.9952 37.1602L11.2292 36.2936H11.5652H11.5624ZM13.808 36.2936L14.0449 37.1548C14.06 37.2095 14.0738 37.2684 14.0875 37.3314C14.1013 37.3944 14.1137 37.4642 14.1247 37.5422C14.1261 37.4765 14.1316 37.4108 14.1399 37.3478C14.1481 37.2835 14.1605 37.2191 14.177 37.1548L14.3849 36.2936H14.7223L14.3051 37.8818H13.9774L13.691 36.8686C13.6772 36.8221 13.6662 36.7755 13.658 36.729C13.6497 36.6824 13.6442 36.6331 13.6414 36.5825C13.6373 36.6359 13.6318 36.6865 13.6249 36.7345C13.618 36.7824 13.607 36.8276 13.5946 36.8686L13.3069 37.8818H12.9792L12.562 36.2936H12.9035L13.1141 37.1753C13.1251 37.226 13.1348 37.2807 13.143 37.3396C13.1499 37.3985 13.1554 37.4628 13.1596 37.5326C13.1733 37.4409 13.1995 37.3245 13.2353 37.1835L13.2408 37.1602L13.4749 36.2936H13.8108H13.808ZM16.0523 36.2936L16.2891 37.1548C16.3042 37.2095 16.318 37.2684 16.3318 37.3314C16.3455 37.3944 16.3579 37.4642 16.3689 37.5422C16.3703 37.4765 16.3758 37.4108 16.3841 37.3478C16.3923 37.2835 16.4047 37.2191 16.4213 37.1548L16.6292 36.2936H16.9665L16.5493 37.8818H16.2216L15.9352 36.8686C15.9215 36.8221 15.9105 36.7755 15.9022 36.729C15.8939 36.6824 15.8884 36.6331 15.8857 36.5825C15.8815 36.6359 15.876 36.6865 15.8692 36.7345C15.8623 36.7824 15.8513 36.8276 15.8389 36.8686L15.5511 37.8818H15.2234L14.8062 36.2936H15.1477L15.3584 37.1753C15.3694 37.226 15.379 37.2807 15.3873 37.3396C15.3941 37.3985 15.3997 37.4628 15.4038 37.5326C15.4176 37.4409 15.4437 37.3245 15.4795 37.1835L15.485 37.1602L15.7191 36.2936H16.055H16.0523ZM17.162 37.7284C17.162 37.6764 17.1799 37.6312 17.2171 37.5956C17.2542 37.56 17.2983 37.5409 17.3492 37.5409C17.4002 37.5409 17.4456 37.5587 17.4814 37.5956C17.5172 37.6326 17.5365 37.6764 17.5365 37.7284C17.5365 37.7804 17.5186 37.8229 17.4814 37.8599C17.4456 37.8955 17.4002 37.9133 17.3479 37.9133C17.2955 37.9133 17.2515 37.8954 17.2157 37.8585C17.1785 37.8229 17.1606 37.7791 17.1606 37.7284H17.162ZM17.6838 37.8818L18.291 36.2936H18.682L19.2988 37.8818H18.9106L18.7811 37.545H18.163L18.0514 37.8818H17.6852H17.6838ZM18.6999 37.278L18.5209 36.7646C18.5154 36.7495 18.5099 36.7235 18.5017 36.6865C18.4934 36.6496 18.4851 36.6044 18.4769 36.551C18.4672 36.603 18.459 36.6482 18.4493 36.6893C18.4411 36.7304 18.4342 36.7577 18.4301 36.7714L18.258 37.278H18.7013H18.6999ZM19.4654 37.8818V36.2936H20.4058V36.5798H19.8069V36.9056H20.4058V37.1945H19.8069V37.8818H19.4654ZM20.6702 37.8818V36.2936H21.6105V36.5798H21.0116V36.9056H21.6105V37.1945H21.0116V37.5929H21.6105V37.8818H20.6702ZM23.1003 37.8818H22.7065L22.2866 37.1397V37.8818H21.9451V36.2936H22.4339C22.628 36.2936 22.7739 36.3306 22.8703 36.4059C22.9667 36.4812 23.0149 36.5934 23.0149 36.744C23.0149 36.8536 22.9818 36.9467 22.9158 37.0233C22.8497 37.1 22.7643 37.1452 22.6597 37.1589L23.1003 37.8818ZM22.2866 36.9713H22.3375C22.4752 36.9713 22.5674 36.9563 22.6115 36.9261C22.6555 36.896 22.6776 36.844 22.6776 36.7701C22.6776 36.6961 22.6542 36.6359 22.606 36.603C22.5578 36.5702 22.4683 36.5537 22.3375 36.5537H22.2866V36.9713ZM23.1099 37.8818L23.7171 36.2936H24.1081L24.7249 37.8818H24.3366L24.2072 37.545H23.589L23.4775 37.8818H23.1113H23.1099ZM24.126 37.278L23.947 36.7646C23.9415 36.7495 23.936 36.7235 23.9277 36.6865C23.9195 36.6496 23.9112 36.6044 23.9029 36.551C23.8933 36.603 23.885 36.6482 23.8754 36.6893C23.8672 36.7304 23.8603 36.7577 23.8561 36.7714L23.684 37.278H24.1274H24.126ZM24.8667 37.7284C24.8667 37.6764 24.8846 37.6312 24.9218 37.5956C24.959 37.56 25.003 37.5409 25.054 37.5409C25.1049 37.5409 25.1504 37.5587 25.1862 37.5956C25.2219 37.6326 25.2412 37.6764 25.2412 37.7284C25.2412 37.7804 25.2233 37.8229 25.1862 37.8599C25.1504 37.8955 25.1049 37.9133 25.0526 37.9133C25.0003 37.9133 24.9562 37.8954 24.9204 37.8585C24.8832 37.8229 24.8654 37.7791 24.8654 37.7284H24.8667ZM26.8645 36.7071C26.7957 36.6455 26.7241 36.6003 26.6525 36.5715C26.5795 36.5428 26.5024 36.5291 26.4184 36.5291C26.2477 36.5291 26.1128 36.5798 26.0109 36.6811C25.9104 36.7824 25.8594 36.9179 25.8594 37.0891C25.8594 37.2602 25.9062 37.3889 25.9999 37.4861C26.0935 37.5847 26.2215 37.6326 26.384 37.6326C26.4762 37.6326 26.5616 37.6175 26.6415 37.586C26.7213 37.5559 26.7943 37.5094 26.8618 37.4478L26.859 37.7955C26.786 37.8379 26.7103 37.8694 26.6304 37.8913C26.5506 37.9119 26.4666 37.9228 26.3785 37.9228C26.1238 37.9228 25.9145 37.8448 25.752 37.6873C25.5882 37.5299 25.507 37.33 25.507 37.0877C25.507 36.8454 25.5882 36.6468 25.752 36.4894C25.9159 36.3319 26.1265 36.2539 26.3854 36.2539C26.4721 36.2539 26.5561 36.2635 26.636 36.2813C26.7172 36.2991 26.7957 36.3278 26.8741 36.3648L26.8618 36.7057L26.8645 36.7071ZM28.8168 37.0918C28.8168 37.2054 28.7962 37.3122 28.7535 37.4135C28.7108 37.5148 28.6502 37.6038 28.5704 37.6805C28.4878 37.7599 28.3942 37.8202 28.2895 37.8612C28.1849 37.9037 28.0775 37.9242 27.966 37.9242C27.8682 37.9242 27.7732 37.9078 27.6796 37.8749C27.586 37.8421 27.5006 37.7955 27.4221 37.7339C27.3216 37.6545 27.2445 37.5587 27.1908 37.4491C27.1371 37.3382 27.111 37.2191 27.111 37.0918C27.111 36.9782 27.1316 36.87 27.1743 36.7701C27.217 36.6701 27.2789 36.5811 27.3602 36.5031C27.44 36.425 27.5336 36.3662 27.6383 36.3224C27.7443 36.2799 27.8531 36.258 27.9646 36.258C28.0761 36.258 28.1835 36.2799 28.2895 36.3224C28.3942 36.3648 28.4878 36.425 28.5676 36.5031C28.6489 36.5811 28.7095 36.6701 28.7521 36.7714C28.7948 36.8714 28.8155 36.9795 28.8155 37.0932L28.8168 37.0918ZM27.966 37.6216C28.1105 37.6216 28.2303 37.571 28.3239 37.4697C28.4176 37.3683 28.4658 37.2424 28.4658 37.0904C28.4658 36.9385 28.4176 36.8139 28.3226 36.7112C28.2276 36.6085 28.1078 36.5578 27.966 36.5578C27.8242 36.5578 27.7016 36.6085 27.6066 36.7112C27.5116 36.8139 27.4634 36.9398 27.4634 37.0918C27.4634 37.2438 27.5102 37.3711 27.6039 37.4724C27.6975 37.5723 27.8186 37.623 27.966 37.623V37.6216ZM28.9655 37.8818L29.2092 36.2936H29.5672L29.8742 37.2287C29.8811 37.2479 29.888 37.2766 29.8949 37.315C29.9032 37.3519 29.91 37.3957 29.9156 37.4436C29.9211 37.3944 29.9279 37.3506 29.9348 37.3122C29.9417 37.2739 29.9486 37.2451 29.9555 37.2273L30.268 36.295H30.6205L30.8642 37.8831H30.5406L30.4236 36.9248C30.4153 36.8536 30.4085 36.8002 30.4057 36.7646C30.403 36.729 30.4016 36.6948 30.4016 36.6633C30.4016 36.6468 30.4016 36.6345 30.4016 36.6263C30.4016 36.6181 30.4016 36.6099 30.403 36.6044C30.3919 36.666 30.3823 36.7208 30.3713 36.766C30.3616 36.8111 30.352 36.8454 30.3451 36.8686L30.0064 37.8845H29.815L29.4819 36.8686C29.4791 36.859 29.4722 36.833 29.4626 36.7906C29.4529 36.7482 29.4392 36.6852 29.4213 36.6044V36.6509C29.4213 36.7249 29.4144 36.8152 29.402 36.922V36.9261L29.285 37.8845H28.9614L28.9655 37.8818ZM31.0638 37.7284C31.0638 37.6764 31.0817 37.6312 31.1189 37.5956C31.1561 37.56 31.2001 37.5409 31.2511 37.5409C31.302 37.5409 31.3475 37.5587 31.3833 37.5956C31.4191 37.6326 31.4383 37.6764 31.4383 37.7284C31.4383 37.7804 31.4204 37.8229 31.3833 37.8599C31.3475 37.8955 31.302 37.9133 31.2497 37.9133C31.1974 37.9133 31.1533 37.8954 31.1175 37.8585C31.0804 37.8229 31.0625 37.7791 31.0625 37.7284H31.0638ZM31.7756 37.8818V36.2936H32.168C32.3773 36.2936 32.5315 36.3333 32.632 36.4127C32.7325 36.4921 32.7821 36.6153 32.7821 36.781C32.7821 36.9343 32.7312 37.0562 32.6307 37.1438C32.5302 37.2314 32.3911 37.2753 32.2121 37.2753H32.1185V37.8818H31.7743H31.7756ZM32.1185 37.011H32.168C32.2617 37.011 32.3291 36.9918 32.3704 36.9535C32.4131 36.9152 32.4338 36.8536 32.4338 36.7687C32.4338 36.6906 32.4131 36.6331 32.3704 36.5976C32.3278 36.562 32.2603 36.5442 32.168 36.5442H32.1185V37.011ZM33.0176 37.8818V36.2936H33.359V37.5929H33.9042V37.8818H33.0176Z" fill="white"/>
<path d="M58.7243 38.1858H57.9919V39.1907H57.7606V37.1261H58.7243V37.3424H57.9919V37.9694H58.7243V38.1844V38.1858ZM60.8832 37.07L60.1025 38.758L59.315 37.07L58.9818 39.1921H59.2186L59.4183 37.7846L60.0984 39.2496L60.7799 37.7846L60.9796 39.1921H61.2136L60.886 37.07H60.8832ZM44.9244 35.0163C44.9244 34.2592 44.6587 33.6171 44.1272 33.0927C43.5957 32.5684 42.9459 32.3055 42.1762 32.3055C41.4066 32.3055 40.754 32.5684 40.2253 33.0955C39.6979 33.6226 39.4336 34.2633 39.4336 35.0163C39.4336 35.7693 39.6911 36.4101 40.2046 36.9111C40.7182 37.4136 41.3639 37.6641 42.1391 37.6641C42.2933 37.6641 42.4557 37.6436 42.6292 37.6012C42.8027 37.5587 42.9321 37.5108 43.0202 37.4547L41.0486 40.2599L41.6985 40.709L43.5489 38.0817C44.0735 37.3301 44.4329 36.7373 44.6297 36.3005C44.8253 35.8638 44.923 35.4353 44.923 35.0149M44.0542 35.0163C44.0542 35.5557 43.8739 36.0034 43.5118 36.3621C43.1497 36.7195 42.7049 36.8988 42.1776 36.8988C41.6503 36.8988 41.2056 36.7167 40.8462 36.3539C40.4855 35.9911 40.3065 35.5448 40.3065 35.0163C40.3065 34.4878 40.4869 34.021 40.849 33.6472C41.2111 33.2735 41.6544 33.0873 42.1776 33.0873C42.7008 33.0873 43.1414 33.2748 43.5076 33.65C43.8725 34.0251 44.0556 34.481 44.0556 35.0163M49.892 38.3062C49.892 37.8366 49.7612 37.4177 49.501 37.0467C49.2407 36.677 48.8924 36.4128 48.4546 36.2567C48.8249 36.0965 49.1154 35.8597 49.3275 35.5475C49.5395 35.2354 49.6441 34.8767 49.6441 34.4728C49.6441 33.854 49.428 33.3378 48.9943 32.9243C48.5606 32.5109 48.0195 32.3041 47.3683 32.3041C46.717 32.3041 46.1745 32.5109 45.7381 32.9243C45.3016 33.3378 45.0827 33.8471 45.0827 34.4522C45.0827 34.8589 45.1846 35.2189 45.3897 35.5311C45.5949 35.8432 45.8882 36.0856 46.2737 36.2553C45.8331 36.4114 45.482 36.6757 45.2218 37.0481C44.9616 37.4204 44.8308 37.8462 44.8308 38.3254C44.8308 38.9894 45.0731 39.5466 45.5577 39.9998C46.0424 40.4516 46.6454 40.6775 47.3696 40.6775C48.0938 40.6775 48.6996 40.4502 49.176 39.9971C49.6538 39.5439 49.892 38.9798 49.892 38.3049M49.0218 38.2748C49.0218 38.7444 48.869 39.1318 48.5633 39.4371C48.2577 39.7438 47.8598 39.8958 47.3696 39.8958C46.8795 39.8958 46.5022 39.7411 46.1814 39.4316C45.862 39.1222 45.7009 38.7361 45.7009 38.2734C45.7009 37.8106 45.862 37.4519 46.1856 37.1453C46.5091 36.8372 46.9029 36.6839 47.3683 36.6839C47.8336 36.6839 48.2205 36.8372 48.5399 37.1425C48.8594 37.4492 49.0191 37.8257 49.0191 38.2734M48.774 34.5152C48.774 34.9123 48.6391 35.2436 48.3706 35.5106C48.1007 35.7775 47.7675 35.9117 47.3696 35.9117C46.9717 35.9117 46.6344 35.7762 46.3604 35.5051C46.0864 35.234 45.9487 34.8999 45.9487 34.5043C45.9487 34.1086 46.0864 33.7773 46.3632 33.5007C46.6399 33.2242 46.9745 33.0859 47.3696 33.0859C47.7648 33.0859 48.0938 33.2242 48.3665 33.5007C48.6391 33.7773 48.7754 34.1155 48.7754 34.5152M50.6685 39.2441L49.6359 42.1698L50.166 42.3834L51.5813 39.6302L50.6685 39.2441ZM57.2029 37.9667C57.2029 37.2055 56.9455 36.5743 56.4319 36.0719C55.9184 35.5694 55.2726 35.3189 54.4975 35.3189C54.3474 35.3189 54.1849 35.3394 54.0101 35.3819C53.8352 35.4243 53.7044 35.4736 53.6163 35.5338L55.5618 32.7546L54.9381 32.2754L53.0917 34.9027C52.5644 35.6502 52.2023 36.243 52.0068 36.6811C51.8113 37.1192 51.7135 37.5491 51.7135 37.9694C51.7135 38.7266 51.9793 39.3687 52.5107 39.893C53.0422 40.4174 53.6934 40.6803 54.4658 40.6803C55.2382 40.6803 55.8839 40.4174 56.4113 39.8903C56.9386 39.3632 57.2029 38.7238 57.2029 37.9694M56.3328 37.9667C56.3328 38.502 56.1524 38.9579 55.7903 39.3331C55.4282 39.7082 54.9876 39.8958 54.4658 39.8958C53.944 39.8958 53.4965 39.7082 53.1317 39.3331C52.7668 38.9579 52.5837 38.502 52.5837 37.9667C52.5837 37.4314 52.764 36.9796 53.1261 36.6209C53.4883 36.2636 53.9343 36.0842 54.4658 36.0842C54.9973 36.0842 55.4323 36.2663 55.7931 36.6291C56.1538 36.9933 56.3328 37.4382 56.3328 37.9667Z" fill="white"/>
<path d="M47.5503 25.2346L47.6206 10.8427C47.4016 10.6511 46.4874 10.0158 44.5585 10.7099C42.4478 11.4698 42.6681 13.0648 42.6901 13.1976L42.6929 13.2085C43.3097 15.855 45.8224 16.5409 45.8486 16.5477L46.0413 16.5984L45.9987 16.7914C45.693 18.151 44.827 19.876 43.4254 21.9201C42.3859 23.4343 41.4207 24.5693 41.4111 24.5816L41.2982 24.7144L41.1481 24.6268C40.3729 24.1709 39.1324 23.4466 38.8984 23.3206H38.3242L38.8226 22.951C40.4115 21.7736 42.4313 18.448 42.9201 17.58C41.0462 16.8257 40.1526 14.6666 40.0563 14.2983H40.0535C39.3238 11.2521 40.8851 9.60781 41.6314 9.02047V9.0013L41.7319 8.94106C44.0491 7.56238 46.1474 7.6459 47.4994 7.95942C48.9657 8.29896 49.8744 8.95886 49.9116 8.98761L49.9956 9.04922V24.5378L47.5503 25.2387V25.2346ZM46.1694 9.98431C47.4016 9.98431 47.951 10.5867 47.9827 10.6223L48.0336 10.6812L47.9661 24.6884L49.5825 24.2256V9.25732C49.0277 8.89725 45.7894 7.01475 41.9618 9.27923C41.948 9.29155 41.9329 9.30387 41.9177 9.31482C39.9131 10.8633 40.227 13.2469 40.4555 14.2011V14.2039C40.4886 14.2997 41.3147 16.6299 43.2794 17.2706L43.4212 17.3172V17.4664C43.4212 17.6745 41.144 21.5395 39.3169 23.0824C39.6088 23.2467 40.154 23.5643 41.2059 24.1832C41.8227 23.4357 44.827 19.6939 45.5498 16.8873C44.9206 16.671 42.9669 15.8249 42.3349 13.4823H42.3322L42.2895 13.3016C42.2881 13.2948 42.2454 13.0566 42.2854 12.7102C42.2854 12.7102 42.2854 12.7759 42.2854 12.7636C42.2798 12.4678 42.4327 12.0955 42.4327 12.0955C42.664 11.478 43.2009 10.7661 44.4181 10.3266C45.1106 10.0774 45.6916 9.98568 46.1694 9.98568V9.98431Z" fill="white"/>
</g>
<defs>
<clipPath id="clip0_2016_1592">
<rect width="70.2513" height="46.5711" fill="white"/>
</clipPath>
</defs>
</svg>
