<svg width="1920" height="1080" viewBox="0 0 1920 1080" fill="none" xmlns="http://www.w3.org/2000/svg">
<g clip-path="url(#clip0_2016_1252)">
<rect width="1920" height="1080" fill="#F42984"/>
<path d="M1896.23 -222.324V-204.2V-186.076V-167.952V-149.828H1872.47V-131.703V-113.579V-95.455V-77.3309V-59.2067H1848.7V-41.0825V-22.9584V-4.8342V13.29V31.4141V49.5383H1872.47V31.4141V13.29V-4.8342V-22.9584H1896.23V-41.0825V-59.2067V-77.3309V-95.455V-113.579H1920V-131.703V-149.828V-167.952V-186.076V-204.2V-222.324H1896.23Z" fill="black"/>
<path d="M1729.86 -4.83482V13.2894V31.4135V49.5377H1706.1V67.6619V85.786V103.91V122.034V140.159V158.283H1682.33V176.407V194.531V212.655V230.779V248.904V267.028V285.152H1658.56V303.276V321.4V339.524V357.649V375.773V393.897V412.021V430.145V448.269V466.394V484.518V502.642V520.766V538.89V557.014H1634.8V575.139V593.263V611.387V629.511V647.635H1658.56V665.759V683.884V702.008V720.132V738.256H1682.33V756.38V774.504H1706.1V792.629H1729.86V810.753V828.877H1753.63V847.001H1777.39V865.125H1801.16H1824.93V883.249H1848.69V901.374H1872.46H1896.23V919.498H1919.99V901.374V883.249H1896.23H1872.46V865.125H1848.69V847.001H1824.93V828.877H1801.16H1777.39V810.753V792.629H1753.63V774.504H1729.86V756.38V738.256H1706.1V720.132V702.008V683.884H1682.33V665.759V647.635V629.511V611.387V593.263V575.139V557.014V538.89V520.766V502.642V484.518V466.394V448.269V430.145V412.021V393.897V375.773V357.649V339.524H1706.1V321.4V303.276V285.152V267.028V248.904V230.779V212.655V194.531V176.407H1729.86V158.283V140.159V122.034V103.91V85.786V67.6619H1753.63V49.5377V31.4135V13.2894V-4.83482V-22.959H1729.86V-4.83482Z" fill="black"/>
<path d="M1896.23 13.2894V31.4135V49.5377H1919.99V31.4135V13.2894V-4.83482V-22.959H1896.23V-4.83482V13.2894Z" fill="black"/>
<path d="M1706.11 13.29V-4.83418V-22.9584V-41.0825H1729.87V-59.2067V-77.3309V-95.455V-113.579H1753.64V-131.703V-149.828V-167.952V-186.076V-204.2H1777.4V-222.324H1753.64H1729.87V-204.2V-186.076V-167.952V-149.828V-131.703H1706.11V-113.579V-95.455V-77.3309V-59.2067H1682.34V-41.0825V-22.9584V-4.83418V13.29V31.4142H1658.57V49.5383V67.6625V85.7867V103.911V122.035H1634.81V140.159V158.283V176.408V194.532V212.656V230.78H1611.04V248.904V267.028V285.153V303.277V321.401V339.525V357.649V375.773V393.898V412.022V430.146H1587.27V448.27V466.394V484.518V502.643V520.767V538.891V557.015V575.139H1563.51V593.263V611.388V629.512V647.636V665.76V683.884V702.008H1587.27V720.133V738.257V756.381V774.505H1611.04V792.629V810.753H1634.81V828.878H1658.57V847.002H1682.34V865.126H1706.11V883.25H1729.87V901.374H1753.64V919.498H1777.4V937.623H1801.17H1824.94V955.747H1848.7V973.871H1872.47H1896.24V991.995H1920V973.871V955.747H1896.24V937.623H1872.47H1848.7V919.498H1824.94V901.374H1801.17H1777.4V883.25H1753.64V865.126H1729.87V847.002H1706.11V828.878H1682.34V810.753V792.629H1658.57V774.505H1634.81V756.381V738.257V720.133H1611.04V702.008V683.884V665.76V647.636V629.512V611.388V593.263V575.139V557.015V538.891V520.767V502.643V484.518H1634.81V466.394V448.27V430.146V412.022V393.898V375.773V357.649V339.525V321.401V303.277V285.153V267.028V248.904H1658.57V230.78V212.656V194.532V176.408V158.283V140.159H1682.34V122.035V103.911V85.7867V67.6625V49.5383H1706.11V31.4142V13.29Z" fill="black"/>
<path d="M1824.93 67.6593V85.7835V103.908V122.032V140.156H1801.16V158.28V176.404V194.529V212.653V230.777V248.901V267.025V285.149H1777.4V303.274V321.398V339.522V357.646V375.77V393.894V412.019V430.143V448.267V466.391V484.515V502.639V520.764V538.888V557.012V575.136V593.26V611.384V629.509H1801.16V647.633V665.757V683.881H1824.93V702.005V720.129H1848.7V738.254V756.378H1872.46V774.502H1896.23H1920V756.378V738.254H1896.23V720.129H1872.46V702.005H1848.7V683.881V665.757V647.633H1824.93V629.509V611.384V593.26V575.136V557.012H1801.16V538.888V520.764V502.639V484.515V466.391V448.267V430.143V412.019V393.894V375.77V357.646V339.522V321.398V303.274H1824.93V285.149V267.025V248.901V230.777V212.653V194.529V176.404V158.28H1848.7V140.156V122.032V103.908V85.7835V67.6593V49.5352H1824.93V67.6593Z" fill="black"/>
<path d="M1896.23 103.91V85.7863V67.6621H1872.46V85.7863V103.91V122.035V140.159H1896.23V158.283V176.407V194.531V212.655H1920V194.531V176.407V158.283V140.159V122.035H1896.23V103.91Z" fill="black"/>
<path d="M1848.7 194.535V212.66V230.784V248.908V267.032V285.156H1872.47V303.28V321.405V339.529V357.653V375.777V393.901V412.025V430.15H1896.23V412.025V393.901V375.777V357.653V339.529V321.405V303.28V285.156V267.032V248.908H1872.47V230.784V212.66V194.535V176.411V158.287H1848.7V176.411V194.535Z" fill="black"/>
<path d="M1824.93 339.52V357.644V375.768V393.892V412.017V430.141V448.265V466.389V484.513H1848.7V502.637V520.762V538.886V557.01V575.134V593.258V611.382H1872.46V629.507V647.631V665.755H1896.23V683.879H1919.99V665.755V647.631V629.507H1896.23V611.382V593.258V575.134H1872.46V557.01V538.886V520.762V502.637V484.513V466.389V448.265H1848.7V430.141V412.017V393.892V375.768V357.644V339.52V321.396V303.271H1824.93V321.396V339.52Z" fill="black"/>
<path d="M-28.847 357.649V339.525V321.401V303.277V285.153V267.028V248.904V230.78H-5.08068V212.656V194.532V176.408V158.283V140.159V122.035V103.911H18.6856V85.7867V67.6625V49.5383V31.4142V13.29V-4.83418V-22.9584V-41.0825H42.4519V-59.2067V-77.3309V-95.455V-113.579V-131.703V-149.828V-167.952V-186.076V-204.2V-222.324H18.6856V-204.2V-186.076V-167.952V-149.828V-131.703V-113.579V-95.455V-77.3309V-59.2067H-5.08068V-41.0825V-22.9584V-4.83418V13.29V31.4142V49.5383V67.6625V85.7867H-28.847V103.911V122.035V140.159V158.283V176.408V194.532V212.656H-52.6133V230.78V248.904V267.028V285.153V303.277V321.401V339.525V357.649V375.773H-28.847V357.649Z" fill="black"/>
<path d="M1896.23 466.389V484.513V502.637V520.761V538.886H1919.99V520.761V502.637V484.513V466.389V448.265V430.141H1896.23V448.265V466.389Z" fill="black"/>
<path d="M1872.46 810.753V792.629H1848.7V774.505H1824.93V756.381H1801.16V738.257V720.132H1777.4V702.008V683.884V665.76H1753.63V647.636V629.512V611.387V593.263V575.139V557.015V538.891V520.767V502.642V484.518V466.394V448.27V430.146V412.022V393.897V375.773V357.649V339.525V321.401V303.277V285.152V267.028V248.904H1777.4V230.78V212.656V194.532V176.407V158.283V140.159V122.035H1801.16V103.911V85.7866V67.6624V49.5383V31.4141V13.2899H1824.93V-4.83423V-22.9584V-41.0826V-59.2067V-77.3309H1848.7V-95.4551V-113.579V-131.703V-149.828V-167.952H1872.46V-186.076V-204.2V-222.324H1848.7V-204.2V-186.076H1824.93V-167.952V-149.828V-131.703V-113.579V-95.4551H1801.16V-77.3309V-59.2067V-41.0826V-22.9584V-4.83423H1777.4V13.2899V31.4141V49.5383V67.6624V85.7866V103.911H1753.63V122.035V140.159V158.283V176.407V194.532V212.656H1729.86V230.78V248.904V267.028V285.152V303.277V321.401V339.525V357.649V375.773V393.897V412.022V430.146V448.27H1706.1V466.394V484.518V502.642V520.767V538.891V557.015V575.139V593.263V611.387V629.512H1729.86V647.636V665.76V683.884V702.008H1753.63V720.132V738.257V756.381H1777.4V774.505H1801.16V792.629H1824.93V810.753H1848.7V828.877H1872.46V847.002H1896.23H1919.99V828.877V810.753H1896.23H1872.46Z" fill="black"/>
<path d="M1872.47 1028.24V1010.12H1848.7V991.995H1824.94H1801.17V973.871H1777.4V955.747H1753.64V937.623H1729.87H1706.1V919.499H1682.34V901.374H1658.57V883.25H1634.8V865.126H1611.04V847.002V828.878H1587.27V810.754H1563.51V792.629V774.505H1539.74V756.381V738.257V720.133V702.009V683.884V665.76V647.636V629.512V611.388V593.263V575.139V557.015V538.891V520.767H1563.51V502.643V484.518V466.394V448.27V430.146V412.022V393.898V375.773H1587.27V357.649V339.525V321.401V303.277V285.153V267.028V248.904V230.78V212.656V194.532H1611.04V176.408V158.283V140.159V122.035V103.911V85.7867H1634.8V67.6625V49.5384V31.4142V13.29H1658.57V-4.83416V-22.9583V-41.0825V-59.2067V-77.3308H1682.34V-95.455V-113.579V-131.703V-149.828V-167.952V-186.076H1706.1V-204.2V-222.324H1682.34H1658.57V-204.2V-186.076V-167.952V-149.828V-131.703H1634.8V-113.579V-95.455V-77.3308V-59.2067V-41.0825V-22.9583H1611.04V-4.83416V13.29V31.4142V49.5384V67.6625H1587.27V85.7867V103.911V122.035V140.159V158.283V176.408H1563.51V194.532V212.656V230.78V248.904V267.028V285.153V303.277V321.401H1539.74V339.525V357.649V375.773V393.898V412.022V430.146V448.27V466.394V484.518H1515.97V502.643V520.767V538.891V557.015V575.139H1492.21V593.263V611.388V629.512V647.636V665.76V683.884V702.009V720.133V738.257V756.381V774.505H1515.97V792.629V810.754H1539.74V828.878V847.002H1563.51V865.126H1587.27V883.25H1611.04V901.374H1634.8V919.499H1658.57V937.623H1682.34V955.747H1706.1V973.871H1729.87V991.995H1753.64V1010.12H1777.4V1028.24H1801.17H1824.94V1046.37H1848.7V1064.49H1872.47V1082.62H1896.23V1100.74H1920V1082.62V1064.49V1046.37V1028.24H1896.23H1872.47Z" fill="black"/>
<path d="M-28.847 1100.74V1082.62V1064.49H-5.08068V1046.37V1028.24V1010.12V991.995V973.871H18.6856V955.747V937.622V919.498V901.374V883.25V865.126V847.002V828.877V810.753V792.629V774.505V756.381V738.257V720.132V702.008V683.884V665.76V647.636V629.512V611.387V593.263V575.139V557.015V538.891V520.767V502.642V484.518V466.394V448.27V430.146V412.022V393.897V375.773V357.649V339.525V321.401V303.277V285.152H42.4519V267.028V248.904V230.78V212.656V194.532V176.407V158.283H66.2182V140.159V122.035V103.911V85.7866V67.6625V49.5383V31.4141H89.9845V13.29V-4.83422V-22.9584V-41.0825V-59.2067V-77.3309V-95.455V-113.579V-131.703V-149.828V-167.952V-186.076V-204.2V-222.324H66.2182V-204.2V-186.076V-167.952V-149.828V-131.703V-113.579V-95.455V-77.3309V-59.2067V-41.0825V-22.9584H42.4519V-4.83422V13.29V31.4141V49.5383V67.6625V85.7866V103.911V122.035H18.6856V140.159V158.283V176.407V194.532V212.656V230.78V248.904H-5.08068V267.028V285.152V303.277V321.401V339.525V357.649V375.773V393.897V412.022H-28.847V430.146V448.27V466.394V484.518V502.642V520.767V538.891V557.015V575.139V593.263V611.387V629.512V647.636V665.76V683.884V702.008V720.132V738.257H-5.08068V756.381V774.505V792.629V810.753V828.877V847.002V865.126V883.25V901.374H-28.847V919.498V937.622V955.747V973.871V991.995V1010.12V1028.24V1046.37H-52.6133V1064.49V1082.62V1100.74V1118.86H-28.847V1100.74Z" fill="black"/>
<path d="M-28.847 1227.61V1209.49H-5.08068V1191.36V1173.24H18.6856V1155.11V1136.99H42.4519V1118.86V1100.74V1082.62H66.2182V1064.49V1046.37V1028.24V1010.12V991.995V973.871V955.747H89.9845V937.623V919.498V901.374V883.25V865.126V847.002V828.878V810.753V792.629V774.505V756.381V738.257V720.133V702.008V683.884V665.76V647.636H66.2182V629.512V611.388V593.263V575.139V557.015V538.891V520.767V502.643H89.9845V484.518V466.394V448.27V430.146V412.022V393.898V375.773V357.649V339.525V321.401V303.277V285.152H113.751V267.028V248.904V230.78V212.656V194.532V176.407H137.517V158.283V140.159V122.035V103.911V85.7866V67.6625V49.5383H161.283V31.4141V13.29V-4.8342V-22.9584V-41.0825V-59.2067V-77.3309V-95.455V-113.579H185.05V-131.703V-149.828V-167.952V-186.076V-204.2H208.816V-222.324H185.05H161.283H137.517V-204.2V-186.076V-167.952V-149.828V-131.703V-113.579V-95.455V-77.3309H113.751V-59.2067V-41.0825V-22.9584V-4.8342V13.29V31.4141V49.5383V67.6625V85.7866H89.9845V103.911V122.035V140.159V158.283V176.407V194.532V212.656H66.2182V230.78V248.904V267.028V285.152V303.277V321.401V339.525H42.4519V357.649V375.773V393.898V412.022V430.146V448.27V466.394V484.518V502.643V520.767V538.891V557.015V575.139V593.263V611.388V629.512V647.636V665.76V683.884V702.008V720.133V738.257V756.381V774.505V792.629V810.753V828.878V847.002V865.126V883.25V901.374V919.498V937.623V955.747V973.871V991.995V1010.12V1028.24H18.6856V1046.37V1064.49V1082.62V1100.74H-5.08068V1118.86V1136.99V1155.11H-28.847V1173.24V1191.36H-52.6133V1209.49V1227.61V1245.73H-28.847V1227.61Z" fill="black"/>
<path d="M375.184 1372.6V1354.48H398.951V1336.35V1318.23H422.717V1300.11V1281.98H446.483V1263.86V1245.73H470.249V1227.61V1209.49H494.016V1191.36H517.782V1173.24V1155.11H541.548V1136.99H565.315V1118.86H589.081V1100.74H612.847V1082.62H636.614V1064.49H660.38H684.146V1046.37H707.912H731.679V1028.24H755.445H779.211V1010.12H802.978H826.744V991.995H850.51V973.871H874.277H898.043V955.747H921.809H945.575V937.623H969.342V919.498H993.108V901.374H1016.87V883.25H1040.64V865.126H1064.41V847.002V828.878H1088.17V810.753V792.629H1111.94V774.505V756.381H1135.71V738.257V720.133V702.008H1159.47V683.884V665.76V647.636H1183.24V629.512V611.388V593.263H1207V575.139V557.015V538.891H1230.77V520.767V502.643V484.518H1254.54V466.394V448.27V430.146H1278.3V412.022V393.898V375.773V357.649H1302.07V339.525V321.401V303.277V285.152V267.028V248.904H1325.84V230.78V212.656V194.532V176.407V158.283V140.159V122.035V103.911V85.7866V67.6625V49.5383H1302.07V31.4141V13.29V-4.8342V-22.9584H1278.3V-41.0825V-59.2067V-77.3309V-95.455H1254.54V-113.579V-131.703V-149.828H1230.77V-167.952V-186.076V-204.2H1207V-222.324H1183.24H1159.47V-204.2H1183.24V-186.076V-167.952V-149.828H1207V-131.703V-113.579V-95.455V-77.3309H1230.77V-59.2067V-41.0825V-22.9584H1254.54V-4.8342V13.29V31.4141V49.5383V67.6625H1278.3V85.7866V103.911V122.035V140.159V158.283V176.407V194.532V212.656V230.78V248.904V267.028H1254.54V285.152V303.277V321.401V339.525V357.649H1230.77V375.773V393.898V412.022V430.146H1207V448.27V466.394V484.518H1183.24V502.643V520.767V538.891H1159.47V557.015V575.139V593.263H1135.71V611.388V629.512H1111.94V647.636V665.76V683.884H1088.17V702.008V720.133H1064.41V738.257V756.381H1040.64V774.505V792.629H1016.87V810.753H993.108V828.878V847.002H969.342V865.126H945.575V883.25H921.809H898.043V901.374H874.277V919.498H850.51V937.623H826.744H802.978V955.747H779.211H755.445V973.871H731.679H707.912V991.995H684.146V1010.12H660.38H636.614V1028.24H612.847V1046.37H589.081V1064.49H565.315V1082.62H541.548V1100.74H517.782V1118.86V1136.99H494.016V1155.11H470.249V1173.24V1191.36H446.483V1209.49V1227.61H422.717V1245.73V1263.86H398.951V1281.98V1300.11H375.184V1318.23V1336.35H351.418V1354.48V1372.6V1390.73H375.184V1372.6Z" fill="black"/>
<path d="M-28.847 1408.85V1390.73H-5.08068V1372.6V1354.48V1336.35H18.6856V1318.23V1300.11H42.4519V1281.98V1263.86V1245.73H66.2182V1227.61V1209.49H89.9845V1191.36V1173.24V1155.11H113.751V1136.99V1118.86V1100.74H137.517V1082.62V1064.49V1046.37V1028.24V1010.12H161.283V991.995V973.871V955.747V937.623V919.498V901.374V883.25V865.126V847.002V828.878V810.753V792.629V774.505V756.381V738.257V720.133V702.008V683.884V665.76V647.636V629.512V611.388V593.263V575.139V557.015V538.891V520.767V502.643H185.05V484.518V466.394V448.27V430.146V412.022V393.898V375.773V357.649V339.525H208.816V321.401V303.277V285.153V267.028V248.904H232.582V230.78V212.656V194.532V176.408H256.349V158.283V140.159H280.115V122.035H303.881H327.648V103.911H351.414V122.035H375.18H398.946H422.713H446.479V140.159H470.245H494.012H517.778H541.544H565.311V122.035H589.077H612.843V103.911H636.609H660.376H684.142V85.7867H707.908H731.675V67.6625H755.441V49.5383H779.207V31.4142V13.29H802.974V-4.83418V-22.9584H826.74V-41.0825V-59.2067V-77.3309V-95.455V-113.579V-131.703V-149.828V-167.952V-186.076H850.506V-204.2V-222.324H826.74H802.974V-204.2V-186.076V-167.952H779.207V-149.828V-131.703V-113.579V-95.455H755.441V-77.3309V-59.2067V-41.0825H731.675V-22.9584H707.908V-4.83418H684.142H660.376H636.609H612.843H589.077H565.311H541.544H517.778H494.012H470.245H446.479V-22.9584H422.713H398.946V-41.0825H375.18H351.414V-59.2067H327.648H303.881H280.115H256.349H232.582V-41.0825V-22.9584V-4.83418H208.816V13.29V31.4142V49.5383V67.6625H185.05V85.7867V103.911V122.035V140.159V158.283V176.408H161.283V194.532V212.656V230.78V248.904V267.028V285.153H137.517V303.277V321.401V339.525V357.649V375.773V393.898V412.022V430.146V448.27H113.751V466.394V484.518V502.643V520.767V538.891V557.015V575.139V593.263V611.388V629.512V647.636V665.76V683.884V702.008V720.133V738.257V756.381V774.505V792.629V810.753V828.878V847.002V865.126V883.25V901.374V919.498V937.623V955.747V973.871V991.995V1010.12V1028.24V1046.37H89.9845V1064.49V1082.62V1100.74V1118.86H66.2182V1136.99V1155.11V1173.24H42.4519V1191.36V1209.49H18.6856V1227.61V1245.73H-5.08068V1263.86V1281.98H-28.847V1300.11V1318.23V1336.35H-52.6133V1354.48V1372.6V1390.73V1408.85V1426.98H-28.847V1408.85Z" fill="black"/>
<path d="M398.958 1426.98H422.724V1408.85V1390.73H446.49V1372.6V1354.48H470.257V1336.35H494.023V1318.23V1300.11H517.789V1281.98V1263.86H541.556V1245.73H565.322V1227.61H589.088V1209.49H612.854V1191.36H636.621V1173.24H660.387V1155.11H684.153H707.92V1136.99H731.686H755.452V1118.86H779.219H802.985H826.751V1100.74H850.517H874.284V1082.62H898.05H921.816H945.583V1064.49H969.349H993.115H1016.88V1046.37H1040.65H1064.41H1088.18V1028.24H1111.95H1135.71V1010.12H1159.48V991.995H1183.25V973.871H1207.01V955.747V937.623V919.498H1230.78V901.374V883.25V865.126V847.002V828.878V810.753V792.629V774.505V756.381H1254.54V738.257V720.133V702.008V683.884V665.76H1278.31V647.636V629.512V611.388H1302.08V593.263V575.139V557.015H1325.84V538.891V520.767V502.643V484.518H1349.61V466.394V448.27V430.146V412.022H1373.38V393.898V375.773V357.649V339.525V321.401H1397.14V303.277V285.152V267.028V248.904V230.78V212.656V194.532V176.407V158.283V140.159H1420.91V122.035V103.911V85.7866V67.6625V49.5383V31.4141V13.29V-4.8342H1397.14V-22.9584V-41.0825V-59.2067V-77.3309H1373.38V-95.455V-113.579V-131.703H1349.61V-149.828V-167.952H1325.84V-186.076V-204.2V-222.324H1302.08H1278.31H1254.54V-204.2H1278.31V-186.076V-167.952V-149.828H1302.08V-131.703V-113.579H1325.84V-95.455V-77.3309V-59.2067H1349.61V-41.0825V-22.9584V-4.8342V13.29V31.4141H1373.38V49.5383V67.6625V85.7866V103.911V122.035V140.159V158.283V176.407V194.532V212.656H1349.61V230.78V248.904V267.028V285.152V303.277V321.401V339.525V357.649H1325.84V375.773V393.898V412.022V430.146H1302.08V448.27V466.394V484.518H1278.31V502.643V520.767V538.891V557.015H1254.54V575.139V593.263V611.388H1230.78V629.512V647.636V665.76H1207.01V683.884V702.008V720.133H1183.25V738.257V756.381V774.505V792.629H1159.48V810.753V828.878V847.002H1135.71V865.126V883.25V901.374H1111.95V919.498V937.623H1088.18V955.747H1064.41V973.871H1040.65H1016.88V991.995H993.115V1010.12H969.349H945.583V1028.24H921.816H898.05H874.284V1046.37H850.517H826.751V1064.49H802.985H779.219V1082.62H755.452H731.686H707.92V1100.74H684.153V1118.86H660.387H636.621V1136.99H612.854V1155.11H589.088V1173.24H565.322V1191.36H541.556V1209.49V1227.61H517.789V1245.73H494.023V1263.86V1281.98H470.257V1300.11H446.49V1318.23V1336.35H422.724V1354.48V1372.6H398.958V1390.73V1408.85H375.191V1426.98V1445.1H398.958V1426.98Z" fill="black"/>
<path d="M256.356 1445.1H280.122V1426.98V1408.85H303.889V1390.73V1372.6H327.655V1354.48V1336.35V1318.23H351.421V1300.11V1281.98H375.188V1263.86V1245.73V1227.61H398.954V1209.49V1191.36H422.72V1173.24V1155.11H446.487V1136.99V1118.86H470.253V1100.74V1082.62H494.019V1064.49H517.785V1046.37H541.552V1028.24V1010.12H565.318V991.995H589.084V973.871H612.851H636.617V955.747H660.383V937.623H684.15H707.916V919.498H731.682V901.374H755.448H779.215V883.25H802.981H826.747V865.126H850.514V847.002H874.28V828.878H898.046V810.753H921.813V792.629H945.579V774.505H969.345V756.381H993.111V738.257V720.133H1016.88V702.008V683.884H1040.64V665.76V647.636H1064.41V629.512V611.388H1088.18V593.263V575.139H1111.94V557.015V538.891V520.767H1135.71V502.643V484.518V466.394H1159.48V448.27V430.146V412.022H1183.24V393.898V375.773V357.649V339.525H1207.01V321.401V303.277V285.153V267.028H1230.77V248.904V230.78V212.656V194.532V176.408V158.283V140.159V122.035V103.911V85.7867H1207.01V67.6625V49.5383V31.4142V13.29V-4.83418H1183.24V-22.9584V-41.0825V-59.2067V-77.3309H1159.48V-95.455V-113.579V-131.703V-149.828H1135.71V-167.952V-186.076V-204.2V-222.324H1111.94H1088.18V-204.2V-186.076V-167.952H1111.94V-149.828V-131.703V-113.579V-95.455V-77.3309H1135.71V-59.2067V-41.0825V-22.9584V-4.83418H1159.48V13.29V31.4142V49.5383V67.6625V85.7867V103.911H1183.24V122.035V140.159V158.283V176.408V194.532V212.656V230.78V248.904H1159.48V267.028V285.153V303.277V321.401H1135.71V339.525V357.649V375.773H1111.94V393.898V412.022V430.146H1088.18V448.27V466.394V484.518H1064.41V502.643V520.767V538.891H1040.64V557.015V575.139H1016.88V593.263V611.388V629.512H993.111V647.636H969.345V665.76V683.884H945.579V702.008V720.133H921.813V738.257H898.046V756.381H874.28V774.505H850.514V792.629H826.747V810.753H802.981H779.215V828.878H755.448V847.002H731.682H707.916V865.126H684.15H660.383V883.25H636.617V901.374H612.851V919.498H589.084H565.318V937.623H541.552V955.747V973.871H517.785V991.995H494.019V1010.12H470.253V1028.24V1046.37H446.487V1064.49V1082.62H422.72V1100.74V1118.86H398.954V1136.99V1155.11V1173.24H375.188V1191.36V1209.49H351.421V1227.61V1245.73H327.655V1263.86V1281.98V1300.11H303.889V1318.23V1336.35V1354.48H280.122V1372.6V1390.73H256.356V1408.85V1426.98H232.59V1445.1V1463.22H256.356V1445.1Z" fill="black"/>
<path d="M422.719 1463.22H446.485V1445.1H470.251V1426.98H494.018V1408.85V1390.73H517.784V1372.6H541.55V1354.48V1336.35H565.317V1318.23H589.083V1300.11H612.849V1281.98H636.615V1263.86H660.382H684.148V1245.73H707.914V1227.61H731.681H755.447V1209.49H779.213H802.98H826.746V1191.36H850.512H874.278H898.045H921.811V1173.24H945.577H969.344H993.11H1016.88H1040.64V1155.11H1064.41H1088.18H1111.94H1135.71H1159.47H1183.24H1207.01V1136.99H1230.77H1254.54H1278.31H1302.07H1325.84V1118.86H1349.6H1373.37H1397.14V1100.74H1420.9H1444.67V1082.62H1468.44V1064.49V1046.37V1028.24V1010.12V991.995H1444.67V973.871V955.747H1420.9V937.623V919.498H1397.14V901.374V883.25H1373.37V865.126V847.002V828.878H1349.6V810.753V792.629V774.505V756.381V738.257V720.133V702.008V683.884V665.76H1373.37V647.636V629.512V611.388V593.263H1397.14V575.139V557.015V538.891V520.767H1420.9V502.643V484.518V466.394V448.27H1444.67V430.146V412.022V393.898V375.773V357.649V339.525V321.401H1468.44V303.277V285.153V267.028V248.904V230.78V212.656V194.532V176.408V158.283H1492.2V140.159V122.035V103.911V85.7867V67.6625V49.5383V31.4142H1515.97V13.29V-4.83418V-22.9584V-41.0825V-59.2067V-77.3309H1492.2V-95.455V-113.579V-131.703V-149.828H1468.44V-167.952V-186.076H1444.67V-204.2V-222.324H1420.9H1397.14H1373.37V-204.2H1397.14V-186.076V-167.952V-149.828H1420.9V-131.703V-113.579H1444.67V-95.455V-77.3309V-59.2067V-41.0825H1468.44V-22.9584V-4.83418V13.29V31.4142V49.5383V67.6625V85.7867H1444.67V103.911V122.035V140.159V158.283V176.408V194.532V212.656V230.78V248.904H1420.9V267.028V285.153V303.277V321.401V339.525V357.649V375.773H1397.14V393.898V412.022V430.146V448.27V466.394H1373.37V484.518V502.643V520.767V538.891H1349.6V557.015V575.139V593.263V611.388H1325.84V629.512V647.636V665.76H1302.07V683.884V702.008V720.133V738.257V756.381V774.505V792.629V810.753V828.878V847.002V865.126V883.25V901.374H1325.84V919.498V937.623V955.747V973.871V991.995V1010.12V1028.24H1302.07V1046.37H1278.31V1064.49H1254.54H1230.77V1082.62H1207.01H1183.24H1159.47V1100.74H1135.71H1111.94H1088.18H1064.41V1118.86H1040.64H1016.88H993.11H969.344H945.577V1136.99H921.811H898.045H874.278V1155.11H850.512H826.746H802.98H779.213V1173.24H755.447H731.681V1191.36H707.914H684.148V1209.49H660.382V1227.61H636.615V1245.73H612.849V1263.86H589.083V1281.98H565.317V1300.11H541.55V1318.23H517.784V1336.35V1354.48H494.018V1372.6H470.251V1390.73V1408.85H446.485V1426.98H422.719V1445.1V1463.22Z" fill="black"/>
<path d="M494.016 1463.22H517.782V1445.1H541.548V1426.98H565.315V1408.85H589.081V1390.73H612.847V1372.6H636.613V1354.48H660.38V1336.35H684.146V1318.23H707.912H731.679V1300.11H755.445H779.211V1281.98H802.978H826.744H850.51V1263.86H874.276H898.043H921.809H945.575H969.342H993.108H1016.87V1245.73H1040.64H1064.41H1088.17H1111.94H1135.71H1159.47H1183.24H1207H1230.77H1254.54H1278.3H1302.07H1325.84H1349.6V1227.61H1373.37H1397.14H1420.9H1444.67H1468.43H1492.2H1515.97V1209.49H1539.73H1563.5H1587.27H1611.03H1634.8V1191.36H1658.56H1682.33H1706.1H1729.86V1173.24H1753.63H1777.4V1155.11H1801.16V1136.99V1118.86V1100.74H1777.4V1082.62H1753.63V1064.49V1046.37H1729.86V1028.24H1706.1V1010.12H1682.33V991.995H1658.56V973.871H1634.8V955.747H1611.03V937.623H1587.27V919.498H1563.5V901.374H1539.73V883.25H1515.97V865.126H1492.2V847.002V828.878H1468.43V810.753V792.629V774.505H1444.67V756.381V738.257V720.133V702.008V683.884V665.76V647.636V629.512H1468.43V611.388V593.263V575.139V557.015V538.891H1492.2V520.767V502.643V484.518V466.394V448.27V430.146H1515.97V412.022V393.898V375.773V357.649V339.525V321.401V303.277V285.153V267.028H1539.73V248.904V230.78V212.656V194.532V176.408V158.283V140.159H1563.5V122.035V103.911V85.7867V67.6625V49.5383V31.4142H1587.27V13.29V-4.83418V-22.9584V-41.0825V-59.2067V-77.3309H1611.03V-95.455V-113.579V-131.703V-149.828V-167.952V-186.076H1587.27V-204.2V-222.324H1563.5H1539.73H1515.97V-204.2H1539.73V-186.076V-167.952V-149.828V-131.703H1563.5V-113.579V-95.455V-77.3309V-59.2067V-41.0825V-22.9584H1539.73V-4.83418V13.29V31.4142V49.5383V67.6625V85.7867H1515.97V103.911V122.035V140.159V158.283V176.408V194.532V212.656H1492.2V230.78V248.904V267.028V285.153V303.277V321.401V339.525V357.649V375.773H1468.43V393.898V412.022V430.146V448.27V466.394V484.518H1444.67V502.643V520.767V538.891V557.015V575.139H1420.9V593.263V611.388V629.512V647.636H1397.14V665.76V683.884V702.008V720.133V738.257V756.381V774.505V792.629H1420.9V810.753V828.878V847.002H1444.67V865.126V883.25H1468.43V901.374H1492.2V919.498V937.623H1515.97V955.747H1539.73V973.871H1563.5V991.995H1587.27V1010.12V1028.24H1611.03V1046.37H1634.8V1064.49V1082.62V1100.74V1118.86H1611.03V1136.99H1587.27H1563.5V1155.11H1539.73H1515.97H1492.2V1173.24H1468.43H1444.67H1420.9H1397.14H1373.37V1191.36H1349.6H1325.84H1302.07H1278.3H1254.54H1230.77H1207H1183.24V1209.49H1159.47H1135.71H1111.94H1088.17H1064.41H1040.64H1016.87H993.108H969.342V1227.61H945.575H921.809H898.043H874.276H850.51V1245.73H826.744H802.978H779.211V1263.86H755.445H731.679V1281.98H707.912H684.146V1300.11H660.38V1318.23H636.613V1336.35H612.847V1354.48H589.081V1372.6H565.315V1390.73H541.548V1408.85H517.782V1426.98H494.016V1445.1V1463.22Z" fill="black"/>
<path d="M161.29 1481.35H185.056V1463.22V1445.1H208.822V1426.98V1408.85H232.589V1390.73V1372.6H256.355V1354.48V1336.35H280.121V1318.23V1300.11V1281.98H303.888V1263.86V1245.73V1227.61H327.654V1209.49V1191.36V1173.24H351.42V1155.11V1136.99H375.186V1118.86V1100.74V1082.62H398.953V1064.49V1046.37H422.719V1028.24V1010.12V991.995H446.485V973.871V955.747H470.252V937.623H494.018V919.498V901.374H517.784V883.25H541.551V865.126H565.317V847.002H589.083V828.878H612.849H636.616V810.753H660.382V792.629H684.148H707.915V774.505H731.681V756.381H755.447H779.214V738.257H802.98V720.133H826.746V702.008H850.512V683.884H874.279V665.76H898.045V647.636H921.811V629.512V611.388H945.578V593.263V575.139H969.344V557.015V538.891H993.11V520.767V502.643V484.518H1016.88V466.394V448.27H1040.64V430.146V412.022V393.898H1064.41V375.773V357.649H1088.18V339.525V321.401V303.277H1111.94V285.152V267.028V248.904V230.78V212.656V194.532H1135.71V176.407V158.283V140.159V122.035H1111.94V103.911V85.7866V67.6625V49.5383V31.4141V13.29V-4.8342H1088.18V-22.9584V-41.0825V-59.2067V-77.3309V-95.455H1064.41V-113.579V-131.703V-149.828V-167.952V-186.076V-204.2H1040.64V-222.324H1016.88V-204.2V-186.076V-167.952V-149.828V-131.703H1040.64V-113.579V-95.455V-77.3309V-59.2067V-41.0825V-22.9584H1064.41V-4.8342V13.29V31.4141V49.5383V67.6625V85.7866V103.911V122.035V140.159V158.283V176.407V194.532V212.656V230.78V248.904H1040.64V267.028V285.152V303.277H1016.88V321.401V339.525V357.649H993.11V375.773V393.898H969.344V412.022V430.146H945.578V448.27V466.394V484.518H921.811V502.643V520.767H898.045V538.891V557.015H874.279V575.139H850.512V593.263V611.388H826.746V629.512H802.98V647.636H779.214V665.76H755.447V683.884H731.681H707.915V702.008H684.148V720.133H660.382H636.616V738.257H612.849H589.083V756.381H565.317V774.505H541.551V792.629H517.784V810.753H494.018V828.878H470.252V847.002H446.485V865.126V883.25H422.719V901.374V919.498H398.953V937.623V955.747V973.871H375.186V991.995V1010.12V1028.24H351.42V1046.37V1064.49V1082.62H327.654V1100.74V1118.86V1136.99H303.888V1155.11V1173.24V1191.36H280.121V1209.49V1227.61V1245.73H256.355V1263.86V1281.98V1300.11H232.589V1318.23V1336.35V1354.48H208.822V1372.6V1390.73H185.056V1408.85V1426.98H161.29V1445.1V1463.22H137.523V1481.35V1499.47H161.29V1481.35Z" fill="black"/>
<path d="M-28.847 1553.84V1535.72H-5.08068V1517.6V1499.47H18.6856V1481.35V1463.22H42.4519V1445.1V1426.98H66.2182V1408.85V1390.73H89.9845V1372.6V1354.48H113.751V1336.35V1318.23V1300.11H137.517V1281.98V1263.86V1245.73H161.283V1227.61V1209.49V1191.36H185.05V1173.24V1155.11V1136.99H208.816V1118.86V1100.74V1082.62V1064.49H232.582V1046.37V1028.24V1010.12V991.995V973.871V955.747V937.623H256.349V919.498V901.374V883.25V865.126V847.002V828.878V810.753V792.629V774.505V756.381H280.115V738.257V720.133V702.008V683.884V665.76V647.636V629.512H303.881V611.388V593.263V575.139V557.015H327.647V538.891V520.767V502.643H351.414V484.518H375.18V466.394H398.946V448.27H422.713V430.146H446.479H470.245H494.012V412.022H517.778H541.544H565.31H589.077V393.898H612.843H636.609V375.773H660.376V357.649H684.142V339.525H707.908V321.401H731.675V303.277H755.441V285.152V267.028H779.207V248.904H802.973V230.78H826.74V212.656H850.506V194.532V176.407H874.272V158.283V140.159H898.039V122.035V103.911V85.7866H921.805V67.6625V49.5383V31.4141V13.29V-4.8342V-22.9584V-41.0825V-59.2067V-77.3309V-95.455V-113.579V-131.703V-149.828V-167.952V-186.076V-204.2V-222.324H898.039H874.272V-204.2V-186.076V-167.952V-149.828V-131.703V-113.579V-95.455V-77.3309V-59.2067V-41.0825V-22.9584V-4.8342V13.29V31.4141H850.506V49.5383V67.6625V85.7866H826.74V103.911V122.035H802.973V140.159H779.207V158.283H755.441V176.407H731.675V194.532H707.908H684.142V212.656H660.376V230.78H636.609V248.904H612.843V267.028H589.077H565.31H541.544V285.152H517.778H494.012H470.245H446.479H422.713H398.946H375.18H351.414V303.277H327.647H303.881V321.401V339.525H280.115V357.649V375.773V393.898H256.349V412.022V430.146V448.27V466.394V484.518H232.582V502.643V520.767V538.891V557.015V575.139V593.263V611.388V629.512V647.636H208.816V665.76V683.884V702.008V720.133V738.257V756.381V774.505V792.629V810.753V828.878V847.002V865.126V883.25V901.374V919.498V937.623V955.747H185.05V973.871V991.995V1010.12V1028.24V1046.37V1064.49V1082.62H161.283V1100.74V1118.86V1136.99V1155.11H137.517V1173.24V1191.36V1209.49H113.751V1227.61V1245.73H89.9845V1263.86V1281.98V1300.11H66.2182V1318.23V1336.35V1354.48H42.4519V1372.6V1390.73H18.6856V1408.85V1426.98V1445.1H-5.08068V1463.22V1481.35H-28.847V1499.47V1517.6H-52.6133V1535.72V1553.84V1571.97H-28.847V1553.84Z" fill="black"/>
<path d="M18.696 1571.97H42.4623V1553.84V1535.72H66.2286V1517.6H89.9949V1499.47V1481.35H113.761V1463.22V1445.1H137.527V1426.97V1408.85H161.294V1390.73V1372.6H185.06V1354.48V1336.35V1318.23H208.826V1300.11V1281.98V1263.86H232.593V1245.73V1227.61V1209.48H256.359V1191.36V1173.24V1155.11H280.125V1136.99V1118.86V1100.74H303.892V1082.62V1064.49V1046.37V1028.24H327.658V1010.12V991.995V973.871V955.747H351.424V937.622V919.498V901.374V883.25H375.19V865.126V847.002V828.877H398.957V810.753V792.629H422.723V774.505V756.381H446.489V738.257V720.132H470.256V702.008H494.022V683.884H517.788H541.555V665.76H565.321V647.636H589.087H612.853V629.512H636.62H660.386V611.387H684.152H707.919V593.263H731.685V575.139H755.451V557.015H779.218V538.891H802.984V520.767V502.642H826.75V484.518H850.516V466.394V448.27H874.283V430.146V412.022H898.049V393.897V375.773H921.815V357.649V339.525H945.582V321.401V303.277H969.348V285.152V267.028H993.114V248.904V230.78V212.656H1016.88V194.532V176.407V158.283V140.159V122.035V103.911V85.7866V67.6625V49.5383V31.4141V13.29V-4.83422V-22.9584V-41.0825H993.114V-59.2067V-77.3309V-95.455V-113.579V-131.703V-149.828V-167.952V-186.076V-204.2H969.348V-222.324H945.582V-204.2V-186.076V-167.952V-149.828V-131.703V-113.579H969.348V-95.455V-77.3309V-59.2067V-41.0825V-22.9584V-4.83422V13.29V31.4141V49.5383V67.6625V85.7866V103.911V122.035V140.159H945.582V158.283V176.407V194.532V212.656H921.815V230.78V248.904H898.049V267.028H874.283V285.152V303.277H850.516V321.401V339.525H826.75V357.649H802.984V375.773V393.897H779.218V412.022V430.146H755.451V448.27H731.685V466.394H707.919V484.518H684.152V502.642H660.386H636.62V520.767H612.853V538.891H589.087H565.321H541.555V557.015H517.788H494.022V575.139H470.256H446.489V593.263H422.723V611.387V629.512H398.957V647.636H375.19V665.76V683.884H351.424V702.008V720.132V738.257V756.381H327.658V774.505V792.629V810.753V828.877H303.892V847.002V865.126V883.25V901.374V919.498V937.622H280.125V955.747V973.871V991.995V1010.12V1028.24V1046.37H256.359V1064.49V1082.62V1100.74V1118.86H232.593V1136.99V1155.11V1173.24H208.826V1191.36V1209.48V1227.61H185.06V1245.73V1263.86V1281.98H161.294V1300.11V1318.23V1336.35H137.527V1354.48V1372.6V1390.73H113.761V1408.85V1426.97H89.9949V1445.1V1463.22H66.2286V1481.35V1499.47H42.4623V1517.6H18.696V1535.72V1553.84H-5.07031V1571.97V1590.09H18.696V1571.97Z" fill="black"/>
</g>
<defs>
<clipPath id="clip0_2016_1252">
<rect width="1920" height="1080" fill="white"/>
</clipPath>
</defs>
</svg>
