<svg width="3000" height="1076" viewBox="0 0 3000 1076" fill="none" xmlns="http://www.w3.org/2000/svg">
<g clip-path="url(#clip0_2016_1252)">
<rect width="3000" height="1076" fill="#F42984"/>
<path d="M2963.86 -229.111V-211.471V-193.83V-176.189V-158.548H2927.71V-140.907V-123.267V-105.626V-87.9852V-70.3444H2891.57V-52.7036V-35.0629V-17.4221V0.218681V17.8595V35.5002H2927.71V17.8595V0.218681V-17.4221V-35.0629H2963.86V-52.7036V-70.3444V-87.9852V-105.626V-123.267H3000V-140.907V-158.548V-176.189V-193.83V-211.471V-229.111H2963.86Z" fill="black"/>
<path d="M2710.84 -17.4237V0.217087V17.8579V35.4986H2674.69V53.1394V70.7802V88.4209V106.062V123.702V141.343H2638.55V158.984V176.625V194.266V211.906V229.547V247.188V264.829H2602.4V282.469V300.11V317.751V335.392V353.032V370.673V388.314V405.955V423.596V441.236V458.877V476.518V494.159V511.799V529.44H2566.26V547.081V564.722V582.362V600.003V617.644H2602.4V635.285V652.926V670.566V688.207V705.848H2638.55V723.489V741.129H2674.69V758.77H2710.84V776.411V794.052H2746.98V811.693H2783.12V829.333H2819.27H2855.41V846.974H2891.56V864.615H2927.7H2963.85V882.256H2999.99V864.615V846.974H2963.85H2927.7V829.333H2891.56V811.693H2855.41V794.052H2819.27H2783.12V776.411V758.77H2746.98V741.129H2710.84V723.489V705.848H2674.69V688.207V670.566V652.926H2638.55V635.285V617.644V600.003V582.362V564.722V547.081V529.44V511.799V494.159V476.518V458.877V441.236V423.596V405.955V388.314V370.673V353.032V335.392V317.751H2674.69V300.11V282.469V264.829V247.188V229.547V211.906V194.266V176.625V158.984H2710.84V141.343V123.702V106.062V88.4209V70.7802V53.1394H2746.98V35.4986V17.8579V0.217087V-17.4237V-35.0645H2710.84V-17.4237Z" fill="black"/>
<path d="M2963.85 0.217087V17.8579V35.4986H2999.99V17.8579V0.217087V-17.4237V-35.0645H2963.85V-17.4237V0.217087Z" fill="black"/>
<path d="M2674.7 0.2187V-17.4221V-35.0628V-52.7036H2710.85V-70.3444V-87.9852V-105.626V-123.267H2746.99V-140.907V-158.548V-176.189V-193.83V-211.471H2783.14V-229.111H2746.99H2710.85V-211.471V-193.83V-176.189V-158.548V-140.907H2674.7V-123.267V-105.626V-87.9852V-70.3444H2638.56V-52.7036V-35.0628V-17.4221V0.2187V17.8595H2602.41V35.5002V53.141V70.7818V88.4226V106.063H2566.27V123.704V141.345V158.986V176.626V194.267V211.908H2530.12V229.549V247.189V264.83V282.471V300.112V317.753V335.393V353.034V370.675V388.316V405.956H2493.98V423.597V441.238V458.879V476.52V494.16V511.801V529.442V547.083H2457.84V564.723V582.364V600.005V617.646V635.286V652.927V670.568H2493.98V688.209V705.85V723.49V741.131H2530.12V758.772V776.413H2566.27V794.053H2602.41V811.694H2638.56V829.335H2674.7V846.976H2710.85V864.616H2746.99V882.257H2783.14V899.898H2819.28H2855.42V917.539H2891.57V935.18H2927.71H2963.86V952.82H3000V935.18V917.539H2963.86V899.898H2927.71H2891.57V882.257H2855.42V864.616H2819.28H2783.14V846.976H2746.99V829.335H2710.85V811.694H2674.7V794.053H2638.56V776.413V758.772H2602.41V741.131H2566.27V723.49V705.85V688.209H2530.12V670.568V652.927V635.286V617.646V600.005V582.364V564.723V547.083V529.442V511.801V494.16V476.52V458.879H2566.27V441.238V423.597V405.956V388.316V370.675V353.034V335.393V317.753V300.112V282.471V264.83V247.189V229.549H2602.41V211.908V194.267V176.626V158.986V141.345V123.704H2638.56V106.063V88.4226V70.7818V53.141V35.5002H2674.7V17.8595V0.2187Z" fill="black"/>
<path d="M36.1444 35.5003V17.8595V0.218719V-17.4221V-35.0628V-52.7036V-70.3444V-87.9851H72.2888V-105.626V-123.267V-140.907V-158.548V-176.189V-193.83V-211.471V-229.111H36.1444V-211.471V-193.83V-176.189V-158.548V-140.907V-123.267V-105.626H0V-87.9851V-70.3444V-52.7036V-35.0628V-17.4221V0.218719V17.8595V35.5003V53.141V70.7818H36.1444V53.141V35.5003Z" fill="black"/>
<path d="M2855.41 53.1369V70.7776V88.4184V106.059V123.7H2819.27V141.341V158.982V176.622V194.263V211.904V229.545V247.185V264.826H2783.12V282.467V300.108V317.748V335.389V353.03V370.671V388.312V405.952V423.593V441.234V458.875V476.515V494.156V511.797V529.438V547.079V564.719V582.36V600.001H2819.27V617.642V635.282V652.923H2855.41V670.564V688.205H2891.56V705.845V723.486H2927.7V741.127H2963.85H2999.99V723.486V705.845H2963.85V688.205H2927.7V670.564H2891.56V652.923V635.282V617.642H2855.41V600.001V582.36V564.719V547.079V529.438H2819.27V511.797V494.156V476.515V458.875V441.234V423.593V405.952V388.312V370.671V353.03V335.389V317.748V300.108V282.467H2855.41V264.826V247.185V229.545V211.904V194.263V176.622V158.982V141.341H2891.56V123.7V106.059V88.4184V70.7776V53.1369V35.4961H2855.41V53.1369Z" fill="black"/>
<path d="M2963.85 88.4222V70.7814V53.1406H2927.71V70.7814V88.4222V106.063V123.704H2963.85V141.344V158.985V176.626V194.267H3000V176.626V158.985V141.344V123.704V106.063H2963.85V88.4222Z" fill="black"/>
<path d="M2891.57 176.629V194.27V211.911V229.552V247.192V264.833H2927.71V282.474V300.115V317.755V335.396V353.037V370.678V388.318V405.959H2963.86V388.318V370.678V353.037V335.396V317.755V300.115V282.474V264.833V247.192V229.552H2927.71V211.911V194.27V176.629V158.988V141.348H2891.57V158.988V176.629Z" fill="black"/>
<path d="M2855.41 317.746V335.387V353.028V370.669V388.309V405.95V423.591V441.232V458.873H2891.56V476.513V494.154V511.795V529.436V547.076V564.717V582.358H2927.7V599.999V617.64V635.28H2963.85V652.921H2999.99V635.28V617.64V599.999H2963.85V582.358V564.717V547.076H2927.7V529.436V511.795V494.154V476.513V458.873V441.232V423.591H2891.56V405.95V388.309V370.669V353.028V335.387V317.746V300.106V282.465H2855.41V300.106V317.746Z" fill="black"/>
<path d="M36.1444 335.393V317.753V300.112V282.471V264.83V247.189V229.549V211.908H72.2888V194.267V176.626V158.986V141.345V123.704V106.063V88.4226H108.433V70.7818V53.141V35.5002V17.8595V0.2187V-17.4221V-35.0628V-52.7036H144.578V-70.3444V-87.9852V-105.626V-123.267V-140.907V-158.548V-176.189V-193.83V-211.471V-229.111H108.433V-211.471V-193.83V-176.189V-158.548V-140.907V-123.267V-105.626V-87.9852V-70.3444H72.2888V-52.7036V-35.0628V-17.4221V0.2187V17.8595V35.5002V53.141V70.7818H36.1444V88.4226V106.063V123.704V141.345V158.986V176.626V194.267H0V211.908V229.549V247.189V264.83V282.471V300.112V317.753V335.393V353.034H36.1444V335.393Z" fill="black"/>
<path d="M2963.85 441.233V458.873V476.514V494.155V511.796H2999.99V494.155V476.514V458.873V441.233V423.592V405.951H2963.85V423.592V441.233Z" fill="black"/>
<path d="M2927.7 776.412V758.772H2891.56V741.131H2855.41V723.49H2819.27V705.849V688.209H2783.12V670.568V652.927V635.286H2746.98V617.645V600.005V582.364V564.723V547.082V529.442V511.801V494.16V476.519V458.879V441.238V423.597V405.956V388.316V370.675V353.034V335.393V317.752V300.112V282.471V264.83V247.189V229.549H2783.12V211.908V194.267V176.626V158.986V141.345V123.704V106.063H2819.27V88.4225V70.7817V53.1409V35.5002V17.8594V0.218644H2855.41V-17.4221V-35.0629V-52.7037V-70.3444V-87.9852H2891.56V-105.626V-123.267V-140.907V-158.548V-176.189H2927.7V-193.83V-211.471V-229.111H2891.56V-211.471V-193.83H2855.41V-176.189V-158.548V-140.907V-123.267V-105.626H2819.27V-87.9852V-70.3444V-52.7037V-35.0629V-17.4221H2783.12V0.218644V17.8594V35.5002V53.1409V70.7817V88.4225H2746.98V106.063V123.704V141.345V158.986V176.626V194.267H2710.84V211.908V229.549V247.189V264.83V282.471V300.112V317.752V335.393V353.034V370.675V388.316V405.956V423.597H2674.69V441.238V458.879V476.519V494.16V511.801V529.442V547.082V564.723V582.364V600.005H2710.84V617.645V635.286V652.927V670.568H2746.98V688.209V705.849V723.49H2783.12V741.131H2819.27V758.772H2855.41V776.412H2891.56V794.053H2927.7V811.694H2963.85H2999.99V794.053V776.412H2963.85H2927.7Z" fill="black"/>
<path d="M2927.71 988.102V970.461H2891.57V952.82H2855.42H2819.28V935.18H2783.14V917.539H2746.99V899.898H2710.85H2674.7V882.257H2638.56V864.617H2602.41V846.976H2566.27V829.335H2530.12V811.694V794.053H2493.98V776.413H2457.84V758.772V741.131H2421.69V723.49V705.85V688.209V670.568V652.927V635.287V617.646V600.005V582.364V564.723V547.083V529.442V511.801V494.16H2457.84V476.52V458.879V441.238V423.597V405.956V388.316V370.675V353.034H2493.98V335.393V317.753V300.112V282.471V264.83V247.19V229.549V211.908V194.267V176.626H2530.12V158.986V141.345V123.704V106.063V88.4226V70.7818H2566.27V53.141V35.5003V17.8595V0.218719H2602.41V-17.4221V-35.0628V-52.7036V-70.3444V-87.9851H2638.56V-105.626V-123.267V-140.907V-158.548V-176.189V-193.83H2674.7V-211.471V-229.111H2638.56H2602.41V-211.471V-193.83V-176.189V-158.548V-140.907H2566.27V-123.267V-105.626V-87.9851V-70.3444V-52.7036V-35.0628H2530.12V-17.4221V0.218719V17.8595V35.5003V53.141H2493.98V70.7818V88.4226V106.063V123.704V141.345V158.986H2457.84V176.626V194.267V211.908V229.549V247.19V264.83V282.471V300.112H2421.69V317.753V335.393V353.034V370.675V388.316V405.956V423.597V441.238V458.879H2385.55V476.52V494.16V511.801V529.442V547.083H2349.4V564.723V582.364V600.005V617.646V635.287V652.927V670.568V688.209V705.85V723.49V741.131H2385.55V758.772V776.413H2421.69V794.053V811.694H2457.84V829.335H2493.98V846.976H2530.12V864.617H2566.27V882.257H2602.41V899.898H2638.56V917.539H2674.7V935.18H2710.85V952.82H2746.99V970.461H2783.14V988.102H2819.28H2855.42V1005.74H2891.57V1023.38H2927.71V1041.02H2963.86V1058.67H3000V1041.02V1023.38V1005.74V988.102H2963.86H2927.71Z" fill="black"/>
<path d="M36.1444 1058.66V1041.02V1023.38H72.2888V1005.74V988.102V970.461V952.82V935.179H108.433V917.539V899.898V882.257V864.616V846.976V829.335V811.694V794.053V776.412V758.772V741.131V723.49V705.849V688.209V670.568V652.927V635.286V617.646V600.005V582.364V564.723V547.082V529.442V511.801V494.16V476.519V458.879V441.238V423.597V405.956V388.316V370.675V353.034V335.393V317.752V300.112V282.471V264.83H144.578V247.189V229.549V211.908V194.267V176.626V158.986V141.345H180.722V123.704V106.063V88.4225V70.7817V53.141V35.5002V17.8594H216.866V0.218663V-17.4221V-35.0629V-52.7036V-70.3444V-87.9852V-105.626V-123.267V-140.907V-158.548V-176.189V-193.83V-211.471V-229.111H180.722V-211.471V-193.83V-176.189V-158.548V-140.907V-123.267V-105.626V-87.9852V-70.3444V-52.7036V-35.0629H144.578V-17.4221V0.218663V17.8594V35.5002V53.141V70.7817V88.4225V106.063H108.433V123.704V141.345V158.986V176.626V194.267V211.908V229.549H72.2888V247.189V264.83V282.471V300.112V317.752V335.393V353.034V370.675V388.316H36.1444V405.956V423.597V441.238V458.879V476.519V494.16V511.801V529.442V547.082V564.723V582.364V600.005V617.646V635.286V652.927V670.568V688.209V705.849H72.2888V723.49V741.131V758.772V776.412V794.053V811.694V829.335V846.976V864.616H36.1444V882.257V899.898V917.539V935.179V952.82V970.461V988.102V1005.74H0V1023.38V1041.02V1058.66V1076.31H36.1444V1058.66Z" fill="black"/>
<path d="M36.1444 1182.15V1164.51H72.2888V1146.87V1129.23H108.433V1111.59V1093.95H144.578V1076.31V1058.66V1041.02H180.722V1023.38V1005.74V988.102V970.461V952.82V935.179V917.539H216.866V899.898V882.257V864.616V846.976V829.335V811.694V794.053V776.413V758.772V741.131V723.49V705.849V688.209V670.568V652.927V635.286V617.646H180.722V600.005V582.364V564.723V547.083V529.442V511.801V494.16V476.519H216.866V458.879V441.238V423.597V405.956V388.316V370.675V353.034V335.393V317.753V300.112V282.471V264.83H253.011V247.189V229.549V211.908V194.267V176.626V158.986H289.155V141.345V123.704V106.063V88.4225V70.7818V53.141V35.5002H325.3V17.8595V0.218681V-17.4221V-35.0629V-52.7036V-70.3444V-87.9852V-105.626V-123.267H361.444V-140.907V-158.548V-176.189V-193.83V-211.471H397.588V-229.111H361.444H325.3H289.155V-211.471V-193.83V-176.189V-158.548V-140.907V-123.267V-105.626V-87.9852H253.011V-70.3444V-52.7036V-35.0629V-17.4221V0.218681V17.8595V35.5002V53.141V70.7818H216.866V88.4225V106.063V123.704V141.345V158.986V176.626V194.267H180.722V211.908V229.549V247.189V264.83V282.471V300.112V317.753H144.578V335.393V353.034V370.675V388.316V405.956V423.597V441.238V458.879V476.519V494.16V511.801V529.442V547.083V564.723V582.364V600.005V617.646V635.286V652.927V670.568V688.209V705.849V723.49V741.131V758.772V776.413V794.053V811.694V829.335V846.976V864.616V882.257V899.898V917.539V935.179V952.82V970.461V988.102H108.433V1005.74V1023.38V1041.02V1058.66H72.2888V1076.31V1093.95V1111.59H36.1444V1129.23V1146.87H0V1164.51V1182.15V1199.79H36.1444V1182.15Z" fill="black"/>
<path d="M650.605 1323.28V1305.64H686.75V1287.99V1270.35H722.894V1252.71V1235.07H759.039V1217.43V1199.79H795.183V1182.15V1164.51H831.327V1146.87H867.472V1129.23V1111.59H903.616V1093.95H939.761V1076.31H975.905V1058.66H1012.05V1041.02H1048.19V1023.38H1084.34H1120.48V1005.74H1156.63H1192.77V988.102H1228.92H1265.06V970.461H1301.2H1337.35V952.82H1373.49V935.179H1409.64H1445.78V917.539H1481.93H1518.07V899.898H1554.22V882.257H1590.36V864.616H1626.5V846.976H1662.65V829.335H1698.79V811.694V794.053H1734.94V776.413V758.772H1771.08V741.131V723.49H1807.23V705.849V688.209V670.568H1843.37V652.927V635.286V617.646H1879.52V600.005V582.364V564.723H1915.66V547.083V529.442V511.801H1951.8V494.16V476.519V458.879H1987.95V441.238V423.597V405.956H2024.09V388.316V370.675V353.034V335.393H2060.24V317.753V300.112V282.471V264.83V247.189V229.549H2096.38V211.908V194.267V176.626V158.986V141.345V123.704V106.063V88.4225V70.7818V53.141V35.5002H2060.24V17.8595V0.218681V-17.4221V-35.0629H2024.09V-52.7036V-70.3444V-87.9852V-105.626H1987.95V-123.267V-140.907V-158.548H1951.8V-176.189V-193.83V-211.471H1915.66V-229.111H1879.52H1843.37V-211.471H1879.52V-193.83V-176.189V-158.548H1915.66V-140.907V-123.267V-105.626V-87.9852H1951.8V-70.3444V-52.7036V-35.0629H1987.95V-17.4221V0.218681V17.8595V35.5002V53.141H2024.09V70.7818V88.4225V106.063V123.704V141.345V158.986V176.626V194.267V211.908V229.549V247.189H1987.95V264.83V282.471V300.112V317.753V335.393H1951.8V353.034V370.675V388.316V405.956H1915.66V423.597V441.238V458.879H1879.52V476.519V494.16V511.801H1843.37V529.442V547.083V564.723H1807.23V582.364V600.005H1771.08V617.646V635.286V652.927H1734.94V670.568V688.209H1698.79V705.849V723.49H1662.65V741.131V758.772H1626.5V776.413H1590.36V794.053V811.694H1554.22V829.335H1518.07V846.976H1481.93H1445.78V864.616H1409.64V882.257H1373.49V899.898H1337.35H1301.2V917.539H1265.06H1228.92V935.179H1192.77H1156.63V952.82H1120.48V970.461H1084.34H1048.19V988.102H1012.05V1005.74H975.905V1023.38H939.761V1041.02H903.616V1058.66H867.472V1076.31V1093.95H831.327V1111.59H795.183V1129.23V1146.87H759.039V1164.51V1182.15H722.894V1199.79V1217.43H686.75V1235.07V1252.71H650.605V1270.35V1287.99H614.461V1305.64V1323.28V1340.92H650.605V1323.28Z" fill="black"/>
<path d="M36.1444 1358.56V1340.92H72.2888V1323.28V1305.64V1288H108.433V1270.35V1252.71H144.578V1235.07V1217.43V1199.79H180.722V1182.15V1164.51H216.866V1146.87V1129.23V1111.59H253.011V1093.95V1076.31V1058.66H289.155V1041.02V1023.38V1005.74V988.102V970.461H325.3V952.82V935.18V917.539V899.898V882.257V864.616V846.976V829.335V811.694V794.053V776.413V758.772V741.131V723.49V705.85V688.209V670.568V652.927V635.286V617.646V600.005V582.364V564.723V547.083V529.442V511.801V494.16V476.52H361.444V458.879V441.238V423.597V405.956V388.316V370.675V353.034V335.393V317.753H397.588V300.112V282.471V264.83V247.189V229.549H433.733V211.908V194.267V176.626V158.986H469.877V141.345V123.704H506.022V106.063H542.166H578.311V88.4226H614.455V106.063H650.599H686.744H722.888H759.033V123.704H795.177H831.321H867.466H903.61H939.755V106.063H975.899H1012.04V88.4226H1048.19H1084.33H1120.48V70.7818H1156.62H1192.77V53.141H1228.91V35.5002H1265.05V17.8595V0.2187H1301.2V-17.4221V-35.0628H1337.34V-52.7036V-70.3444V-87.9852V-105.626V-123.267V-140.907V-158.548V-176.189V-193.83H1373.49V-211.471V-229.111H1337.34H1301.2V-211.471V-193.83V-176.189H1265.05V-158.548V-140.907V-123.267V-105.626H1228.91V-87.9852V-70.3444V-52.7036H1192.77V-35.0628H1156.62V-17.4221H1120.48H1084.33H1048.19H1012.04H975.899H939.755H903.61H867.466H831.321H795.177H759.033V-35.0628H722.888H686.744V-52.7036H650.599H614.455V-70.3444H578.311H542.166H506.022H469.877H433.733V-52.7036V-35.0628V-17.4221H397.588V0.2187V17.8595V35.5002V53.141H361.444V70.7818V88.4226V106.063V123.704V141.345V158.986H325.3V176.626V194.267V211.908V229.549V247.189V264.83H289.155V282.471V300.112V317.753V335.393V353.034V370.675V388.316V405.956V423.597H253.011V441.238V458.879V476.52V494.16V511.801V529.442V547.083V564.723V582.364V600.005V617.646V635.286V652.927V670.568V688.209V705.85V723.49V741.131V758.772V776.413V794.053V811.694V829.335V846.976V864.616V882.257V899.898V917.539V935.18V952.82V970.461V988.102V1005.74H216.866V1023.38V1041.02V1058.66V1076.31H180.722V1093.95V1111.59V1129.23H144.578V1146.87V1164.51H108.433V1182.15V1199.79H72.2888V1217.43V1235.07H36.1444V1252.71V1270.35V1288H0V1305.64V1323.28V1340.92V1358.56V1376.2H36.1444V1358.56Z" fill="black"/>
<path d="M686.762 1376.2H722.906V1358.56V1340.92H759.05V1323.28V1305.64H795.195V1287.99H831.339V1270.35V1252.71H867.484V1235.07V1217.43H903.628V1199.79H939.772V1182.15H975.917V1164.51H1012.06V1146.87H1048.21V1129.23H1084.35V1111.59H1120.49H1156.64V1093.95H1192.78H1228.93V1076.31H1265.07H1301.22H1337.36V1058.66H1373.51H1409.65V1041.02H1445.79H1481.94H1518.08V1023.38H1554.23H1590.37H1626.52V1005.74H1662.66H1698.8H1734.95V988.102H1771.09H1807.24V970.461H1843.38V952.82H1879.53V935.179H1915.67V917.539V899.898V882.257H1951.82V864.616V846.976V829.335V811.694V794.053V776.413V758.772V741.131V723.49H1987.96V705.849V688.209V670.568V652.927V635.286H2024.1V617.646V600.005V582.364H2060.25V564.723V547.083V529.442H2096.39V511.801V494.16V476.519V458.879H2132.54V441.238V423.597V405.956V388.316H2168.68V370.675V353.034V335.393V317.753V300.112H2204.83V282.471V264.83V247.189V229.549V211.908V194.267V176.626V158.986V141.345V123.704H2240.97V106.063V88.4225V70.7818V53.141V35.5002V17.8595V0.218681V-17.4221H2204.83V-35.0629V-52.7036V-70.3444V-87.9852H2168.68V-105.626V-123.267V-140.907H2132.54V-158.548V-176.189H2096.39V-193.83V-211.471V-229.111H2060.25H2024.1H1987.96V-211.471H2024.1V-193.83V-176.189V-158.548H2060.25V-140.907V-123.267H2096.39V-105.626V-87.9852V-70.3444H2132.54V-52.7036V-35.0629V-17.4221V0.218681V17.8595H2168.68V35.5002V53.141V70.7818V88.4225V106.063V123.704V141.345V158.986V176.626V194.267H2132.54V211.908V229.549V247.189V264.83V282.471V300.112V317.753V335.393H2096.39V353.034V370.675V388.316V405.956H2060.25V423.597V441.238V458.879H2024.1V476.519V494.16V511.801V529.442H1987.96V547.083V564.723V582.364H1951.82V600.005V617.646V635.286H1915.67V652.927V670.568V688.209H1879.53V705.849V723.49V741.131V758.772H1843.38V776.413V794.053V811.694H1807.24V829.335V846.976V864.616H1771.09V882.257V899.898H1734.95V917.539H1698.8V935.179H1662.66H1626.52V952.82H1590.37V970.461H1554.23H1518.08V988.102H1481.94H1445.79H1409.65V1005.74H1373.51H1337.36V1023.38H1301.22H1265.07V1041.02H1228.93H1192.78H1156.64V1058.66H1120.49V1076.31H1084.35H1048.21V1093.95H1012.06V1111.59H975.917V1129.23H939.772V1146.87H903.628V1164.51V1182.15H867.484V1199.79H831.339V1217.43V1235.07H795.195V1252.71H759.05V1270.35V1287.99H722.906V1305.64V1323.28H686.762V1340.92V1358.56H650.617V1376.2V1393.84H686.762V1376.2Z" fill="black"/>
<path d="M469.887 1393.84H506.031V1376.2V1358.56H542.175V1340.92V1323.28H578.32V1305.64V1288V1270.35H614.464V1252.71V1235.07H650.609V1217.43V1199.79V1182.15H686.753V1164.51V1146.87H722.897V1129.23V1111.59H759.042V1093.95V1076.31H795.186V1058.66V1041.02H831.331V1023.38H867.475V1005.74H903.619V988.102V970.461H939.764V952.82H975.908V935.18H1012.05H1048.2V917.539H1084.34V899.898H1120.49H1156.63V882.257H1192.77V864.616H1228.92H1265.06V846.976H1301.21H1337.35V829.335H1373.5V811.694H1409.64V794.053H1445.79V776.413H1481.93V758.772H1518.07V741.131H1554.22V723.49H1590.36V705.85V688.209H1626.51V670.568V652.927H1662.65V635.286V617.646H1698.8V600.005V582.364H1734.94V564.723V547.083H1771.09V529.442V511.801V494.16H1807.23V476.52V458.879V441.238H1843.37V423.597V405.956V388.316H1879.52V370.675V353.034V335.393V317.753H1915.66V300.112V282.471V264.83V247.189H1951.81V229.549V211.908V194.267V176.626V158.986V141.345V123.704V106.063V88.4226V70.7818H1915.66V53.141V35.5002V17.8595V0.2187V-17.4221H1879.52V-35.0628V-52.7036V-70.3444V-87.9852H1843.37V-105.626V-123.267V-140.907V-158.548H1807.23V-176.189V-193.83V-211.471V-229.111H1771.09H1734.94V-211.471V-193.83V-176.189H1771.09V-158.548V-140.907V-123.267V-105.626V-87.9852H1807.23V-70.3444V-52.7036V-35.0628V-17.4221H1843.37V0.2187V17.8595V35.5002V53.141V70.7818V88.4226H1879.52V106.063V123.704V141.345V158.986V176.626V194.267V211.908V229.549H1843.37V247.189V264.83V282.471V300.112H1807.23V317.753V335.393V353.034H1771.09V370.675V388.316V405.956H1734.94V423.597V441.238V458.879H1698.8V476.52V494.16V511.801H1662.65V529.442V547.083H1626.51V564.723V582.364V600.005H1590.36V617.646H1554.22V635.286V652.927H1518.07V670.568V688.209H1481.93V705.85H1445.79V723.49H1409.64V741.131H1373.5V758.772H1337.35V776.413H1301.21H1265.06V794.053H1228.92V811.694H1192.77H1156.63V829.335H1120.49H1084.34V846.976H1048.2V864.616H1012.05V882.257H975.908H939.764V899.898H903.619V917.539V935.18H867.475V952.82H831.331V970.461H795.186V988.102V1005.74H759.042V1023.38V1041.02H722.897V1058.66V1076.31H686.753V1093.95V1111.59V1129.23H650.609V1146.87V1164.51H614.464V1182.15V1199.79H578.32V1217.43V1235.07V1252.71H542.175V1270.35V1288V1305.64H506.031V1323.28V1340.92H469.887V1358.56V1376.2H433.742V1393.84V1411.48H469.887V1393.84Z" fill="black"/>
<path d="M722.898 1411.48H759.043V1393.84H795.187V1376.2H831.332V1358.56V1340.92H867.476V1323.28H903.62V1305.64V1288H939.765V1270.35H975.909V1252.71H1012.05V1235.07H1048.2V1217.43H1084.34H1120.49V1199.79H1156.63V1182.15H1192.78H1228.92V1164.51H1265.06H1301.21H1337.35V1146.87H1373.5H1409.64H1445.79H1481.93V1129.23H1518.08H1554.22H1590.36H1626.51H1662.65V1111.59H1698.8H1734.94H1771.09H1807.23H1843.38H1879.52H1915.66V1093.95H1951.81H1987.95H2024.1H2060.24H2096.39V1076.31H2132.53H2168.67H2204.82V1058.66H2240.96H2277.11V1041.02H2313.25V1023.38V1005.74V988.102V970.461V952.82H2277.11V935.18V917.539H2240.96V899.898V882.257H2204.82V864.616V846.976H2168.67V829.335V811.694V794.053H2132.53V776.413V758.772V741.131V723.49V705.85V688.209V670.568V652.927V635.286H2168.67V617.646V600.005V582.364V564.723H2204.82V547.083V529.442V511.801V494.16H2240.96V476.52V458.879V441.238V423.597H2277.11V405.956V388.316V370.675V353.034V335.393V317.753V300.112H2313.25V282.471V264.83V247.189V229.549V211.908V194.267V176.626V158.986V141.345H2349.4V123.704V106.063V88.4226V70.7818V53.141V35.5002V17.8595H2385.54V0.2187V-17.4221V-35.0628V-52.7036V-70.3444V-87.9852H2349.4V-105.626V-123.267V-140.907V-158.548H2313.25V-176.189V-193.83H2277.11V-211.471V-229.111H2240.96H2204.82H2168.67V-211.471H2204.82V-193.83V-176.189V-158.548H2240.96V-140.907V-123.267H2277.11V-105.626V-87.9852V-70.3444V-52.7036H2313.25V-35.0628V-17.4221V0.2187V17.8595V35.5002V53.141V70.7818H2277.11V88.4226V106.063V123.704V141.345V158.986V176.626V194.267V211.908V229.549H2240.96V247.189V264.83V282.471V300.112V317.753V335.393V353.034H2204.82V370.675V388.316V405.956V423.597V441.238H2168.67V458.879V476.52V494.16V511.801H2132.53V529.442V547.083V564.723V582.364H2096.39V600.005V617.646V635.286H2060.24V652.927V670.568V688.209V705.85V723.49V741.131V758.772V776.413V794.053V811.694V829.335V846.976V864.616H2096.39V882.257V899.898V917.539V935.18V952.82V970.461V988.102H2060.24V1005.74H2024.1V1023.38H1987.95H1951.81V1041.02H1915.66H1879.52H1843.38V1058.66H1807.23H1771.09H1734.94H1698.8V1076.31H1662.65H1626.51H1590.36H1554.22H1518.08V1093.95H1481.93H1445.79H1409.64V1111.59H1373.5H1337.35H1301.21H1265.06V1129.23H1228.92H1192.78V1146.87H1156.63H1120.49V1164.51H1084.34V1182.15H1048.2V1199.79H1012.05V1217.43H975.909V1235.07H939.765V1252.71H903.62V1270.35H867.476V1288V1305.64H831.332V1323.28H795.187V1340.92V1358.56H759.043V1376.2H722.898V1393.84V1411.48Z" fill="black"/>
<path d="M831.324 1411.48H867.469V1393.84H903.613V1376.2H939.757V1358.56H975.902V1340.92H1012.05V1323.28H1048.19V1305.64H1084.34V1288H1120.48V1270.35H1156.62H1192.77V1252.71H1228.91H1265.06V1235.07H1301.2H1337.35H1373.49V1217.43H1409.63H1445.78H1481.92H1518.07H1554.21H1590.36H1626.5V1199.79H1662.65H1698.79H1734.93H1771.08H1807.22H1843.37H1879.51H1915.66H1951.8H1987.95H2024.09H2060.23H2096.38H2132.52V1182.15H2168.67H2204.81H2240.96H2277.1H2313.24H2349.39H2385.53V1164.51H2421.68H2457.82H2493.97H2530.11H2566.26V1146.87H2602.4H2638.54H2674.69H2710.83V1129.23H2746.98H2783.12V1111.59H2819.27V1093.95V1076.31V1058.66H2783.12V1041.02H2746.98V1023.38V1005.74H2710.83V988.102H2674.69V970.461H2638.54V952.82H2602.4V935.18H2566.26V917.539H2530.11V899.898H2493.97V882.257H2457.82V864.616H2421.68V846.976H2385.53V829.335H2349.39V811.694V794.053H2313.24V776.413V758.772V741.131H2277.1V723.49V705.85V688.209V670.568V652.927V635.286V617.646V600.005H2313.24V582.364V564.723V547.083V529.442V511.801H2349.39V494.16V476.52V458.879V441.238V423.597V405.956H2385.53V388.316V370.675V353.034V335.393V317.753V300.112V282.471V264.83V247.189H2421.68V229.549V211.908V194.267V176.626V158.986V141.345V123.704H2457.82V106.063V88.4226V70.7818V53.141V35.5002V17.8595H2493.97V0.2187V-17.4221V-35.0628V-52.7036V-70.3444V-87.9852H2530.11V-105.626V-123.267V-140.907V-158.548V-176.189V-193.83H2493.97V-211.471V-229.111H2457.82H2421.68H2385.53V-211.471H2421.68V-193.83V-176.189V-158.548V-140.907H2457.82V-123.267V-105.626V-87.9852V-70.3444V-52.7036V-35.0628H2421.68V-17.4221V0.2187V17.8595V35.5002V53.141V70.7818H2385.53V88.4226V106.063V123.704V141.345V158.986V176.626V194.267H2349.39V211.908V229.549V247.189V264.83V282.471V300.112V317.753V335.393V353.034H2313.24V370.675V388.316V405.956V423.597V441.238V458.879H2277.1V476.52V494.16V511.801V529.442V547.083H2240.96V564.723V582.364V600.005V617.646H2204.81V635.286V652.927V670.568V688.209V705.85V723.49V741.131V758.772H2240.96V776.413V794.053V811.694H2277.1V829.335V846.976H2313.24V864.616H2349.39V882.257V899.898H2385.53V917.539H2421.68V935.18H2457.82V952.82H2493.97V970.461V988.102H2530.11V1005.74H2566.26V1023.38V1041.02V1058.66V1076.31H2530.11V1093.95H2493.97H2457.82V1111.59H2421.68H2385.53H2349.39V1129.23H2313.24H2277.1H2240.96H2204.81H2168.67V1146.87H2132.52H2096.38H2060.23H2024.09H1987.95H1951.8H1915.66H1879.51V1164.51H1843.37H1807.22H1771.08H1734.93H1698.79H1662.65H1626.5H1590.36H1554.21V1182.15H1518.07H1481.92H1445.78H1409.63H1373.49V1199.79H1337.35H1301.2H1265.06V1217.43H1228.91H1192.77V1235.07H1156.62H1120.48V1252.71H1084.34V1270.35H1048.19V1288H1012.05V1305.64H975.902V1323.28H939.757V1340.92H903.613V1358.56H867.469V1376.2H831.324V1393.84V1411.48Z" fill="black"/>
<path d="M325.308 1429.12H361.453V1411.48V1393.84H397.597V1376.2V1358.56H433.742V1340.92V1323.28H469.886V1305.64V1287.99H506.031V1270.35V1252.71V1235.07H542.175V1217.43V1199.79V1182.15H578.319V1164.51V1146.87V1129.23H614.464V1111.59V1093.95H650.608V1076.31V1058.66V1041.02H686.753V1023.38V1005.74H722.897V988.102V970.461V952.82H759.041V935.179V917.539H795.186V899.898H831.33V882.257V864.616H867.475V846.976H903.619V829.335H939.763V811.694H975.908V794.053H1012.05H1048.2V776.413H1084.34V758.772H1120.49H1156.63V741.131H1192.77V723.49H1228.92H1265.06V705.849H1301.21V688.209H1337.35V670.568H1373.5V652.927H1409.64V635.286H1445.79V617.646H1481.93V600.005V582.364H1518.07V564.723V547.083H1554.22V529.442V511.801H1590.36V494.16V476.519V458.879H1626.51V441.238V423.597H1662.65V405.956V388.316V370.675H1698.8V353.034V335.393H1734.94V317.753V300.112V282.471H1771.08V264.83V247.189V229.549V211.908V194.267V176.626H1807.23V158.986V141.345V123.704V106.063H1771.08V88.4225V70.7818V53.141V35.5002V17.8595V0.218681V-17.4221H1734.94V-35.0629V-52.7036V-70.3444V-87.9852V-105.626H1698.8V-123.267V-140.907V-158.548V-176.189V-193.83V-211.471H1662.65V-229.111H1626.51V-211.471V-193.83V-176.189V-158.548V-140.907H1662.65V-123.267V-105.626V-87.9852V-70.3444V-52.7036V-35.0629H1698.8V-17.4221V0.218681V17.8595V35.5002V53.141V70.7818V88.4225V106.063V123.704V141.345V158.986V176.626V194.267V211.908V229.549H1662.65V247.189V264.83V282.471H1626.51V300.112V317.753V335.393H1590.36V353.034V370.675H1554.22V388.316V405.956H1518.07V423.597V441.238V458.879H1481.93V476.519V494.16H1445.79V511.801V529.442H1409.64V547.083H1373.5V564.723V582.364H1337.35V600.005H1301.21V617.646H1265.06V635.286H1228.92V652.927H1192.77H1156.63V670.568H1120.49V688.209H1084.34H1048.2V705.849H1012.05H975.908V723.49H939.763V741.131H903.619V758.772H867.475V776.413H831.33V794.053H795.186V811.694H759.041V829.335V846.976H722.897V864.616V882.257H686.753V899.898V917.539V935.179H650.608V952.82V970.461V988.102H614.464V1005.74V1023.38V1041.02H578.319V1058.66V1076.31V1093.95H542.175V1111.59V1129.23V1146.87H506.031V1164.51V1182.15V1199.79H469.886V1217.43V1235.07V1252.71H433.742V1270.35V1287.99V1305.64H397.597V1323.28V1340.92H361.453V1358.56V1376.2H325.308V1393.84V1411.48H289.164V1429.12V1446.76H325.308V1429.12Z" fill="black"/>
<path d="M36.1444 1499.68V1482.04H72.2888V1464.4V1446.76H108.433V1429.12V1411.48H144.578V1393.84V1376.2H180.722V1358.56V1340.92H216.866V1323.28V1305.64H253.011V1287.99V1270.35V1252.71H289.155V1235.07V1217.43V1199.79H325.3V1182.15V1164.51V1146.87H361.444V1129.23V1111.59V1093.95H397.588V1076.31V1058.66V1041.02V1023.38H433.733V1005.74V988.102V970.461V952.82V935.179V917.539V899.898H469.877V882.257V864.616V846.976V829.335V811.694V794.053V776.413V758.772V741.131V723.49H506.022V705.849V688.209V670.568V652.927V635.286V617.646V600.005H542.166V582.364V564.723V547.083V529.442H578.31V511.801V494.16V476.519H614.455V458.879H650.599V441.238H686.744V423.597H722.888V405.956H759.032H795.177H831.321V388.316H867.466H903.61H939.755H975.899V370.675H1012.04H1048.19V353.034H1084.33V335.393H1120.48V317.753H1156.62V300.112H1192.77V282.471H1228.91V264.83V247.189H1265.05V229.549H1301.2V211.908H1337.34V194.267H1373.49V176.626V158.986H1409.63V141.345V123.704H1445.78V106.063V88.4225V70.7818H1481.92V53.141V35.5002V17.8595V0.218681V-17.4221V-35.0629V-52.7036V-70.3444V-87.9852V-105.626V-123.267V-140.907V-158.548V-176.189V-193.83V-211.471V-229.111H1445.78H1409.63V-211.471V-193.83V-176.189V-158.548V-140.907V-123.267V-105.626V-87.9852V-70.3444V-52.7036V-35.0629V-17.4221V0.218681V17.8595H1373.49V35.5002V53.141V70.7818H1337.34V88.4225V106.063H1301.2V123.704H1265.05V141.345H1228.91V158.986H1192.77V176.626H1156.62H1120.48V194.267H1084.33V211.908H1048.19V229.549H1012.04V247.189H975.899H939.755H903.61V264.83H867.466H831.321H795.177H759.032H722.888H686.744H650.599H614.455V282.471H578.31H542.166V300.112V317.753H506.022V335.393V353.034V370.675H469.877V388.316V405.956V423.597V441.238V458.879H433.733V476.519V494.16V511.801V529.442V547.083V564.723V582.364V600.005V617.646H397.588V635.286V652.927V670.568V688.209V705.849V723.49V741.131V758.772V776.413V794.053V811.694V829.335V846.976V864.616V882.257V899.898V917.539H361.444V935.179V952.82V970.461V988.102V1005.74V1023.38V1041.02H325.3V1058.66V1076.31V1093.95V1111.59H289.155V1129.23V1146.87V1164.51H253.011V1182.15V1199.79H216.866V1217.43V1235.07V1252.71H180.722V1270.35V1287.99V1305.64H144.578V1323.28V1340.92H108.433V1358.56V1376.2V1393.84H72.2888V1411.48V1429.12H36.1444V1446.76V1464.4H0V1482.04V1499.68V1517.32H36.1444V1499.68Z" fill="black"/>
<path d="M108.449 1517.32H144.593V1499.68V1482.04H180.738V1464.4H216.882V1446.76V1429.12H253.027V1411.48V1393.84H289.171V1376.2V1358.56H325.315V1340.92V1323.28H361.46V1305.64V1287.99V1270.35H397.604V1252.71V1235.07V1217.43H433.749V1199.79V1182.15V1164.51H469.893V1146.87V1129.23V1111.59H506.038V1093.95V1076.31V1058.66H542.182V1041.02V1023.38V1005.74V988.102H578.326V970.461V952.82V935.179V917.539H614.471V899.898V882.257V864.616V846.976H650.615V829.335V811.694V794.053H686.76V776.412V758.772H722.904V741.131V723.49H759.048V705.849V688.209H795.193V670.568H831.337V652.927H867.482H903.626V635.286H939.77V617.646H975.915H1012.06V600.005H1048.2H1084.35V582.364H1120.49H1156.64V564.723H1192.78V547.082H1228.93V529.442H1265.07V511.801H1301.21V494.16V476.519H1337.36V458.879H1373.5V441.238V423.597H1409.65V405.956V388.316H1445.79V370.675V353.034H1481.94V335.393V317.752H1518.08V300.112V282.471H1554.23V264.83V247.189H1590.37V229.549V211.908V194.267H1626.51V176.626V158.986V141.345V123.704V106.063V88.4225V70.7817V53.141V35.5002V17.8594V0.218663V-17.4221V-35.0629V-52.7036H1590.37V-70.3444V-87.9852V-105.626V-123.267V-140.907V-158.548V-176.189V-193.83V-211.471H1554.23V-229.111H1518.08V-211.471V-193.83V-176.189V-158.548V-140.907V-123.267H1554.23V-105.626V-87.9852V-70.3444V-52.7036V-35.0629V-17.4221V0.218663V17.8594V35.5002V53.141V70.7817V88.4225V106.063V123.704H1518.08V141.345V158.986V176.626V194.267H1481.94V211.908V229.549H1445.79V247.189H1409.65V264.83V282.471H1373.5V300.112V317.752H1337.36V335.393H1301.21V353.034V370.675H1265.07V388.316V405.956H1228.93V423.597H1192.78V441.238H1156.64V458.879H1120.49V476.519H1084.35H1048.2V494.16H1012.06V511.801H975.915H939.77H903.626V529.442H867.482H831.337V547.082H795.193H759.048V564.723H722.904V582.364V600.005H686.76V617.646H650.615V635.286V652.927H614.471V670.568V688.209V705.849V723.49H578.326V741.131V758.772V776.412V794.053H542.182V811.694V829.335V846.976V864.616V882.257V899.898H506.038V917.539V935.179V952.82V970.461V988.102V1005.74H469.893V1023.38V1041.02V1058.66V1076.31H433.749V1093.95V1111.59V1129.23H397.604V1146.87V1164.51V1182.15H361.46V1199.79V1217.43V1235.07H325.315V1252.71V1270.35V1287.99H289.171V1305.64V1323.28V1340.92H253.027V1358.56V1376.2H216.882V1393.84V1411.48H180.738V1429.12V1446.76H144.593V1464.4H108.449V1482.04V1499.68H72.3047V1517.32V1534.97H108.449V1517.32Z" fill="black"/>
</g>
<defs>
<clipPath id="clip0_2016_1252">
<rect width="3000" height="1076" fill="white"/>
</clipPath>
</defs>
</svg>
