<?xml version="1.0" encoding="UTF-8"?><svg id="Layer_2" xmlns="http://www.w3.org/2000/svg" viewBox="0 0 673.41 661.83"><defs><style>.cls-1{fill:#fff;}</style></defs><g id="Warstwa_1"><path class="cls-1" d="M109.89,366.43c2.4-.8,3.6-3.4,2.8-5.8-.8-2.4-3.4-3.6-5.8-2.8-34.9,12.1-67.4,13.6-84.8,4-6.5-3.6-10.5-8.6-11.9-14.8-6-26.2,13.5-70,49.6-111.7,23.5-27.2,52.2-51,80.7-67,32.2-18.2,64.3-26.5,92.6-24.3,20.2,1.6,36,7.1,47.1,16.3,10.1,8.3,16,19.6,17.6,33.5,3.5,30.2-14,70.3-46.8,107.2-29.2,32.9-67.4,60.2-109.8,79l43.9-170.1c.6-2.4-.8-4.9-3.3-5.6-2.4-.6-4.9.8-5.6,3.3l-45.6,176.8c-5.6,2.2-11.2,4.4-16.9,6.3-3.1,1-4.8,1.6-4.9,1.6-2.4.8-3.6,3.4-2.8,5.8.8,2.4,3.3,3.7,5.7,2.9,1.7-.5,3.3-1.1,4.9-1.6,2.7-.9,6.5-2.1,11-3.4l-30.6,118.7c-.4,1.7.1,3.4,1.4,4.6.8.7,1.9,1.1,3,1.1.6,0,1.1-.1,1.7-.3.5-.2,45.9-18.2,88.5-41.9,25.2-14,44.6-27.2,57.7-39.4,17.4-16.2,23.9-30.9,19.2-43.6-8.2-22.1-38-29.1-88.6-20.8-3.4.6-6.9,1.2-10.3,1.8,33.7-18.2,63.9-41.8,88.2-69.1,16.9-19,30.3-39.4,38.8-59,8.6-19.9,12.1-39,10.2-55.3-2.3-19.6-14.8-53.1-73-57.8-30.2-2.4-64,6.4-97.8,25.4-29.4,16.6-58.9,41.1-83.1,69C14.39,273.93-5.41,319.83,1.29,349.13c2,8.7,7.7,15.9,16.4,20.8,19.9,10.9,54.4,9.6,92.2-3.5ZM181.49,383.23c56.8-9.3,74,3,78.5,15,6.2,16.8-19.6,42.3-72.6,71.8-31.3,17.4-64.1,31.7-79.1,38l29.7-115c12.2-3.4,27.7-7.2,43.5-9.8Z"/><path class="cls-1" d="M555.79,350.43c22.9-22.7,40.8-47.9,41.5-48.9,1.5-2.1,1-4.9-1.1-6.4s-4.9-1-6.4,1.1c-.2.3-18.2,25.6-40.6,47.8-35.7,35.3-54.4,35.7-63.8,29.8-1.5-.9-2.7-2-3.7-3.2,13.7-15.7,26.5-33.7,34.3-48.7,9-17.1,10.5-27.9,4.7-33.1-4-3.6-9.4-4.4-15-2.2-16.4,6.4-35.5,38.2-37.8,63-.7,7.8.1,14.5,2.5,20-1.9,2.1-3.8,4.1-5.7,6-18.3,18.7-36.3,30.1-43.1,26.1-4-2.3-4.7-10.1-4.5-16.2.8-19.2,9.5-49.8,16.5-69.1.9-2.4-.4-5-2.7-5.8-2.4-.9-5,.3-5.9,2.7-.1.3-10.3,27.2-23.3,54.1-11.6,23.8-20.3,37.2-26.6,44.6-1,1.2-9.6,11.3-13.5,8.8-1.3-.8-2.1-3-2.2-7.7-.1-1.9,0-4.4.3-7.4.7-7.2,2.7-17.7,7.1-33.1,5.9-20.9,13.4-40.2,13.4-40.4.9-2.3-.2-4.9-2.5-5.9-2.3-.9-4.9.1-5.9,2.4-.1.3-13.4,31.2-29.9,60.8-9.6,17.2-18.5,30.6-26.3,39.8-11.5,13.5-17.4,15.3-20.6,13.8-2.1-1-3.3-4.1-3.1-13.3.3-19.3,9.7-55.6,24.7-96.9,18.3-12.1,31.6-26.8,40.8-39.5,19.4-26.6,28.2-54.6,28.4-70.5.1-5.4-.9-14.7-8.3-16.6-6-1.5-12.6,4.1-21.8,18.6-7,11.1-15.3,27-24,46.2-8.1,17.8-15.8,36.9-22.7,55.6-11.9,7.5-26,13.9-42.5,17.5-2.5.5-4,3-3.5,5.4.5,2.5,3,4,5.4,3.5,13.3-3,25.2-7.5,35.8-13.1-6.3,18.1-11.5,35.4-15.3,50.4-4.1,16.5-6.2,29.8-6.3,39.6-.1,12.8,3.3,20.1,10.3,21.9,1.2.3,2.4.4,3.6.4,7.6,0,16.1-5.7,25.9-17.2,8.2-9.6,17.3-23.5,27.3-41.3,1.3-2.3,2.6-4.6,3.8-6.9-3.5,15.6-5.4,31.7.1,39,2.4,3.1,6,4.6,10.1,4.2,7.2-.7,15.1-7.4,24.2-20.3,6.4-9.2,13.5-21.7,21.1-37.1-2.2,14.7-1.5,25,1.9,31.3,2,3.7,5.1,6.2,8.9,7.1,15.3,3.6,36.4-13.8,51.3-29.1,1.4-1.5,2.9-3,4.3-4.5,1.5,1.5,3.2,2.9,5,4.1,18,11,43.3.5,75.4-31.2ZM327.99,303.03c9.7-23.9,19.9-45.8,28.7-61.8,11.8-21.4,16.3-26,18.2-25.8,2.5.4,3,6,.5,18-4.1,20.2-16,43.6-31.7,62.5-5.5,6.6-12.6,14-21.3,21,1.9-4.5,3.7-9.2,5.6-13.9ZM476.99,350.43c2.2-22.9,19.9-50.6,32-55.4,1.1-.4,4-1.6,5.5.3.6.7.8,1.9.2,5-.6,3.4-2.5,8.9-6.8,17.3-7,13.4-18.3,29.5-30.5,43.9-.7-3.8-.7-7.7-.4-11.1Z"/><path class="cls-1" d="M432.09,568.23c-33.6,23.6-68.4,42.8-103.4,57-34.5,13.9-68.3,22.7-100.6,26.1-32.5,3.4-62.5,1.3-89.3-6.4-27.5-7.9-51.1-21.4-69.9-40.3-22.6-22.6-37.5-51.7-44.2-86.4-6.6-33.8-5.2-71.4,4.1-112,.6-2.5-1-4.9-3.4-5.5-2.5-.6-4.9,1-5.5,3.4-9.6,41.8-11,80.7-4.1,115.7,7.1,36.5,22.8,67.2,46.7,91.1,20,20,44.8,34.3,73.9,42.6,19.4,5.5,40.4,8.3,62.6,8.3,9.8,0,19.9-.5,30.1-1.6,33.2-3.5,67.8-12.5,103.1-26.7,35.7-14.5,71.1-34,105.3-58,2.1-1.4,2.6-4.3,1.1-6.4-1.6-1.9-4.4-2.4-6.5-.9Z"/><path class="cls-1" d="M544.09,7.13c-29.7-7.8-62.9-9.2-98.7-4.2-71.4,9.9-149.3,45.1-219.4,99.3-2,1.5-2.4,4.4-.8,6.4,1.5,2,4.4,2.4,6.4.8C300.39,56.23,376.79,21.63,446.69,11.93c34.6-4.8,66.6-3.4,95.2,4,29.4,7.7,54.3,21.6,74.2,41.5,42.2,42.2,57.5,108,42.9,185.1-14.6,77.4-57.7,159.5-121.4,231.2-1.7,1.9-1.5,4.8.4,6.4.9.8,2,1.2,3,1.2,1.3,0,2.5-.5,3.4-1.5,64.8-72.9,108.6-156.5,123.5-235.6,15.1-80.2-1-148.9-45.4-193.3-21.1-21-47.4-35.7-78.4-43.8Z"/><path class="cls-1" d="M440.79,222.43l16.4,17.5h4.9v-31h-7v16.5l-15.1-16.5h-6.2v31h6.9l.1-17.5h0Z"/><path class="cls-1" d="M507.79,224.43c0-9.5-6.7-16.1-16.9-16.1s-16.8,6.6-16.8,16.1,6.6,16.1,16.8,16.1,16.9-6.6,16.9-16.1ZM482.89,224.43c0-6.3,3.1-10,8-10s8.1,3.7,8.1,10-3.1,10-8.1,10-8-3.8-8-10Z"/><path class="cls-1" d="M534.19,239.93v-25h10.2v-6h-28.8v6h10.2v25h8.4Z"/><path class="cls-1" d="M580.39,214.93v-6h-25.1v31h25.8v-6h-17.4v-7h12.3v-5.8h-12.2v-6.2h16.6Z"/><path class="cls-1" d="M286.49,531.93c0,2.7-1.1,4.3-3.5,4.3s-3.5-1.6-3.5-4.5c0-1,0-1.8.1-2.9l-6.8.8c-.1.6-.3,1.6-.3,3,0,5.4,3.4,9.5,10.7,9.5s11.7-4.1,11.7-10.8v-20.7h-8.5l.1,21.3h0Z"/><path class="cls-1" d="M316.79,510.53l-13.9,31h7.7l2.1-5.1h12.8l2.2,5.1h9.3l-13.9-31h-6.3ZM315.19,530.63l3.9-9.3,3.9,9.3h-7.8Z"/><path class="cls-1" d="M346.79,516.53h15.6l-15.6,19.9v5.1h26.7v-6h-15.6l15.6-19.9v-5.1h-26.7v6Z"/><path class="cls-1" d="M384.19,516.53h15.6l-15.6,19.9v5.1h26.8v-6h-15.6l15.6-19.9v-5.1h-26.7l-.1,6h0Z"/><path class="cls-1" d="M453.89,535.93c-5,0-8-4-8-9.9s3.1-9.8,8-9.8c3.4,0,6.2,1.9,7.2,6.6l6.9-1.5c-.9-6.7-7.3-11.2-14.2-11.2-10.1,0-16.7,6.6-16.7,16s6.6,16.1,16.8,16.1c7.3,0,13.7-5.1,14.3-12.4l-6.6-.9c-.9,4.5-3.3,7-7.7,7Z"/><path class="cls-1" d="M488.19,510.53h-8.5v31h24.3v-6h-15.8v-25Z"/><path class="cls-1" d="M535.19,528.33c0,5.8-2.8,7.7-6.8,7.7s-6.6-1.9-6.6-7.3v-18.2h-8.5v17.2c0,9.6,5.2,14.4,14.7,14.4s14.1-5.6,14.1-13.9v-17.6h-7l.1,17.7h0Z"/><path class="cls-1" d="M576.89,525.53c3.2-1,5.8-3.2,5.8-7,0-4.4-3.2-7.9-10.6-7.9h-16.8v31h17.4c7.4,0,10.6-3.9,10.6-8.6.1-4.1-2.8-6.5-6.4-7.5ZM563.79,516.53h6.7c2.2,0,3.5,1,3.5,3.1s-1.2,3.1-3.5,3.1h-6.7v-6.2ZM570.69,535.63h-6.9v-7.2h6.9c2.8,0,3.9,1.3,3.9,3.7,0,2-1.1,3.5-3.9,3.5Z"/></g></svg>