<svg width="68" height="63" viewBox="0 0 68 63" fill="none" xmlns="http://www.w3.org/2000/svg">
<path d="M18.1064 22.0822L13.0674 25.5075L15.4068 17.1253L9.01756 17.8465L8.67188 16.1479L17.1091 11.1675L15.4971 1.62282C15.6397 1.59484 15.7047 1.63816 15.8148 1.70946C16.3518 2.05154 17.1831 2.80699 17.6985 3.24744C19.4693 4.76015 21.0804 6.47232 22.9198 7.90921C23.1301 7.81083 23.3287 7.67544 23.5065 7.52742C25.8207 5.60676 27.8551 3.00375 30.1638 1.03525L31.515 0L30.3461 7.75126L34.6649 6.66998L34.2155 8.20164H50.4147C50.5583 9.79016 50.5258 11.4238 50.5086 13.0286C50.5059 13.2858 50.4129 13.5069 50.4102 13.7416C50.3741 17.7057 50.2803 21.7167 51.1341 25.5986C51.2397 25.6194 51.3074 25.5851 51.3995 25.549C51.9202 25.3468 53.099 24.4515 53.6288 24.0859C54.5449 23.4532 55.4195 22.7492 56.3221 22.0976C56.6064 22.0407 57.62 23.0823 57.61 23.391L52.5936 31.6675L58.4241 39.389L50.505 37.7671C50.2694 38.7157 50.5926 39.6516 50.4147 40.5623H47.8497L44.9705 48.3145L42.4938 41.0127C42.409 40.9333 41.6192 41.5867 41.5028 41.6869C41.2943 41.8683 39.2166 44.0733 38.9846 43.8062L38.5342 40.5614H18.1064V22.0831V22.0822ZM19.8168 18.7473V38.8484L40.1562 38.9377L40.2915 40.2916C41.3855 39.5876 41.9559 38.3862 43.5101 38.8484L45.0598 42.9054L46.4561 38.8484H48.7062C48.7279 37.7481 48.4363 36.6289 48.7937 35.5531L54.1063 36.6849L50.4563 31.8255L53.3851 26.4101C52.2668 27.1872 51.2216 28.0979 49.9662 28.6629C49.9048 26.9615 49.2531 25.3577 48.9273 23.7087C48.384 20.9549 48.5645 18.1561 48.6159 15.3689C48.6195 15.1956 48.7206 15.0133 48.7089 14.831L48.7053 10.005H31.7857C31.7722 9.7333 31.7614 9.44628 31.9654 9.23779L28.2766 10.0943L29.0853 4.68614L23.011 10.2775L17.9259 6.03909L18.9666 11.9861L13.6965 15.5016C14.7227 15.4529 15.7895 15.1126 16.8022 15.053C17.0125 15.0404 17.7652 14.9745 17.8293 15.1984L16.2173 21.0912C16.7517 20.7076 17.3329 20.38 17.8645 19.9928C18.1534 19.7825 19.5388 18.4747 19.8159 18.7473H19.8168Z" fill="white"/>
<path d="M27.2767 11.5458C27.9185 15.3881 28.5836 19.2294 29.4474 23.0274C29.5268 23.5112 30.3238 23.1664 30.35 23.5671C29.8662 28.0132 29.7471 32.4791 29.7173 36.954C28.997 36.9125 28.2244 37.0091 27.5114 36.954C27.2515 36.9342 27.0303 36.7708 26.792 36.7708C26.4166 36.7708 25.8516 37.0614 25.357 37.047C23.4805 36.9901 22.4696 34.9828 22.1835 33.3672C21.577 29.9393 22.8316 25.0302 27.2867 26.9482C27.1513 26.551 27.7 24.8885 27.0646 24.8777C26.737 24.8722 26.3308 25.4102 25.9617 25.4851C23.624 25.9617 22.0481 23.7765 21.4822 21.8098C20.6501 18.9153 21.2458 14.6182 25.2162 15.5902L24.5889 11.9872L27.2758 11.5449L27.2767 11.5458ZM24.2856 17.5903C23.4498 17.7429 23.9896 20.5327 24.1629 21.1103C24.3362 21.688 24.9003 23.2855 25.6927 23.0581C26.6603 22.7792 25.9879 19.7511 25.6837 19.0462C25.5158 18.6554 24.7595 17.5037 24.2856 17.5903ZM25.644 28.858C25.5032 28.8869 25.3506 28.9988 25.2649 29.1143C24.6737 29.9095 24.6557 33.8618 25.4896 34.4729C26.515 35.2247 26.876 33.128 26.9265 32.4908C26.9888 31.7128 26.9807 28.5827 25.644 28.8571V28.858Z" fill="white"/>
<path d="M47.0844 37.0425H44.8794C44.855 37.0425 44.5698 36.936 44.559 36.8963L44.7485 30.7742C44.5978 30.4754 44.7575 28.7633 44.5202 28.7524C43.7963 29.1243 44.1122 29.831 44.1185 30.4141C44.1429 32.6254 44.2043 34.833 44.2052 37.0434L41.7745 36.9532C41.7917 35.4964 41.7547 34.0352 41.7709 32.5775C41.7736 32.3645 41.8648 32.1669 41.8684 31.9538C41.8847 30.8879 41.9361 29.8581 41.594 28.8409C41.1193 29.2561 41.4225 29.9131 41.4235 30.4186C41.4253 31.2832 41.252 32.3347 41.2312 33.2093C41.2005 34.4856 41.261 35.769 41.2357 37.0443L38.7148 36.9541L38.9847 26.7677C39.6472 26.6657 40.3765 26.9058 41.0092 26.857C41.9172 26.7875 42.8179 25.987 43.4398 27.2181C45.55 25.6286 46.8695 26.5466 47.1638 28.988C47.4309 31.2056 47.0519 33.5144 46.9914 35.7329C46.9797 36.177 46.9878 36.6102 47.0853 37.0434L47.0844 37.0425Z" fill="white"/>
<path d="M46.0056 20.7301C45.2773 20.7535 44.5543 20.9214 43.872 21.1687L43.7104 21.092C42.9179 18.5847 42.8096 15.8652 41.8213 13.4319C41.4576 13.5592 41.4756 13.9265 41.5271 14.2641L43.3945 21.1778C42.6372 21.5072 41.7951 21.5776 40.9738 21.6236C40.4043 19.7995 40.3023 17.8554 39.7698 16.025C39.62 15.5087 39.434 14.8119 39.0766 14.422L40.5216 21.9404C40.1398 22.0244 38.4259 22.4946 38.1876 22.3412L36.1992 12.7126C36.7651 12.5654 37.4258 12.6503 37.98 12.468C38.7742 12.2062 39.3302 11.2143 40.3808 12.1521C42.7401 9.86135 43.9252 11.4959 44.6292 13.9509C45.2637 16.1622 45.3729 18.5152 46.0047 20.7301H46.0056Z" fill="white"/>
<path d="M35.6536 30.0145C35.6663 28.9369 34.3945 28.7157 33.5488 28.9423C33.3097 29.0064 32.8277 29.3313 32.6842 29.2546L31.4332 27.4431C32.5894 26.6254 34.1057 26.3375 35.4939 26.6136C39.8822 27.4855 37.6483 33.9073 38.2639 36.9544C37.3847 37.0437 36.4713 36.6845 35.604 36.7693C34.9424 36.8343 34.6527 37.097 33.8052 37.0482C29.9801 36.828 29.1407 32.0516 32.3953 30.4902C32.6733 30.3566 33.6418 30.0136 33.899 30.0136H35.6536V30.0145ZM34.8242 32.1121C31.6968 32.1906 32.7726 36.1953 35.6103 34.5229L35.7312 32.3251C35.6762 32.1572 35.0155 32.1076 34.8242 32.1121Z" fill="white"/>
<path d="M37.7245 22.5305C37.6451 22.6198 35.7127 22.8148 35.3652 22.9177C34.4229 23.1957 34.3236 23.7011 32.9995 23.6849C29.0905 23.637 28.2999 18.4581 32.0076 17.0311C32.6078 16.8001 33.0203 16.7712 33.6304 16.671C33.9933 16.6114 33.5609 16.1222 33.3994 16.0022C32.8958 15.6294 32.3019 15.7423 31.7603 15.9715C31.4986 16.0825 31.1222 16.4454 30.9995 16.4796C30.5021 16.615 29.799 15.4128 29.2656 15.3189C29.753 14.216 31.3163 13.521 32.4616 13.429C37.3229 13.0391 36.4898 19.5123 37.7254 22.5305H37.7245ZM33.7451 18.5844C31.8082 18.8038 31.1376 21.7534 33.3606 21.5394C33.9084 21.4862 34.4211 21.0954 34.7415 20.6649C34.4707 20.0457 34.6729 18.4797 33.7451 18.5844Z" fill="white"/>
<path d="M13.6472 61.7473C12.6289 61.7473 11.9343 60.9185 11.9343 59.6082C11.9343 58.3453 12.6526 57.4691 13.663 57.4691C14.2313 57.4691 14.5865 57.7296 14.8075 58.069H14.8312V55.9851H15.9047V61.6289H14.8706V61.1H14.8549C14.6181 61.4868 14.2155 61.7473 13.6472 61.7473ZM13.884 60.8475C14.5233 60.8475 14.8549 60.3739 14.8549 59.6319C14.8549 58.8583 14.6023 58.3374 13.9155 58.3374C13.3235 58.3374 13.0236 58.8583 13.0236 59.6082C13.0236 60.3896 13.3314 60.8475 13.884 60.8475ZM19.1521 61.6289C19.0889 61.55 19.0495 61.3605 19.0258 61.179H19.01C18.8048 61.4868 18.5127 61.7236 17.8181 61.7236C16.9893 61.7236 16.4052 61.2895 16.4052 60.4844C16.4052 59.5924 17.1314 59.3082 18.0312 59.182C18.7021 59.0872 19.01 59.032 19.01 58.7241C19.01 58.4321 18.7811 58.2426 18.3312 58.2426C17.826 58.2426 17.5813 58.4242 17.5497 58.811H16.5946C16.6262 58.1006 17.155 57.477 18.3391 57.477C19.5546 57.477 20.044 58.0216 20.044 58.9688V61.029C20.044 61.3369 20.0914 61.5184 20.1861 61.5894V61.6289H19.1521ZM18.0786 60.9738C18.6943 60.9738 19.0337 60.5949 19.0337 60.2002V59.5924C18.8442 59.7029 18.5522 59.7661 18.2838 59.8292C17.7234 59.9555 17.4471 60.0818 17.4471 60.4607C17.4471 60.8396 17.6997 60.9738 18.0786 60.9738ZM20.7265 61.6289V57.5796H21.7605V58.1242H21.7842C22.0052 57.7532 22.3999 57.4691 22.9603 57.4691C23.4734 57.4691 23.8839 57.7532 24.0812 58.1795H24.097C24.3733 57.7375 24.7995 57.4691 25.3126 57.4691C26.1651 57.4691 26.6466 58.0216 26.6466 58.9057V61.6289H25.573V59.0872C25.573 58.6294 25.3441 58.3926 24.9495 58.3926C24.4995 58.3926 24.2233 58.7399 24.2233 59.2767V61.6289H23.1498V59.0872C23.1498 58.6294 22.9209 58.3926 22.5262 58.3926C22.0921 58.3926 21.8 58.7399 21.8 59.2767V61.6289H20.7265ZM28.825 61.7473C27.8068 61.7473 27.1121 60.9185 27.1121 59.6082C27.1121 58.3453 27.8304 57.4691 28.8408 57.4691C29.4091 57.4691 29.7643 57.7296 29.9853 58.069H30.009V55.9851H31.0825V61.6289H30.0485V61.1H30.0327C29.7959 61.4868 29.3933 61.7473 28.825 61.7473ZM29.0618 60.8475C29.7012 60.8475 30.0327 60.3739 30.0327 59.6319C30.0327 58.8583 29.7801 58.3374 29.0934 58.3374C28.5014 58.3374 28.2014 58.8583 28.2014 59.6082C28.2014 60.3896 28.5093 60.8475 29.0618 60.8475ZM34.3299 61.6289C34.2668 61.55 34.2273 61.3605 34.2036 61.179H34.1878C33.9826 61.4868 33.6906 61.7236 32.9959 61.7236C32.1671 61.7236 31.583 61.2895 31.583 60.4844C31.583 59.5924 32.3092 59.3082 33.2091 59.182C33.88 59.0872 34.1878 59.032 34.1878 58.7241C34.1878 58.4321 33.9589 58.2426 33.509 58.2426C33.0038 58.2426 32.7591 58.4242 32.7276 58.811H31.7725C31.804 58.1006 32.3329 57.477 33.5169 57.477C34.7325 57.477 35.2219 58.0216 35.2219 58.9688V61.029C35.2219 61.3369 35.2692 61.5184 35.364 61.5894V61.6289H34.3299ZM33.2564 60.9738C33.8721 60.9738 34.2115 60.5949 34.2115 60.2002V59.5924C34.0221 59.7029 33.73 59.7661 33.4616 59.8292C32.9012 59.9555 32.6249 60.0818 32.6249 60.4607C32.6249 60.8396 32.8775 60.9738 33.2564 60.9738ZM35.9043 61.6289V57.5796H36.9384V58.1242H36.9621C37.1831 57.7532 37.5777 57.4691 38.1382 57.4691C38.6512 57.4691 39.0617 57.7532 39.259 58.1795H39.2748C39.5511 57.7375 39.9773 57.4691 40.4904 57.4691C41.3429 57.4691 41.8244 58.0216 41.8244 58.9057V61.6289H40.7509V59.0872C40.7509 58.6294 40.522 58.3926 40.1273 58.3926C39.6774 58.3926 39.4011 58.7399 39.4011 59.2767V61.6289H38.3276V59.0872C38.3276 58.6294 38.0987 58.3926 37.704 58.3926C37.2699 58.3926 36.9778 58.7399 36.9778 59.2767V61.6289H35.9043ZM42.4242 61.6289V60.4844H43.5766V61.6289H42.4242ZM45.9702 61.7473C44.7152 61.7473 43.8548 60.8159 43.8548 59.6082C43.8548 58.4005 44.7152 57.4691 45.9702 57.4691C47.2253 57.4691 48.0857 58.4005 48.0857 59.6082C48.0857 60.8159 47.2253 61.7473 45.9702 61.7473ZM45.9702 60.9264C46.6254 60.9264 46.9964 60.3975 46.9964 59.6082C46.9964 58.8189 46.6254 58.2821 45.9702 58.2821C45.3072 58.2821 44.9441 58.8189 44.9441 59.6082C44.9441 60.3975 45.3072 60.9264 45.9702 60.9264ZM49.6187 57.5796V58.2268H49.6424C49.8871 57.769 50.1633 57.5322 50.6369 57.5322C50.7554 57.5322 50.8264 57.5401 50.8895 57.5638V58.5031H50.8659C50.1633 58.4321 49.6582 58.8031 49.6582 59.6556V61.6289H48.5847V57.5796H49.6187ZM53.0203 63.0103C51.9152 63.0103 51.2364 62.5366 51.1258 61.7473H52.1915C52.2783 61.9999 52.5072 62.1972 53.0045 62.1972C53.6123 62.1972 53.9043 61.9052 53.9043 61.3526V60.9106H53.8806C53.6438 61.179 53.336 61.3842 52.8229 61.3842C51.9231 61.3842 51.039 60.6738 51.039 59.4503C51.039 58.2426 51.7652 57.4691 52.7914 57.4691C53.2965 57.4691 53.6675 57.6664 53.9122 58.0058H53.928V57.5796H54.962V61.3211C54.962 61.8894 54.7805 62.2762 54.4805 62.5524C54.1411 62.8682 53.6202 63.0103 53.0203 63.0103ZM53.0045 60.5238C53.6833 60.5238 53.9596 60.0265 53.9596 59.4266C53.9596 58.8346 53.6438 58.3295 52.9966 58.3295C52.4519 58.3295 52.0888 58.7557 52.0888 59.4345C52.0888 60.1213 52.4519 60.5238 53.0045 60.5238Z" fill="white"/>
</svg>
