<svg width="150" height="150" viewBox="0 0 150 150" fill="none" xmlns="http://www.w3.org/2000/svg">
<ellipse cx="74.9967" cy="74.9949" rx="74.9967" ry="74.9949" transform="matrix(1 -1.74841e-07 -1.7485e-07 -1 0 149.99)" fill="black"/>
<path d="M75.0039 149.994C116.423 149.994 149.999 116.418 149.999 75L75.0039 75L75.0039 149.994Z" fill="#F42984"/>
<path d="M75.0039 0.00195312C33.5846 0.00206576 0.00803388 33.5778 0.0078125 74.9961C0.0078125 74.9973 0.00878901 74.9988 0.00878906 75L75.0039 75L75.0039 0.00195312Z" fill="#F42984"/>
<rect width="33.5634" height="33.5626" transform="matrix(1 -1.74841e-07 -1.7485e-07 -1 24.6641 125.344)" fill="#F42984"/>
<rect width="33.5634" height="33.5626" transform="matrix(1 -1.74841e-07 -1.7485e-07 -1 91.793 125.344)" fill="black"/>
<rect width="33.5634" height="33.5626" transform="matrix(1 -1.74841e-07 -1.7485e-07 -1 58.2266 91.7773)" fill="black"/>
<rect width="33.5634" height="33.5626" transform="matrix(1 -1.74841e-07 -1.7485e-07 -1 24.6641 58.2188)" fill="black"/>
<rect width="33.5634" height="33.5626" transform="matrix(1 -1.74841e-07 -1.7485e-07 -1 91.793 58.2188)" fill="#F42984"/>
<ellipse cx="75.0053" cy="75.0006" rx="31.8725" ry="31.8717" fill="black"/>
<path d="M75.0088 43.124C92.5864 43.124 106.84 57.3532 106.881 74.9209L106.881 74.998L75.0078 74.998L75.0078 43.124L75.0088 43.124Z" fill="#F42984"/>
<path d="M75.0059 106.871C57.4304 106.871 43.1788 92.6458 43.1348 75.0811L43.1348 74.9981L75.0078 74.998L75.0078 106.871L75.0059 106.871Z" fill="#F42984"/>
</svg>
