<svg width="150" height="150" viewBox="0 0 150 150" fill="none" xmlns="http://www.w3.org/2000/svg">
<path d="M0.00471497 75.0029C0.00471497 116.369 33.4939 149.913 74.8387 150H75.0028V75H0.00471497V75.0029Z" fill="#F42984"/>
<path d="M150.002 75C150.002 33.5797 116.425 0.00195312 75.0057 0.00195312L75.0028 0.00292969V75H150.002Z" fill="#F42984"/>
<path d="M75.0018 149.997C116.367 149.997 149.909 116.507 149.997 75.1611L149.997 74.998L74.9989 74.998L74.9989 149.997L75.0018 149.997Z" fill="black"/>
<path d="M74.9969 0C33.6317 1.80827e-06 0.0891335 33.4901 0.00178527 74.8359L0.00178528 74.9981L74.9989 74.998L74.9989 0L74.9969 0Z" fill="black"/>
<rect width="37.4974" height="37.4984" transform="matrix(-1 1.7485e-07 1.74841e-07 1 62.241 86.4102)" fill="black"/>
<rect width="37.4974" height="37.4984" transform="matrix(-1 1.7485e-07 1.74841e-07 1 62.241 26.0859)" fill="#F42984"/>
<rect width="37.4974" height="37.4984" transform="matrix(-1 1.7485e-07 1.74841e-07 1 125.3 26.0859)" fill="black"/>
<rect width="37.4974" height="37.4984" transform="matrix(-1 1.7485e-07 1.74841e-07 1 125.3 86.4102)" fill="#F42984"/>
</svg>
