<svg width="151" height="150" viewBox="0 0 151 150" fill="none" xmlns="http://www.w3.org/2000/svg">
<path d="M149.999 75C149.999 116.421 116.422 149.999 75.002 149.999L75 149.998V74.998H149.999V75Z" fill="#F42984"/>
<path d="M0.000976562 74.998C0.0022547 33.578 33.5797 0.000976562 74.999 0.000976562L75 0.00195312V74.998H0.000976562Z" fill="#F42984"/>
<path d="M75.0098 150.001C33.59 150.001 0.0129244 116.423 0.0126953 75.0019L0.0136719 75L75.0117 75L75.0117 150.001L75.0098 150.001Z" fill="black"/>
<path d="M75.0127 0.00292969C116.432 0.0029315 150.008 33.58 150.01 75L75.0117 75L75.0117 0.00292969L75.0127 0.00292969Z" fill="black"/>
<path d="M75.0312 114.271C53.3465 114.27 35.7676 96.6905 35.7676 75.0049L35.7686 75.0039L75.0312 75.0039L75.0312 114.271Z" fill="#F42984"/>
<path d="M75.0313 35.7354C96.7158 35.7366 114.295 53.3166 114.295 75.002L114.294 75.0039L75.0312 75.0039L75.0313 35.7354Z" fill="#F42984"/>
<path d="M35.7676 75.0059C35.7677 53.3458 53.3054 35.7825 74.9551 35.7402L75.0313 35.7402L75.0312 75.0078L35.7676 75.0078L35.7676 75.0059Z" fill="black"/>
<path d="M114.302 75.0088C114.302 96.6691 96.7642 114.232 75.1143 114.274L75.0312 114.274L75.0312 75.0078L114.302 75.0078L114.302 75.0088Z" fill="black"/>
</svg>
