<svg width="150" height="150" viewBox="0 0 150 150" fill="none" xmlns="http://www.w3.org/2000/svg">
<path d="M74.9981 150.003C116.365 150.003 149.909 116.512 149.996 75.165L149.996 75.0019L74.9961 75.002L74.9961 150.003L74.9981 150.003Z" fill="#F42984"/>
<path d="M74.9961 0.000976562C33.5762 0.00205863 -0.000978373 33.58 -0.000976563 75L0 75.002L74.9961 75.002L74.9961 0.000976562Z" fill="#F42984"/>
<path d="M150.001 75.0088C150.001 33.6421 116.51 0.0981933 75.1641 0.0107422L75 0.0107422L75 75.0098L150.001 75.0098L150.001 75.0088Z" fill="black"/>
<path d="M0.00292969 75.0117C0.0029333 116.378 33.4936 149.922 74.8399 150.01L75 150.01L75 75.0098L0.00292969 75.0098L0.00292969 75.0117Z" fill="black"/>
<path d="M114.269 75.0019C114.268 53.3168 96.6874 35.7374 75.0019 35.7373L75 35.7383L75 75.002L114.269 75.0019Z" fill="#F42984"/>
<path d="M35.7324 75.0068C35.7324 96.5628 53.1019 114.059 74.6084 114.269L75 114.269L75 75.002L35.7324 75.002C35.7324 75.0036 35.7324 75.0052 35.7324 75.0068Z" fill="#F42984"/>
<path d="M75.0059 35.7373C53.3457 35.7373 35.7824 53.2756 35.7402 74.9258L35.7402 75.002L75.0078 75.002L75.0078 35.7373L75.0059 35.7373Z" fill="black"/>
<path d="M75.0088 114.266C96.6689 114.266 114.232 96.7282 114.274 75.0781L114.274 75.0019L75.0078 75.002L75.0078 114.266L75.0088 114.266Z" fill="black"/>
</svg>
