<svg width="262" height="32" viewBox="0 0 262 32" fill="none" xmlns="http://www.w3.org/2000/svg">
<g clip-path="url(#clip0_2021_7335)">
<path d="M260.023 1.29277V30.7271H213.539V1.29277H260.023ZM261.332 0.0136719H212.23V32.0062H261.332V0.0136719Z" fill="white"/>
<path d="M236.783 3.82422L237.184 5.02807H238.481L237.434 5.77296L237.834 6.97682L236.783 6.23193L235.736 6.97682L236.137 5.77296L235.086 5.02807H236.383L236.783 3.82422Z" fill="white"/>
<path d="M236.783 24.9277L237.184 26.1354H238.481L237.434 26.8765L237.834 28.0841L236.783 27.3392L235.736 28.0841L236.137 26.8765L235.086 26.1354H236.383L236.783 24.9277Z" fill="white"/>
<path d="M226.069 14.3262L226.469 15.53H227.762L226.715 16.2749L227.116 17.4788L226.069 16.7339L225.018 17.4788L225.418 16.2749L224.371 15.53H225.668L226.069 14.3262Z" fill="white"/>
<path d="M247.498 14.3262L247.899 15.53H249.192L248.145 16.2749L248.545 17.4788L247.498 16.7339L246.447 17.4788L246.848 16.2749L245.801 15.53H247.098L247.498 14.3262Z" fill="white"/>
<path d="M242.119 5.27148L242.52 6.47534H243.817L242.77 7.22023L243.17 8.42784L242.119 7.6792L241.072 8.42784L241.473 7.22023L240.426 6.47534H241.719L242.119 5.27148Z" fill="white"/>
<path d="M231.448 5.27148L231.848 6.47534H233.145L232.094 7.22023L232.498 8.42784L231.448 7.6792L230.401 8.42784L230.801 7.22023L229.75 6.47534H231.047L231.448 5.27148Z" fill="white"/>
<path d="M242.119 23.3906L242.52 24.5945H243.817L242.77 25.3394L243.17 26.547L242.119 25.7983L241.072 26.547L241.473 25.3394L240.426 24.5945H241.719L242.119 23.3906Z" fill="white"/>
<path d="M231.448 23.3906L231.848 24.5945H233.145L232.094 25.3394L232.498 26.547L231.448 25.7983L230.401 26.547L230.801 25.3394L229.75 24.5945H231.047L231.448 23.3906Z" fill="white"/>
<path d="M246.053 9.05664L246.453 10.2643H247.751L246.7 11.0054L247.1 12.213L246.053 11.4681L245.006 12.213L245.406 11.0054L244.355 10.2643H245.653L246.053 9.05664Z" fill="white"/>
<path d="M227.522 9.05664L227.922 10.2643H229.215L228.168 11.0054L228.569 12.213L227.522 11.4681L226.471 12.213L226.871 11.0054L225.824 10.2643H227.118L227.522 9.05664Z" fill="white"/>
<path d="M246.053 19.541L246.453 20.7449H247.751L246.7 21.4898L247.1 22.6936L246.053 21.9487L245.006 22.6936L245.406 21.4898L244.355 20.7449H245.653L246.053 19.541Z" fill="white"/>
<path d="M227.522 19.541L227.922 20.7449H229.215L228.168 21.4898L228.569 22.6936L227.522 21.9487L226.471 22.6936L226.871 21.4898L225.824 20.7449H227.118L227.522 19.541Z" fill="white"/>
<path d="M129.876 7.43354C130.734 7.43354 131.161 7.14763 131.161 6.57203C131.161 6.39522 131.123 6.24473 131.046 6.12059C130.969 5.99644 130.865 5.88734 130.738 5.79705C130.607 5.70676 130.461 5.62776 130.291 5.56004C130.126 5.49232 129.949 5.42837 129.764 5.36065C129.548 5.28917 129.344 5.20641 129.156 5.11612C128.963 5.02583 128.798 4.91673 128.655 4.79258C128.513 4.66843 128.401 4.52171 128.321 4.34866C128.24 4.17937 128.197 3.97245 128.197 3.72792C128.197 3.22757 128.371 2.83255 128.721 2.55416C129.071 2.27201 129.552 2.13281 130.168 2.13281C130.522 2.13281 130.846 2.17043 131.138 2.24567C131.427 2.32091 131.642 2.39992 131.777 2.49021L131.515 3.1448C131.396 3.07332 131.219 3.00185 130.988 2.93413C130.753 2.86641 130.48 2.83255 130.172 2.83255C130.014 2.83255 129.868 2.8476 129.733 2.88146C129.598 2.91532 129.479 2.96423 129.379 3.03194C129.279 3.09966 129.198 3.18242 129.137 3.284C129.079 3.38558 129.048 3.50596 129.048 3.64516C129.048 3.7994 129.079 3.93107 129.14 4.03265C129.202 4.13799 129.291 4.22827 129.402 4.31104C129.514 4.39004 129.645 4.46528 129.795 4.52924C129.945 4.59696 130.11 4.66091 130.291 4.72863C130.545 4.82644 130.776 4.92802 130.988 5.02583C131.2 5.12364 131.385 5.24403 131.538 5.38322C131.692 5.52242 131.816 5.68419 131.9 5.87605C131.985 6.06792 132.027 6.2974 132.027 6.56827C132.027 7.06862 131.839 7.45611 131.465 7.72698C131.088 7.99785 130.561 8.13328 129.879 8.13328C129.649 8.13328 129.433 8.11823 129.24 8.08814C129.048 8.05804 128.871 8.02042 128.721 7.97904C128.567 7.93766 128.436 7.89251 128.328 7.84737C128.217 7.80222 128.132 7.76084 128.07 7.72698L128.317 7.06486C128.448 7.13634 128.644 7.21534 128.909 7.30563C129.175 7.39216 129.498 7.4373 129.883 7.4373L129.876 7.43354Z" fill="white"/>
<path d="M134.799 1.58398C135.03 1.58398 135.23 1.59903 135.395 1.63289C135.561 1.66675 135.68 1.69685 135.746 1.72318L135.603 2.3853C135.534 2.35144 135.438 2.32135 135.315 2.29125C135.191 2.26115 135.037 2.24611 134.856 2.24611C134.491 2.24611 134.233 2.34392 134.087 2.53955C133.94 2.73517 133.867 2.99852 133.867 3.32958V3.70202H135.561V4.34909H133.867V8.0058H133.078V3.31453C133.078 2.76151 133.217 2.33639 133.494 2.03543C133.771 1.73447 134.206 1.58398 134.799 1.58398Z" fill="white"/>
<path d="M136.868 2.9262C136.725 2.9262 136.606 2.88105 136.51 2.79076C136.409 2.70048 136.363 2.57633 136.363 2.42208C136.363 2.26784 136.413 2.14369 136.51 2.0534C136.61 1.96311 136.729 1.91797 136.868 1.91797C137.006 1.91797 137.129 1.96311 137.229 2.0534C137.329 2.14369 137.376 2.26784 137.376 2.42208C137.376 2.57633 137.326 2.70048 137.229 2.79076C137.129 2.88105 137.01 2.9262 136.868 2.9262ZM137.268 8.00497H136.479V3.70118H137.268V8.00497Z" fill="white"/>
<path d="M138.594 3.82772C138.775 3.78257 139.013 3.73743 139.314 3.68852C139.614 3.63962 139.956 3.61328 140.345 3.61328C140.695 3.61328 140.988 3.66219 141.219 3.76C141.45 3.85781 141.635 3.99325 141.773 4.1663C141.912 4.33936 142.008 4.55003 142.066 4.7908C142.124 5.03534 142.15 5.30244 142.15 5.59212V8.00736H141.361V5.75765C141.361 5.49431 141.342 5.26482 141.307 5.08048C141.269 4.89238 141.211 4.7419 141.127 4.62527C141.042 4.50865 140.93 4.42588 140.788 4.37322C140.645 4.32055 140.472 4.29421 140.264 4.29421C140.18 4.29421 140.091 4.29421 140.003 4.30174C139.91 4.3055 139.826 4.31302 139.745 4.32431C139.664 4.33183 139.591 4.34312 139.525 4.35441C139.46 4.36569 139.414 4.37322 139.387 4.38074V8.01488H138.598V3.83524L138.594 3.82772Z" fill="white"/>
<path d="M144.865 3.59766C145.181 3.59766 145.446 3.63904 145.666 3.71804C145.881 3.79704 146.058 3.90991 146.189 4.05663C146.32 4.20335 146.416 4.3764 146.474 4.57955C146.532 4.7827 146.559 5.00466 146.559 5.24543V7.9353C146.489 7.94659 146.397 7.96163 146.274 7.98044C146.151 7.99925 146.016 8.01807 145.862 8.03311C145.708 8.04816 145.546 8.06321 145.365 8.07826C145.184 8.09331 145.011 8.10083 144.838 8.10083C144.588 8.10083 144.361 8.0745 144.153 8.02559C143.945 7.97668 143.764 7.89768 143.61 7.78858C143.456 7.67948 143.341 7.54028 143.256 7.36347C143.171 7.18665 143.129 6.97598 143.129 6.72768C143.129 6.47939 143.179 6.28752 143.275 6.11447C143.375 5.94518 143.51 5.80598 143.676 5.70064C143.845 5.5953 144.041 5.52006 144.268 5.4674C144.495 5.41849 144.73 5.39215 144.98 5.39215C145.061 5.39215 145.142 5.39592 145.227 5.40344C145.311 5.41096 145.392 5.42225 145.469 5.4373C145.546 5.45235 145.612 5.46363 145.669 5.47492C145.727 5.48621 145.766 5.49373 145.789 5.50125V5.28682C145.789 5.15891 145.773 5.03476 145.746 4.91061C145.719 4.78646 145.666 4.67736 145.592 4.57955C145.519 4.48174 145.419 4.4065 145.292 4.3463C145.165 4.28987 145 4.25978 144.796 4.25978C144.538 4.25978 144.311 4.27859 144.114 4.31245C143.918 4.35007 143.776 4.38392 143.679 4.42531L143.587 3.78952C143.687 3.74438 143.856 3.70299 144.095 3.66161C144.334 3.62023 144.588 3.59766 144.865 3.59766ZM144.93 7.45376C145.115 7.45376 145.281 7.45 145.427 7.44247C145.573 7.43495 145.693 7.4199 145.789 7.39733V6.11447C145.731 6.08813 145.642 6.0618 145.515 6.04299C145.388 6.02418 145.234 6.01289 145.054 6.01289C144.934 6.01289 144.811 6.02042 144.676 6.03923C144.542 6.05804 144.422 6.0919 144.311 6.1408C144.199 6.19347 144.107 6.26495 144.033 6.35524C143.96 6.44553 143.922 6.56591 143.922 6.7164C143.922 6.99103 144.01 7.18289 144.191 7.29199C144.372 7.40109 144.619 7.45376 144.927 7.45376H144.93Z" fill="white"/>
<path d="M147.855 3.82772C148.036 3.78257 148.275 3.73743 148.575 3.68852C148.876 3.63962 149.218 3.61328 149.607 3.61328C149.957 3.61328 150.25 3.66219 150.481 3.76C150.712 3.85781 150.896 3.99325 151.035 4.1663C151.174 4.33936 151.27 4.55003 151.328 4.7908C151.385 5.03534 151.412 5.30244 151.412 5.59212V8.00736H150.623V5.75765C150.623 5.49431 150.604 5.26482 150.569 5.08048C150.531 4.89238 150.473 4.7419 150.388 4.62527C150.304 4.50865 150.192 4.42588 150.05 4.37322C149.907 4.32055 149.734 4.29421 149.526 4.29421C149.441 4.29421 149.353 4.29421 149.264 4.30174C149.172 4.3055 149.087 4.31302 149.006 4.32431C148.926 4.33183 148.852 4.34312 148.787 4.35441C148.722 4.36569 148.675 4.37322 148.648 4.38074V8.01488H147.859V3.83524L147.855 3.82772Z" fill="white"/>
<path d="M153.726 7.45166C154.049 7.45166 154.288 7.41028 154.442 7.32751C154.596 7.24475 154.677 7.11308 154.677 6.92874C154.677 6.7444 154.6 6.59391 154.45 6.48105C154.296 6.37195 154.046 6.2478 153.695 6.10861C153.526 6.04089 153.364 5.97317 153.206 5.90546C153.052 5.83774 152.918 5.75498 152.806 5.66092C152.694 5.56687 152.602 5.45401 152.537 5.32234C152.467 5.19067 152.437 5.0289 152.437 4.83327C152.437 4.45331 152.579 4.14858 152.868 3.92662C153.156 3.70466 153.549 3.5918 154.046 3.5918C154.169 3.5918 154.296 3.59932 154.419 3.61437C154.542 3.62942 154.658 3.64447 154.765 3.66328C154.873 3.68209 154.965 3.70466 155.05 3.72723C155.135 3.7498 155.196 3.76861 155.243 3.78366L155.1 4.44578C155.016 4.40064 154.885 4.35549 154.704 4.31035C154.523 4.2652 154.307 4.23887 154.053 4.23887C153.834 4.23887 153.641 4.28025 153.476 4.36678C153.31 4.45331 153.229 4.58498 153.229 4.76932C153.229 4.86337 153.249 4.94614 153.283 5.01761C153.318 5.08909 153.376 5.15305 153.453 5.21324C153.53 5.26967 153.622 5.3261 153.738 5.37501C153.849 5.42392 153.988 5.47658 154.146 5.53301C154.353 5.61202 154.542 5.68726 154.704 5.75874C154.865 5.83398 155.008 5.92051 155.123 6.01832C155.239 6.11613 155.327 6.23652 155.389 6.37948C155.45 6.51867 155.481 6.69173 155.481 6.89488C155.481 7.29365 155.331 7.59462 155.027 7.79777C154.727 8.00092 154.296 8.1025 153.738 8.1025C153.349 8.1025 153.045 8.0724 152.821 8.00844C152.602 7.94449 152.452 7.89558 152.371 7.86172L152.514 7.1996C152.602 7.23346 152.748 7.28237 152.945 7.35009C153.141 7.4178 153.407 7.4479 153.734 7.4479L153.726 7.45166Z" fill="white"/>
<path d="M160.376 5.85489C160.376 6.19723 160.326 6.50572 160.222 6.78035C160.118 7.05498 159.98 7.29199 159.795 7.49138C159.61 7.69077 159.395 7.84125 159.137 7.95035C158.879 8.05945 158.606 8.11212 158.305 8.11212C158.005 8.11212 157.728 8.05945 157.474 7.95035C157.22 7.84125 157 7.69077 156.816 7.49138C156.631 7.29199 156.488 7.05498 156.388 6.78035C156.288 6.50572 156.234 6.19723 156.234 5.85489C156.234 5.51254 156.284 5.21158 156.388 4.93318C156.488 4.65479 156.631 4.41778 156.816 4.21839C157 4.01901 157.216 3.86476 157.474 3.75942C157.728 3.65032 158.005 3.59766 158.305 3.59766C158.606 3.59766 158.883 3.65032 159.137 3.75942C159.391 3.86852 159.61 4.01901 159.795 4.21839C159.98 4.41778 160.122 4.65479 160.222 4.93318C160.322 5.21158 160.376 5.52006 160.376 5.85489ZM159.552 5.85489C159.552 5.36958 159.441 4.98585 159.218 4.69994C158.994 4.41402 158.69 4.27483 158.309 4.27483C157.928 4.27483 157.62 4.41778 157.397 4.69994C157.174 4.98585 157.062 5.36958 157.062 5.85489C157.062 6.34019 157.174 6.72392 157.397 7.00984C157.62 7.29575 157.924 7.43495 158.309 7.43495C158.694 7.43495 158.998 7.29199 159.218 7.00984C159.437 6.72768 159.552 6.34019 159.552 5.85489Z" fill="white"/>
<path d="M165.005 8.00691C164.848 7.60813 164.678 7.15669 164.501 6.64505C164.324 6.13341 164.162 5.60296 164.016 5.0537C163.87 5.60672 163.708 6.13717 163.535 6.64505C163.358 7.15669 163.192 7.60813 163.035 8.00691H162.349C162.091 7.43884 161.837 6.79177 161.587 6.06193C161.337 5.33209 161.106 4.54582 160.883 3.70312H161.73C161.787 3.96271 161.853 4.24486 161.934 4.54582C162.014 4.84679 162.095 5.15151 162.184 5.45624C162.272 5.76097 162.361 6.05064 162.457 6.3328C162.553 6.61495 162.642 6.85949 162.727 7.07016C162.823 6.81058 162.919 6.53595 163.011 6.24627C163.104 5.95659 163.192 5.66315 163.277 5.36971C163.362 5.07627 163.443 4.7866 163.52 4.50068C163.597 4.21476 163.662 3.95142 163.72 3.70312H164.37C164.42 3.95142 164.482 4.21853 164.555 4.50068C164.628 4.78283 164.709 5.07627 164.794 5.36971C164.878 5.66315 164.967 5.95659 165.059 6.24627C165.152 6.53595 165.248 6.81058 165.344 7.07016C165.429 6.85949 165.517 6.61495 165.61 6.3328C165.702 6.05064 165.794 5.7572 165.883 5.45624C165.972 5.15151 166.056 4.85055 166.137 4.54582C166.218 4.2411 166.283 3.96271 166.341 3.70312H167.153C166.934 4.54582 166.699 5.33209 166.449 6.06193C166.199 6.79177 165.945 7.43884 165.687 8.00691H165.002H165.005Z" fill="white"/>
<path d="M169.357 3.59766C169.673 3.59766 169.938 3.63904 170.158 3.71804C170.373 3.79704 170.55 3.90991 170.681 4.05663C170.812 4.20335 170.908 4.3764 170.966 4.57955C171.024 4.7827 171.051 5.00466 171.051 5.24543V7.9353C170.981 7.94659 170.889 7.96163 170.766 7.98044C170.643 7.99925 170.508 8.01807 170.354 8.03311C170.2 8.04816 170.038 8.06321 169.858 8.07826C169.677 8.09331 169.503 8.10083 169.33 8.10083C169.08 8.10083 168.853 8.0745 168.645 8.02559C168.437 7.97668 168.256 7.89768 168.102 7.78858C167.948 7.67948 167.833 7.54028 167.748 7.36347C167.663 7.18665 167.621 6.97598 167.621 6.72768C167.621 6.47939 167.671 6.28752 167.767 6.11447C167.867 5.94518 168.002 5.80598 168.168 5.70064C168.337 5.5953 168.533 5.52006 168.76 5.4674C168.988 5.41849 169.222 5.39215 169.473 5.39215C169.553 5.39215 169.634 5.39592 169.719 5.40344C169.804 5.41096 169.884 5.42225 169.961 5.4373C170.038 5.45235 170.104 5.46363 170.162 5.47492C170.219 5.48621 170.258 5.49373 170.281 5.50125V5.28682C170.281 5.15891 170.266 5.03476 170.239 4.91061C170.212 4.78646 170.158 4.67736 170.085 4.57955C170.011 4.48174 169.911 4.4065 169.784 4.3463C169.657 4.28987 169.492 4.25978 169.288 4.25978C169.03 4.25978 168.803 4.27859 168.607 4.31245C168.41 4.35007 168.268 4.38392 168.172 4.42531L168.079 3.78952C168.179 3.74438 168.349 3.70299 168.587 3.66161C168.826 3.62023 169.08 3.59766 169.357 3.59766ZM169.423 7.45376C169.607 7.45376 169.773 7.45 169.919 7.44247C170.065 7.43495 170.185 7.4199 170.281 7.39733V6.11447C170.223 6.08813 170.135 6.0618 170.008 6.04299C169.881 6.02418 169.727 6.01289 169.546 6.01289C169.426 6.01289 169.303 6.02042 169.169 6.03923C169.034 6.05804 168.914 6.0919 168.803 6.1408C168.691 6.19347 168.599 6.26495 168.526 6.35524C168.453 6.44553 168.414 6.56591 168.414 6.7164C168.414 6.99103 168.503 7.18289 168.683 7.29199C168.864 7.40109 169.111 7.45376 169.419 7.45376H169.423Z" fill="white"/>
<path d="M172.344 3.82772C172.525 3.78257 172.763 3.73743 173.064 3.68852C173.364 3.63962 173.706 3.61328 174.095 3.61328C174.445 3.61328 174.734 3.66219 174.969 3.76C175.2 3.85781 175.385 3.99325 175.523 4.1663C175.662 4.33936 175.758 4.55003 175.816 4.7908C175.874 5.03534 175.9 5.30244 175.9 5.59212V8.00736H175.111V5.75765C175.111 5.49431 175.092 5.26482 175.057 5.08048C175.019 4.89238 174.961 4.7419 174.877 4.62527C174.792 4.50865 174.68 4.42588 174.538 4.37322C174.395 4.32055 174.222 4.29421 174.014 4.29421C173.93 4.29421 173.841 4.29421 173.753 4.30174C173.664 4.30926 173.576 4.31302 173.495 4.32431C173.414 4.33183 173.341 4.34312 173.275 4.35441C173.21 4.36569 173.164 4.37322 173.137 4.38074V8.01488H172.348V3.83524L172.344 3.82772Z" fill="white"/>
<path d="M176.949 5.86241C176.949 5.48244 177.007 5.14762 177.119 4.86547C177.23 4.58331 177.38 4.3463 177.569 4.1582C177.754 3.9701 177.969 3.8309 178.212 3.73685C178.454 3.6428 178.704 3.59766 178.959 3.59766C179.551 3.59766 180.006 3.77823 180.321 4.13939C180.637 4.50055 180.795 5.04981 180.795 5.79093V5.91884C180.795 5.97151 180.795 6.02042 180.787 6.06556H177.773C177.808 6.51325 177.938 6.85183 178.169 7.08508C178.4 7.31832 178.762 7.43119 179.255 7.43119C179.532 7.43119 179.763 7.40861 179.952 7.35971C180.14 7.31456 180.283 7.26566 180.379 7.22427L180.491 7.87135C180.394 7.92025 180.225 7.97292 179.986 8.02935C179.748 8.08578 179.474 8.11212 179.17 8.11212C178.785 8.11212 178.454 8.05569 178.177 7.94283C177.896 7.82996 177.669 7.67572 177.488 7.47633C177.307 7.27694 177.172 7.04369 177.088 6.76906C177.003 6.49444 176.957 6.19723 176.957 5.86993L176.949 5.86241ZM179.971 5.44106C179.979 5.09495 179.89 4.80904 179.705 4.58331C179.521 4.36135 179.27 4.24849 178.947 4.24849C178.766 4.24849 178.608 4.28235 178.47 4.35007C178.331 4.41778 178.216 4.50807 178.119 4.61717C178.023 4.72627 177.95 4.85418 177.896 4.99714C177.842 5.1401 177.808 5.28682 177.788 5.4373H179.971V5.44106Z" fill="white"/>
<path d="M187.79 5.86089C187.79 6.18819 187.748 6.48915 187.659 6.76378C187.571 7.03841 187.444 7.27542 187.274 7.47481C187.105 7.6742 186.897 7.82844 186.651 7.93754C186.404 8.04664 186.123 8.10307 185.808 8.10307C185.554 8.10307 185.331 8.06921 185.134 8.00526C184.938 7.93754 184.795 7.87735 184.699 7.81339V9.53641H183.91V3.83314C184.095 3.788 184.33 3.73909 184.611 3.68642C184.892 3.63376 185.215 3.60742 185.581 3.60742C185.919 3.60742 186.224 3.66009 186.497 3.76543C186.766 3.87077 187.001 4.01749 187.19 4.21311C187.382 4.40498 187.528 4.64199 187.632 4.92038C187.736 5.19877 187.79 5.51102 187.79 5.86089ZM186.966 5.86089C186.966 5.36054 186.839 4.97305 186.585 4.70218C186.331 4.43131 185.993 4.29588 185.569 4.29588C185.331 4.29588 185.146 4.3034 185.015 4.32221C184.884 4.34102 184.776 4.35983 184.695 4.37864V7.09484C184.792 7.17385 184.93 7.24533 185.111 7.3168C185.292 7.38828 185.488 7.4259 185.704 7.4259C185.931 7.4259 186.123 7.38452 186.285 7.30552C186.447 7.22651 186.578 7.11365 186.678 6.97446C186.778 6.83526 186.851 6.66973 186.897 6.47787C186.943 6.286 186.966 6.08285 186.966 5.86089Z" fill="white"/>
<path d="M190.562 3.61118C190.631 3.61118 190.708 3.61495 190.793 3.62247C190.878 3.62999 190.966 3.64128 191.051 3.65633C191.135 3.67138 191.212 3.68266 191.286 3.69771C191.355 3.71276 191.409 3.72405 191.443 3.73533L191.309 4.40498C191.247 4.3824 191.143 4.35607 191.001 4.32597C190.858 4.29588 190.674 4.28083 190.446 4.28083C190.3 4.28083 190.154 4.29588 190.011 4.32597C189.869 4.35607 189.773 4.37864 189.727 4.38993V8.00526H188.938V3.88205C189.122 3.81433 189.357 3.75414 189.63 3.69395C189.908 3.63752 190.215 3.60742 190.562 3.60742V3.61118Z" fill="white"/>
<path d="M195.354 4.28248C195.234 4.41039 195.08 4.58721 194.884 4.82045C194.688 5.0537 194.48 5.30952 194.257 5.59167C194.033 5.87383 193.81 6.16727 193.587 6.47576C193.363 6.78424 193.167 7.08145 192.998 7.35984H195.419V8.00691H192.059V7.49527C192.193 7.25074 192.359 6.98363 192.559 6.69396C192.755 6.40052 192.963 6.11084 193.183 5.82116C193.402 5.53148 193.61 5.25685 193.818 5.00103C194.026 4.74521 194.203 4.52701 194.357 4.3502H192.182V3.70312H195.357V4.28248H195.354Z" fill="white"/>
<path d="M196.117 5.86241C196.117 5.48244 196.175 5.14762 196.287 4.86547C196.398 4.58331 196.548 4.3463 196.737 4.1582C196.922 3.9701 197.137 3.8309 197.38 3.73685C197.622 3.6428 197.872 3.59766 198.126 3.59766C198.719 3.59766 199.173 3.77823 199.489 4.13939C199.805 4.50055 199.963 5.04981 199.963 5.79093V5.91884C199.963 5.97151 199.963 6.02042 199.955 6.06556H196.941C196.976 6.51325 197.106 6.85183 197.337 7.08508C197.568 7.31832 197.93 7.43119 198.423 7.43119C198.7 7.43119 198.931 7.40861 199.12 7.35971C199.308 7.31456 199.451 7.26566 199.547 7.22427L199.659 7.87135C199.562 7.92025 199.393 7.97292 199.154 8.02935C198.916 8.08578 198.642 8.11212 198.338 8.11212C197.953 8.11212 197.622 8.05569 197.345 7.94283C197.064 7.82996 196.837 7.67572 196.656 7.47633C196.475 7.27694 196.34 7.04369 196.256 6.76906C196.171 6.49444 196.125 6.19723 196.125 5.86993L196.117 5.86241ZM199.139 5.44106C199.143 5.09495 199.054 4.80904 198.873 4.58331C198.688 4.36135 198.438 4.24849 198.115 4.24849C197.934 4.24849 197.776 4.28235 197.638 4.35007C197.499 4.41778 197.384 4.50807 197.287 4.61717C197.191 4.72627 197.118 4.85418 197.064 4.99714C197.01 5.1401 196.976 5.28682 196.956 5.4373H199.143L199.139 5.44106Z" fill="white"/>
<path d="M203.982 4.28248C203.863 4.41039 203.709 4.58721 203.513 4.82045C203.317 5.0537 203.109 5.30952 202.885 5.59167C202.662 5.87383 202.439 6.16727 202.216 6.47576C201.992 6.78424 201.796 7.08145 201.627 7.35984H204.048V8.00691H200.688V7.49527C200.822 7.25074 200.988 6.98363 201.188 6.69396C201.384 6.40052 201.592 6.11084 201.811 5.82116C202.031 5.53148 202.239 5.25685 202.447 5.00103C202.654 4.74521 202.832 4.52701 202.986 4.3502H200.811V3.70312H203.986V4.28248H203.982Z" fill="white"/>
<path d="M145.143 18.7968C144.758 18.7968 144.427 18.7404 144.142 18.6238C143.861 18.5071 143.63 18.3491 143.449 18.146C143.268 17.9428 143.134 17.7058 143.049 17.4312C142.96 17.1566 142.918 16.8556 142.918 16.5358V12.9355H143.738V16.4455C143.738 17.0211 143.869 17.435 144.127 17.6945C144.385 17.9541 144.723 18.082 145.143 18.082C145.351 18.082 145.543 18.0519 145.716 17.988C145.89 17.924 146.036 17.8262 146.163 17.6945C146.286 17.5629 146.382 17.3936 146.452 17.1867C146.521 16.9798 146.552 16.7315 146.552 16.4455V12.9355H147.372V16.5358C147.372 16.8556 147.329 17.1528 147.241 17.4312C147.152 17.7096 147.017 17.9466 146.833 18.146C146.648 18.3491 146.417 18.5071 146.14 18.6238C145.859 18.7404 145.528 18.7968 145.147 18.7968H145.143Z" fill="white"/>
<path d="M148.715 14.4918C148.896 14.4466 149.134 14.4015 149.435 14.3526C149.735 14.3037 150.077 14.2773 150.466 14.2773C150.817 14.2773 151.109 14.3263 151.34 14.4241C151.571 14.5219 151.756 14.6573 151.894 14.8304C152.033 15.0034 152.129 15.2141 152.187 15.4549C152.245 15.6994 152.272 15.9665 152.272 16.2562V18.6714H151.482V16.4217C151.482 16.1584 151.463 15.9289 151.429 15.7445C151.39 15.5564 151.332 15.406 151.248 15.2893C151.163 15.1727 151.051 15.0899 150.909 15.0373C150.766 14.9846 150.593 14.9583 150.385 14.9583C150.301 14.9583 150.212 14.9583 150.124 14.9658C150.031 14.9696 149.947 14.9771 149.866 14.9884C149.785 14.9959 149.712 15.0072 149.646 15.0185C149.581 15.0298 149.535 15.0373 149.508 15.0448V18.6789H148.719V14.4993L148.715 14.4918Z" fill="white"/>
<path d="M153.922 13.5903C153.78 13.5903 153.66 13.5451 153.564 13.4548C153.464 13.3645 153.418 13.2404 153.418 13.0861C153.418 12.9319 153.468 12.8078 153.564 12.7175C153.664 12.6272 153.784 12.582 153.922 12.582C154.061 12.582 154.184 12.6272 154.284 12.7175C154.384 12.8078 154.43 12.9319 154.43 13.0861C154.43 13.2404 154.38 13.3645 154.284 13.4548C154.184 13.5451 154.065 13.5903 153.922 13.5903ZM154.319 18.6728H153.53V14.369H154.319V18.6728Z" fill="white"/>
<path d="M155.441 16.5265C155.441 16.1465 155.499 15.8117 155.611 15.5295C155.722 15.2474 155.873 15.0104 156.061 14.8223C156.246 14.6342 156.461 14.495 156.704 14.4009C156.946 14.3069 157.197 14.2617 157.451 14.2617C158.044 14.2617 158.498 14.4423 158.813 14.8035C159.129 15.1646 159.287 15.7139 159.287 16.455V16.5829C159.287 16.6356 159.287 16.6845 159.279 16.7296H156.265C156.3 17.1773 156.431 17.5159 156.662 17.7491C156.893 17.9824 157.254 18.0952 157.747 18.0952C158.024 18.0952 158.255 18.0727 158.448 18.0238C158.636 17.9786 158.779 17.9297 158.875 17.8883L158.987 18.5354C158.89 18.6069 158.794 18.6784 158.698 18.7498C158.602 18.8213 158.509 18.9041 158.417 18.9981C158.321 19.0922 158.251 19.175 158.209 19.2427C158.167 19.3104 158.144 19.3781 158.144 19.4458C158.144 19.5399 158.174 19.6038 158.24 19.6377C158.305 19.6715 158.386 19.6866 158.482 19.6866C158.552 19.6866 158.613 19.6791 158.679 19.664C158.744 19.649 158.79 19.6377 158.833 19.6264L158.89 20.1305C158.821 20.1644 158.736 20.1869 158.629 20.202C158.521 20.217 158.421 20.2208 158.332 20.2208C158.044 20.2208 157.816 20.1719 157.651 20.0703C157.485 19.9725 157.401 19.8107 157.401 19.5888C157.401 19.4609 157.447 19.3254 157.539 19.1825C157.632 19.0395 157.766 18.8966 157.94 18.7536C157.893 18.7574 157.847 18.7649 157.801 18.7649C157.755 18.7649 157.705 18.7687 157.662 18.7687C157.278 18.7687 156.946 18.7122 156.669 18.5994C156.392 18.4865 156.161 18.3323 155.98 18.1329C155.799 17.9335 155.665 17.7002 155.58 17.4256C155.495 17.151 155.449 16.8538 155.449 16.5265H155.441ZM158.467 16.1051C158.471 15.759 158.382 15.4731 158.201 15.2474C158.017 15.0254 157.766 14.9126 157.443 14.9126C157.262 14.9126 157.104 14.9464 156.966 15.0141C156.827 15.0818 156.712 15.1721 156.615 15.2812C156.519 15.3903 156.446 15.5182 156.392 15.6612C156.338 15.8042 156.304 15.9509 156.284 16.1014H158.471L158.467 16.1051Z" fill="white"/>
<path d="M162.863 18.6727V12.9355H166.447V13.624H163.687V15.3282H166.143V15.9979H163.687V17.9842H166.659V18.6727H162.863Z" fill="white"/>
<path d="M171.002 18.5485C170.821 18.5936 170.583 18.6388 170.286 18.6877C169.99 18.7366 169.647 18.7629 169.258 18.7629C168.92 18.7629 168.635 18.714 168.404 18.6162C168.173 18.5184 167.988 18.383 167.846 18.2061C167.703 18.0293 167.603 17.8224 167.542 17.5816C167.48 17.3409 167.449 17.0738 167.449 16.7841V14.3689H168.238V16.6186C168.238 17.1415 168.323 17.5177 168.492 17.7434C168.662 17.9691 168.947 18.082 169.347 18.082C169.432 18.082 169.52 18.082 169.609 18.0745C169.701 18.0707 169.786 18.0632 169.863 18.0519C169.94 18.0406 170.013 18.0369 170.078 18.0256C170.144 18.018 170.19 18.0068 170.217 17.9955V14.3613H171.006V18.541L171.002 18.5485Z" fill="white"/>
<path d="M174.003 14.2772C174.073 14.2772 174.15 14.281 174.238 14.2885C174.327 14.296 174.411 14.3073 174.496 14.3223C174.581 14.3374 174.658 14.3487 174.731 14.3637C174.8 14.3788 174.854 14.3901 174.889 14.4013L174.754 15.071C174.692 15.0484 174.588 15.0221 174.446 14.992C174.304 14.9619 174.115 14.9468 173.892 14.9468C173.745 14.9468 173.599 14.9619 173.457 14.992C173.314 15.0221 173.218 15.0447 173.172 15.0559V18.6713H172.383V14.5481C172.568 14.4804 172.799 14.4202 173.076 14.36C173.353 14.3035 173.665 14.2734 174.007 14.2734L174.003 14.2772Z" fill="white"/>
<path d="M179.517 16.5189C179.517 16.8613 179.467 17.1698 179.363 17.4444C179.263 17.719 179.12 17.9561 178.936 18.1554C178.751 18.3548 178.535 18.5053 178.277 18.6144C178.019 18.7235 177.746 18.7762 177.446 18.7762C177.146 18.7762 176.869 18.7235 176.614 18.6144C176.36 18.5053 176.141 18.3548 175.956 18.1554C175.771 17.9561 175.629 17.719 175.529 17.4444C175.429 17.1698 175.375 16.8613 175.375 16.5189C175.375 16.1766 175.425 15.8756 175.529 15.5972C175.629 15.3189 175.771 15.0818 175.956 14.8825C176.141 14.6831 176.357 14.5288 176.614 14.4235C176.869 14.3144 177.146 14.2617 177.446 14.2617C177.746 14.2617 178.023 14.3144 178.277 14.4235C178.531 14.5326 178.751 14.6831 178.936 14.8825C179.12 15.0818 179.263 15.3189 179.363 15.5972C179.463 15.8756 179.517 16.1841 179.517 16.5189ZM178.697 16.5189C178.697 16.0336 178.585 15.6499 178.362 15.364C178.139 15.0781 177.835 14.9389 177.454 14.9389C177.073 14.9389 176.765 15.0818 176.541 15.364C176.318 15.6499 176.206 16.0336 176.206 16.5189C176.206 17.0043 176.318 17.388 176.541 17.6739C176.765 17.9598 177.069 18.099 177.454 18.099C177.839 18.099 178.143 17.9561 178.362 17.6739C178.581 17.3917 178.697 17.0043 178.697 16.5189Z" fill="white"/>
<path d="M184.54 16.5269C184.54 16.8542 184.498 17.1552 184.409 17.4298C184.321 17.7044 184.194 17.9414 184.024 18.1408C183.855 18.3402 183.647 18.4945 183.401 18.6036C183.154 18.7127 182.873 18.7691 182.558 18.7691C182.304 18.7691 182.081 18.7352 181.884 18.6713C181.688 18.6036 181.545 18.5434 181.449 18.4794V20.2024H180.66V14.4992C180.845 14.454 181.08 14.4051 181.361 14.3524C181.642 14.2998 181.965 14.2734 182.331 14.2734C182.669 14.2734 182.974 14.3261 183.247 14.4314C183.516 14.5368 183.751 14.6835 183.94 14.8791C184.132 15.071 184.278 15.308 184.382 15.5864C184.486 15.8648 184.54 16.177 184.54 16.5269ZM183.72 16.5269C183.72 16.0266 183.593 15.6391 183.339 15.3682C183.085 15.0973 182.746 14.9619 182.323 14.9619C182.084 14.9619 181.9 14.9694 181.769 14.9882C181.638 15.007 181.53 15.0258 181.449 15.0447V17.7609C181.545 17.8399 181.684 17.9113 181.865 17.9828C182.046 18.0543 182.242 18.0919 182.458 18.0919C182.685 18.0919 182.877 18.0505 183.039 17.9715C183.201 17.8925 183.332 17.7797 183.432 17.6405C183.532 17.5013 183.605 17.3357 183.651 17.1439C183.697 16.952 183.72 16.7489 183.72 16.5269Z" fill="white"/>
<path d="M185.367 16.5265C185.367 16.1465 185.425 15.8117 185.537 15.5295C185.648 15.2474 185.798 15.0104 185.987 14.8223C186.172 14.6342 186.387 14.495 186.63 14.4009C186.872 14.3069 187.122 14.2617 187.376 14.2617C187.969 14.2617 188.423 14.4423 188.739 14.8035C189.055 15.1646 189.213 15.7139 189.213 16.455V16.5829C189.213 16.6356 189.213 16.6845 189.205 16.7296H186.191C186.226 17.1773 186.356 17.5159 186.587 17.7491C186.818 17.9824 187.18 18.0952 187.673 18.0952C187.95 18.0952 188.181 18.0727 188.37 18.0238C188.558 17.9786 188.701 17.9297 188.797 17.8883L188.908 18.5354C188.812 18.5843 188.643 18.637 188.404 18.6934C188.166 18.7498 187.892 18.7762 187.588 18.7762C187.203 18.7762 186.872 18.7197 186.595 18.6069C186.314 18.494 186.087 18.3398 185.906 18.1404C185.725 17.941 185.59 17.7078 185.506 17.4331C185.417 17.1585 185.375 16.8613 185.375 16.534L185.367 16.5265ZM188.389 16.1051C188.393 15.759 188.304 15.4731 188.123 15.2474C187.938 15.0254 187.688 14.9126 187.365 14.9126C187.184 14.9126 187.026 14.9464 186.888 15.0141C186.749 15.0818 186.634 15.1721 186.537 15.2812C186.441 15.3903 186.368 15.5182 186.314 15.6612C186.26 15.8042 186.226 15.9509 186.206 16.1014H188.393L188.389 16.1051Z" fill="white"/>
<path d="M189.664 20.219C189.595 20.219 189.51 20.2115 189.402 20.1927C189.294 20.1738 189.206 20.155 189.133 20.1249L189.233 19.4967C189.291 19.5117 189.356 19.5268 189.429 19.5381C189.502 19.5493 189.572 19.5531 189.633 19.5531C189.903 19.5531 190.099 19.4703 190.214 19.3086C190.33 19.1468 190.388 18.906 190.388 18.5938V14.3652H191.177V18.5863C191.177 19.1393 191.05 19.5493 190.792 19.8165C190.534 20.0836 190.161 20.219 189.668 20.219H189.664ZM190.773 13.5903C190.63 13.5903 190.511 13.5451 190.411 13.4548C190.311 13.3645 190.264 13.2404 190.264 13.0861C190.264 12.9319 190.315 12.8078 190.411 12.7175C190.511 12.6272 190.63 12.582 190.773 12.582C190.915 12.582 191.034 12.6272 191.131 12.7175C191.231 12.8078 191.277 12.9319 191.277 13.0861C191.277 13.2404 191.227 13.3645 191.131 13.4548C191.03 13.5451 190.911 13.5903 190.773 13.5903Z" fill="white"/>
<path d="M193.617 18.1177C193.94 18.1177 194.179 18.0763 194.333 17.9935C194.487 17.9108 194.564 17.7791 194.564 17.5948C194.564 17.4104 194.487 17.2599 194.336 17.1471C194.182 17.038 193.932 16.9138 193.582 16.7746C193.413 16.7069 193.251 16.6392 193.097 16.5715C192.943 16.5038 192.808 16.421 192.697 16.3269C192.585 16.2329 192.493 16.12 192.427 15.9884C192.358 15.8567 192.327 15.6949 192.327 15.4993C192.327 15.1193 192.47 14.8146 192.758 14.5926C193.047 14.3707 193.44 14.2578 193.936 14.2578C194.059 14.2578 194.182 14.2653 194.309 14.2804C194.433 14.2954 194.548 14.3105 194.656 14.3293C194.764 14.3481 194.856 14.3707 194.941 14.3932C195.025 14.4158 195.087 14.4346 195.133 14.4497L194.991 15.1118C194.906 15.0667 194.775 15.0215 194.594 14.9764C194.413 14.9312 194.198 14.9049 193.944 14.9049C193.724 14.9049 193.532 14.9463 193.366 15.0328C193.201 15.1193 193.12 15.251 193.12 15.4353C193.12 15.5294 193.139 15.6121 193.174 15.6836C193.209 15.7551 193.266 15.8191 193.343 15.8793C193.42 15.9357 193.513 15.9921 193.628 16.041C193.74 16.0899 193.878 16.1426 194.036 16.199C194.244 16.278 194.433 16.3533 194.594 16.4248C194.76 16.5 194.898 16.5865 195.014 16.6843C195.129 16.7821 195.218 16.9025 195.279 17.0455C195.341 17.1847 195.372 17.3577 195.372 17.5609C195.372 17.9597 195.222 18.2606 194.918 18.4638C194.614 18.6669 194.186 18.7685 193.624 18.7685C193.236 18.7685 192.931 18.7384 192.708 18.6745C192.489 18.6105 192.339 18.5616 192.258 18.5277L192.4 17.8656C192.489 17.8995 192.635 17.9484 192.831 18.0161C193.028 18.0838 193.293 18.1139 193.62 18.1139L193.617 18.1177Z" fill="white"/>
<path d="M198.023 16.3056C198.193 16.4335 198.374 16.5916 198.562 16.7759C198.751 16.964 198.939 17.1671 199.12 17.3853C199.305 17.6035 199.478 17.8255 199.64 18.0475C199.805 18.2694 199.944 18.4801 200.056 18.672H199.132C199.013 18.4801 198.878 18.2807 198.72 18.0813C198.566 17.8782 198.401 17.6863 198.235 17.502C198.066 17.3176 197.892 17.1483 197.719 16.9941C197.546 16.8398 197.377 16.7082 197.219 16.6066V18.6757H196.43V12.3856L197.219 12.2539V16.1777C197.354 16.0461 197.504 15.8993 197.669 15.7376C197.835 15.5758 197.992 15.414 198.15 15.2485C198.308 15.083 198.458 14.925 198.601 14.7707C198.743 14.6202 198.862 14.4848 198.966 14.3682H199.89C199.759 14.5074 199.621 14.6579 199.467 14.8234C199.313 14.9889 199.155 15.1544 198.993 15.3237C198.828 15.493 198.666 15.6586 198.497 15.8279C198.331 15.9971 198.173 16.1552 198.027 16.3056H198.023Z" fill="white"/>
<path d="M202.353 14.2578C202.669 14.2578 202.934 14.2992 203.154 14.3782C203.369 14.4572 203.546 14.5701 203.677 14.7168C203.808 14.8635 203.904 15.0366 203.962 15.2397C204.02 15.4429 204.047 15.6648 204.047 15.9056V18.5955C203.978 18.6444 203.904 18.7008 203.824 18.7647C203.743 18.8287 203.658 18.9039 203.573 18.9905C203.493 19.077 203.431 19.156 203.377 19.2237C203.327 19.2914 203.3 19.3629 203.3 19.4382C203.3 19.5999 203.412 19.6789 203.639 19.6789C203.677 19.6789 203.731 19.6752 203.797 19.6676C203.862 19.6601 203.924 19.6451 203.989 19.6225L204.047 20.1266C203.985 20.1529 203.904 20.1755 203.804 20.1943C203.704 20.2094 203.6 20.2207 203.489 20.2207C203.173 20.2207 202.938 20.1642 202.784 20.0514C202.63 19.9385 202.557 19.7843 202.557 19.5924C202.557 19.4645 202.596 19.3441 202.677 19.2237C202.757 19.1033 202.842 18.998 202.938 18.8964C202.965 18.8626 203 18.8325 203.038 18.8024C203.077 18.7723 203.111 18.7422 203.138 18.7158C203.008 18.7271 202.873 18.7384 202.738 18.7497C202.6 18.761 202.465 18.7647 202.326 18.7647C202.076 18.7647 201.849 18.7384 201.641 18.6895C201.433 18.6406 201.252 18.5616 201.098 18.4525C200.944 18.3434 200.829 18.2042 200.744 18.0274C200.66 17.8506 200.617 17.6399 200.617 17.3916C200.617 17.1433 200.667 16.9514 200.763 16.7784C200.864 16.6091 200.994 16.4699 201.164 16.3646C201.333 16.2592 201.529 16.184 201.757 16.1313C201.984 16.0824 202.218 16.0561 202.469 16.0561C202.55 16.0561 202.63 16.0598 202.715 16.0674C202.8 16.0749 202.881 16.0862 202.958 16.1012C203.035 16.1163 203.1 16.1276 203.158 16.1388C203.215 16.1501 203.254 16.1576 203.277 16.1652V15.9507C203.277 15.8228 203.262 15.6987 203.235 15.5745C203.208 15.4504 203.154 15.3413 203.081 15.2435C203.008 15.1457 202.907 15.0704 202.78 15.0102C202.653 14.9538 202.488 14.9237 202.284 14.9237C202.026 14.9237 201.795 14.9425 201.603 14.9764C201.406 15.014 201.264 15.0478 201.168 15.0892L201.075 14.4534C201.175 14.4083 201.345 14.3669 201.583 14.3255C201.822 14.2841 202.076 14.2616 202.353 14.2616V14.2578ZM202.422 18.1177C202.607 18.1177 202.773 18.1139 202.919 18.1064C203.065 18.0989 203.185 18.0838 203.277 18.0612V16.7784C203.219 16.7521 203.131 16.7257 203.004 16.7069C202.877 16.6881 202.723 16.6768 202.542 16.6768C202.422 16.6768 202.299 16.6843 202.165 16.7031C202.03 16.722 201.911 16.7558 201.799 16.8047C201.687 16.8574 201.599 16.9289 201.526 17.0192C201.452 17.1094 201.414 17.2298 201.414 17.3803C201.414 17.6549 201.503 17.8468 201.683 17.9559C201.864 18.065 202.111 18.1177 202.419 18.1177H202.422Z" fill="white"/>
<path d="M126.638 29.3381C126.422 28.9883 126.183 28.6083 125.918 28.2057C125.652 27.8032 125.379 27.3931 125.094 26.9831C124.809 26.573 124.521 26.1742 124.228 25.7905C123.935 25.4068 123.654 25.0569 123.389 24.7484V29.3381H122.215V22.9238H123.189C123.443 23.1834 123.712 23.4881 124.005 23.8455C124.293 24.1992 124.586 24.5678 124.882 24.9516C125.175 25.3353 125.46 25.719 125.733 26.1028C126.006 26.4865 126.253 26.8476 126.468 27.1825V22.9238H127.654V29.3381H126.641H126.638Z" fill="white"/>
<path d="M128.707 26.9427C128.707 26.5176 128.772 26.1451 128.899 25.8216C129.03 25.5018 129.2 25.2347 129.415 25.0203C129.631 24.8058 129.877 24.6478 130.154 24.5387C130.431 24.4296 130.716 24.377 131.005 24.377C131.686 24.377 132.218 24.5839 132.602 24.9977C132.984 25.4115 133.176 26.0285 133.176 26.8486C133.176 26.9088 133.176 26.9803 133.172 27.0555C133.172 27.1345 133.164 27.2023 133.157 27.2624H129.889C129.92 27.6499 130.062 27.9509 130.312 28.1653C130.562 28.3798 130.924 28.4851 131.398 28.4851C131.675 28.4851 131.929 28.4588 132.16 28.4099C132.391 28.361 132.572 28.3083 132.703 28.2519L132.853 29.1698C132.787 29.1999 132.703 29.2338 132.591 29.2676C132.479 29.3015 132.352 29.3316 132.214 29.3617C132.075 29.3918 131.917 29.4143 131.756 29.4294C131.59 29.4482 131.425 29.4557 131.255 29.4557C130.82 29.4557 130.439 29.3918 130.12 29.2676C129.796 29.1397 129.531 28.9667 129.323 28.7409C129.115 28.5152 128.961 28.2519 128.857 27.9434C128.757 27.6386 128.707 27.3038 128.707 26.9389V26.9427ZM132.029 26.4423C132.029 26.2881 132.006 26.1414 131.963 26.0022C131.917 25.863 131.856 25.7426 131.767 25.641C131.683 25.5394 131.579 25.4604 131.455 25.4002C131.332 25.34 131.186 25.3137 131.017 25.3137C130.847 25.3137 130.686 25.3476 130.551 25.4115C130.42 25.4755 130.304 25.562 130.216 25.6673C130.124 25.7727 130.054 25.8931 130.004 26.0285C129.954 26.1639 129.92 26.3031 129.9 26.4461H132.029V26.4423Z" fill="white"/>
<path d="M136.09 25.9803L137.141 24.498H138.341L136.679 26.8155C137.025 27.2406 137.36 27.6732 137.679 28.1096C137.999 28.546 138.261 28.9561 138.465 29.3398H137.217C137.16 29.2269 137.087 29.1028 136.994 28.9674C136.902 28.8319 136.806 28.689 136.702 28.5423C136.598 28.3955 136.49 28.2488 136.378 28.1059C136.267 27.9629 136.155 27.8237 136.047 27.6995C135.824 27.9516 135.609 28.23 135.397 28.5347C135.185 28.8395 135.008 29.1103 134.869 29.3436H133.703C133.796 29.1592 133.911 28.9636 134.05 28.7567C134.184 28.5498 134.331 28.3429 134.488 28.1247C134.642 27.9102 134.804 27.6958 134.97 27.4814C135.135 27.2669 135.301 27.0638 135.462 26.8681L133.78 24.5018H135.039L136.09 25.9841V25.9803Z" fill="white"/>
<path d="M139.422 23.2195L140.569 23.0352V24.4986H142.332V25.4316H140.569V27.4029C140.569 27.7904 140.631 28.0688 140.758 28.2343C140.885 28.3998 141.096 28.4826 141.4 28.4826C141.608 28.4826 141.793 28.46 141.955 28.4187C142.116 28.3773 142.243 28.3359 142.34 28.2983L142.528 29.1861C142.397 29.2425 142.224 29.299 142.009 29.3592C141.793 29.4194 141.543 29.4457 141.25 29.4457C140.896 29.4457 140.6 29.4005 140.365 29.3065C140.13 29.2124 139.942 29.0808 139.803 28.904C139.664 28.7271 139.564 28.5165 139.51 28.2644C139.453 28.0161 139.426 27.7302 139.426 27.4067V23.2157L139.422 23.2195Z" fill="white"/>
<path d="M146.704 23.8027C146.031 23.8027 145.511 24.0096 145.157 24.4197C144.799 24.8298 144.622 25.3978 144.622 26.1277C144.622 26.4738 144.664 26.7898 144.749 27.0757C144.834 27.3616 144.961 27.6062 145.126 27.8131C145.296 28.0162 145.504 28.1742 145.75 28.2908C146 28.4037 146.293 28.4639 146.628 28.4639C146.835 28.4639 147.016 28.4564 147.166 28.4413C147.317 28.4263 147.44 28.4075 147.524 28.3811V26.0788H148.718V29.1599C148.552 29.2201 148.275 29.2878 147.886 29.363C147.494 29.4383 147.043 29.4721 146.531 29.4721C146.058 29.4721 145.627 29.3969 145.234 29.2502C144.841 29.1034 144.51 28.8852 144.233 28.6031C143.96 28.3209 143.744 27.9711 143.594 27.5572C143.444 27.1434 143.367 26.6694 143.367 26.1314C143.367 25.5935 143.452 25.1194 143.617 24.7056C143.783 24.2918 144.014 23.9419 144.303 23.656C144.591 23.3701 144.934 23.1519 145.326 23.0052C145.719 22.8584 146.135 22.7832 146.577 22.7832C146.882 22.7832 147.151 22.802 147.386 22.8434C147.624 22.8848 147.825 22.9299 147.998 22.9788C148.167 23.0277 148.31 23.0804 148.421 23.1368C148.533 23.1933 148.61 23.2309 148.652 23.2572L148.29 24.209C148.102 24.0962 147.867 24.0021 147.586 23.9269C147.305 23.8516 147.009 23.8102 146.701 23.8102L146.704 23.8027Z" fill="white"/>
<path d="M149.875 26.9427C149.875 26.5176 149.94 26.1451 150.067 25.8216C150.198 25.5018 150.368 25.2347 150.583 25.0203C150.799 24.8058 151.045 24.6478 151.322 24.5387C151.599 24.4296 151.884 24.377 152.173 24.377C152.854 24.377 153.386 24.5839 153.77 24.9977C154.152 25.4115 154.344 26.0285 154.344 26.8486C154.344 26.9088 154.344 26.9803 154.34 27.0555C154.34 27.1345 154.332 27.2023 154.325 27.2624H151.057C151.088 27.6499 151.23 27.9509 151.48 28.1653C151.73 28.3798 152.092 28.4851 152.566 28.4851C152.843 28.4851 153.097 28.4588 153.328 28.4099C153.559 28.361 153.74 28.3083 153.871 28.2519L154.021 29.1698C153.955 29.1999 153.871 29.2338 153.759 29.2676C153.647 29.3015 153.52 29.3316 153.382 29.3617C153.243 29.3918 153.085 29.4143 152.924 29.4294C152.758 29.4482 152.593 29.4557 152.423 29.4557C151.988 29.4557 151.607 29.3918 151.288 29.2676C150.964 29.1397 150.699 28.9667 150.491 28.7409C150.283 28.5152 150.129 28.2519 150.025 27.9434C149.925 27.6386 149.875 27.3038 149.875 26.9389V26.9427ZM153.197 26.4423C153.197 26.2881 153.174 26.1414 153.131 26.0022C153.085 25.863 153.024 25.7426 152.935 25.641C152.85 25.5394 152.747 25.4604 152.623 25.4002C152.5 25.34 152.354 25.3137 152.185 25.3137C152.015 25.3137 151.854 25.3476 151.719 25.4115C151.588 25.4755 151.472 25.562 151.384 25.6673C151.292 25.7727 151.222 25.8931 151.172 26.0285C151.122 26.1639 151.088 26.3031 151.068 26.4461H153.197V26.4423Z" fill="white"/>
<path d="M155.543 24.658C155.762 24.5978 156.051 24.5376 156.405 24.4812C156.759 24.4248 157.148 24.3984 157.579 24.3984C157.983 24.3984 158.322 24.4511 158.592 24.5602C158.865 24.6693 159.08 24.8198 159.242 25.0154C159.404 25.211 159.515 25.4443 159.581 25.7189C159.646 25.9935 159.681 26.2945 159.681 26.6218V29.3418H158.534V26.7986C158.534 26.539 158.515 26.3208 158.48 26.1365C158.445 25.9559 158.388 25.8054 158.311 25.6926C158.23 25.5797 158.126 25.497 157.987 25.4443C157.852 25.3916 157.687 25.3653 157.491 25.3653C157.344 25.3653 157.194 25.3728 157.036 25.3916C156.879 25.4104 156.763 25.4255 156.686 25.4368V29.3418H155.539V24.658H155.543Z" fill="white"/>
<path d="M160.812 26.9427C160.812 26.5176 160.878 26.1451 161.009 25.8216C161.14 25.5018 161.309 25.2347 161.525 25.0203C161.74 24.8058 161.986 24.6478 162.264 24.5387C162.541 24.4296 162.826 24.377 163.114 24.377C163.796 24.377 164.327 24.5839 164.708 24.9977C165.089 25.4115 165.281 26.0285 165.281 26.8486C165.281 26.9088 165.281 26.9803 165.278 27.0555C165.278 27.1345 165.27 27.2023 165.262 27.2624H161.994C162.025 27.6499 162.167 27.9509 162.414 28.1653C162.66 28.3798 163.026 28.4851 163.499 28.4851C163.776 28.4851 164.03 28.4588 164.261 28.4099C164.492 28.361 164.673 28.3083 164.804 28.2519L164.954 29.1698C164.893 29.1999 164.804 29.2338 164.692 29.2676C164.581 29.3015 164.454 29.3316 164.315 29.3617C164.177 29.3918 164.019 29.4143 163.857 29.4294C163.696 29.4444 163.526 29.4557 163.357 29.4557C162.922 29.4557 162.541 29.3918 162.221 29.2676C161.902 29.1435 161.632 28.9667 161.424 28.7409C161.217 28.5152 161.063 28.2519 160.959 27.9434C160.859 27.6386 160.809 27.3038 160.809 26.9389L160.812 26.9427ZM164.138 26.4423C164.138 26.2881 164.115 26.1414 164.073 26.0022C164.027 25.863 163.965 25.7426 163.88 25.641C163.796 25.5394 163.692 25.4604 163.568 25.4002C163.445 25.34 163.299 25.3137 163.13 25.3137C162.96 25.3137 162.799 25.3476 162.664 25.4115C162.533 25.4755 162.421 25.562 162.329 25.6673C162.237 25.7727 162.167 25.8931 162.117 26.0285C162.067 26.1639 162.033 26.3031 162.013 26.4461H164.142L164.138 26.4423Z" fill="white"/>
<path d="M169.294 25.5082C169.198 25.4781 169.067 25.4443 168.902 25.4104C168.736 25.3766 168.54 25.3578 168.32 25.3578C168.193 25.3578 168.059 25.369 167.916 25.3954C167.774 25.4217 167.674 25.4405 167.62 25.4593V29.338H166.473V24.7295C166.692 24.6505 166.969 24.5753 167.3 24.5038C167.631 24.4323 168.001 24.3984 168.405 24.3984C168.482 24.3984 168.571 24.4022 168.671 24.4135C168.771 24.421 168.871 24.4361 168.975 24.4511C169.075 24.4662 169.175 24.485 169.267 24.5075C169.363 24.5301 169.437 24.5489 169.494 24.5677L169.294 25.512V25.5082Z" fill="white"/>
<path d="M171.966 24.3789C172.344 24.3789 172.663 24.424 172.921 24.5181C173.179 24.6122 173.387 24.7401 173.541 24.9056C173.695 25.0711 173.806 25.2743 173.872 25.5113C173.937 25.7483 173.972 26.0079 173.972 26.2938V29.2282C173.795 29.2658 173.529 29.311 173.171 29.3636C172.813 29.4163 172.413 29.4426 171.963 29.4426C171.666 29.4426 171.393 29.4163 171.147 29.3599C170.9 29.3034 170.692 29.2131 170.519 29.0928C170.346 28.9724 170.211 28.8106 170.111 28.6112C170.011 28.4118 169.965 28.1711 169.965 27.8814C169.965 27.5917 170.019 27.3697 170.13 27.1779C170.242 26.986 170.392 26.8318 170.581 26.7114C170.769 26.591 170.989 26.5045 171.239 26.4518C171.489 26.3991 171.747 26.3728 172.02 26.3728C172.147 26.3728 172.278 26.3803 172.417 26.3954C172.555 26.4104 172.706 26.4367 172.863 26.4744V26.29C172.863 26.1621 172.848 26.038 172.817 25.9213C172.786 25.8047 172.732 25.6994 172.652 25.6129C172.571 25.5226 172.467 25.4549 172.34 25.4059C172.213 25.357 172.047 25.3307 171.851 25.3307C171.585 25.3307 171.343 25.3495 171.123 25.3871C170.904 25.4248 170.723 25.4661 170.585 25.515L170.442 24.6084C170.588 24.5595 170.8 24.5106 171.077 24.4617C171.354 24.4128 171.651 24.3864 171.966 24.3864V24.3789ZM172.063 28.551C172.417 28.551 172.686 28.5322 172.867 28.4946V27.2531C172.806 27.2343 172.713 27.2155 172.594 27.1967C172.475 27.1779 172.34 27.1703 172.197 27.1703C172.07 27.1703 171.943 27.1779 171.812 27.1967C171.682 27.2155 171.566 27.2493 171.462 27.2983C171.358 27.3472 171.274 27.4186 171.212 27.5052C171.15 27.5917 171.116 27.7083 171.116 27.8438C171.116 28.1109 171.2 28.2914 171.37 28.393C171.539 28.4946 171.77 28.5473 172.063 28.5473V28.551Z" fill="white"/>
<path d="M175.316 23.2195L176.463 23.0352V24.4986H178.223V25.4316H176.463V27.4029C176.463 27.7904 176.525 28.0688 176.652 28.2343C176.779 28.3998 176.995 28.4826 177.295 28.4826C177.503 28.4826 177.688 28.46 177.849 28.4187C178.011 28.3773 178.138 28.3359 178.234 28.2983L178.423 29.1861C178.288 29.2425 178.115 29.299 177.903 29.3592C177.688 29.4194 177.437 29.4457 177.145 29.4457C176.791 29.4457 176.498 29.4005 176.259 29.3065C176.021 29.2124 175.836 29.0808 175.697 28.904C175.559 28.7271 175.459 28.5165 175.405 28.2644C175.347 28.0161 175.32 27.7302 175.32 27.4067V23.2157L175.316 23.2195Z" fill="white"/>
<path d="M180.635 23.0809C180.635 23.2916 180.566 23.4571 180.428 23.5812C180.289 23.7054 180.123 23.7656 179.935 23.7656C179.746 23.7656 179.573 23.7054 179.434 23.5812C179.296 23.4571 179.227 23.2916 179.227 23.0809C179.227 22.8702 179.296 22.6972 179.434 22.573C179.573 22.4489 179.742 22.3887 179.935 22.3887C180.127 22.3887 180.289 22.4489 180.428 22.573C180.566 22.6972 180.635 22.8665 180.635 23.0809ZM180.512 29.3372H179.365V24.4954H180.512V29.3372Z" fill="white"/>
<path d="M186.437 26.9163C186.437 27.3001 186.38 27.6462 186.268 27.9622C186.156 28.2782 185.995 28.5453 185.787 28.7673C185.579 28.9892 185.329 29.1623 185.036 29.2864C184.744 29.4106 184.42 29.4708 184.066 29.4708C183.712 29.4708 183.389 29.4106 183.1 29.2864C182.811 29.1623 182.561 28.9892 182.353 28.7673C182.146 28.5453 181.984 28.2782 181.865 27.9622C181.749 27.6462 181.688 27.3001 181.688 26.9163C181.688 26.5326 181.745 26.1865 181.865 25.8742C181.98 25.562 182.146 25.2949 182.357 25.0729C182.569 24.851 182.819 24.6779 183.112 24.5575C183.4 24.4371 183.72 24.377 184.066 24.377C184.413 24.377 184.732 24.4371 185.029 24.5575C185.321 24.6779 185.571 24.8472 185.779 25.0729C185.987 25.2949 186.149 25.562 186.268 25.8742C186.384 26.1865 186.445 26.5326 186.445 26.9163H186.437ZM185.263 26.9163C185.263 26.4348 185.16 26.0548 184.948 25.7727C184.736 25.4905 184.444 25.3513 184.062 25.3513C183.681 25.3513 183.389 25.4905 183.177 25.7727C182.965 26.0548 182.862 26.4348 182.862 26.9163C182.862 27.3979 182.969 27.7891 183.177 28.075C183.389 28.3572 183.685 28.5002 184.062 28.5002C184.44 28.5002 184.736 28.3572 184.948 28.075C185.16 27.7929 185.263 27.4054 185.263 26.9163Z" fill="white"/>
<path d="M187.633 24.658C187.852 24.5978 188.141 24.5376 188.495 24.4812C188.849 24.4248 189.242 24.3984 189.669 24.3984C190.073 24.3984 190.412 24.4511 190.681 24.5602C190.955 24.6693 191.17 24.8198 191.332 25.0154C191.494 25.211 191.605 25.4443 191.671 25.7189C191.736 25.9935 191.771 26.2945 191.771 26.6218V29.3418H190.624V26.7986C190.624 26.539 190.608 26.3208 190.574 26.1365C190.539 25.9559 190.481 25.8054 190.404 25.6926C190.323 25.5797 190.22 25.497 190.081 25.4443C189.946 25.3916 189.781 25.3653 189.584 25.3653C189.438 25.3653 189.288 25.3728 189.13 25.3916C188.972 25.4104 188.857 25.4255 188.78 25.4368V29.3418H187.633V24.658Z" fill="white"/>
<path d="M193.281 29.3381V22.9238H197.496V23.9132H194.475V25.4971H197.165V26.4677H194.475V28.3449H197.723V29.3344H193.281V29.3381Z" fill="white"/>
<path d="M201.45 29.4755C201.004 29.4755 200.619 29.4116 200.295 29.2874C199.972 29.1595 199.706 28.9827 199.495 28.757C199.283 28.5275 199.125 28.2604 199.025 27.9519C198.925 27.6434 198.875 27.3048 198.875 26.9324V22.9258H200.076V26.8233C200.076 27.1129 200.111 27.3612 200.176 27.5682C200.241 27.7751 200.338 27.9444 200.461 28.0723C200.584 28.2002 200.73 28.298 200.896 28.3582C201.065 28.4184 201.25 28.4522 201.458 28.4522C201.666 28.4522 201.854 28.4221 202.024 28.3582C202.193 28.298 202.339 28.2002 202.462 28.0723C202.586 27.9444 202.682 27.7751 202.747 27.5682C202.813 27.3612 202.847 27.1129 202.847 26.8233V22.9258H204.048V26.9324C204.048 27.301 203.994 27.6434 203.891 27.9519C203.787 28.2604 203.629 28.5275 203.417 28.757C203.205 28.9864 202.936 29.1633 202.609 29.2874C202.282 29.4153 201.893 29.4755 201.442 29.4755H201.45Z" fill="white"/>
<path d="M38.5891 3.81194H38.9086C39.0394 3.81194 39.1434 3.79313 39.2281 3.75927C39.3127 3.72542 39.3859 3.66898 39.4475 3.59374L41.4837 1.07693C41.5684 0.971594 41.6569 0.896353 41.7532 0.854971C41.8455 0.813588 41.9649 0.791016 42.1073 0.791016H43.289L40.8063 3.78561C40.66 3.96995 40.5099 4.09786 40.352 4.1731C40.4637 4.21448 40.5637 4.26715 40.6561 4.33863C40.7447 4.41011 40.8332 4.50416 40.914 4.62078L43.4738 7.99534H42.2651C42.1034 7.99534 41.9803 7.97277 41.8994 7.92763C41.8186 7.88248 41.7532 7.81853 41.6993 7.732L39.613 5.06847C39.5475 4.97818 39.4744 4.91422 39.3897 4.88036C39.305 4.84274 39.1819 4.82393 39.024 4.82393H38.5891V7.99534H37.2188V0.791016H38.5891V3.81194Z" fill="white"/>
<path d="M49.9656 7.99911H48.7261C48.4913 7.99911 48.3219 7.90882 48.218 7.72824L46.6668 5.4221C46.609 5.33557 46.5436 5.27538 46.4743 5.23776C46.405 5.20014 46.3011 5.18133 46.1664 5.18133H45.5813V7.99911H44.2109V0.791016H46.4589C46.9593 0.791016 47.3866 0.839922 47.7484 0.941498C48.1064 1.04307 48.4028 1.18603 48.6299 1.36661C48.8608 1.55095 49.0302 1.76915 49.138 2.02121C49.2458 2.27703 49.2996 2.55542 49.2996 2.86014C49.2996 3.10468 49.2612 3.3304 49.1919 3.5486C49.1187 3.76304 49.0148 3.96242 48.8762 4.13548C48.7377 4.30853 48.5683 4.46654 48.3643 4.59821C48.1603 4.72988 47.9332 4.83522 47.6714 4.91422C47.7599 4.96313 47.8408 5.02332 47.9178 5.09104C47.9909 5.15876 48.0602 5.24152 48.1218 5.33181L49.9694 7.99534L49.9656 7.99911ZM46.4358 4.21824C46.6937 4.21824 46.9208 4.18815 47.1133 4.12419C47.3057 4.06024 47.4636 3.97371 47.5867 3.86085C47.7099 3.74799 47.8023 3.61632 47.8639 3.46583C47.9255 3.31159 47.9563 3.14606 47.9563 2.96172C47.9563 2.5968 47.8331 2.31465 47.5867 2.11902C47.3404 1.92339 46.9632 1.82558 46.4589 1.82558H45.5813V4.21824H46.4397H46.4358Z" fill="white"/>
<path d="M57.0887 7.99911H56.0263C55.9069 7.99911 55.8107 7.96901 55.7337 7.91258C55.6606 7.85615 55.6029 7.78091 55.5644 7.69438L55.0139 6.22342H51.9576L51.4072 7.69438C51.3802 7.76962 51.3263 7.8411 51.2494 7.90505C51.1724 7.96901 51.0723 7.99911 50.9568 7.99911H49.8867L52.7891 0.791016H54.1863L57.0848 7.99911H57.0887ZM54.6636 5.27538L53.7668 2.87895C53.7206 2.77362 53.6782 2.64571 53.6282 2.49899C53.582 2.35227 53.532 2.19426 53.4858 2.02497C53.4396 2.19426 53.3972 2.35227 53.3472 2.49899C53.301 2.64571 53.2548 2.77738 53.2086 2.88648L52.3156 5.27538H54.6636Z" fill="white"/>
<path d="M60.6588 5.43715C60.6588 5.84345 60.6088 6.20837 60.5049 6.5319C60.4048 6.8592 60.2508 7.13383 60.0468 7.36332C59.8466 7.5928 59.5926 7.76962 59.2885 7.89C58.9883 8.01415 58.6341 8.07434 58.2338 8.07434C58.049 8.07434 57.872 8.06306 57.6949 8.04049C57.5179 8.01791 57.3331 7.98406 57.1406 7.93891C57.1522 7.80724 57.1637 7.67181 57.1753 7.54013C57.1907 7.40846 57.2022 7.27303 57.2099 7.14136C57.2215 7.06988 57.2484 7.00968 57.2984 6.96454C57.3485 6.91939 57.4178 6.89682 57.5102 6.89682C57.5679 6.89682 57.6449 6.90811 57.7373 6.93068C57.8296 6.95325 57.949 6.96454 58.0914 6.96454C58.2839 6.96454 58.4571 6.93821 58.6072 6.88177C58.7573 6.82534 58.8805 6.73882 58.9806 6.61843C59.0806 6.49805 59.1576 6.3438 59.2077 6.15194C59.2577 5.96007 59.2847 5.73059 59.2847 5.45596V0.791016H60.655V5.43715H60.6588Z" fill="white"/>
<path d="M69.2682 4.39384C69.2682 4.92053 69.1797 5.40959 68.9988 5.86104C68.8217 6.31249 68.5676 6.69998 68.2405 7.03104C67.9133 7.3621 67.5207 7.61792 67.0626 7.80226C66.6045 7.9866 66.0926 8.08065 65.5306 8.08065C64.9686 8.08065 64.4643 7.9866 64.0063 7.80226C63.5482 7.61792 63.1556 7.3621 62.8246 7.03104C62.4974 6.70374 62.2433 6.31249 62.0624 5.86104C61.8815 5.40959 61.793 4.92053 61.793 4.39384C61.793 3.86715 61.8815 3.37809 62.0624 2.92664C62.2433 2.47519 62.4974 2.0877 62.8246 1.75664C63.1518 1.42934 63.5444 1.16976 64.0063 0.985423C64.4643 0.801082 64.9725 0.707031 65.5306 0.707031C65.904 0.707031 66.2581 0.748414 66.5853 0.834941C66.9163 0.917706 67.2166 1.03809 67.4937 1.19234C67.7709 1.34658 68.0172 1.53468 68.2366 1.75664C68.456 1.9786 68.6408 2.22314 68.7948 2.49777C68.9487 2.76863 69.0642 3.06584 69.145 3.38561C69.2259 3.70539 69.2644 4.04021 69.2644 4.39384H69.2682ZM67.8632 4.39384C67.8632 3.99883 67.8093 3.64519 67.7016 3.32918C67.5938 3.01693 67.4398 2.74982 67.2358 2.52786C67.0356 2.30966 66.7931 2.14037 66.5045 2.02375C66.2158 1.90713 65.8924 1.85069 65.5344 1.85069C65.1765 1.85069 64.8493 1.90713 64.5644 2.02375C64.2757 2.14037 64.0332 2.30966 63.8292 2.52786C63.6291 2.74606 63.4712 3.01317 63.3635 3.32918C63.2557 3.64519 63.2018 3.99883 63.2018 4.39384C63.2018 4.78886 63.2557 5.14249 63.3635 5.4585C63.4712 5.77451 63.6291 6.03786 63.8292 6.25606C64.0332 6.47425 64.2757 6.63978 64.5644 6.75641C64.8531 6.87303 65.1765 6.92946 65.5344 6.92946C65.8924 6.92946 66.2196 6.87303 66.5045 6.75641C66.7931 6.63978 67.0356 6.47425 67.2358 6.25606C67.436 6.03786 67.5899 5.77075 67.7016 5.4585C67.8093 5.14625 67.8632 4.78886 67.8632 4.39384Z" fill="white"/>
<path d="M80.1328 0.790871L77.8425 7.99896H76.6031L74.9902 3.07444C74.944 2.95405 74.9055 2.80733 74.8671 2.63428C74.8478 2.71704 74.8247 2.79604 74.8055 2.86752C74.7862 2.939 74.7631 3.01048 74.74 3.07067L73.1118 7.9952H71.8685L69.582 0.787109H70.7291C70.8484 0.787109 70.9485 0.813444 71.0293 0.869874C71.1102 0.926305 71.1641 0.997784 71.191 1.09184L72.4459 5.40314C72.4728 5.50848 72.4998 5.62511 72.5267 5.74925C72.5537 5.8734 72.5767 6.00507 72.6037 6.14051C72.6306 6.00131 72.6614 5.86964 72.6922 5.74549C72.723 5.62134 72.7577 5.50848 72.7962 5.40314L74.2435 1.09184C74.2704 1.01659 74.3243 0.945115 74.4051 0.881161C74.486 0.817206 74.5822 0.787109 74.6977 0.787109H75.1019C75.2212 0.787109 75.3174 0.813444 75.3944 0.873637C75.4675 0.930067 75.5253 1.00155 75.5638 1.09184L77.0072 5.40314C77.0804 5.61006 77.142 5.84707 77.1997 6.11793C77.2459 5.85459 77.2921 5.61758 77.346 5.40314L78.6008 1.09184C78.6201 1.00907 78.674 0.937591 78.7548 0.877399C78.8395 0.817206 78.9396 0.787109 79.055 0.787109H80.129L80.1328 0.790871Z" fill="white"/>
<path d="M84.2134 5.20766V7.99911H82.8469V5.20766L80.1602 0.791016H81.3688C81.4881 0.791016 81.5805 0.81735 81.6498 0.877543C81.7191 0.933974 81.7768 1.00545 81.8269 1.09198L83.1741 3.49969C83.2511 3.64265 83.3204 3.77808 83.382 3.90223C83.4436 4.03014 83.4936 4.15429 83.5436 4.2822C83.5898 4.15429 83.6399 4.03014 83.6976 3.90223C83.7554 3.77432 83.8208 3.64265 83.8978 3.49969L85.2373 1.09198C85.2758 1.0205 85.3297 0.949022 85.4067 0.888829C85.4798 0.824874 85.576 0.794778 85.6915 0.794778H86.904L84.2173 5.21143L84.2134 5.20766Z" fill="white"/>
<path d="M39.6169 11.4567C40.1096 11.4567 40.5369 11.5132 40.8987 11.626C41.2605 11.7389 41.5569 11.8969 41.7917 12.1001C42.0265 12.3032 42.1997 12.544 42.3152 12.8261C42.4307 13.1083 42.4846 13.4168 42.4846 13.7516C42.4846 14.0864 42.4268 14.4212 42.3075 14.7109C42.1882 15.0006 42.0111 15.2527 41.7725 15.4596C41.5338 15.6702 41.2374 15.832 40.8756 15.9486C40.5176 16.0653 40.098 16.1217 39.6169 16.1217H38.593V18.6573H37.2227V11.4492H39.6207L39.6169 11.4567ZM39.6169 15.0796C39.8671 15.0796 40.0865 15.0495 40.2751 14.9855C40.4637 14.9254 40.6177 14.8351 40.7409 14.7222C40.864 14.6093 40.9564 14.4664 41.018 14.3046C41.0796 14.1391 41.1104 13.9547 41.1104 13.7554C41.1104 13.556 41.0796 13.3867 41.018 13.2324C40.9564 13.0782 40.864 12.9428 40.7409 12.8337C40.6177 12.7246 40.4637 12.6418 40.2751 12.5816C40.0865 12.5252 39.8671 12.4951 39.613 12.4951H38.5891V15.0834H39.613L39.6169 15.0796Z" fill="white"/>
<path d="M47.8501 17.5591V18.6651H43.5312V11.457H44.9016V17.5591H47.8501Z" fill="white"/>
<path d="M55.1473 18.6651H54.0849C53.9655 18.6651 53.8693 18.635 53.7923 18.5786C53.7192 18.5222 53.6614 18.4469 53.623 18.3604L53.0725 16.8894H50.0162L49.4658 18.3604C49.4388 18.4356 49.3849 18.5071 49.308 18.5711C49.231 18.635 49.1347 18.6651 49.0154 18.6651H47.9453L50.8477 11.457H52.2449L55.1396 18.6651H55.1473ZM52.7261 15.9414L51.8292 13.545C51.7869 13.4396 51.7407 13.3117 51.6906 13.165C51.6444 13.0183 51.5944 12.8603 51.5482 12.691C51.502 12.8603 51.4597 13.0183 51.4096 13.165C51.3634 13.3117 51.3173 13.4434 51.2711 13.5525L50.378 15.9414H52.7222H52.7261Z" fill="white"/>
<path d="M62.1306 11.457V18.6651H61.4262C61.3184 18.6651 61.226 18.6463 61.1529 18.6125C61.0798 18.5786 61.0105 18.5184 60.9412 18.4356L57.0919 13.6315C57.1112 13.8497 57.1227 14.0528 57.1227 14.2409V18.6689H55.9141V11.4608H56.6339C56.6916 11.4608 56.7417 11.4608 56.784 11.4683C56.8263 11.4721 56.8648 11.4834 56.8956 11.4984C56.9264 11.5135 56.9611 11.536 56.9919 11.5624C57.0226 11.5887 57.0573 11.6263 57.0919 11.6752L60.9566 16.5019C60.945 16.3853 60.9373 16.2725 60.9296 16.1596C60.9219 16.0467 60.9181 15.9414 60.9181 15.8436V11.4608H62.1268L62.1306 11.457Z" fill="white"/>
<path d="M44.7174 25.72C44.7174 26.2467 44.6289 26.7358 44.448 27.1872C44.2709 27.6387 44.0169 28.0261 43.6897 28.3572C43.3625 28.6845 42.9699 28.9441 42.5118 29.1284C42.0538 29.3128 41.5418 29.4068 40.9798 29.4068C40.4178 29.4068 39.9136 29.3128 39.4555 29.1284C38.9974 28.9441 38.6048 28.6883 38.2738 28.3572C37.9466 28.0299 37.6925 27.6387 37.5116 27.1872C37.3307 26.7358 37.2422 26.2467 37.2422 25.72C37.2422 25.1933 37.3307 24.7043 37.5116 24.2528C37.6925 23.8014 37.9466 23.4139 38.2738 23.0828C38.601 22.7555 38.9936 22.4959 39.4555 22.3116C39.9136 22.1273 40.4217 22.0332 40.9798 22.0332C41.3532 22.0332 41.7073 22.0746 42.0345 22.1611C42.3655 22.2476 42.6658 22.3643 42.9429 22.5185C43.2201 22.6728 43.4664 22.8609 43.6858 23.0828C43.9052 23.3048 44.09 23.5493 44.244 23.8239C44.3979 24.0948 44.5134 24.392 44.5943 24.7118C44.6751 25.0316 44.7136 25.3664 44.7136 25.72H44.7174ZM43.3163 25.72C43.3163 25.325 43.2624 24.9714 43.1546 24.6554C43.0469 24.3431 42.8929 24.076 42.6889 23.854C42.4887 23.6358 42.2424 23.4665 41.9575 23.3499C41.6688 23.2333 41.3455 23.1769 40.9875 23.1769C40.6295 23.1769 40.3023 23.2333 40.0175 23.3499C39.7288 23.4665 39.4863 23.6358 39.2823 23.854C39.0783 24.0722 38.9243 24.3393 38.8165 24.6554C38.7088 24.9714 38.6549 25.325 38.6549 25.72C38.6549 26.115 38.7088 26.4687 38.8165 26.7847C38.9243 27.1007 39.0821 27.364 39.2823 27.5822C39.4863 27.8004 39.7288 27.966 40.0175 28.0826C40.3062 28.1992 40.6295 28.2556 40.9875 28.2556C41.3455 28.2556 41.6727 28.1992 41.9575 28.0826C42.2462 27.966 42.4887 27.8004 42.6889 27.5822C42.889 27.364 43.043 27.0969 43.1546 26.7847C43.2624 26.4724 43.3163 26.115 43.3163 25.72Z" fill="white"/>
<path d="M52.4734 25.723C52.4734 26.2497 52.3849 26.735 52.204 27.179C52.0231 27.6229 51.769 28.0028 51.4457 28.3189C51.1185 28.6386 50.7259 28.8869 50.2678 29.06C49.8097 29.2368 49.2978 29.3233 48.7396 29.3233H45.9297V22.1152H48.7396C49.3016 22.1152 49.8097 22.2055 50.2678 22.3823C50.7259 22.5592 51.1185 22.8075 51.4457 23.1235C51.7728 23.4395 52.0269 23.8194 52.204 24.2634C52.3849 24.7035 52.4734 25.1888 52.4734 25.7193V25.723ZM51.0684 25.723C51.0684 25.328 51.0145 24.9744 50.9068 24.6584C50.799 24.3461 50.645 24.079 50.441 23.8608C50.237 23.6426 49.9945 23.4771 49.7058 23.3605C49.4171 23.2439 49.0938 23.1874 48.7358 23.1874H47.3039V28.2624H48.7358C49.0976 28.2624 49.421 28.206 49.7058 28.0894C49.9945 27.9727 50.237 27.8072 50.441 27.589C50.645 27.3708 50.799 27.1037 50.9068 26.7915C51.0145 26.4792 51.0684 26.1218 51.0684 25.7268V25.723Z" fill="white"/>
<path d="M56.2241 22.1189C56.7053 22.1189 57.121 22.164 57.4636 22.2543C57.8061 22.3446 58.0871 22.4725 58.3065 22.638C58.5259 22.8035 58.6876 23.0067 58.7877 23.2399C58.8878 23.477 58.9417 23.7403 58.9417 24.0375C58.9417 24.2068 58.9147 24.3686 58.8647 24.5228C58.8146 24.677 58.7338 24.82 58.626 24.9554C58.5183 25.0909 58.3835 25.2113 58.218 25.3204C58.0525 25.4295 57.8562 25.5235 57.6291 25.5987C58.6414 25.8207 59.1495 26.3549 59.1495 27.2051C59.1495 27.5099 59.0879 27.792 58.9725 28.0516C58.8531 28.3112 58.6799 28.5331 58.4528 28.7212C58.2257 28.9094 57.9447 29.0561 57.6098 29.1614C57.2749 29.2667 56.8939 29.3194 56.4666 29.3194H53.6836V22.1113H56.2241V22.1189ZM55.0578 23.1572V25.2414H56.1471C56.6167 25.2414 56.9708 25.1586 57.2095 24.9931C57.4482 24.8275 57.5675 24.5642 57.5675 24.1993C57.5675 23.8343 57.4597 23.556 57.2403 23.3979C57.0209 23.2399 56.6822 23.1572 56.2202 23.1572H55.0539H55.0578ZM56.4435 28.2811C56.6976 28.2811 56.9131 28.251 57.0863 28.1908C57.2595 28.1306 57.3981 28.0516 57.5021 27.95C57.606 27.8485 57.6791 27.7356 57.7253 27.6002C57.7715 27.4685 57.7946 27.3255 57.7946 27.175C57.7946 27.0246 57.7676 26.8778 57.7176 26.7537C57.6676 26.6296 57.5867 26.5242 57.479 26.4339C57.3712 26.3474 57.2287 26.2797 57.0594 26.2308C56.8862 26.1856 56.6822 26.1593 56.4397 26.1593H55.0578V28.2736H56.4435V28.2811Z" fill="white"/>
<path d="M63.3687 28.2477C63.6343 28.2477 63.8729 28.2063 64.0808 28.1198C64.2887 28.0332 64.4657 27.9128 64.6081 27.7548C64.7506 27.6006 64.8622 27.4087 64.9392 27.1868C65.0162 26.9648 65.0547 26.7165 65.0547 26.4381V22.123H66.425V26.4381C66.425 26.867 66.3557 27.262 66.2133 27.6269C66.0709 27.9918 65.8707 28.3041 65.6051 28.5674C65.3434 28.8308 65.02 29.0377 64.6428 29.1844C64.2656 29.3311 63.8421 29.4064 63.3687 29.4064C62.8952 29.4064 62.4641 29.3311 62.0869 29.1844C61.7097 29.0377 61.3902 28.8308 61.1246 28.5674C60.8628 28.3041 60.6588 27.9881 60.5164 27.6269C60.374 27.262 60.3047 26.867 60.3047 26.4381V22.123H61.675V26.4344C61.675 26.709 61.7135 26.961 61.7905 27.183C61.8675 27.405 61.9791 27.5968 62.1215 27.7548C62.2678 27.9128 62.441 28.0332 62.6527 28.1198C62.8606 28.2063 63.0992 28.2477 63.3648 28.2477H63.3687Z" fill="white"/>
<path d="M74.5242 25.723C74.5242 26.2497 74.4357 26.735 74.2547 27.179C74.0738 27.6191 73.8198 28.0028 73.4964 28.3189C73.1693 28.6386 72.7766 28.8869 72.3186 29.06C71.8605 29.2368 71.3486 29.3233 70.7904 29.3233H67.9805V22.1152H70.7904C71.3524 22.1152 71.8605 22.2055 72.3186 22.3823C72.7766 22.5592 73.1693 22.8075 73.4964 23.1235C73.8236 23.4395 74.0777 23.8194 74.2547 24.2634C74.4357 24.7035 74.5242 25.1888 74.5242 25.7193V25.723ZM73.1154 25.723C73.1154 25.328 73.0615 24.9744 72.9537 24.6584C72.8459 24.3461 72.6919 24.079 72.4879 23.8608C72.2839 23.6426 72.0414 23.4771 71.7527 23.3605C71.464 23.2439 71.1407 23.1874 70.7827 23.1874H69.3508V28.2624H70.7827C71.1446 28.2624 71.4679 28.206 71.7527 28.0894C72.0414 27.9727 72.2839 27.8072 72.4879 27.589C72.6881 27.3708 72.8459 27.1037 72.9537 26.7915C73.0615 26.4792 73.1154 26.1218 73.1154 25.7268V25.723Z" fill="white"/>
<path d="M82.7644 25.72C82.7644 26.2467 82.6758 26.7358 82.4949 27.1872C82.3178 27.6387 82.0638 28.0261 81.7366 28.3572C81.4094 28.6845 81.0168 28.9441 80.5587 29.1284C80.1007 29.3128 79.5887 29.4068 79.0306 29.4068C78.4724 29.4068 77.9643 29.3128 77.5063 29.1284C77.0482 28.9441 76.6518 28.6883 76.3246 28.3572C75.9974 28.0299 75.7433 27.6387 75.5624 27.1872C75.3815 26.7358 75.293 26.2467 75.293 25.72C75.293 25.1933 75.3815 24.7043 75.5624 24.2528C75.7433 23.8014 75.9974 23.4139 76.3246 23.0828C76.6518 22.7555 77.0444 22.4959 77.5063 22.3116C77.9643 22.1273 78.4724 22.0332 79.0306 22.0332C79.404 22.0332 79.7581 22.0746 80.0853 22.1611C80.4163 22.2476 80.7166 22.3643 80.9937 22.5185C81.267 22.6728 81.5172 22.8609 81.7366 23.0828C81.956 23.3048 82.1408 23.5493 82.2948 23.8239C82.4487 24.0948 82.5642 24.392 82.645 24.7118C82.7259 25.0316 82.7644 25.3664 82.7644 25.72ZM81.3632 25.72C81.3632 25.325 81.3093 24.9714 81.2016 24.6554C81.0938 24.3431 80.9398 24.076 80.7358 23.854C80.5356 23.6358 80.2893 23.4665 80.0044 23.3499C79.7158 23.2333 79.3924 23.1769 79.0344 23.1769C78.6765 23.1769 78.3493 23.2333 78.0644 23.3499C77.7757 23.4665 77.5332 23.6358 77.3292 23.854C77.1252 24.0722 76.9712 24.3393 76.8635 24.6554C76.7557 24.9714 76.7018 25.325 76.7018 25.72C76.7018 26.115 76.7557 26.4687 76.8635 26.7847C76.9712 27.1007 77.1291 27.364 77.3292 27.5822C77.5294 27.8004 77.7757 27.966 78.0644 28.0826C78.3531 28.1992 78.6765 28.2556 79.0344 28.2556C79.3924 28.2556 79.7196 28.1992 80.0044 28.0826C80.2931 27.966 80.5356 27.8004 80.7358 27.5822C80.936 27.364 81.0899 27.0969 81.2016 26.7847C81.3093 26.4724 81.3632 26.115 81.3632 25.72Z" fill="white"/>
<path d="M93.6289 22.1189L91.3386 29.3269H90.0992L88.4863 24.4024C88.4401 24.282 88.4016 24.1353 88.3631 23.9623C88.3439 24.045 88.3208 24.124 88.3016 24.1955C88.2823 24.267 88.2592 24.3385 88.2361 24.3987L86.6079 29.3232H85.3646L83.0781 22.1151H84.2252C84.3445 22.1151 84.4446 22.1414 84.5216 22.1979C84.6024 22.2543 84.6563 22.3258 84.6833 22.4198L85.9381 26.7311C85.9651 26.8365 85.992 26.9531 86.0151 27.0772C86.042 27.2014 86.0651 27.3331 86.0959 27.4685C86.1229 27.3293 86.1537 27.1976 86.1845 27.0735C86.2153 26.9493 86.2499 26.8365 86.2884 26.7311L87.7357 22.4198C87.7627 22.3446 87.8166 22.2731 87.8974 22.2091C87.9782 22.1452 88.0745 22.1151 88.1899 22.1151H88.5941C88.7134 22.1151 88.8097 22.1414 88.8866 22.1979C88.9598 22.2543 89.0175 22.3258 89.056 22.4161L90.4995 26.7274C90.5726 26.9343 90.6342 27.1713 90.6919 27.4422C90.7343 27.1788 90.7843 26.9418 90.8382 26.7274L92.0931 22.4161C92.1123 22.3333 92.1662 22.2618 92.2509 22.2016C92.3356 22.1414 92.4318 22.1113 92.5473 22.1113H93.6251L93.6289 22.1189Z" fill="white"/>
<path d="M97.7017 26.5358V29.3272H96.3352V26.5358L93.6484 22.1191H94.8571C94.9764 22.1191 95.0688 22.1455 95.1419 22.2019C95.2112 22.2583 95.269 22.3298 95.319 22.4163L96.6662 24.8241C96.7432 24.967 96.8125 25.1024 96.8741 25.2266C96.9318 25.3545 96.9857 25.4786 97.0358 25.6066C97.082 25.4786 97.132 25.3545 97.1897 25.2266C97.2475 25.0987 97.3129 24.967 97.3899 24.8241L98.7333 22.4163C98.7718 22.3449 98.8257 22.2734 98.9027 22.2132C98.9758 22.1492 99.072 22.1191 99.1875 22.1191H100.4L97.7132 26.5358H97.7017Z" fill="white"/>
<path d="M17.1523 7.92383L0 12.9763V16.5276L17.1523 12.9386V15.9107L29.0387 18.1905V16.2003L17.1523 12.6151V7.92383Z" fill="white"/>
<path d="M17.1523 16.0723L0 18.3558V22.069L17.1523 21.0908V24.0328L29.0387 23.2916V21.3241L17.1523 20.9253V16.0723Z" fill="white"/>
<path d="M17.1523 24.3602L0 23.8711V26.9334L17.1523 29.375V31.9934L29.0387 27.968V26.0418L17.1523 28.9235V24.3602Z" fill="white"/>
<path d="M17.1523 4.52575V0L0 7.17047V11.2109L17.1523 5.01481V7.59558L29.0387 12.648V10.7218L17.1523 4.52575Z" fill="white"/>
</g>
<defs>
<clipPath id="clip0_2021_7335">
<rect width="261.333" height="32" fill="white"/>
</clipPath>
</defs>
</svg>
