<?xml version="1.0" encoding="UTF-8"?>
<svg id="Layer_1" xmlns="http://www.w3.org/2000/svg" version="1.1" viewBox="0 0 1200 386.9">
  <!-- Generator: Adobe Illustrator 30.0.0, SVG Export Plug-In . SVG Version: 2.1.1 Build 123)  -->
  <defs>
    <style>
      .st0 {
        fill: #fff;
      }
    </style>
  </defs>
  <path class="st0" d="M180,236.6h-.3c-6.9,10-18.2,14.3-31.6,14.3s-27.4-5.1-36.4-14.7c-10.2-10.8-15.3-25.6-15.3-42.7,0-32.5,20.7-57.5,54.7-57.5s47,15,50.6,39.5h-31.1c-1.7-7.1-8.3-13-18.2-13-15.4,0-23.3,13-23.3,31s8.9,31.5,24.5,31.5,17.4-6.3,19.4-13.7h-14.6v-22.8h45.5v59.9h-21.4l-2.5-11.7h0,0Z"/>
  <path class="st0" d="M209,193.5c0-33,21.6-57.5,55.8-57.5s56.1,24.5,56.1,57.5-21.9,57.4-56.1,57.4-55.8-24.4-55.8-57.4h0ZM288.2,193.5c0-18-7.9-31.8-23.3-31.8s-23.3,13.7-23.3,31.8,7.9,31.6,23.3,31.6,23.3-13.6,23.3-31.6Z"/>
  <path class="st0" d="M324,193.5c0-33,21.6-57.5,55.8-57.5s56.1,24.5,56.1,57.5-21.9,57.4-56.1,57.4-55.8-24.4-55.8-57.4ZM403.2,193.5c0-18-7.9-31.8-23.3-31.8s-23.3,13.7-23.3,31.8,7.9,31.6,23.3,31.6,23.3-13.6,23.3-31.6Z"/>
  <path class="st0" d="M443.3,138h50.9c31.8,0,53.8,20.4,53.8,55.4s-21,54.9-55.2,54.9h-49.5v-110.3h0ZM490.2,221.6c14.8,0,25.1-9.6,25.1-28.2s-9.7-28.7-25.1-28.7h-14.6v56.9h14.6Z"/>
  <path class="st0" d="M572.5,138h95v27.5h-31.6v82.8h-32.2v-82.9h-31.2v-27.5h0Z"/>
  <path class="st0" d="M694.5,138h32.8l40.8,110.3h-34.2l-5.4-16.2h-37.3l-5.4,16.2h-32.1l40.7-110.3h0ZM698.5,209.9h22.8l-6.9-21.6c-1.7-5.4-4.2-14.2-4.2-14.2h-.3s-2.3,8.8-4.2,14.2l-7.3,21.6Z"/>
  <path class="st0" d="M764.6,213.1h33c1.1,8.8,7.9,13,18.5,13s14-2.5,14-9.1-7.4-8.3-21-11.7c-18.5-4.6-40.8-11-40.8-34.4s20.7-34.9,45.5-34.9,43.8,9.6,44.2,33.6h-31.9c-.9-6-5.2-9.9-14-9.9s-12,3.2-12,7.7c0,6.5,9.4,7.4,25.9,11.4,18.5,4.5,37,11.7,37,35.2s-21.4,36.9-47.5,36.9-50.4-12.3-50.9-37.8h0Z"/>
  <path class="st0" d="M862.8,138h95v27.5h-31.6v82.8h-32.2v-82.9h-31.2v-27.5h0Z"/>
  <path class="st0" d="M965.2,138h85.9v26.2h-53.7v15h44.9v24.2h-44.9v17.3h55.2v27.6h-87.4v-110.3h0Z"/>
  <path class="st0" d="M1076.4,248.3v-12.2c0-3.4.9-5.8,2.4-7.6,1.7-1.9,4.1-3,7-3,5.1,0,9,3.8,9,9.2v5.9h8.1v7.8h-26.6ZM1088.8,240.5v-4.2c0-1.9-1.3-3.1-3.1-3.1s-2.9,1.2-2.9,3.2v4.1h6Z"/>
  <path class="st0" d="M1076.4,223.9v-13.2c0-5.4,2.5-10,7.9-10s5.2,1.6,6.5,4.3h.1c.8-2.2,2.3-3.3,4.4-3.7,3.2-.7,7-.1,7.3-1.1h.4v7.7c-.5.8-3.8.5-6.2,1-2,.5-3.1,1.4-3.1,3.7v3.6h9.3v7.8h-26.6,0ZM1088.2,216.1v-4.2c0-2.2-1-3.5-2.8-3.5s-2.9,1.1-2.9,3.3v4.3h5.7Z"/>
  <path class="st0" d="M1089.8,199.6c-8,0-13.9-5.2-13.9-13.5s5.9-13.5,13.9-13.5,13.8,5.3,13.8,13.5-5.9,13.5-13.8,13.5ZM1089.8,180.5c-4.3,0-7.7,1.9-7.7,5.6s3.3,5.6,7.7,5.6,7.6-1.9,7.6-5.6-3.3-5.6-7.6-5.6Z"/>
  <path class="st0" d="M1076.4,170.8v-12.3c0-7.7,4.9-13,13.3-13s13.2,5.1,13.2,13.3v11.9h-26.6ZM1096.5,159.5c0-3.6-2.3-6.1-6.8-6.1s-6.9,2.3-6.9,6.1v3.5h13.7v-3.5h0Z"/>
  <path class="st0" d="M1095.8,145.2v-7.2h7.1v7.2h-7.1Z"/>
</svg>