<svg fill="none" height="284" viewBox="0 0 939 284" width="939" xmlns="http://www.w3.org/2000/svg" xmlns:xlink="http://www.w3.org/1999/xlink"><mask id="a" fill="#000" height="167" maskUnits="userSpaceOnUse" width="940" x="-.679688" y="65.4414"><path d="m-.679688 65.4414h940v167h-940z" fill="#fff"/><path d="m101.002 167.094h-31.5563v31.556h-35.9736v-99.085h67.5299v15.778h15.777v35.974h-15.777zm-20.1962-47.333h-11.3601v27.138h27.1381v-11.36h-15.778zm114.8012-4.418h15.778v67.529h-15.778v15.778h-51.751v-15.778h-15.778v-67.529h15.778v-15.778h51.751zm-20.195 4.418h-11.36v58.694h27.138v-42.916h-15.778zm83.245 47.333v11.361h47.334v20.195h-83.307v-35.973h15.778v-15.778h15.778v-15.778h15.778v-11.36h-47.334v-20.196h83.307v35.974h-15.778v15.778h-15.778v15.777zm90.189-15.777h-11.361v47.333h-20.195v-99.085h20.195v15.778h15.778v15.778h15.778v15.778h11.36v-47.334h20.196v99.085h-20.196v-15.778h-15.778v-15.778h-15.777zm110.383 15.777h-27.138v31.556h-20.195v-83.307h15.778v-15.778h51.751v15.778h15.778v83.307h-35.974zm0-47.333h-27.138v27.138h27.138zm78.828 31.556h-11.36v47.333h-20.196v-83.307h35.974v15.778h15.778v15.778h11.36v-27.138h-15.778v-20.196h20.196v15.778h15.778v83.307h-20.196v-15.778h-15.778v-15.778h-15.778zm63.05 11.36h35.974v35.973h-35.974zm130.58-11.36h-15.778v31.555h-15.778v15.778h-20.196v-15.778h-15.778v-15.778h-15.778v-67.529h35.974v63.112h11.36v-15.778h15.778v-47.334h20.196zm78.828-31.556h-15.778v63.111h-15.778v15.778h-35.974v-20.195h15.778v-58.694h-15.778v-20.196h67.53zm74.41-20.196h20.196v83.307h-15.778v15.778h-51.752v-15.778h-15.778v-83.307h35.974v78.89h27.138z" fill="#000"/></mask><mask id="b" fill="#000" height="79" maskUnits="userSpaceOnUse" width="563" x="196.477" y="204.727"><path d="m196.477 204.727h563v79h-563z" fill="#fff"/><path d="m241.672 243.531h4.52v10.308h-4.52v4.52h-19.35v-28.391h19.35v4.521h4.52v5.787h-4.52zm-9.042-4.521h7.776v-3.255h-7.776zm3.255 5.787h-3.255v7.776h7.776v-3.255h-4.521zm37.415 0h-4.521v13.562h-10.307v-9.041h-4.521v-4.521h-4.521v-14.829h10.307v13.563h7.776v-13.563h5.787zm49.694 4.521h-9.042v9.041h-10.307v-28.391h23.87v5.787h-13.563v7.776h9.042zm25.842-19.35h5.787v23.871h-4.521v4.52h-14.829v-4.52h-4.521v-23.871h10.308v22.605h7.776zm18.066 14.829h-3.255v13.562h-5.787v-28.391h5.787v4.521h4.52v4.521h4.521v4.521h3.255v-13.563h5.787v28.391h-5.787v-4.52h-4.521v-4.521h-4.52zm37.415-10.308h4.521v19.35h-4.521v4.52h-19.35v-28.391h19.35zm-5.787 1.266h-3.255v16.818h7.776v-12.297h-4.521zm27.107 13.563h-7.775v9.041h-5.787v-23.87h4.521v-4.521h14.828v4.521h4.521v23.87h-10.308zm0-13.563h-7.775v7.776h7.775zm23.853 0v16.818h7.776v-4.521h5.787v5.787h-4.521v4.52h-14.829v-4.52h-4.521v-19.35h4.521v-4.521h14.829v4.521h4.521v5.787h-5.787v-4.521zm36.149 0h-4.521v18.084h-4.521v4.52h-10.307v-5.786h4.521v-16.818h-4.521v-5.787h19.349zm21.321 13.563h-7.776v9.041h-5.787v-23.87h4.521v-4.521h14.829v4.521h4.521v23.87h-10.308zm0-13.563h-7.776v7.776h7.776zm60.002-1.266h4.521v19.35h-4.521v4.52h-19.35v-28.391h19.35zm-5.787 1.266h-3.255v16.818h7.776v-12.297h-4.521zm27.107 13.563h-7.775v9.041h-5.787v-23.87h4.521v-4.521h14.828v4.521h4.521v23.87h-10.308zm0-13.563h-7.775v7.776h7.775zm22.587 9.042h-3.255v13.562h-5.787v-28.391h10.308v9.042h3.255v-4.521h4.521v-4.521h5.787v28.391h-5.787v-18.083h-3.255v13.563h-5.787zm64.523-10.308h4.521v19.35h-4.521v4.52h-19.35v-28.391h19.35zm-5.787 1.266h-3.255v16.818h7.776v-12.297h-4.521zm27.107 13.563h-7.775v9.041h-5.787v-23.87h4.521v-4.521h14.828v4.521h4.521v23.87h-10.308zm0-13.563h-7.775v7.776h7.775zm22.587 9.042h-3.255v13.562h-5.787v-28.391h10.308v9.042h3.255v-4.521h4.521v-4.521h5.787v28.391h-5.787v-18.083h-3.255v13.563h-5.787z" fill="#000"/></mask><mask id="c" fill="#000" height="99" maskUnits="userSpaceOnUse" width="538" x="207.191" y="-.542969"><path d="m207.191-.542969h538v99h-538z" fill="#fff"/><path d="m255.835 57.4152h-12.985v15.0987h-9.663v-39.8607h7.549v-7.5494h24.762v7.5494h7.549v39.8607h-17.212zm0-22.6482h-12.985v12.985h12.985zm62.479 15.0988h-7.549v15.0988h-7.55v7.5493h-9.663v-7.5493h-7.549v-7.5494h-7.55v-32.3114h17.213v30.1975h5.436v-7.5493h7.549v-22.6482h9.663zm82.985 7.5494h-15.099v15.0987h-17.213v-47.4101h39.861v9.6632h-22.648v12.985h15.099zm30.168-7.5494v12.9849h22.648v9.6632h-39.861v-47.4101h39.861v9.6632h-22.648v5.4356h15.098v9.6632zm60.365-2.1138h7.55v17.2126h-7.55v7.5493h-32.311v-9.6632h22.648v-5.4355h-15.099v-7.5494h-7.549v-17.2126h7.549v-7.5494h32.312v9.6632h-22.649v5.4356h15.099zm52.816-12.985h-15.098v37.7469h-17.213v-37.7469h-7.549v-9.6632h39.86zm37.718 0h-7.55v28.0837h7.55v9.6632h-32.312v-9.6632h7.55v-28.0837h-7.55v-9.6632h32.312zm29.564 30.1976v-7.5494h-5.436v15.0987h-17.212v-47.4101h9.663v22.6482h5.436v-15.0988h9.663v22.6481h5.435v-30.1975h9.664v47.4101h-9.664v-7.5493zm45.267-7.5494h-12.985v15.0987h-9.663v-39.8607h7.549v-7.5494h24.762v7.5494h7.549v39.8607h-17.212zm0-22.6482h-12.985v12.985h12.985zm39.831-9.6632v37.7469h22.648v9.6632h-39.86v-47.4101z" fill="#000"/></mask><g fill="#000"><path d="m260.48 19.4336h452.254v180.861h-452.254z"/><path d="m236.609 210.146h496.011v73.4756h-496.011z"/><path d="m236.609.105469h455.519v72.9706h-455.519z"/></g><path d="m101.002 167.094h-31.5563v31.556h-35.9736v-99.085h67.5299v15.778h15.777v35.974h-15.777zm-20.1962-47.333h-11.3601v27.138h27.1381v-11.36h-15.778zm114.8012-4.418h15.778v67.529h-15.778v15.778h-51.751v-15.778h-15.778v-67.529h15.778v-15.778h51.751zm-20.195 4.418h-11.36v58.694h27.138v-42.916h-15.778zm83.245 47.333v11.361h47.334v20.195h-83.307v-35.973h15.778v-15.778h15.778v-15.778h15.778v-11.36h-47.334v-20.196h83.307v35.974h-15.778v15.778h-15.778v15.777zm90.189-15.777h-11.361v47.333h-20.195v-99.085h20.195v15.778h15.778v15.778h15.778v15.778h11.36v-47.334h20.196v99.085h-20.196v-15.778h-15.778v-15.778h-15.777zm110.383 15.777h-27.138v31.556h-20.195v-83.307h15.778v-15.778h51.751v15.778h15.778v83.307h-35.974zm0-47.333h-27.138v27.138h27.138zm78.828 31.556h-11.36v47.333h-20.196v-83.307h35.974v15.778h15.778v15.778h11.36v-27.138h-15.778v-20.196h20.196v15.778h15.778v83.307h-20.196v-15.778h-15.778v-15.778h-15.778zm63.05 11.36h35.974v35.973h-35.974zm130.58-11.36h-15.778v31.555h-15.778v15.778h-20.196v-15.778h-15.778v-15.778h-15.778v-67.529h35.974v63.112h11.36v-15.778h15.778v-47.334h20.196zm78.828-31.556h-15.778v63.111h-15.778v15.778h-35.974v-20.195h15.778v-58.694h-15.778v-20.196h67.53zm74.41-20.196h20.196v83.307h-15.778v15.778h-51.752v-15.778h-15.778v-83.307h35.974v78.89h27.138z" fill="#fff"/><path d="m101.002 167.094v33.473l33.472-33.473zm-31.5563 0v-33.472l-33.4722 33.472zm0 31.556v33.473l33.4723-33.473zm-35.9736 0h-33.47230261l33.47230261 33.473zm0-99.085v-33.4723l-33.47230261 33.4723zm67.5299 0h33.472l-33.472-33.4723zm0 15.778h-33.4727l33.4727 33.472zm15.777 0h33.473l-33.473-33.4724zm0 35.974v33.472l33.473-33.472zm-15.777 0v-33.473l-33.4727 33.473zm-20.1962-31.556h33.4722l-33.4722-33.4726zm-11.3601 0v-33.4726l-33.4722 33.4726zm0 27.138h-33.4722l33.4722 33.472zm27.1381 0v33.472l33.4722-33.472zm0-11.36h33.4722l-33.4722-33.473zm-15.778 0h-33.4722l33.4722 33.472zm20.1962 31.555v-33.472h-31.5563v33.472 33.473h31.5563zm-31.5563 0h-33.4722v31.556h33.4722 33.4723v-31.556zm0 31.556v-33.472h-35.9736v33.472 33.473h35.9736zm-35.9736 0h33.4723v-99.085h-33.4723-33.47230261v99.085zm0-99.085v33.472h67.5299v-33.472-33.4723h-67.5299zm67.5299 0h-33.4727v15.778h33.4727 33.472v-15.778zm0 15.778v33.472h15.777v-33.472-33.4724h-15.777zm15.777 0h-33.4718v35.974h33.4718 33.473v-35.974zm0 35.974v-33.473h-15.777v33.473 33.472h15.777zm-15.777 0h-33.4727v15.777h33.4727 33.472v-15.777zm-20.1962-31.556v-33.4726h-11.3601v33.4726 33.472h11.3601zm-11.3601 0h-33.4722v27.138h33.4722 33.4723v-27.138zm0 27.138v33.472h27.1381v-33.472-33.473h-27.1381zm27.1381 0h33.4722v-11.36h-33.4722-33.4723v11.36zm0-11.36v-33.473h-15.778v33.473 33.472h15.778zm-15.778 0h33.4722v-15.778h-33.4722-33.4722v15.778zm114.8012-20.196h-33.472l33.472 33.472zm15.778 0h33.473l-33.473-33.4724zm0 67.529v33.473l33.473-33.473zm-15.778 0v-33.472l-33.472 33.472zm0 15.778v33.473l33.473-33.473zm-51.751 0h-33.472l33.472 33.473zm0-15.778h33.472l-33.472-33.472zm-15.778 0h-33.4723l33.4723 33.473zm0-67.529v-33.4724l-33.4723 33.4724zm15.778 0v33.472l33.472-33.472zm0-15.778v-33.4723l-33.472 33.4723zm51.751 0h33.473l-33.473-33.4723zm-20.195 20.196h33.472l-33.472-33.4726zm-11.36 0v-33.4726l-33.473 33.4726zm0 58.694h-33.473l33.473 33.472zm27.138 0v33.472l33.472-33.472zm0-42.916h33.472l-33.472-33.473zm-15.778 0h-33.473l33.473 33.472zm20.195-20.196v33.472h15.778v-33.472-33.4724h-15.778zm15.778 0h-33.472v67.529h33.472 33.473v-67.529zm0 67.529v-33.472h-15.778v33.472 33.473h15.778zm-15.778 0h-33.472v15.778h33.472 33.473v-15.778zm0 15.778v-33.472h-51.751v33.472 33.473h51.751zm-51.751 0h33.472v-15.778h-33.472-33.472v15.778zm0-15.778v-33.472h-15.778v33.472 33.473h15.778zm-15.778 0h33.472v-67.529h-33.472-33.4723v67.529zm0-67.529v33.472h15.778v-33.472-33.4724h-15.778zm15.778 0h33.472v-15.778h-33.472-33.472v15.778zm0-15.778v33.472h51.751v-33.472-33.4723h-51.751zm51.751 0h-33.472v15.778h33.472 33.473v-15.778zm-20.195 20.196v-33.4726h-11.36v33.4726 33.472h11.36zm-11.36 0h-33.473v58.694h33.473 33.472v-58.694zm0 58.694v33.472h27.138v-33.472-33.473h-27.138zm27.138 0h33.472v-42.916h-33.472-33.473v42.916zm0-42.916v-33.473h-15.778v33.473 33.472h15.778zm-15.778 0h33.472v-15.778h-33.472-33.473v15.778zm83.245 31.555v-33.472l-33.472 33.472zm0 11.361h-33.472l33.472 33.472zm47.334 0h33.473l-33.473-33.473zm0 20.195v33.473l33.473-33.473zm-83.307 0h-33.472l33.472 33.473zm0-35.973v-33.473l-33.472 33.473zm15.778 0v33.472l33.472-33.472zm0-15.778v-33.473l-33.473 33.473zm15.778 0v33.472l33.472-33.472zm0-15.778v-33.4725l-33.473 33.4725zm15.778 0v33.472l33.472-33.472zm0-11.36h33.472l-33.472-33.4726zm-47.334 0h-33.472l33.472 33.472zm0-20.196v-33.4723l-33.472 33.4723zm83.307 0h33.473l-33.473-33.4723zm0 35.974v33.472l33.473-33.472zm-15.778 0v-33.473l-33.472 33.473zm0 15.778v33.472l33.473-33.472zm-15.778 0v-33.473l-33.472 33.473zm0 15.777v33.473l33.473-33.473zm-15.778 0h-33.472v11.361h33.472 33.473v-11.361zm0 11.361v33.472h47.334v-33.472-33.473h-47.334zm47.334 0h-33.472v20.195h33.472 33.473v-20.195zm0 20.195v-33.472h-83.307v33.472 33.473h83.307zm-83.307 0h33.472v-35.973h-33.472-33.472v35.973zm0-35.973v33.472h15.778v-33.472-33.473h-15.778zm15.778 0h33.472v-15.778h-33.472-33.473v15.778zm0-15.778v33.472h15.778v-33.472-33.473h-15.778zm15.778 0h33.472v-15.778h-33.472-33.473v15.778zm0-15.778v33.472h15.778v-33.472-33.4725h-15.778zm15.778 0h33.472v-11.36h-33.472-33.473v11.36zm0-11.36v-33.4726h-47.334v33.4726 33.472h47.334zm-47.334 0h33.472v-20.196h-33.472-33.472v20.196zm0-20.196v33.472h83.307v-33.472-33.4723h-83.307zm83.307 0h-33.472v35.974h33.472 33.473v-35.974zm0 35.974v-33.473h-15.778v33.473 33.472h15.778zm-15.778 0h-33.472v15.778h33.472 33.473v-15.778zm0 15.778v-33.473h-15.778v33.473 33.472h15.778zm-15.778 0h-33.472v15.777h33.472 33.473v-15.777zm0 15.777v-33.472h-15.778v33.472 33.473h15.778zm74.411-15.777h33.472l-33.472-33.473zm-11.361 0v-33.473l-33.472 33.473zm0 47.333v33.473l33.473-33.473zm-20.195 0h-33.473l33.473 33.473zm0-99.085v-33.4723l-33.473 33.4723zm20.195 0h33.473l-33.473-33.4723zm0 15.778h-33.472l33.472 33.472zm15.778 0h33.473l-33.473-33.4724zm0 15.778h-33.472l33.472 33.472zm15.778 0h33.473l-33.473-33.4725zm0 15.778h-33.472l33.472 33.472zm11.36 0v33.472l33.473-33.472zm0-47.334v-33.4723l-33.472 33.4723zm20.196 0h33.472l-33.472-33.4723zm0 99.085v33.473l33.472-33.473zm-20.196 0h-33.472l33.472 33.473zm0-15.778h33.473l-33.473-33.472zm-15.778 0h-33.472l33.472 33.473zm0-15.778h33.473l-33.473-33.472zm-15.777 0h-33.473l33.473 33.473zm0-15.777v-33.473h-11.361v33.473 33.472h11.361zm-11.361 0h-33.472v47.333h33.472 33.473v-47.333zm0 47.333v-33.472h-20.195v33.472 33.473h20.195zm-20.195 0h33.472v-99.085h-33.472-33.473v99.085zm0-99.085v33.472h20.195v-33.472-33.4723h-20.195zm20.195 0h-33.472v15.778h33.472 33.473v-15.778zm0 15.778v33.472h15.778v-33.472-33.4724h-15.778zm15.778 0h-33.472v15.778h33.472 33.473v-15.778zm0 15.778v33.472h15.778v-33.472-33.4725h-15.778zm15.778 0h-33.472v15.778h33.472 33.473v-15.778zm0 15.778v33.472h11.36v-33.472-33.473h-11.36zm11.36 0h33.473v-47.334h-33.473-33.472v47.334zm0-47.334v33.472h20.196v-33.472-33.4723h-20.196zm20.196 0h-33.472v99.085h33.472 33.472v-99.085zm0 99.085v-33.472h-20.196v33.472 33.473h20.196zm-20.196 0h33.473v-15.778h-33.473-33.472v15.778zm0-15.778v-33.472h-15.778v33.472 33.473h15.778zm-15.778 0h33.473v-15.778h-33.473-33.472v15.778zm0-15.778v-33.472h-15.777v33.472 33.473h15.777zm-15.777 0h33.472v-15.777h-33.472-33.473v15.777zm110.383 0h33.473l-33.473-33.472zm-27.138 0v-33.472l-33.472 33.472zm0 31.556v33.473l33.473-33.473zm-20.195 0h-33.473l33.473 33.473zm0-83.307v-33.4724l-33.473 33.4724zm15.778 0v33.472l33.472-33.472zm0-15.778v-33.4723l-33.473 33.4723zm51.751 0h33.472l-33.472-33.4723zm0 15.778h-33.472l33.472 33.472zm15.778 0h33.472l-33.472-33.4724zm0 83.307v33.473l33.472-33.473zm-35.974 0h-33.472l33.472 33.473zm0-78.889h33.473l-33.473-33.4726zm-27.138 0v-33.4726l-33.472 33.4726zm0 27.138h-33.472l33.472 33.472zm27.138 0v33.472l33.473-33.472zm0 20.195v-33.472h-27.138v33.472 33.473h27.138zm-27.138 0h-33.472v31.556h33.472 33.473v-31.556zm0 31.556v-33.472h-20.195v33.472 33.473h20.195zm-20.195 0h33.472v-83.307h-33.472-33.473v83.307zm0-83.307v33.472h15.778v-33.472-33.4724h-15.778zm15.778 0h33.472v-15.778h-33.472-33.473v15.778zm0-15.778v33.472h51.751v-33.472-33.4723h-51.751zm51.751 0h-33.472v15.778h33.472 33.472v-15.778zm0 15.778v33.472h15.778v-33.472-33.4724h-15.778zm15.778 0h-33.472v83.307h33.472 33.472v-83.307zm0 83.307v-33.472h-35.974v33.472 33.473h35.974zm-35.974 0h33.473v-31.556h-33.473-33.472v31.556zm0-78.889v-33.4726h-27.138v33.4726 33.472h27.138zm-27.138 0h-33.472v27.138h33.472 33.473v-27.138zm0 27.138v33.472h27.138v-33.472-33.473h-27.138zm27.138 0h33.473v-27.138h-33.473-33.472v27.138zm78.828 4.418h33.473l-33.473-33.473zm-11.36 0v-33.473l-33.472 33.473zm0 47.333v33.473l33.472-33.473zm-20.196 0h-33.472l33.472 33.473zm0-83.307v-33.4724l-33.472 33.4724zm35.974 0h33.472l-33.472-33.4724zm0 15.778h-33.472l33.472 33.472zm15.778 0h33.472l-33.472-33.4725zm0 15.778h-33.472l33.472 33.472zm11.36 0v33.472l33.472-33.472zm0-27.138h33.472l-33.472-33.4726zm-15.778 0h-33.472l33.472 33.472zm0-20.196v-33.4723l-33.472 33.4723zm20.196 0h33.472l-33.472-33.4723zm0 15.778h-33.472l33.472 33.472zm15.778 0h33.472l-33.472-33.4724zm0 83.307v33.473l33.472-33.473zm-20.196 0h-33.472l33.472 33.473zm0-15.778h33.472l-33.472-33.472zm-15.778 0h-33.472l33.472 33.473zm0-15.778h33.472l-33.472-33.472zm-15.778 0h-33.472l33.472 33.473zm0-15.777v-33.473h-11.36v33.473 33.472h11.36zm-11.36 0h-33.472v47.333h33.472 33.472v-47.333zm0 47.333v-33.472h-20.196v33.472 33.473h20.196zm-20.196 0h33.473v-83.307h-33.473-33.472v83.307zm0-83.307v33.472h35.974v-33.472-33.4724h-35.974zm35.974 0h-33.472v15.778h33.472 33.472v-15.778zm0 15.778v33.472h15.778v-33.472-33.4725h-15.778zm15.778 0h-33.472v15.778h33.472 33.472v-15.778zm0 15.778v33.472h11.36v-33.472-33.473h-11.36zm11.36 0h33.472v-27.138h-33.472-33.472v27.138zm0-27.138v-33.4726h-15.778v33.4726 33.472h15.778zm-15.778 0h33.472v-20.196h-33.472-33.472v20.196zm0-20.196v33.472h20.196v-33.472-33.4723h-20.196zm20.196 0h-33.472v15.778h33.472 33.472v-15.778zm0 15.778v33.472h15.778v-33.472-33.4724h-15.778zm15.778 0h-33.472v83.307h33.472 33.472v-83.307zm0 83.307v-33.472h-20.196v33.472 33.473h20.196zm-20.196 0h33.472v-15.778h-33.472-33.472v15.778zm0-15.778v-33.472h-15.778v33.472 33.473h15.778zm-15.778 0h33.472v-15.778h-33.472-33.472v15.778zm0-15.778v-33.472h-15.778v33.472 33.473h15.778zm-15.778 0h33.473v-15.777h-33.473-33.472v15.777zm63.05-4.417v-33.473l-33.472 33.473zm35.974 0h33.472l-33.472-33.473zm0 35.973v33.473l33.472-33.473zm-35.974 0h-33.472l33.472 33.473zm0-35.973v33.472h35.974v-33.472-33.473h-35.974zm35.974 0h-33.472v35.973h33.472 33.472v-35.973zm0 35.973v-33.472h-35.974v33.472 33.473h35.974zm-35.974 0h33.473v-35.973h-33.473-33.472v35.973zm130.58-47.333v33.472l33.472-33.472zm-15.778 0v-33.473l-33.472 33.473zm0 31.555v33.473l33.472-33.473zm-15.778 0v-33.472l-33.472 33.472zm0 15.778v33.473l33.472-33.473zm-20.196 0h-33.472l33.472 33.473zm0-15.778h33.473l-33.473-33.472zm-15.778 0h-33.472l33.472 33.473zm0-15.778h33.473l-33.473-33.472zm-15.778 0h-33.472l33.472 33.473zm0-67.529v-33.4723l-33.472 33.4723zm35.974 0h33.472l-33.472-33.4723zm0 63.112h-33.472l33.472 33.472zm11.36 0v33.472l33.473-33.472zm0-15.778v-33.473l-33.472 33.473zm15.778 0v33.472l33.472-33.472zm0-47.334v-33.4723l-33.472 33.4723zm20.196 0h33.472l-33.472-33.4723zm0 51.752v-33.473h-15.778v33.473 33.472h15.778zm-15.778 0h-33.472v31.555h33.472 33.472v-31.555zm0 31.555v-33.472h-15.778v33.472 33.473h15.778zm-15.778 0h-33.472v15.778h33.472 33.472v-15.778zm0 15.778v-33.472h-20.196v33.472 33.473h20.196zm-20.196 0h33.473v-15.778h-33.473-33.472v15.778zm0-15.778v-33.472h-15.778v33.472 33.473h15.778zm-15.778 0h33.473v-15.778h-33.473-33.472v15.778zm0-15.778v-33.472h-15.778v33.472 33.473h15.778zm-15.778 0h33.473v-67.529h-33.473-33.472v67.529zm0-67.529v33.472h35.974v-33.472-33.4723h-35.974zm35.974 0h-33.472v63.112h33.472 33.472v-63.112zm0 63.112v33.472h11.36v-33.472-33.473h-11.36zm11.36 0h33.473v-15.778h-33.473-33.472v15.778zm0-15.778v33.472h15.778v-33.472-33.473h-15.778zm15.778 0h33.472v-47.334h-33.472-33.472v47.334zm0-47.334v33.472h20.196v-33.472-33.4723h-20.196zm20.196 0h-33.472v51.752h33.472 33.472v-51.752zm78.828 20.196v33.472l33.472-33.472zm-15.778 0v-33.4726l-33.472 33.4726zm0 63.111v33.473l33.472-33.473zm-15.778 0v-33.472l-33.472 33.472zm0 15.778v33.473l33.472-33.473zm-35.974 0h-33.472l33.472 33.473zm0-20.195v-33.473l-33.472 33.473zm15.778 0v33.472l33.473-33.472zm0-58.694h33.473l-33.473-33.4726zm-15.778 0h-33.472l33.472 33.472zm0-20.196v-33.4723l-33.472 33.4723zm67.53 0h33.472l-33.472-33.4723zm0 20.196v-33.4726h-15.778v33.4726 33.472h15.778zm-15.778 0h-33.472v63.111h33.472 33.472v-63.111zm0 63.111v-33.472h-15.778v33.472 33.473h15.778zm-15.778 0h-33.472v15.778h33.472 33.472v-15.778zm0 15.778v-33.472h-35.974v33.472 33.473h35.974zm-35.974 0h33.473v-20.195h-33.473-33.472v20.195zm0-20.195v33.472h15.778v-33.472-33.473h-15.778zm15.778 0h33.473v-58.694h-33.473-33.472v58.694zm0-58.694v-33.4726h-15.778v33.4726 33.472h15.778zm-15.778 0h33.473v-20.196h-33.473-33.472v20.196zm0-20.196v33.472h67.53v-33.472-33.4723h-67.53zm67.53 0h-33.472v20.196h33.472 33.472v-20.196zm74.41 0v-33.4723l-33.472 33.4723zm20.196 0h33.472l-33.472-33.4723zm0 83.307v33.473l33.472-33.473zm-15.778 0v-33.472l-33.472 33.472zm0 15.778v33.473l33.472-33.473zm-51.752 0h-33.472l33.472 33.473zm0-15.778h33.473l-33.473-33.472zm-15.778 0h-33.472l33.472 33.473zm0-83.307v-33.4723l-33.472 33.4723zm35.974 0h33.472l-33.472-33.4723zm0 78.89h-33.472l33.472 33.472zm27.138 0v33.472l33.472-33.472zm0-78.89v33.472h20.196v-33.472-33.4723h-20.196zm20.196 0h-33.473v83.307h33.473 33.472v-83.307zm0 83.307v-33.472h-15.778v33.472 33.473h15.778zm-15.778 0h-33.472v15.778h33.472 33.472v-15.778zm0 15.778v-33.472h-51.752v33.472 33.473h51.752zm-51.752 0h33.473v-15.778h-33.473-33.472v15.778zm0-15.778v-33.472h-15.778v33.472 33.473h15.778zm-15.778 0h33.473v-83.307h-33.473-33.472v83.307zm0-83.307v33.472h35.974v-33.472-33.4723h-35.974zm35.974 0h-33.472v78.89h33.472 33.472v-78.89zm0 78.89v33.472h27.138v-33.472-33.473h-27.138zm27.138 0h33.472v-78.89h-33.472-33.472v78.89z" fill="#000" mask="url(#a)"/><path d="m593.586 84.7051h34.9138v32.897h-34.9138z" fill="#000"/><path d="m191.918 65.459h34.9138v27.8369h-34.9138z" fill="#000"/><path d="m241.672 243.531h4.52v10.308h-4.52v4.52h-19.35v-28.391h19.35v4.521h4.52v5.787h-4.52zm-9.042-4.521h7.776v-3.255h-7.776zm3.255 5.787h-3.255v7.776h7.776v-3.255h-4.521zm37.415 0h-4.521v13.562h-10.307v-9.041h-4.521v-4.521h-4.521v-14.829h10.307v13.563h7.776v-13.563h5.787zm49.694 4.521h-9.042v9.041h-10.307v-28.391h23.87v5.787h-13.563v7.776h9.042zm25.842-19.35h5.787v23.871h-4.521v4.52h-14.829v-4.52h-4.521v-23.871h10.308v22.605h7.776zm18.066 14.829h-3.255v13.562h-5.787v-28.391h5.787v4.521h4.52v4.521h4.521v4.521h3.255v-13.563h5.787v28.391h-5.787v-4.52h-4.521v-4.521h-4.52zm37.415-10.308h4.521v19.35h-4.521v4.52h-19.35v-28.391h19.35zm-5.787 1.266h-3.255v16.818h7.776v-12.297h-4.521zm27.107 13.563h-7.775v9.041h-5.787v-23.87h4.521v-4.521h14.828v4.521h4.521v23.87h-10.308zm0-13.563h-7.775v7.776h7.775zm23.853 0v16.818h7.776v-4.521h5.787v5.787h-4.521v4.52h-14.829v-4.52h-4.521v-19.35h4.521v-4.521h14.829v4.521h4.521v5.787h-5.787v-4.521zm36.149 0h-4.521v18.084h-4.521v4.52h-10.307v-5.786h4.521v-16.818h-4.521v-5.787h19.349zm21.321 13.563h-7.776v9.041h-5.787v-23.87h4.521v-4.521h14.829v4.521h4.521v23.87h-10.308zm0-13.563h-7.776v7.776h7.776zm60.002-1.266h4.521v19.35h-4.521v4.52h-19.35v-28.391h19.35zm-5.787 1.266h-3.255v16.818h7.776v-12.297h-4.521zm27.107 13.563h-7.775v9.041h-5.787v-23.87h4.521v-4.521h14.828v4.521h4.521v23.87h-10.308zm0-13.563h-7.775v7.776h7.775zm22.587 9.042h-3.255v13.562h-5.787v-28.391h10.308v9.042h3.255v-4.521h4.521v-4.521h5.787v28.391h-5.787v-18.083h-3.255v13.563h-5.787zm64.523-10.308h4.521v19.35h-4.521v4.52h-19.35v-28.391h19.35zm-5.787 1.266h-3.255v16.818h7.776v-12.297h-4.521zm27.107 13.563h-7.775v9.041h-5.787v-23.87h4.521v-4.521h14.828v4.521h4.521v23.87h-10.308zm0-13.563h-7.775v7.776h7.775zm22.587 9.042h-3.255v13.562h-5.787v-28.391h10.308v9.042h3.255v-4.521h4.521v-4.521h5.787v28.391h-5.787v-18.083h-3.255v13.563h-5.787z" fill="#fff"/><path d="m241.672 243.531h-25.105l25.105 25.104zm4.52 0h25.105l-25.105-25.104zm0 10.308v25.104l25.105-25.104zm-4.52 0v-25.105l-25.105 25.105zm0 4.52v25.105l25.104-25.105zm-19.35 0h-25.104l25.104 25.105zm0-28.391v-25.104l-25.104 25.104zm19.35 0h25.104l-25.104-25.104zm0 4.521h-25.105l25.105 25.105zm4.52 0h25.105l-25.105-25.104zm0 5.787v25.104l25.105-25.104zm-4.52 0v-25.104l-25.105 25.104zm-9.042-1.266h-25.104l25.104 25.104zm7.776 0v25.104l25.104-25.104zm0-3.255h25.104l-25.104-25.104zm-7.776 0v-25.104l-25.104 25.104zm3.255 9.042h25.104l-25.104-25.104zm-3.255 0v-25.104l-25.104 25.104zm0 7.776h-25.104l25.104 25.104zm7.776 0v25.104l25.104-25.104zm0-3.255h25.104l-25.104-25.104zm-4.521 0h-25.104l25.104 25.104zm5.787-5.787v25.104h4.52v-25.104-25.104h-4.52zm4.52 0h-25.104v10.308h25.104 25.105v-10.308zm0 10.308v-25.105h-4.52v25.105 25.104h4.52zm-4.52 0h-25.105v4.52h25.105 25.104v-4.52zm0 4.52v-25.104h-19.35v25.104 25.105h19.35zm-19.35 0h25.105v-28.391h-25.105-25.104v28.391zm0-28.391v25.105h19.35v-25.105-25.104h-19.35zm19.35 0h-25.105v4.521h25.105 25.104v-4.521zm0 4.521v25.105h4.52v-25.105-25.104h-4.52zm4.52 0h-25.104v5.787h25.104 25.105v-5.787zm0 5.787v-25.104h-4.52v25.104 25.104h4.52zm-4.52 0h-25.105v3.255h25.105 25.104v-3.255zm-9.042-1.266v25.104h7.776v-25.104-25.104h-7.776zm7.776 0h25.104v-3.255h-25.104-25.104v3.255zm0-3.255v-25.104h-7.776v25.104 25.104h7.776zm-7.776 0h-25.104v3.255h25.104 25.104v-3.255zm3.255 9.042v-25.104h-3.255v25.104 25.104h3.255zm-3.255 0h-25.104v7.776h25.104 25.104v-7.776zm0 7.776v25.104h7.776v-25.104-25.104h-7.776zm7.776 0h25.104v-3.255h-25.104-25.104v3.255zm0-3.255v-25.104h-4.521v25.104 25.104h4.521zm-4.521 0h25.104v-4.521h-25.104-25.104v4.521zm37.415-4.521v25.104l25.104-25.104zm-4.521 0v-25.104l-25.104 25.104zm0 13.562v25.105l25.104-25.105zm-10.307 0h-25.105l25.105 25.105zm0-9.041h25.104l-25.104-25.104zm-4.521 0h-25.105l25.105 25.104zm0-4.521h25.104l-25.104-25.104zm-4.521 0h-25.104l25.104 25.104zm0-14.829v-25.104l-25.104 25.104zm10.307 0h25.105l-25.105-25.104zm0 13.563h-25.104l25.104 25.104zm7.776 0v25.104l25.105-25.104zm0-13.563v-25.104l-25.104 25.104zm5.787 0h25.104l-25.104-25.104zm0 14.829v-25.104h-4.521v25.104 25.104h4.521zm-4.521 0h-25.104v13.562h25.104 25.104v-13.562zm0 13.562v-25.104h-10.307v25.104 25.105h10.307zm-10.307 0h25.104v-9.041h-25.104-25.105v9.041zm0-9.041v-25.104h-4.521v25.104 25.104h4.521zm-4.521 0h25.104v-4.521h-25.104-25.105v4.521zm0-4.521v-25.104h-4.521v25.104 25.104h4.521zm-4.521 0h25.104v-14.829h-25.104-25.104v14.829zm0-14.829v25.105h10.307v-25.105-25.104h-10.307zm10.307 0h-25.104v13.563h25.104 25.105v-13.563zm0 13.563v25.104h7.776v-25.104-25.104h-7.776zm7.776 0h25.105v-13.563h-25.105-25.104v13.563zm0-13.563v25.105h5.787v-25.105-25.104h-5.787zm5.787 0h-25.104v14.829h25.104 25.104v-14.829zm49.694 19.35v25.104l25.104-25.104zm-9.042 0v-25.104l-25.104 25.104zm0 9.041v25.105l25.105-25.105zm-10.307 0h-25.104l25.104 25.105zm0-28.391v-25.104l-25.104 25.104zm23.87 0h25.104l-25.104-25.104zm0 5.787v25.104l25.104-25.104zm-13.563 0v-25.104l-25.104 25.104zm0 7.776h-25.104l25.104 25.104zm9.042 0h25.104l-25.104-25.104zm0 5.787v-25.104h-9.042v25.104 25.104h9.042zm-9.042 0h-25.104v9.041h25.104 25.105v-9.041zm0 9.041v-25.104h-10.307v25.104 25.105h10.307zm-10.307 0h25.104v-28.391h-25.104-25.104v28.391zm0-28.391v25.105h23.87v-25.105-25.104h-23.87zm23.87 0h-25.104v5.787h25.104 25.104v-5.787zm0 5.787v-25.104h-13.563v25.104 25.104h13.563zm-13.563 0h-25.104v7.776h25.104 25.105v-7.776zm0 7.776v25.104h9.042v-25.104-25.104h-9.042zm9.042 0h-25.104v5.787h25.104 25.104v-5.787zm25.842-13.563v-25.104l-25.104 25.104zm5.787 0h25.104l-25.104-25.104zm0 23.871v25.104l25.104-25.104zm-4.521 0v-25.105l-25.105 25.105zm0 4.52v25.105l25.104-25.105zm-14.829 0h-25.104l25.104 25.105zm0-4.52h25.104l-25.104-25.105zm-4.521 0h-25.104l25.104 25.104zm0-23.871v-25.104l-25.104 25.104zm10.308 0h25.104l-25.104-25.104zm0 22.605h-25.104l25.104 25.104zm7.776 0v25.104l25.104-25.104zm0-22.605v25.105h5.787v-25.105-25.104h-5.787zm5.787 0h-25.105v23.871h25.105 25.104v-23.871zm0 23.871v-25.105h-4.521v25.105 25.104h4.521zm-4.521 0h-25.105v4.52h25.105 25.104v-4.52zm0 4.52v-25.104h-14.829v25.104 25.105h14.829zm-14.829 0h25.104v-4.52h-25.104-25.104v4.52zm0-4.52v-25.105h-4.521v25.105 25.104h4.521zm-4.521 0h25.105v-23.871h-25.105-25.104v23.871zm0-23.871v25.105h10.308v-25.105-25.104h-10.308zm10.308 0h-25.104v22.605h25.104 25.104v-22.605zm0 22.605v25.104h7.776v-25.104-25.104h-7.776zm7.776 0h25.104v-22.605h-25.104-25.104v22.605zm18.066-7.776h25.104l-25.104-25.104zm-3.255 0v-25.104l-25.105 25.104zm0 13.562v25.105l25.104-25.105zm-5.787 0h-25.104l25.104 25.105zm0-28.391v-25.104l-25.104 25.104zm5.787 0h25.104l-25.104-25.104zm0 4.521h-25.105l25.105 25.105zm4.52 0h25.105l-25.105-25.104zm0 4.521h-25.104l25.104 25.104zm4.521 0h25.105l-25.105-25.104zm0 4.521h-25.104l25.104 25.104zm3.255 0v25.104l25.105-25.104zm0-13.563v-25.104l-25.104 25.104zm5.787 0h25.104l-25.104-25.104zm0 28.391v25.105l25.104-25.105zm-5.787 0h-25.104l25.104 25.105zm0-4.52h25.105l-25.105-25.105zm-4.521 0h-25.104l25.104 25.104zm0-4.521h25.105l-25.105-25.104zm-4.52 0h-25.105l25.105 25.104zm0-4.521v-25.104h-3.255v25.104 25.104h3.255zm-3.255 0h-25.105v13.562h25.105 25.104v-13.562zm0 13.562v-25.104h-5.787v25.104 25.105h5.787zm-5.787 0h25.104v-28.391h-25.104-25.104v28.391zm0-28.391v25.105h5.787v-25.105-25.104h-5.787zm5.787 0h-25.105v4.521h25.105 25.104v-4.521zm0 4.521v25.105h4.52v-25.105-25.104h-4.52zm4.52 0h-25.104v4.521h25.104 25.105v-4.521zm0 4.521v25.104h4.521v-25.104-25.104h-4.521zm4.521 0h-25.104v4.521h25.104 25.105v-4.521zm0 4.521v25.104h3.255v-25.104-25.104h-3.255zm3.255 0h25.105v-13.563h-25.105-25.104v13.563zm0-13.563v25.105h5.787v-25.105-25.104h-5.787zm5.787 0h-25.104v28.391h25.104 25.104v-28.391zm0 28.391v-25.104h-5.787v25.104 25.105h5.787zm-5.787 0h25.105v-4.52h-25.105-25.104v4.52zm0-4.52v-25.105h-4.521v25.105 25.104h4.521zm-4.521 0h25.105v-4.521h-25.105-25.104v4.521zm0-4.521v-25.104h-4.52v25.104 25.104h4.52zm-4.52 0h25.104v-4.521h-25.104-25.105v4.521zm37.415-14.829h-25.105l25.105 25.105zm4.521 0h25.104l-25.104-25.104zm0 19.35v25.104l25.104-25.104zm-4.521 0v-25.105l-25.105 25.105zm0 4.52v25.105l25.104-25.105zm-19.35 0h-25.104l25.104 25.105zm0-28.391v-25.104l-25.104 25.104zm19.35 0h25.104l-25.104-25.104zm-5.787 5.787h25.104l-25.104-25.104zm-3.255 0v-25.104l-25.104 25.104zm0 16.818h-25.104l25.104 25.104zm7.776 0v25.104l25.104-25.104zm0-12.297h25.104l-25.104-25.104zm-4.521 0h-25.104l25.104 25.104zm5.787-5.787v25.105h4.521v-25.105-25.104h-4.521zm4.521 0h-25.105v19.35h25.105 25.104v-19.35zm0 19.35v-25.105h-4.521v25.105 25.104h4.521zm-4.521 0h-25.105v4.52h25.105 25.104v-4.52zm0 4.52v-25.104h-19.35v25.104 25.105h19.35zm-19.35 0h25.105v-28.391h-25.105-25.104v28.391zm0-28.391v25.105h19.35v-25.105-25.104h-19.35zm19.35 0h-25.105v4.521h25.105 25.104v-4.521zm-5.787 5.787v-25.104h-3.255v25.104 25.104h3.255zm-3.255 0h-25.104v16.818h25.104 25.104v-16.818zm0 16.818v25.104h7.776v-25.104-25.104h-7.776zm7.776 0h25.104v-12.297h-25.104-25.104v12.297zm0-12.297v-25.104h-4.521v25.104 25.104h4.521zm-4.521 0h25.104v-4.521h-25.104-25.104v4.521zm27.107 9.042h25.105l-25.105-25.104zm-7.775 0v-25.104l-25.105 25.104zm0 9.041v25.105l25.104-25.105zm-5.787 0h-25.104l25.104 25.105zm0-23.87v-25.104l-25.104 25.104zm4.521 0v25.105l25.104-25.105zm0-4.521v-25.104l-25.104 25.104zm14.828 0h25.104l-25.104-25.104zm0 4.521h-25.104l25.104 25.105zm4.521 0h25.104l-25.104-25.104zm0 23.87v25.105l25.104-25.105zm-10.308 0h-25.104l25.104 25.105zm0-22.604h25.105l-25.105-25.104zm-7.775 0v-25.104l-25.105 25.104zm0 7.776h-25.105l25.105 25.104zm7.775 0v25.104l25.105-25.104zm0 5.787v-25.104h-7.775v25.104 25.104h7.775zm-7.775 0h-25.105v9.041h25.105 25.104v-9.041zm0 9.041v-25.104h-5.787v25.104 25.105h5.787zm-5.787 0h25.104v-23.87h-25.104-25.104v23.87zm0-23.87v25.105h4.521v-25.105-25.104h-4.521zm4.521 0h25.104v-4.521h-25.104-25.104v4.521zm0-4.521v25.105h14.828v-25.105-25.104h-14.828zm14.828 0h-25.104v4.521h25.104 25.104v-4.521zm0 4.521v25.105h4.521v-25.105-25.104h-4.521zm4.521 0h-25.104v23.87h25.104 25.104v-23.87zm0 23.87v-25.104h-10.308v25.104 25.105h10.308zm-10.308 0h25.105v-9.041h-25.105-25.104v9.041zm0-22.604v-25.104h-7.775v25.104 25.104h7.775zm-7.775 0h-25.105v7.776h25.105 25.104v-7.776zm0 7.776v25.104h7.775v-25.104-25.104h-7.775zm7.775 0h25.105v-7.776h-25.105-25.104v7.776zm23.853-7.776v-25.104l-25.104 25.104zm0 16.818h-25.104l25.104 25.104zm7.776 0v25.104l25.104-25.104zm0-4.521v-25.104l-25.104 25.104zm5.787 0h25.104l-25.104-25.104zm0 5.787v25.104l25.104-25.104zm-4.521 0v-25.105l-25.105 25.105zm0 4.52v25.105l25.104-25.105zm-14.829 0h-25.104l25.104 25.105zm0-4.52h25.104l-25.104-25.105zm-4.521 0h-25.104l25.104 25.104zm0-19.35v-25.104l-25.104 25.104zm4.521 0v25.105l25.104-25.105zm0-4.521v-25.104l-25.104 25.104zm14.829 0h25.104l-25.104-25.104zm0 4.521h-25.105l25.105 25.105zm4.521 0h25.104l-25.104-25.104zm0 5.787v25.104l25.104-25.104zm-5.787 0h-25.104l25.104 25.104zm0-4.521h25.104l-25.104-25.104zm-7.776 0h-25.104v16.818h25.104 25.104v-16.818zm0 16.818v25.104h7.776v-25.104-25.104h-7.776zm7.776 0h25.104v-4.521h-25.104-25.104v4.521zm0-4.521v25.104h5.787v-25.104-25.104h-5.787zm5.787 0h-25.105v5.787h25.105 25.104v-5.787zm0 5.787v-25.105h-4.521v25.105 25.104h4.521zm-4.521 0h-25.105v4.52h25.105 25.104v-4.52zm0 4.52v-25.104h-14.829v25.104 25.105h14.829zm-14.829 0h25.104v-4.52h-25.104-25.104v4.52zm0-4.52v-25.105h-4.521v25.105 25.104h4.521zm-4.521 0h25.105v-19.35h-25.105-25.104v19.35zm0-19.35v25.105h4.521v-25.105-25.104h-4.521zm4.521 0h25.104v-4.521h-25.104-25.104v4.521zm0-4.521v25.105h14.829v-25.105-25.104h-14.829zm14.829 0h-25.105v4.521h25.105 25.104v-4.521zm0 4.521v25.105h4.521v-25.105-25.104h-4.521zm4.521 0h-25.105v5.787h25.105 25.104v-5.787zm0 5.787v-25.104h-5.787v25.104 25.104h5.787zm-5.787 0h25.104v-4.521h-25.104-25.104v4.521zm0-4.521v-25.104h-7.776v25.104 25.104h7.776zm28.373 0v25.104l25.104-25.104zm-4.521 0v-25.104l-25.104 25.104zm0 18.084v25.104l25.105-25.104zm-4.521 0v-25.105l-25.104 25.105zm0 4.52v25.105l25.105-25.105zm-10.307 0h-25.104l25.104 25.105zm0-5.786v-25.104l-25.104 25.104zm4.521 0v25.104l25.104-25.104zm0-16.818h25.104l-25.104-25.104zm-4.521 0h-25.104l25.104 25.104zm0-5.787v-25.104l-25.104 25.104zm19.349 0h25.104l-25.104-25.104zm0 5.787v-25.104h-4.521v25.104 25.104h4.521zm-4.521 0h-25.104v18.084h25.104 25.105v-18.084zm0 18.084v-25.105h-4.521v25.105 25.104h4.521zm-4.521 0h-25.104v4.52h25.104 25.105v-4.52zm0 4.52v-25.104h-10.307v25.104 25.105h10.307zm-10.307 0h25.104v-5.786h-25.104-25.104v5.786zm0-5.786v25.104h4.521v-25.104-25.104h-4.521zm4.521 0h25.104v-16.818h-25.104-25.104v16.818zm0-16.818v-25.104h-4.521v25.104 25.104h4.521zm-4.521 0h25.104v-5.787h-25.104-25.104v5.787zm0-5.787v25.105h19.349v-25.105-25.104h-19.349zm19.349 0h-25.104v5.787h25.104 25.104v-5.787zm21.321 19.35h25.104l-25.104-25.104zm-7.776 0v-25.104l-25.104 25.104zm0 9.041v25.105l25.104-25.105zm-5.787 0h-25.104l25.104 25.105zm0-23.87v-25.104l-25.104 25.104zm4.521 0v25.105l25.104-25.105zm0-4.521v-25.104l-25.104 25.104zm14.829 0h25.104l-25.104-25.104zm0 4.521h-25.105l25.105 25.105zm4.521 0h25.104l-25.104-25.104zm0 23.87v25.105l25.104-25.105zm-10.308 0h-25.104l25.104 25.105zm0-22.604h25.104l-25.104-25.104zm-7.776 0v-25.104l-25.104 25.104zm0 7.776h-25.104l25.104 25.104zm7.776 0v25.104l25.104-25.104zm0 5.787v-25.104h-7.776v25.104 25.104h7.776zm-7.776 0h-25.104v9.041h25.104 25.104v-9.041zm0 9.041v-25.104h-5.787v25.104 25.105h5.787zm-5.787 0h25.105v-23.87h-25.105-25.104v23.87zm0-23.87v25.105h4.521v-25.105-25.104h-4.521zm4.521 0h25.104v-4.521h-25.104-25.104v4.521zm0-4.521v25.105h14.829v-25.105-25.104h-14.829zm14.829 0h-25.105v4.521h25.105 25.104v-4.521zm0 4.521v25.105h4.521v-25.105-25.104h-4.521zm4.521 0h-25.105v23.87h25.105 25.104v-23.87zm0 23.87v-25.104h-10.308v25.104 25.105h10.308zm-10.308 0h25.104v-9.041h-25.104-25.104v9.041zm0-22.604v-25.104h-7.776v25.104 25.104h7.776zm-7.776 0h-25.104v7.776h25.104 25.104v-7.776zm0 7.776v25.104h7.776v-25.104-25.104h-7.776zm7.776 0h25.104v-7.776h-25.104-25.104v7.776zm60.002-9.042h-25.105l25.105 25.105zm4.521 0h25.104l-25.104-25.104zm0 19.35v25.104l25.104-25.104zm-4.521 0v-25.105l-25.105 25.105zm0 4.52v25.105l25.104-25.105zm-19.35 0h-25.104l25.104 25.105zm0-28.391v-25.104l-25.104 25.104zm19.35 0h25.104l-25.104-25.104zm-5.787 5.787h25.104l-25.104-25.104zm-3.255 0v-25.104l-25.104 25.104zm0 16.818h-25.104l25.104 25.104zm7.776 0v25.104l25.104-25.104zm0-12.297h25.104l-25.104-25.104zm-4.521 0h-25.104l25.104 25.104zm5.787-5.787v25.105h4.521v-25.105-25.104h-4.521zm4.521 0h-25.105v19.35h25.105 25.104v-19.35zm0 19.35v-25.105h-4.521v25.105 25.104h4.521zm-4.521 0h-25.105v4.52h25.105 25.104v-4.52zm0 4.52v-25.104h-19.35v25.104 25.105h19.35zm-19.35 0h25.105v-28.391h-25.105-25.104v28.391zm0-28.391v25.105h19.35v-25.105-25.104h-19.35zm19.35 0h-25.105v4.521h25.105 25.104v-4.521zm-5.787 5.787v-25.104h-3.255v25.104 25.104h3.255zm-3.255 0h-25.104v16.818h25.104 25.104v-16.818zm0 16.818v25.104h7.776v-25.104-25.104h-7.776zm7.776 0h25.104v-12.297h-25.104-25.104v12.297zm0-12.297v-25.104h-4.521v25.104 25.104h4.521zm-4.521 0h25.104v-4.521h-25.104-25.104v4.521zm27.107 9.042h25.105l-25.105-25.104zm-7.775 0v-25.104l-25.105 25.104zm0 9.041v25.105l25.104-25.105zm-5.787 0h-25.104l25.104 25.105zm0-23.87v-25.104l-25.104 25.104zm4.521 0v25.105l25.104-25.105zm0-4.521v-25.104l-25.104 25.104zm14.828 0h25.104l-25.104-25.104zm0 4.521h-25.104l25.104 25.105zm4.521 0h25.104l-25.104-25.104zm0 23.87v25.105l25.104-25.105zm-10.308 0h-25.104l25.104 25.105zm0-22.604h25.105l-25.105-25.104zm-7.775 0v-25.104l-25.105 25.104zm0 7.776h-25.105l25.105 25.104zm7.775 0v25.104l25.105-25.104zm0 5.787v-25.104h-7.775v25.104 25.104h7.775zm-7.775 0h-25.105v9.041h25.105 25.104v-9.041zm0 9.041v-25.104h-5.787v25.104 25.105h5.787zm-5.787 0h25.104v-23.87h-25.104-25.104v23.87zm0-23.87v25.105h4.521v-25.105-25.104h-4.521zm4.521 0h25.104v-4.521h-25.104-25.104v4.521zm0-4.521v25.105h14.828v-25.105-25.104h-14.828zm14.828 0h-25.104v4.521h25.104 25.104v-4.521zm0 4.521v25.105h4.521v-25.105-25.104h-4.521zm4.521 0h-25.104v23.87h25.104 25.104v-23.87zm0 23.87v-25.104h-10.308v25.104 25.105h10.308zm-10.308 0h25.105v-9.041h-25.105-25.104v9.041zm0-22.604v-25.104h-7.775v25.104 25.104h7.775zm-7.775 0h-25.105v7.776h25.105 25.104v-7.776zm0 7.776v25.104h7.775v-25.104-25.104h-7.775zm7.775 0h25.105v-7.776h-25.105-25.104v7.776zm22.587 1.266h25.104l-25.104-25.104zm-3.255 0v-25.104l-25.104 25.104zm0 13.562v25.105l25.104-25.105zm-5.787 0h-25.104l25.104 25.105zm0-28.391v-25.104l-25.104 25.104zm10.308 0h25.104l-25.104-25.104zm0 9.042h-25.104l25.104 25.104zm3.255 0v25.104l25.104-25.104zm0-4.521v-25.104l-25.104 25.104zm4.521 0v25.105l25.104-25.105zm0-4.521v-25.104l-25.104 25.104zm5.787 0h25.104l-25.104-25.104zm0 28.391v25.105l25.104-25.105zm-5.787 0h-25.104l25.104 25.105zm0-18.083h25.104l-25.104-25.104zm-3.255 0v-25.104l-25.104 25.104zm0 13.563v25.104l25.104-25.104zm-5.787 0h-25.104l25.104 25.104zm0-9.042v-25.104h-3.255v25.104 25.104h3.255zm-3.255 0h-25.104v13.562h25.104 25.104v-13.562zm0 13.562v-25.104h-5.787v25.104 25.105h5.787zm-5.787 0h25.105v-28.391h-25.105-25.104v28.391zm0-28.391v25.105h10.308v-25.105-25.104h-10.308zm10.308 0h-25.104v9.042h25.104 25.104v-9.042zm0 9.042v25.104h3.255v-25.104-25.104h-3.255zm3.255 0h25.104v-4.521h-25.104-25.104v4.521zm0-4.521v25.105h4.521v-25.105-25.104h-4.521zm4.521 0h25.104v-4.521h-25.104-25.104v4.521zm0-4.521v25.105h5.787v-25.105-25.104h-5.787zm5.787 0h-25.105v28.391h25.105 25.104v-28.391zm0 28.391v-25.104h-5.787v25.104 25.105h5.787zm-5.787 0h25.104v-18.083h-25.104-25.104v18.083zm0-18.083v-25.104h-3.255v25.104 25.104h3.255zm-3.255 0h-25.104v13.563h25.104 25.104v-13.563zm0 13.563v-25.105h-5.787v25.105 25.104h5.787zm-5.787 0h25.104v-9.042h-25.104-25.104v9.042zm64.523-19.35h-25.105l25.105 25.105zm4.521 0h25.104l-25.104-25.104zm0 19.35v25.104l25.104-25.104zm-4.521 0v-25.105l-25.105 25.105zm0 4.52v25.105l25.104-25.105zm-19.35 0h-25.104l25.104 25.105zm0-28.391v-25.104l-25.104 25.104zm19.35 0h25.104l-25.104-25.104zm-5.787 5.787h25.104l-25.104-25.104zm-3.255 0v-25.104l-25.104 25.104zm0 16.818h-25.104l25.104 25.104zm7.776 0v25.104l25.104-25.104zm0-12.297h25.104l-25.104-25.104zm-4.521 0h-25.104l25.104 25.104zm5.787-5.787v25.105h4.521v-25.105-25.104h-4.521zm4.521 0h-25.105v19.35h25.105 25.104v-19.35zm0 19.35v-25.105h-4.521v25.105 25.104h4.521zm-4.521 0h-25.105v4.52h25.105 25.104v-4.52zm0 4.52v-25.104h-19.35v25.104 25.105h19.35zm-19.35 0h25.105v-28.391h-25.105-25.104v28.391zm0-28.391v25.105h19.35v-25.105-25.104h-19.35zm19.35 0h-25.105v4.521h25.105 25.104v-4.521zm-5.787 5.787v-25.104h-3.255v25.104 25.104h3.255zm-3.255 0h-25.104v16.818h25.104 25.104v-16.818zm0 16.818v25.104h7.776v-25.104-25.104h-7.776zm7.776 0h25.104v-12.297h-25.104-25.104v12.297zm0-12.297v-25.104h-4.521v25.104 25.104h4.521zm-4.521 0h25.104v-4.521h-25.104-25.104v4.521zm27.107 9.042h25.105l-25.105-25.104zm-7.775 0v-25.104l-25.105 25.104zm0 9.041v25.105l25.104-25.105zm-5.787 0h-25.104l25.104 25.105zm0-23.87v-25.104l-25.104 25.104zm4.521 0v25.105l25.104-25.105zm0-4.521v-25.104l-25.104 25.104zm14.828 0h25.104l-25.104-25.104zm0 4.521h-25.104l25.104 25.105zm4.521 0h25.104l-25.104-25.104zm0 23.87v25.105l25.104-25.105zm-10.308 0h-25.104l25.104 25.105zm0-22.604h25.105l-25.105-25.104zm-7.775 0v-25.104l-25.105 25.104zm0 7.776h-25.105l25.105 25.104zm7.775 0v25.104l25.105-25.104zm0 5.787v-25.104h-7.775v25.104 25.104h7.775zm-7.775 0h-25.105v9.041h25.105 25.104v-9.041zm0 9.041v-25.104h-5.787v25.104 25.105h5.787zm-5.787 0h25.104v-23.87h-25.104-25.104v23.87zm0-23.87v25.105h4.521v-25.105-25.104h-4.521zm4.521 0h25.104v-4.521h-25.104-25.104v4.521zm0-4.521v25.105h14.828v-25.105-25.104h-14.828zm14.828 0h-25.104v4.521h25.104 25.104v-4.521zm0 4.521v25.105h4.521v-25.105-25.104h-4.521zm4.521 0h-25.104v23.87h25.104 25.104v-23.87zm0 23.87v-25.104h-10.308v25.104 25.105h10.308zm-10.308 0h25.105v-9.041h-25.105-25.104v9.041zm0-22.604v-25.104h-7.775v25.104 25.104h7.775zm-7.775 0h-25.105v7.776h25.105 25.104v-7.776zm0 7.776v25.104h7.775v-25.104-25.104h-7.775zm7.775 0h25.105v-7.776h-25.105-25.104v7.776zm22.587 1.266h25.104l-25.104-25.104zm-3.255 0v-25.104l-25.104 25.104zm0 13.562v25.105l25.104-25.105zm-5.787 0h-25.104l25.104 25.105zm0-28.391v-25.104l-25.104 25.104zm10.308 0h25.104l-25.104-25.104zm0 9.042h-25.104l25.104 25.104zm3.255 0v25.104l25.104-25.104zm0-4.521v-25.104l-25.104 25.104zm4.521 0v25.105l25.104-25.105zm0-4.521v-25.104l-25.104 25.104zm5.787 0h25.104l-25.104-25.104zm0 28.391v25.105l25.104-25.105zm-5.787 0h-25.104l25.104 25.105zm0-18.083h25.104l-25.104-25.104zm-3.255 0v-25.104l-25.104 25.104zm0 13.563v25.104l25.104-25.104zm-5.787 0h-25.104l25.104 25.104zm0-9.042v-25.104h-3.255v25.104 25.104h3.255zm-3.255 0h-25.104v13.562h25.104 25.104v-13.562zm0 13.562v-25.104h-5.787v25.104 25.105h5.787zm-5.787 0h25.105v-28.391h-25.105-25.104v28.391zm0-28.391v25.105h10.308v-25.105-25.104h-10.308zm10.308 0h-25.104v9.042h25.104 25.104v-9.042zm0 9.042v25.104h3.255v-25.104-25.104h-3.255zm3.255 0h25.104v-4.521h-25.104-25.104v4.521zm0-4.521v25.105h4.521v-25.105-25.104h-4.521zm4.521 0h25.104v-4.521h-25.104-25.104v4.521zm0-4.521v25.105h5.787v-25.105-25.104h-5.787zm5.787 0h-25.105v28.391h25.105 25.104v-28.391zm0 28.391v-25.104h-5.787v25.104 25.105h5.787zm-5.787 0h25.104v-18.083h-25.104-25.104v18.083zm0-18.083v-25.104h-3.255v25.104 25.104h3.255zm-3.255 0h-25.104v13.563h25.104 25.104v-13.563zm0 13.563v-25.105h-5.787v25.105 25.104h5.787zm-5.787 0h25.104v-9.042h-25.104-25.104v9.042z" fill="#000" mask="url(#b)"/><path d="m255.835 57.4152h-12.985v15.0987h-9.663v-39.8607h7.549v-7.5494h24.762v7.5494h7.549v39.8607h-17.212zm0-22.6482h-12.985v12.985h12.985zm62.479 15.0988h-7.549v15.0988h-7.55v7.5493h-9.663v-7.5493h-7.549v-7.5494h-7.55v-32.3114h17.213v30.1975h5.436v-7.5493h7.549v-22.6482h9.663zm82.985 7.5494h-15.099v15.0987h-17.213v-47.4101h39.861v9.6632h-22.648v12.985h15.099zm30.168-7.5494v12.9849h22.648v9.6632h-39.861v-47.4101h39.861v9.6632h-22.648v5.4356h15.098v9.6632zm60.365-2.1138h7.55v17.2126h-7.55v7.5493h-32.311v-9.6632h22.648v-5.4355h-15.099v-7.5494h-7.549v-17.2126h7.549v-7.5494h32.312v9.6632h-22.649v5.4356h15.099zm52.816-12.985h-15.098v37.7469h-17.213v-37.7469h-7.549v-9.6632h39.86zm37.718 0h-7.55v28.0837h7.55v9.6632h-32.312v-9.6632h7.55v-28.0837h-7.55v-9.6632h32.312zm29.564 30.1976v-7.5494h-5.436v15.0987h-17.212v-47.4101h9.663v22.6482h5.436v-15.0988h9.663v22.6481h5.435v-30.1975h9.664v47.4101h-9.664v-7.5493zm45.267-7.5494h-12.985v15.0987h-9.663v-39.8607h7.549v-7.5494h24.762v7.5494h7.549v39.8607h-17.212zm0-22.6482h-12.985v12.985h12.985zm39.831-9.6632v37.7469h22.648v9.6632h-39.86v-47.4101z" fill="#fff"/><path d="m255.835 57.4152h25.104l-25.104-25.1043zm-12.985 0v-25.1043l-25.104 25.1043zm0 15.0987v25.1043l25.104-25.1043zm-9.663 0h-25.105l25.105 25.1043zm0-39.8607v-25.10424l-25.105 25.10424zm7.549 0v25.1042l25.104-25.1042zm0-7.5494v-25.10423017l-25.104 25.10423017zm24.762 0h25.104l-25.104-25.10423017zm0 7.5494h-25.104l25.104 25.1042zm7.549 0h25.105l-25.105-25.10424zm0 39.8607v25.1043l25.105-25.1043zm-17.212 0h-25.104l25.104 25.1043zm0-37.7469h25.104l-25.104-25.10422zm-12.985 0v-25.10422l-25.104 25.10422zm0 12.985h-25.104l25.104 25.1042zm12.985 0v25.1042l25.104-25.1042zm0 9.6632v-25.1043h-12.985v25.1043 25.1042h12.985zm-12.985 0h-25.104v15.0987h25.104 25.104v-15.0987zm0 15.0987v-25.1042h-9.663v25.1042 25.1043h9.663zm-9.663 0h25.104v-39.8607h-25.104-25.105v39.8607zm0-39.8607v25.1042h7.549v-25.1042-25.10424h-7.549zm7.549 0h25.104v-7.5494h-25.104-25.104v7.5494zm0-7.5494v25.1042h24.762v-25.1042-25.10423017h-24.762zm24.762 0h-25.104v7.5494h25.104 25.104v-7.5494zm0 7.5494v25.1042h7.549v-25.1042-25.10424h-7.549zm7.549 0h-25.104v39.8607h25.104 25.105v-39.8607zm0 39.8607v-25.1042h-17.212v25.1042 25.1043h17.212zm-17.212 0h25.104v-15.0987h-25.104-25.104v15.0987zm0-37.7469v-25.10422h-12.985v25.10422 25.1042h12.985zm-12.985 0h-25.104v12.985h25.104 25.104v-12.985zm0 12.985v25.1042h12.985v-25.1042-25.1043h-12.985zm12.985 0h25.104v-12.985h-25.104-25.104v12.985zm62.479 2.1138v25.1042l25.104-25.1042zm-7.549 0v-25.1042l-25.104 25.1042zm0 15.0988v25.1042l25.104-25.1042zm-7.55 0v-25.1043l-25.104 25.1043zm0 7.5493v25.1043l25.105-25.1043zm-9.663 0h-25.104l25.104 25.1043zm0-7.5493h25.104l-25.104-25.1043zm-7.549 0h-25.104l25.104 25.1042zm0-7.5494h25.104l-25.104-25.1043zm-7.55 0h-25.104l25.104 25.1042zm0-32.3114v-25.10423017l-25.104 25.10423017zm17.213 0h25.104l-25.104-25.10423017zm0 30.1975h-25.104l25.104 25.1043zm5.436 0v25.1043l25.104-25.1043zm0-7.5493v-25.1043l-25.105 25.1043zm7.549 0v25.1042l25.104-25.1042zm0-22.6482v-25.10423017l-25.104 25.10423017zm9.663 0h25.104l-25.104-25.10423017zm0 24.762v-25.1042h-7.549v25.1042 25.1042h7.549zm-7.549 0h-25.104v15.0988h25.104 25.104v-15.0988zm0 15.0988v-25.1043h-7.55v25.1043 25.1042h7.55zm-7.55 0h-25.104v7.5493h25.104 25.105v-7.5493zm0 7.5493v-25.1042h-9.663v25.1042 25.1043h9.663zm-9.663 0h25.104v-7.5493h-25.104-25.104v7.5493zm0-7.5493v-25.1043h-7.549v25.1043 25.1042h7.549zm-7.549 0h25.104v-7.5494h-25.104-25.104v7.5494zm0-7.5494v-25.1043h-7.55v25.1043 25.1042h7.55zm-7.55 0h25.105v-32.3114h-25.105-25.104v32.3114zm0-32.3114v25.1042h17.213v-25.1042-25.10423017h-17.213zm17.213 0h-25.104v30.1975h25.104 25.104v-30.1975zm0 30.1975v25.1043h5.436v-25.1043-25.1042h-5.436zm5.436 0h25.104v-7.5493h-25.104-25.105v7.5493zm0-7.5493v25.1042h7.549v-25.1042-25.1043h-7.549zm7.549 0h25.104v-22.6482h-25.104-25.104v22.6482zm0-22.6482v25.1042h9.663v-25.1042-25.10423017h-9.663zm9.663 0h-25.104v24.762h25.104 25.104v-24.762zm82.985 32.3114v25.1042l25.104-25.1042zm-15.099 0v-25.1043l-25.104 25.1043zm0 15.0987v25.1043l25.104-25.1043zm-17.213 0h-25.104l25.104 25.1043zm0-47.4101v-25.10423017l-25.104 25.10423017zm39.861 0h25.104l-25.104-25.10423017zm0 9.6632v25.1042l25.104-25.1042zm-22.648 0v-25.10422l-25.104 25.10422zm0 12.985h-25.104l25.104 25.1042zm15.099 0h25.104l-25.104-25.1043zm0 9.6632v-25.1043h-15.099v25.1043 25.1042h15.099zm-15.099 0h-25.104v15.0987h25.104 25.104v-15.0987zm0 15.0987v-25.1042h-17.213v25.1042 25.1043h17.213zm-17.213 0h25.104v-47.4101h-25.104-25.104v47.4101zm0-47.4101v25.1042h39.861v-25.1042-25.10423017h-39.861zm39.861 0h-25.104v9.6632h25.104 25.104v-9.6632zm0 9.6632v-25.10422h-22.648v25.10422 25.1042h22.648zm-22.648 0h-25.104v12.985h25.104 25.104v-12.985zm0 12.985v25.1042h15.099v-25.1042-25.1043h-15.099zm15.099 0h-25.105v9.6632h25.105 25.104v-9.6632zm30.168 2.1138v-25.1042l-25.105 25.1042zm0 12.9849h-25.105l25.105 25.1043zm22.648 0h25.104l-25.104-25.1042zm0 9.6632v25.1043l25.104-25.1043zm-39.861 0h-25.104l25.104 25.1043zm0-47.4101v-25.10423017l-25.104 25.10423017zm39.861 0h25.104l-25.104-25.10423017zm0 9.6632v25.1042l25.104-25.1042zm-22.648 0v-25.10422l-25.105 25.10422zm0 5.4356h-25.105l25.105 25.1042zm15.098 0h25.105l-25.105-25.1043zm0 9.6632v25.1042l25.105-25.1042zm-15.098 0h-25.105v12.9849h25.105 25.104v-12.9849zm0 12.9849v25.1043h22.648v-25.1043-25.1042h-22.648zm22.648 0h-25.104v9.6632h25.104 25.104v-9.6632zm0 9.6632v-25.1042h-39.861v25.1042 25.1043h39.861zm-39.861 0h25.104v-47.4101h-25.104-25.104v47.4101zm0-47.4101v25.1042h39.861v-25.1042-25.10423017h-39.861zm39.861 0h-25.104v9.6632h25.104 25.104v-9.6632zm0 9.6632v-25.10422h-22.648v25.10422 25.1042h22.648zm-22.648 0h-25.105v5.4356h25.105 25.104v-5.4356zm0 5.4356v25.1042h15.098v-25.1042-25.1043h-15.098zm15.098 0h-25.104v9.6632h25.104 25.105v-9.6632zm0 9.6632v-25.1042h-15.098v25.1042 25.1042h15.098zm45.267-2.1138h-25.104l25.104 25.1042zm7.55 0h25.104l-25.104-25.1043zm0 17.2126v25.1042l25.104-25.1042zm-7.55 0v-25.1043l-25.104 25.1043zm0 7.5493v25.1043l25.104-25.1043zm-32.311 0h-25.104l25.104 25.1043zm0-9.6632v-25.1042l-25.104 25.1042zm22.648 0v25.1043l25.104-25.1043zm0-5.4355h25.104l-25.104-25.1043zm-15.099 0h-25.104l25.104 25.1042zm0-7.5494h25.104l-25.104-25.1042zm-7.549 0h-25.104l25.104 25.1042zm0-17.2126v-25.10424l-25.104 25.10424zm7.549 0v25.1042l25.104-25.1042zm0-7.5494v-25.10423017l-25.104 25.10423017zm32.312 0h25.104l-25.104-25.10423017zm0 9.6632v25.1042l25.104-25.1042zm-22.649 0v-25.10422l-25.104 25.10422zm0 5.4356h-25.104l25.104 25.1042zm15.099 0h25.104l-25.104-25.1043zm0 7.5494v25.1042h7.55v-25.1042-25.1043h-7.55zm7.55 0h-25.105v17.2126h25.105 25.104v-17.2126zm0 17.2126v-25.1043h-7.55v25.1043 25.1042h7.55zm-7.55 0h-25.104v7.5493h25.104 25.104v-7.5493zm0 7.5493v-25.1042h-32.311v25.1042 25.1043h32.311zm-32.311 0h25.104v-9.6632h-25.104-25.104v9.6632zm0-9.6632v25.1043h22.648v-25.1043-25.1042h-22.648zm22.648 0h25.104v-5.4355h-25.104-25.104v5.4355zm0-5.4355v-25.1043h-15.099v25.1043 25.1042h15.099zm-15.099 0h25.104v-7.5494h-25.104-25.104v7.5494zm0-7.5494v-25.1042h-7.549v25.1042 25.1042h7.549zm-7.549 0h25.104v-17.2126h-25.104-25.104v17.2126zm0-17.2126v25.1042h7.549v-25.1042-25.10424h-7.549zm7.549 0h25.104v-7.5494h-25.104-25.104v7.5494zm0-7.5494v25.1042h32.312v-25.1042-25.10423017h-32.312zm32.312 0h-25.105v9.6632h25.105 25.104v-9.6632zm0 9.6632v-25.10422h-22.649v25.10422 25.1042h22.649zm-22.649 0h-25.104v5.4356h25.104 25.105v-5.4356zm0 5.4356v25.1042h15.099v-25.1042-25.1043h-15.099zm15.099 0h-25.104v7.5494h25.104 25.104v-7.5494zm52.816-5.4356v25.1042l25.105-25.1042zm-15.098 0v-25.10422l-25.105 25.10422zm0 37.7469v25.1043l25.104-25.1043zm-17.213 0h-25.104l25.104 25.1043zm0-37.7469h25.104l-25.104-25.10422zm-7.549 0h-25.105l25.105 25.1042zm0-9.6632v-25.10423017l-25.105 25.10423017zm39.86 0h25.105l-25.105-25.10423017zm0 9.6632v-25.10422h-15.098v25.10422 25.1042h15.098zm-15.098 0h-25.105v37.7469h25.105 25.104v-37.7469zm0 37.7469v-25.1042h-17.213v25.1042 25.1043h17.213zm-17.213 0h25.104v-37.7469h-25.104-25.104v37.7469zm0-37.7469v-25.10422h-7.549v25.10422 25.1042h7.549zm-7.549 0h25.104v-9.6632h-25.104-25.105v9.6632zm0-9.6632v25.1042h39.86v-25.1042-25.10423017h-39.86zm39.86 0h-25.104v9.6632h25.104 25.105v-9.6632zm37.718 9.6632v25.1042l25.104-25.1042zm-7.55 0v-25.10422l-25.104 25.10422zm0 28.0837h-25.104l25.104 25.1043zm7.55 0h25.104l-25.104-25.1042zm0 9.6632v25.1043l25.104-25.1043zm-32.312 0h-25.104l25.104 25.1043zm0-9.6632v-25.1042l-25.104 25.1042zm7.55 0v25.1043l25.104-25.1043zm0-28.0837h25.104l-25.104-25.10422zm-7.55 0h-25.104l25.104 25.1042zm0-9.6632v-25.10423017l-25.104 25.10423017zm32.312 0h25.104l-25.104-25.10423017zm0 9.6632v-25.10422h-7.55v25.10422 25.1042h7.55zm-7.55 0h-25.104v28.0837h25.104 25.105v-28.0837zm0 28.0837v25.1043h7.55v-25.1043-25.1042h-7.55zm7.55 0h-25.104v9.6632h25.104 25.104v-9.6632zm0 9.6632v-25.1042h-32.312v25.1042 25.1043h32.312zm-32.312 0h25.105v-9.6632h-25.105-25.104v9.6632zm0-9.6632v25.1043h7.55v-25.1043-25.1042h-7.55zm7.55 0h25.104v-28.0837h-25.104-25.104v28.0837zm0-28.0837v-25.10422h-7.55v25.10422 25.1042h7.55zm-7.55 0h25.105v-9.6632h-25.105-25.104v9.6632zm0-9.6632v25.1042h32.312v-25.1042-25.10423017h-32.312zm32.312 0h-25.104v9.6632h25.104 25.104v-9.6632zm29.564 39.8608h-25.104l25.104 25.1042zm0-7.5494h25.104l-25.104-25.1043zm-5.436 0v-25.1043l-25.104 25.1043zm0 15.0987v25.1043l25.105-25.1043zm-17.212 0h-25.104l25.104 25.1043zm0-47.4101v-25.10423017l-25.104 25.10423017zm9.663 0h25.104l-25.104-25.10423017zm0 22.6482h-25.104l25.104 25.1042zm5.436 0v25.1042l25.104-25.1042zm0-15.0988v-25.10424l-25.105 25.10424zm9.663 0h25.104l-25.104-25.10424zm0 22.6481h-25.104l25.104 25.1043zm5.435 0v25.1043l25.105-25.1043zm0-30.1975v-25.10423017l-25.104 25.10423017zm9.664 0h25.104l-25.104-25.10423017zm0 47.4101v25.1043l25.104-25.1043zm-9.664 0h-25.104l25.104 25.1043zm0-7.5493h25.105l-25.105-25.1043zm-7.549 0h25.104v-7.5494h-25.104-25.104v7.5494zm0-7.5494v-25.1043h-5.436v25.1043 25.1042h5.436zm-5.436 0h-25.104v15.0987h25.104 25.105v-15.0987zm0 15.0987v-25.1042h-17.212v25.1042 25.1043h17.212zm-17.212 0h25.104v-47.4101h-25.104-25.104v47.4101zm0-47.4101v25.1042h9.663v-25.1042-25.10423017h-9.663zm9.663 0h-25.104v22.6482h25.104 25.104v-22.6482zm0 22.6482v25.1042h5.436v-25.1042-25.1043h-5.436zm5.436 0h25.104v-15.0988h-25.104-25.105v15.0988zm0-15.0988v25.1042h9.663v-25.1042-25.10424h-9.663zm9.663 0h-25.104v22.6481h25.104 25.104v-22.6481zm0 22.6481v25.1043h5.435v-25.1043-25.1042h-5.435zm5.435 0h25.105v-30.1975h-25.105-25.104v30.1975zm0-30.1975v25.1042h9.664v-25.1042-25.10423017h-9.664zm9.664 0h-25.105v47.4101h25.105 25.104v-47.4101zm0 47.4101v-25.1042h-9.664v25.1042 25.1043h9.664zm-9.664 0h25.105v-7.5493h-25.105-25.104v7.5493zm0-7.5493v-25.1043h-7.549v25.1043 25.1042h7.549zm37.718-7.5494h25.104l-25.104-25.1043zm-12.985 0v-25.1043l-25.104 25.1043zm0 15.0987v25.1043l25.104-25.1043zm-9.663 0h-25.105l25.105 25.1043zm0-39.8607v-25.10424l-25.105 25.10424zm7.549 0v25.1042l25.104-25.1042zm0-7.5494v-25.10423017l-25.104 25.10423017zm24.762 0h25.104l-25.104-25.10423017zm0 7.5494h-25.104l25.104 25.1042zm7.549 0h25.105l-25.105-25.10424zm0 39.8607v25.1043l25.105-25.1043zm-17.212 0h-25.104l25.104 25.1043zm0-37.7469h25.104l-25.104-25.10422zm-12.985 0v-25.10422l-25.104 25.10422zm0 12.985h-25.104l25.104 25.1042zm12.985 0v25.1042l25.104-25.1042zm0 9.6632v-25.1043h-12.985v25.1043 25.1042h12.985zm-12.985 0h-25.104v15.0987h25.104 25.104v-15.0987zm0 15.0987v-25.1042h-9.663v25.1042 25.1043h9.663zm-9.663 0h25.104v-39.8607h-25.104-25.105v39.8607zm0-39.8607v25.1042h7.549v-25.1042-25.10424h-7.549zm7.549 0h25.104v-7.5494h-25.104-25.104v7.5494zm0-7.5494v25.1042h24.762v-25.1042-25.10423017h-24.762zm24.762 0h-25.104v7.5494h25.104 25.104v-7.5494zm0 7.5494v25.1042h7.549v-25.1042-25.10424h-7.549zm7.549 0h-25.104v39.8607h25.104 25.105v-39.8607zm0 39.8607v-25.1042h-17.212v25.1042 25.1043h17.212zm-17.212 0h25.104v-15.0987h-25.104-25.104v15.0987zm0-37.7469v-25.10422h-12.985v25.10422 25.1042h12.985zm-12.985 0h-25.104v12.985h25.104 25.104v-12.985zm0 12.985v25.1042h12.985v-25.1042-25.1043h-12.985zm12.985 0h25.104v-12.985h-25.104-25.104v12.985zm39.831-22.6482h25.104l-25.104-25.10423017zm0 37.7469h-25.104l25.104 25.1043zm22.648 0h25.105l-25.105-25.1042zm0 9.6632v25.1043l25.105-25.1043zm-39.86 0h-25.105l25.105 25.1043zm0-47.4101v-25.10423017l-25.105 25.10423017zm17.212 0h-25.104v37.7469h25.104 25.104v-37.7469zm0 37.7469v25.1043h22.648v-25.1043-25.1042h-22.648zm22.648 0h-25.104v9.6632h25.104 25.105v-9.6632zm0 9.6632v-25.1042h-39.86v25.1042 25.1043h39.86zm-39.86 0h25.104v-47.4101h-25.104-25.105v47.4101zm0-47.4101v25.1042h17.212v-25.1042-25.10423017h-17.212z" fill="#000" mask="url(#c)"/></svg>