<?xml version="1.0" encoding="UTF-8"?><svg id="Layer_2" xmlns="http://www.w3.org/2000/svg" viewBox="0 0 845 350"><defs><style>.cls-1{fill:none;}.cls-2{fill:#fff;}</style></defs><g id="Warstwa_1"><path class="cls-2" d="M322.75,280.31c-2.48-2.55-3.71-6.1-3.71-10.65,0-3.65.99-6.65,2.98-9.01,1.99-2.35,4.34-4.22,7.06-5.6,2.72-1.38,6.31-2.84,10.77-4.38,4.54-1.54,7.91-2.96,10.1-4.26,2.19-1.3,3.29-3.04,3.29-5.23v-7.55c0-4.7-.99-7.93-2.98-9.68-1.99-1.74-4.77-2.62-8.34-2.62-5.68,0-9.69,1.46-12.05,4.38,1.62.41,2.98,1.26,4.08,2.55,1.09,1.3,1.64,2.92,1.64,4.87s-.65,3.63-1.95,4.81c-1.3,1.18-2.96,1.76-4.99,1.76-2.27,0-3.97-.71-5.11-2.13-1.14-1.42-1.7-3.14-1.7-5.17s.47-3.57,1.4-4.87c.93-1.3,2.33-2.6,4.2-3.89,1.95-1.38,4.42-2.51,7.43-3.41,3-.89,6.29-1.34,9.86-1.34,6.33,0,11.12,1.5,14.36,4.5,2.03,1.87,3.39,4.12,4.08,6.75.69,2.64,1.03,6.11,1.03,10.41v33.83c0,2.03.28,3.49.85,4.38.57.89,1.54,1.34,2.92,1.34.97,0,1.89-.22,2.74-.67.85-.45,1.76-1.08,2.74-1.89l1.34,2.07c-2.11,1.62-3.92,2.78-5.42,3.47-1.5.69-3.39,1.04-5.66,1.04-3.89,0-6.61-.98-8.15-2.92-1.54-1.95-2.31-4.58-2.31-7.91-2.43,4.06-5.23,6.88-8.4,8.46-3.17,1.58-6.74,2.37-10.71,2.37-5.11,0-8.91-1.28-11.38-3.84ZM353.24,270.03v-23.85c-.73,1.14-1.75,2.07-3.04,2.8-1.3.73-3.29,1.71-5.96,2.92-3.08,1.3-5.58,2.54-7.48,3.71-1.91,1.18-3.55,2.78-4.93,4.81-1.38,2.03-2.07,4.62-2.07,7.79,0,3.65.89,6.41,2.68,8.28,1.78,1.87,4.14,2.8,7.06,2.8,5.36,0,9.94-3.08,13.75-9.25Z"/><path class="cls-2" d="M433.99,221.71c2.07,1.87,3.1,4.14,3.1,6.81,0,2.11-.63,3.92-1.89,5.42-1.26,1.5-2.94,2.25-5.05,2.25-1.79,0-3.31-.57-4.57-1.71-1.26-1.13-1.88-2.68-1.88-4.62,0-2.68,1.38-4.87,4.14-6.57-.57-.81-1.42-1.22-2.56-1.22-3.16,0-6.04,1.24-8.64,3.71-2.6,2.48-4.63,5.5-6.09,9.07-1.46,3.57-2.19,6.94-2.19,10.1v25.8c0,3.73,1.08,6.33,3.23,7.79,2.15,1.46,5.37,2.19,9.67,2.19v2.56l-2.92-.12c-8.28-.24-13.55-.36-15.82-.36-2.11,0-6.9.16-14.36.49v-2.56c3.41,0,5.8-.63,7.18-1.89,1.38-1.26,2.07-3.55,2.07-6.88v-38.09c0-3.73-.69-6.45-2.07-8.15-1.38-1.71-3.77-2.56-7.18-2.56v-2.56c2.6.24,5.11.37,7.55.37,5.11,0,9.33-.57,12.66-1.71v15.21c1.46-4.06,3.79-7.67,7-10.83,3.21-3.16,6.76-4.75,10.65-4.75,3.24,0,5.9.93,7.97,2.8Z"/><path class="cls-2" d="M494.17,222.81c3.81,2.52,5.72,5.64,5.72,9.37,0,2.11-.61,3.77-1.83,4.99-1.22,1.22-2.76,1.82-4.63,1.82s-3.45-.55-4.75-1.64c-1.3-1.1-1.95-2.57-1.95-4.44,0-1.7.49-3.14,1.46-4.32.97-1.18,2.19-1.97,3.65-2.37-.81-1.46-2.25-2.68-4.32-3.65-2.07-.97-4.28-1.46-6.63-1.46-3,0-5.8.95-8.4,2.86-2.6,1.91-4.75,5.07-6.45,9.49-1.7,4.42-2.56,10.24-2.56,17.47,0,10.06,1.62,17.38,4.87,21.97,3.24,4.58,7.46,6.88,12.66,6.88,3.49,0,6.8-1.01,9.92-3.04,3.12-2.03,5.7-5.19,7.73-9.49l2.31.85c-1.38,4.62-3.95,8.6-7.73,11.93-3.77,3.33-8.66,4.99-14.67,4.99-5.03,0-9.59-1.3-13.69-3.89-4.1-2.6-7.32-6.35-9.68-11.26-2.35-4.91-3.53-10.61-3.53-17.1s1.2-12.41,3.59-17.52c2.39-5.11,5.74-9.11,10.04-11.99,4.3-2.88,9.21-4.32,14.73-4.32s10.14,1.3,14.12,3.89Z"/><path class="cls-2" d="M538.71,271.98c0,3.33.69,5.62,2.07,6.88,1.38,1.26,3.77,1.89,7.18,1.89v2.56c-7.46-.32-12.37-.49-14.73-.49s-7.26.16-14.73.49v-2.56c3.41,0,5.8-.63,7.18-1.89,1.38-1.26,2.07-3.55,2.07-6.88v-38.09c0-3.73-.69-6.45-2.07-8.15-1.38-1.71-3.77-2.56-7.18-2.56v-2.56c2.6.24,5.11.37,7.55.37,5.11,0,9.33-.57,12.66-1.71v52.7ZM537.86,192.51c1.54,1.54,2.31,3.37,2.31,5.48s-.77,3.94-2.31,5.48c-1.54,1.54-3.37,2.31-5.48,2.31s-3.94-.77-5.48-2.31c-1.54-1.54-2.31-3.37-2.31-5.48s.77-3.94,2.31-5.48c1.54-1.54,3.37-2.31,5.48-2.31s3.94.77,5.48,2.31Z"/><path class="cls-2" d="M617.7,223.54c1.54,1.62,2.64,3.65,3.29,6.09.65,2.43.97,5.72.97,9.86v32.5c0,3.33.69,5.62,2.07,6.88,1.38,1.26,3.77,1.89,7.18,1.89v2.56c-7.46-.32-12.33-.49-14.6-.49s-6.82.16-13.63.49v-2.56c3,0,5.09-.63,6.27-1.89,1.18-1.26,1.76-3.55,1.76-6.88v-35.17c0-4.54-.65-8.01-1.95-10.41-1.3-2.39-3.94-3.59-7.91-3.59-3.33,0-6.29.97-8.89,2.92-2.6,1.95-4.61,4.61-6.02,7.97-1.42,3.37-2.13,7.12-2.13,11.26v27.02c0,3.33.59,5.62,1.76,6.88,1.18,1.26,3.27,1.89,6.27,1.89v2.56c-6.82-.32-11.36-.49-13.63-.49s-7.14.16-14.6.49v-2.56c3.41,0,5.8-.63,7.18-1.89,1.38-1.26,2.07-3.55,2.07-6.88v-38.09c0-3.73-.69-6.45-2.07-8.15-1.38-1.71-3.77-2.56-7.18-2.56v-2.56c2.6.24,5.11.37,7.55.37,5.11,0,9.33-.57,12.66-1.71v14.36c2.03-5.19,4.85-8.95,8.46-11.26,3.61-2.31,7.69-3.47,12.23-3.47,5.68,0,9.98,1.54,12.9,4.62Z"/><path class="cls-2" d="M699.12,268.69c-1.46,4.46-4.2,8.3-8.21,11.5-4.02,3.2-8.87,4.81-14.55,4.81s-10.75-1.32-14.97-3.95c-4.22-2.64-7.44-6.33-9.67-11.08-2.23-4.75-3.35-10.24-3.35-16.49,0-7.06,1.13-13.18,3.41-18.38,2.27-5.19,5.48-9.19,9.61-11.99,4.14-2.8,8.96-4.2,14.48-4.2,7.3,0,12.92,2.21,16.86,6.63,3.94,4.42,5.9,11.14,5.9,20.14h-38.09c-.24,2.27-.37,4.87-.37,7.79,0,5.36.87,10.02,2.62,14,1.75,3.98,4.06,7.04,6.94,9.19,2.88,2.15,5.9,3.23,9.07,3.23,3.89,0,7.34-.93,10.34-2.8,3-1.87,5.52-4.99,7.55-9.37l2.43.97ZM665.53,226.83c-2.76,3.73-4.46,9.25-5.11,16.55h26.53c.16-6.33-.75-11.6-2.74-15.82-1.99-4.22-4.93-6.33-8.83-6.33s-7.1,1.87-9.86,5.6Z"/><path class="cls-2" d="M775.79,278.92c1.22.97,2.68,1.58,4.38,1.82v2.56c-4.87-.32-8.15-.49-9.86-.49-2.19,0-6.69.16-13.51.49v-2.56c1.14,0,2.05-.22,2.74-.67.69-.45,1.04-.99,1.04-1.64s-.24-1.26-.73-1.82l-14-20.45c-1.38-2.03-2.7-3.39-3.96-4.08-1.26-.69-2.98-1.11-5.17-1.28v21.18c0,3.33.59,5.62,1.77,6.88,1.18,1.26,3.27,1.89,6.27,1.89v2.56c-6.82-.32-11.32-.49-13.51-.49-2.35,0-7.26.16-14.73.49v-2.56c3.41,0,5.8-.63,7.18-1.89,1.38-1.26,2.07-3.55,2.07-6.88v-69.49c0-3.73-.69-6.45-2.07-8.16-1.38-1.7-3.77-2.55-7.18-2.55v-2.56c2.6.24,5.11.36,7.55.36,5.11,0,9.33-.57,12.66-1.7v60.36c2.35-.32,4.32-.87,5.9-1.64,1.58-.77,3.1-1.88,4.56-3.35l9.01-9.37c2.6-2.68,3.9-4.91,3.9-6.69,0-1.38-.83-2.41-2.5-3.1-1.66-.69-3.83-1.04-6.51-1.04v-2.43c5.68.32,10.26.49,13.75.49,3.81,0,7.34-.16,10.59-.49v2.43c-3.97.33-7.63,2.23-10.95,5.72l-14.85,15.58,22.03,30.06c1.54,2.03,2.92,3.53,4.14,4.5Z"/><path class="cls-2" d="M78.28,247.8h-13.32v1.48l3.78,4.37.79-.57s.09-.08.13-.15c.04-.06.07-.13.08-.21.01-.07.01-.16,0-.24-.02-.09-.06-.18-.14-.27l-2.24-2.61c.31.02.61.03.91.03h10.01v3.14h1.39v-7.86h-1.39v2.89Z"/><polygon class="cls-2" points="78 232.81 64.99 232.81 64.99 234.78 79.67 234.78 79.67 226.46 78 226.46 78 232.81"/><path class="cls-2" d="M77.73,212.61c-.66-.63-1.45-1.13-2.37-1.48-.92-.35-1.93-.52-3.03-.52s-2.11.17-3.03.52c-.92.35-1.71.84-2.38,1.48-.67.63-1.18,1.4-1.55,2.29-.37.89-.55,1.88-.55,2.95s.19,2.06.55,2.95c.37.89.89,1.65,1.55,2.28.67.63,1.46,1.12,2.38,1.47.92.35,1.93.52,3.03.52s2.11-.18,3.03-.52c.92-.35,1.71-.84,2.37-1.47.66-.64,1.18-1.4,1.54-2.28.37-.89.55-1.87.55-2.95s-.18-2.06-.55-2.95c-.37-.89-.88-1.65-1.54-2.29ZM77.71,220c-.26.64-.64,1.19-1.14,1.64-.49.45-1.1.8-1.81,1.05-.71.25-1.52.37-2.42.37s-1.71-.12-2.43-.37c-.72-.25-1.32-.59-1.82-1.05-.5-.45-.88-1-1.14-1.64-.26-.64-.4-1.35-.4-2.14s.13-1.51.4-2.15c.27-.64.65-1.19,1.14-1.64.49-.45,1.1-.8,1.82-1.05.72-.25,1.53-.37,2.43-.37s1.71.12,2.42.37c.71.25,1.32.59,1.81,1.05.5.45.87,1,1.14,1.64.26.64.39,1.36.39,2.15s-.13,1.5-.39,2.14Z"/><path class="cls-2" d="M75.66,197.45l-10.2,3.03c-.14.03-.25.11-.34.23-.09.12-.13.27-.13.45v1.65l14.68-4.58v-1.78l-11.19-3.74c-.11-.04-.23-.07-.35-.1-.12-.04-.25-.07-.39-.1.14-.03.27-.06.39-.1.12-.03.24-.06.35-.1l11.19-3.72v-1.78l-14.68-4.58v1.55c0,.17.05.31.14.44.1.12.2.2.33.23l10.2,3.04c.18.05.37.09.57.13.2.04.42.08.64.11-.23.05-.44.1-.64.15-.2.05-.4.11-.57.17l-10.2,3.44c-.14.05-.25.14-.34.24-.09.11-.13.25-.13.43v.57c0,.17.05.32.15.44.1.12.21.2.32.24l10.2,3.45c.18.06.37.12.59.17.21.05.44.1.68.15-.24.04-.47.09-.68.13-.21.04-.41.09-.59.14Z"/><path class="cls-2" d="M73.84,166.84c-.23-.68-.55-1.25-.96-1.71-.41-.46-.9-.81-1.46-1.05-.57-.24-1.19-.36-1.87-.36s-1.31.11-1.87.33c-.56.22-1.04.56-1.43,1.01s-.7,1.02-.92,1.7c-.22.69-.32,1.49-.32,2.42v4.33h14.68v-1.98h-5.49v-2.36c0-.89-.11-1.67-.34-2.35ZM72.6,171.54h-6.04v-2.36c0-1.17.26-2.05.79-2.63.53-.58,1.26-.87,2.19-.87.45,0,.86.08,1.24.23.38.15.7.37.97.67.27.3.48.66.63,1.1.15.43.23.93.23,1.5v2.36Z"/><path class="cls-2" d="M77.73,148.88c-.66-.63-1.45-1.13-2.37-1.48-.92-.35-1.93-.52-3.03-.52s-2.11.17-3.03.52c-.92.35-1.71.84-2.38,1.48-.67.63-1.18,1.4-1.55,2.29-.37.89-.55,1.88-.55,2.95s.19,2.06.55,2.95c.37.89.89,1.65,1.55,2.28.67.63,1.46,1.12,2.38,1.47.92.35,1.93.52,3.03.52s2.11-.18,3.03-.52c.92-.35,1.71-.84,2.37-1.47.66-.64,1.18-1.4,1.54-2.28.37-.89.55-1.87.55-2.95s-.18-2.06-.55-2.95c-.37-.89-.88-1.65-1.54-2.29ZM77.71,156.26c-.26.64-.64,1.19-1.14,1.64-.49.45-1.1.8-1.81,1.05-.71.25-1.52.37-2.42.37s-1.71-.12-2.43-.37c-.72-.25-1.32-.59-1.82-1.05-.5-.45-.88-1-1.14-1.64-.26-.64-.4-1.35-.4-2.14s.13-1.51.4-2.15c.27-.64.65-1.19,1.14-1.64.49-.45,1.1-.8,1.82-1.05.72-.25,1.53-.37,2.43-.37s1.71.12,2.42.37c.71.25,1.32.59,1.81,1.05.5.45.87,1,1.14,1.64.26.64.39,1.36.39,2.15s-.13,1.5-.39,2.14Z"/><path class="cls-2" d="M66.61,136.41l11.7,8.33c.09.05.18.1.28.14.1.04.2.06.31.06h.78v-11h-1.62v8.39l-11.67-8.31c-.21-.14-.43-.2-.66-.2h-.74v10.73h1.62v-8.13Z"/><path class="cls-2" d="M79.67,128.75h-10.46c-.14,0-.3,0-.46,0-.16,0-.33.02-.5.03l11.06-8.49c.13-.1.22-.2.28-.31.05-.11.08-.24.08-.39v-.99h-14.68v1.74h10.39c.15,0,.31,0,.48-.01s.34-.02.52-.04l-11.05,8.49c-.07.05-.13.11-.17.15-.04.05-.08.1-.1.14-.03.05-.04.1-.05.16-.01.06-.01.14-.01.23v1.02h14.68v-1.74Z"/><path class="cls-2" d="M79.67,114.35c0-.17-.05-.31-.14-.43-.09-.11-.2-.19-.33-.24l-3.54-1.37v-6.59l3.54-1.37c.14-.05.25-.14.34-.25.09-.11.13-.25.13-.43v-1.54l-14.68,5.87v2.01l14.68,5.87v-1.54ZM74.22,111.76l-5.96-2.31c-.37-.15-.83-.3-1.38-.44.27-.07.52-.14.75-.21s.44-.15.62-.22l5.97-2.3v5.48Z"/><path class="cls-2" d="M79.67,97.69h-10.46c-.14,0-.3,0-.46,0-.16,0-.33.02-.5.03l11.06-8.49c.13-.1.22-.2.28-.31.05-.11.08-.24.08-.39v-.99h-14.68v1.74h10.39c.15,0,.31,0,.48-.01s.34-.02.52-.04l-11.05,8.49c-.07.05-.13.11-.17.15-.04.05-.08.1-.1.14-.03.05-.04.1-.05.16-.01.06-.01.14-.01.23v1.02h14.68v-1.74Z"/><rect class="cls-2" x="64.99" y="81.03" width="14.68" height="1.99"/><path class="cls-2" d="M78.15,66.56c-.53-.5-1.16-.89-1.88-1.16-.72-.27-1.51-.4-2.36-.4h-8.92v1.98h8.92c.61,0,1.18.09,1.69.26.51.17.95.43,1.32.76.37.33.66.73.86,1.21.2.48.31,1.02.31,1.63s-.1,1.15-.31,1.63c-.21.48-.5.89-.86,1.22-.37.33-.81.58-1.32.76-.51.17-1.08.26-1.69.26h-8.91v1.98h8.92c.85,0,1.63-.13,2.36-.4.72-.27,1.35-.66,1.88-1.16.53-.51.95-1.12,1.24-1.84.3-.72.45-1.54.45-2.44s-.15-1.71-.45-2.44c-.3-.72-.71-1.34-1.24-1.84Z"/><polygon class="cls-2" points="188 154.54 91.04 65 91.04 253.66 100.1 253.66 100.1 85.68 188 166.78 275.89 85.68 275.89 85.69 284.95 77.32 284.95 65 188 154.54"/><polygon class="cls-2" points="188 239.37 275.89 158.27 275.89 285 284.95 285 284.95 137.59 188 227.13 188 239.37"/><rect class="cls-1" width="845" height="350"/></g></svg>