<svg width="85" height="12" viewBox="0 0 85 12" fill="none" xmlns="http://www.w3.org/2000/svg">
<g clip-path="url(#clip0_2016_1619)">
<path d="M8.48581 6.02997V11.8434H6.7203V6.02997C6.7203 5.70997 6.7203 5.4433 6.66335 5.2833L5.12566 6.66998V11.8434H3.36015V6.02997C3.36015 5.70997 3.36015 5.4433 3.3032 5.2833L1.7655 6.66998V11.8434H0V3.36328H1.7655V4.32329L2.84759 3.36328H2.96149C3.92967 3.36328 4.55614 3.73662 4.89785 4.53662L6.20774 3.36328H6.32164C7.74543 3.36328 8.48581 4.21662 8.48581 6.02997ZM2.79063 4.74996H2.90454H2.79063ZM6.15079 4.74996H6.26469H6.15079Z" fill="white"/>
<path d="M17.9938 6.50938V7.78939V8.00272H12.0139V8.85606C12.0139 9.60274 12.6403 10.1894 13.4377 10.1894H14.8045C15.6018 10.1894 16.2283 9.60274 16.2283 8.85606V8.69606H17.9938V8.85606C17.9938 10.5094 16.57 11.8428 14.8045 11.8428H13.3807C11.6152 11.8428 10.1914 10.5094 10.1914 8.85606V6.40271C10.1914 4.74936 11.6152 3.41602 13.3807 3.41602H14.8045C16.513 3.41602 17.8799 4.64269 17.9938 6.24271V6.50938ZM16.2283 6.34937C16.2283 5.6027 15.6018 5.01603 14.8045 5.01603H13.3807C12.5834 5.01603 11.9569 5.6027 11.9569 6.34937V6.66938H16.2283V6.34937Z" fill="white"/>
<path d="M27.6227 0.0533338V11.8401H25.8572V10.9334L24.3765 11.8401H23.0096C21.2441 11.8401 19.8203 10.5068 19.8203 8.85341V6.34672C19.8203 4.69337 21.2441 3.36003 23.0096 3.36003H24.3765L25.8572 4.2667V0H27.6227V0.0533338ZM25.8572 8.90675V6.29339L23.8639 5.01338H23.0666C22.2692 5.01338 21.6428 5.60005 21.6428 6.34672V8.85341C21.6428 9.60009 22.2692 10.1868 23.0666 10.1868H23.8639L25.8572 8.90675Z" fill="white"/>
<path d="M37.1891 10.1883V11.8416H32.2913H29.3867V10.1883H32.2913V5.01489H29.3867V3.36154H34.0568V10.1883H37.1891ZM34.1137 1.86819H32.1774V0.214844H34.1137V1.86819Z" fill="white"/>
<path d="M46.0172 3.36328V11.8434H44.2517V10.9367L42.771 11.8434H41.4041C39.6386 11.8434 38.2148 10.51 38.2148 8.85666V6.34997C38.2148 4.69663 39.6386 3.36328 41.4041 3.36328H42.771L44.2517 4.26996V3.36328H46.0172ZM44.2517 8.91V6.29664L42.2584 5.01663H41.4611C40.6638 5.01663 40.0373 5.6033 40.0373 6.34997V8.85666C40.0373 9.60334 40.6638 10.19 41.4611 10.19H42.2584L44.2517 8.91Z" fill="white"/>
<path d="M55.6383 10.1901V11.8434H50.7405H47.8359V10.1901H50.7405V1.70999H47.8359V0.0566406H52.506V10.1901H55.6383Z" fill="white"/>
<path d="M64.4118 3.36328V11.8434H62.6463V10.9367L61.1655 11.8434H59.7987C58.0332 11.8434 56.6094 10.51 56.6094 8.85666V6.34997C56.6094 4.69663 58.0332 3.36328 59.7987 3.36328H61.1655L62.6463 4.26996V3.36328H64.4118ZM62.6463 8.91V6.29664L60.6529 5.01663H59.7987C59.0013 5.01663 58.3749 5.6033 58.3749 6.34997V8.85666C58.3749 9.60334 59.0013 10.19 59.7987 10.19H60.596L62.6463 8.91Z" fill="white"/>
<path d="M74.2086 6.35003V8.85672C74.2086 10.5101 72.7849 11.8434 71.0193 11.8434H69.6525L68.1718 10.9367V11.8434H66.4062V0.0566406H68.1718V4.32335L69.6525 3.41667H71.0193C72.7849 3.36334 74.2086 4.69668 74.2086 6.35003ZM72.4431 6.35003C72.4431 5.60336 71.8167 5.01668 71.0193 5.01668H70.222L68.2287 6.2967V8.91005L70.222 10.1901H71.0193C71.8167 10.1901 72.4431 9.60339 72.4431 8.85672V6.35003Z" fill="white"/>
<path d="M76.6005 2.93336C76.6005 3.57336 76.031 4.1067 75.3475 4.1067H74.835C74.1515 4.1067 73.582 3.57336 73.582 2.93336V0H74.4933V2.93336C74.4933 3.14669 74.6641 3.3067 74.8919 3.3067H75.4045C75.6323 3.3067 75.8032 3.14669 75.8032 2.93336V0H76.7144V2.93336H76.6005Z" fill="white"/>
<path d="M80.5246 2.82669V4.16004H79.6134V3.41336H78.3604V4.16004H77.4492V2.82669L78.5883 0H79.3856L80.5246 2.82669ZM78.4744 2.61336H79.4425L78.9869 1.38668L78.4744 2.61336Z" fill="white"/>
<path d="M84.4582 1.17334V1.54668C84.4582 2.18669 83.8887 2.72002 83.2053 2.72002H82.294V4.16004H81.3828V0H82.294H83.2053C83.8887 0 84.4582 0.533338 84.4582 1.17334ZM83.547 1.17334C83.547 0.960008 83.3761 0.800007 83.1483 0.800007H82.2371V1.86668H83.1483C83.3761 1.86668 83.547 1.70668 83.547 1.49335V1.17334Z" fill="white"/>
</g>
<defs>
<clipPath id="clip0_2016_1619">
<rect width="84.4594" height="11.8401" fill="white"/>
</clipPath>
</defs>
</svg>
