<?xml version="1.0" encoding="UTF-8"?>
<svg id="Layer_2" xmlns="http://www.w3.org/2000/svg" version="1.1" viewBox="0 0 400 92.3">
  <!-- Generator: Adobe Illustrator 30.0.0, SVG Export Plug-In . SVG Version: 2.1.1 Build 123)  -->
  <defs>
    <style>
      .st0 {
        fill: #fff;
      }
    </style>
  </defs>
  <g id="Layer_1-2">
    <g>
      <path class="st0" d="M396.7,3.5v13.6c-4.8,1.4-8.3,5.9-8.3,11.1s3.5,9.7,8.3,11.1v14c-4.8,1.4-8.3,5.9-8.3,11.1s3.5,9.7,8.3,11.1v13.5h-13.5c-1.4-4.8-5.9-8.3-11.1-8.3s-9.7,3.5-11.1,8.3h-14c-1.4-4.8-5.9-8.3-11.1-8.3s-9.7,3.5-11.1,8.3h-14c-1.4-4.8-5.9-8.3-11.1-8.3s-9.7,3.5-11.1,8.3h-14c-1.4-4.8-5.9-8.3-11.1-8.3s-9.7,3.5-11.1,8.3h-13.9c-1.4-4.8-5.9-8.3-11.1-8.3s-9.7,3.5-11.1,8.3h-13v-13.4c4.9-1.4,8.5-5.9,8.5-11.2s-3.6-9.8-8.5-11.2v-13.8c4.9-1.4,8.5-5.9,8.5-11.2s-3.6-9.8-8.5-11.2V3.5h13c1.4,4.8,5.9,8.3,11.1,8.3s9.7-3.5,11.1-8.3h13.9c1.4,4.8,5.9,8.3,11.1,8.3s9.7-3.5,11.1-8.3h14c1.4,4.8,5.9,8.3,11.1,8.3s9.7-3.5,11.1-8.3h14c1.4,4.8,5.9,8.3,11.1,8.3s9.7-3.5,11.1-8.3h14c1.4,4.8,5.9,8.3,11.1,8.3s9.7-3.5,11.1-8.3h13.5M398.8.2h-18.4c0,4.6-3.7,8.3-8.3,8.3s-8.3-3.7-8.3-8.3h-19.6c0,4.6-3.7,8.3-8.3,8.3s-8.3-3.7-8.3-8.3h-19.6c0,4.6-3.7,8.3-8.3,8.3s-8.3-3.7-8.3-8.3h-19.6c0,4.6-3.7,8.3-8.3,8.3s-8.3-3.7-8.3-8.3h-19.6c0,4.6-3.7,8.3-8.3,8.3s-8.3-3.7-8.3-8.3h-17.8c-.4,0-.8,0-1.2,0s-.1,0-.2,0v19.6c0,0,.1,0,.2,0,4.6,0,8.3,3.7,8.3,8.3s-3.7,8.3-8.3,8.3-.1,0-.2,0v19.6c0,0,.1,0,.2,0,4.6,0,8.3,3.7,8.3,8.3s-3.7,8.3-8.3,8.3-.1,0-.2,0v19.6h19.2c0-4.6,3.7-8.3,8.3-8.3s8.3,3.7,8.3,8.3h19.6c0-4.6,3.7-8.3,8.3-8.3s8.3,3.7,8.3,8.3h19.6c0-4.6,3.7-8.3,8.3-8.3s8.3,3.7,8.3,8.3h19.6c0-4.6,3.7-8.3,8.3-8.3s8.3,3.7,8.3,8.3h19.6c0-4.6,3.7-8.3,8.3-8.3s8.3,3.7,8.3,8.3h19.6v-19.6h0c-4.6,0-8.3-3.7-8.3-8.3s3.7-8.3,8.3-8.3h0v-19.6h0c-4.6,0-8.3-3.7-8.3-8.3s3.7-8.3,8.3-8.3h0V.3h0c-.4,0-.8,0-1.2,0h0Z"/>
      <g>
        <path class="st0" d="M246.2,55.6c-1.3-2-2-5.2-2-9.4s.3-5.1,1-7c.7-1.9,1.6-3.2,2.7-4.1,1.2-.9,2.5-1.3,4-1.3s3.4.6,4.5,1.8c1.1,1.2,1.8,3.1,2,5.6l-2.8.4c-.2-1.7-.6-3-1.2-3.8s-1.5-1.2-2.6-1.2-2.7.8-3.5,2.5-1.2,4.1-1.2,7.2c0,6.5,1.5,9.7,4.4,9.7s2-.4,2.6-1.2,1.1-2,1.4-3.7l2.7.5c-.4,2.4-1.1,4.2-2.3,5.4-1.2,1.2-2.6,1.8-4.5,1.8s-4.1-1-5.4-3.1h0Z"/>
        <path class="st0" d="M261.7,55.5c-1.4-2.1-2.1-5.2-2.1-9.3s.7-7.2,2.1-9.3,3.3-3.1,5.6-3.1,4.2,1,5.6,3.1,2.1,5.2,2.1,9.3-.7,7.2-2.1,9.3-3.3,3.1-5.6,3.1-4.2-1-5.6-3.1ZM270.8,53.4c.9-1.7,1.3-4.1,1.3-7.2s-.4-5.6-1.3-7.2c-.9-1.7-2-2.5-3.5-2.5s-2.6.8-3.5,2.5-1.3,4.1-1.3,7.2.4,5.6,1.3,7.2c.9,1.7,2,2.5,3.5,2.5s2.6-.8,3.5-2.5Z"/>
        <path class="st0" d="M276,33.9h1.9l9.1,24.5h-1.9l-9.1-24.5Z"/>
        <g>
          <path class="st0" d="M311.1,34.2v.7c-2.3,0-3,2.9-5,10.1-1.3,4.9-2.6,10.2-3.4,13.3h-1.1c-.8-3.2-2.1-8.5-3.4-13.3-.3-1.3-.6-2.4-.9-3.5-.3,1-.6,2.2-.9,3.5-1.3,4.9-2.6,10.2-3.4,13.3h-1.1c-.8-3.2-2.1-8.5-3.4-13.3-1.9-7.2-2.7-10.1-5-10.1l.3-1,7.2.3v.7c-.7,0-1.4.4-1.4,1.3s2.6,10,4,15.2c.6-2.3,1.7-6.9,2.6-10.4.2-.8.3-1.5.4-2.2-.9-2.8-1.7-3.9-3.2-3.9v-.7h7.5v.7c-.7,0-1.4.4-1.4,1.3s2.6,10,4,15.2c.6-2.3,1.7-6.9,2.6-10.4,1-4.2.6-6.1-1.8-6.1v-.7h7.1Z"/>
          <path class="st0" d="M316.4,33.8c5.1,0,7.7,5.6,7.7,12.4s-2.7,12.4-7.7,12.4-7.7-5.6-7.7-12.4,2.6-12.4,7.7-12.4ZM316.5,57.7c2.7,0,4.4-5.1,4.4-11.4s-1.7-11.3-4.4-11.3-4.5,5-4.5,11.3,1.8,11.4,4.5,11.4Z"/>
          <path class="st0" d="M324.4,58.3v-.7c1.5,0,1.6-1,1.6-2.8v-17.2c0-1.7-.2-2.8-1.6-2.8v-.7h7.6c3.4,0,6.4,2,6.4,6.3s-2.1,5.8-4.8,6.5c.8.4,1.1,1.5,2.2,5,.5,1.6,1.4,5.7,3.5,5.7v.7h-3.9c-.5,0-1-.3-1.2-.8-.7-1.8-1.8-5.8-2.4-7.6-.7-2.2-1.6-2.6-2.7-2.7v7.6c0,1.7.2,2.8,1.6,2.8v.7h-6.4ZM329.2,46.2c.5,0,.8,0,1.5,0,2.7,0,4.5-2.8,4.5-5.8s-.9-5.2-4.5-5.2h-1.5v11h0Z"/>
          <path class="st0" d="M339.3,58.3v-.7c1.5,0,1.6-1,1.6-2.8v-17.2c0-1.7-.2-2.8-1.6-2.8v-.7h6.4v.7c-1.5,0-1.6,1-1.6,2.8v8.9c2.1-3.1,3.3-4.9,5.5-8.4,1.1-1.9.3-3.2-1.8-3.2v-.7h7.8v.9c-2.2,0-3.6,2.3-5.2,4.5-.9,1.2-1.6,2.2-2.3,3.1l3.2,9.2c1.1,3.2,2,5.7,4.1,5.7v.7h-7.6v-.7c1,0,1.8-.5,1.4-1.9-.7-2.1-2.7-7.6-3.4-9.8-.5.8-1.1,1.5-1.7,2.4v6.5c0,1.7.2,2.8,1.6,2.8v.7h-6.4,0Z"/>
        </g>
      </g>
      <path d="M200.2,92.1v-19.6h0c-4.6,0-8.3-3.7-8.3-8.3s3.7-8.3,8.3-8.3h0v-19.6h0c-4.6,0-8.3-3.7-8.3-8.3s3.7-8.3,8.3-8.3h0V.1h0c-.4,0-.8,0-1.2-.1h-18.4c0,4.6-3.7,8.3-8.3,8.3S164,4.6,164,0h-19.6c0,4.6-3.7,8.3-8.3,8.3S127.8,4.6,127.8,0h-19.6c0,4.6-3.7,8.3-8.3,8.3S91.6,4.6,91.6,0h-19.6c0,4.6-3.7,8.3-8.3,8.3S55.3,4.6,55.3,0h-19.6c0,4.6-3.7,8.3-8.3,8.3S19.2,4.6,19.2,0H1.4C1,0,.6.1.2.1s-.1,0-.2,0v19.6c0,0,.1,0,.2,0,4.6,0,8.3,3.7,8.3,8.3S4.8,36.3.2,36.3s-.1,0-.2,0v19.6c0,0,.1,0,.2,0,4.6,0,8.3,3.7,8.3,8.3s-3.7,8.3-8.3,8.3S0,72.5,0,72.5v19.6h19.2c0-4.6,3.7-8.3,8.3-8.3s8.3,3.7,8.3,8.3h19.6c0-4.6,3.7-8.3,8.3-8.3s8.3,3.7,8.3,8.3h19.6c0-4.6,3.7-8.3,8.3-8.3s8.3,3.7,8.3,8.3h19.6c0-4.6,3.7-8.3,8.3-8.3s8.3,3.7,8.3,8.3h19.6c0-4.6,3.7-8.3,8.3-8.3s8.3,3.7,8.3,8.3h19.6,0Z"/>
      <g>
        <path class="st0" d="M36.8,34.6h-9.9v23.8h2.8v-7h7.1c4.6,0,8.4-3.8,8.4-8.4s-3.8-8.4-8.4-8.4M36.8,48.6h-7.1v-11.2h7.1c3.1,0,5.6,2.5,5.6,5.6s-2.5,5.6-5.6,5.6"/>
        <path class="st0" d="M60.8,58.4c-6.6,0-11.9-5.3-11.9-11.9s5.3-11.9,11.9-11.9,11.9,5.3,11.9,11.9-5.3,11.9-11.9,11.9M60.8,37.4c-5,0-9.1,4.1-9.1,9.1s4.1,9.1,9.1,9.1,9.1-4.1,9.1-9.1-4.1-9.1-9.1-9.1"/>
        <polygon class="st0" points="149.2 34.6 149.2 37.4 141.2 37.4 141.2 58.4 138.4 58.4 138.4 37.4 130.4 37.4 130.4 34.6 149.2 34.6"/>
        <path class="st0" d="M161.4,34.6h-1.7l-11.9,23.8h3.1l3.5-7h12.3l3.5,7h3.1l-11.9-23.8h0ZM155.8,48.6l4.7-9.5,4.7,9.5h-9.5,0Z"/>
        <path class="st0" d="M125.5,37.4l-15.6,18.2h15.6v2.8h-19.2v-2.8l15.6-18.2h-14.9c-.4,1.9-1.5,5.8-3.4,9.7-3.6,7.4-8.6,11.3-14.4,11.3s-11.9-5.3-11.9-11.9,5.3-11.9,11.9-11.9,5.7,1.1,7.9,3l-1.9,2.1c-1.7-1.5-3.8-2.3-6.1-2.3-5,0-9.1,4.1-9.1,9.1s4.1,9.1,9.1,9.1c11.4,0,15.2-19.6,15.2-19.8l.2-1.1h20.8v2.8h0Z"/>
      </g>
    </g>
  </g>
</svg>