<svg width="83" height="45" viewBox="0 0 83 45" fill="none" xmlns="http://www.w3.org/2000/svg">
<path d="M1.55469 19.4857V7.93134C1.55469 7.42698 1.55469 6.8821 2.02701 6.41613C2.47987 5.96935 3.11 5.89258 3.58232 5.89258H10.1375C10.8649 5.89258 12.0268 5.89258 12.8731 6.70936C13.8188 7.59972 13.9161 9.13626 13.9161 10.2815C13.9161 11.4267 13.7994 13.1327 12.7153 14.0082C12.2041 14.4155 11.4161 14.6714 10.6098 14.6714H4.15407V19.4857H1.55469ZM9.09236 12.6305C9.6652 12.6305 10.3342 12.6305 10.7871 12.1251C11.2 11.6612 11.24 10.7869 11.24 10.2612C11.24 9.65981 11.1805 8.84516 10.7482 8.39838C10.2953 7.9516 9.56685 7.93241 9.13344 7.93241H4.94091C4.76366 7.93241 4.52696 7.91428 4.33025 8.10728C4.15299 8.28002 4.15299 8.51354 4.15299 8.74706V12.6316H9.09128L9.09236 12.6305Z" fill="white"/>
<path d="M27.519 6.99099C28.9543 8.35159 29.0948 10.7188 29.0948 12.5059C29.0948 14.293 28.9359 16.6623 27.519 18.0197C26.0242 19.4592 23.6215 19.4592 22.0273 19.4592C20.4331 19.4592 18.052 19.4592 16.5345 18.0197C14.9414 16.5109 14.9414 14.0414 14.9414 12.5059C14.9414 10.6623 15.0408 8.39104 16.5345 6.99099C18.0704 5.55469 20.3542 5.55469 22.0273 5.55469C23.7004 5.55469 26.0037 5.55469 27.519 6.99099ZM18.4649 16.4757C19.2723 17.5036 20.5703 17.5985 22.0078 17.5985C23.4453 17.5985 24.7434 17.5036 25.5702 16.4757C26.0231 15.9127 26.4165 14.8816 26.4165 12.6904C26.4165 10.3392 26.0037 9.40616 25.5702 8.88154C24.7639 7.89201 23.4064 7.77685 22.0078 7.77685C20.6093 7.77685 19.2723 7.89201 18.4649 8.88154C17.9331 9.54371 17.6186 10.6111 17.6186 12.6904C17.6186 14.9029 18.011 15.9138 18.4649 16.4757Z" fill="white"/>
<path d="M31.6421 19.4856C31.012 19.4856 29.7539 19.428 29.7539 18.0866C29.7539 17.2517 30.2068 16.6695 30.6002 16.2611L38.1184 8.59227C38.2373 8.47497 38.3551 8.32036 38.3551 8.18387C38.3551 8.1071 38.2957 7.93223 37.9812 7.93223H30.2846V5.89453H40.1871C40.9513 5.89453 41.7392 6.18563 41.7392 7.29138C41.7392 8.16468 41.3447 8.55494 40.9513 8.9612L33.3347 16.8849C33.2363 16.9808 33.138 17.0757 33.138 17.2314C33.138 17.4073 33.2558 17.4468 33.3747 17.4468H41.5209V19.4856H31.6421Z" fill="white"/>
<path d="M43.1289 10.7673C43.1289 10.4549 43.1473 9.98997 43.4618 9.65942C43.8974 9.17532 44.6042 9.19345 45.0582 9.19345H48.7373C49.8214 9.19345 50.8265 9.29048 51.6523 10.0284C52.2035 10.5146 52.6769 11.2898 52.6769 12.7101V19.4864H50.3758V13.3883C50.3758 12.7101 50.3142 12.049 49.9392 11.5649C49.6074 11.1362 49.134 10.9411 48.2866 10.9411H45.9412C45.8072 10.9411 45.6678 10.9411 45.5478 11.0595C45.4311 11.1928 45.4311 11.3474 45.4311 11.4849V19.4854H43.1289V10.7673Z" fill="white"/>
<path d="M60.885 9.19336C61.7723 9.19336 62.5754 9.50472 63.0488 9.99095C63.4833 10.4377 63.8162 11.2716 63.8162 12.4178V17.7568C63.8162 18.1279 63.7762 18.7047 63.4011 19.0769C63.0315 19.4479 62.4597 19.4863 61.9669 19.4863H56.9853C56.4168 19.4863 55.6862 19.4863 55.0961 18.982C54.2509 18.2633 54.1914 16.9432 54.1914 16.1829C54.1914 15.2745 54.2898 14.3574 55.0777 13.6803C55.7273 13.1141 56.4352 13.0779 56.9853 13.0779H61.5151V12.3603C61.5151 12.05 61.4751 11.7002 61.22 11.391C60.9033 11.0039 60.4505 10.9432 60.0938 10.9432H54.9588V9.19549H60.8839L60.885 9.19336ZM57.676 14.8255C57.5182 14.8255 57.0859 14.8469 56.8308 15.1753C56.7486 15.2745 56.5735 15.5432 56.5735 16.2821C56.5735 16.5913 56.6125 17.1383 56.887 17.4262C57.0469 17.5819 57.342 17.7376 57.6371 17.7376H60.8471C60.9844 17.7376 61.2006 17.7376 61.3594 17.6203C61.5162 17.4838 61.5162 17.3516 61.5162 17.1938V14.8255H57.6771H57.676Z" fill="white"/>
<path d="M65.668 10.7673C65.668 10.4549 65.6863 9.98997 66.0019 9.65942C66.4343 9.17532 67.1433 9.19345 67.5972 9.19345H71.2785C72.3604 9.19345 73.3645 9.29048 74.1903 10.0284C74.7437 10.5146 75.2149 11.2898 75.2149 12.7101V19.4864H72.9095V13.3883C72.9095 12.7101 72.8522 12.049 72.4804 11.5649C72.1421 11.1362 71.673 10.9411 70.8267 10.9411H68.4835C68.3441 10.9411 68.2101 10.9411 68.0933 11.0595C67.9734 11.1928 67.9734 11.3474 67.9734 11.4849V19.4854H65.6691V10.7673H65.668Z" fill="white"/>
<path d="M77.8808 4.77595L80.8725 3.05814L80.0695 1.71141L77.1404 3.41215V0H75.5549V3.43454L72.5534 1.69755L71.7525 3.04428L74.768 4.78874L69.2461 7.99297H72.2832L75.5549 6.11309V9.13284H77.1404V6.15894L80.1408 7.89594L80.9428 6.54707L77.8808 4.77595Z" fill="white"/>
<path d="M3.83254 37.1172V32.6022H5.59434C6.80045 32.6022 7.57717 33.5746 7.57717 34.907C7.57717 35.6395 7.33089 36.2836 6.85729 36.6815C6.52261 36.9593 6.08689 37.1172 5.51857 37.1172H3.83254ZM4.74817 36.3278H5.45542C6.31422 36.3278 6.6489 35.8037 6.6489 34.907C6.6489 34.0103 6.25739 33.3852 5.48068 33.3852H4.74817V36.3278ZM9.54026 37.2119C8.53621 37.2119 7.84791 36.4668 7.84791 35.5006C7.84791 34.5345 8.53621 33.7893 9.54026 33.7893C10.5443 33.7893 11.2326 34.5345 11.2326 35.5006C11.2326 36.4668 10.5443 37.2119 9.54026 37.2119ZM9.54026 36.5552C10.0644 36.5552 10.3612 36.1321 10.3612 35.5006C10.3612 34.8691 10.0644 34.4397 9.54026 34.4397C9.00982 34.4397 8.71934 34.8691 8.71934 35.5006C8.71934 36.1321 9.00982 36.5552 9.54026 36.5552ZM11.3618 34.4713V33.8777H11.8038V33.5873C11.8038 32.7979 12.4163 32.5201 13.2435 32.6085V33.2715C12.8394 33.2526 12.6626 33.3031 12.6626 33.6378V33.8777H13.2435V34.4713H12.6626V37.1172H11.8038V34.4713H11.3618ZM13.6287 37.1172V33.8777H14.4875V37.1172H13.6287ZM13.6287 33.3726V32.6022H14.4875V33.3726H13.6287ZM15.8819 33.8777V34.3198H15.9008C16.1218 33.9725 16.4186 33.7893 16.8606 33.7893C17.53 33.7893 17.9784 34.2945 17.9784 35.0018V37.1172H17.1195V35.128C17.1195 34.7807 16.9175 34.5345 16.5575 34.5345C16.1787 34.5345 15.9008 34.8376 15.9008 35.2796V37.1172H15.042V33.8777H15.8819ZM20.5474 37.1172C20.4968 37.054 20.4653 36.9025 20.4463 36.7572H20.4337C20.2695 37.0035 20.0359 37.193 19.4802 37.193C18.8171 37.193 18.3498 36.8457 18.3498 36.2016C18.3498 35.488 18.9308 35.2607 19.6507 35.1596C20.1874 35.0838 20.4337 35.0396 20.4337 34.7934C20.4337 34.5597 20.2506 34.4082 19.8906 34.4082C19.4865 34.4082 19.2907 34.5534 19.2655 34.8628H18.5014C18.5266 34.2945 18.9497 33.7956 19.8969 33.7956C20.8694 33.7956 21.2609 34.2314 21.2609 34.9891V36.6373C21.2609 36.8835 21.2988 37.0288 21.3746 37.0856V37.1172H20.5474ZM19.6886 36.5931C20.1811 36.5931 20.4526 36.29 20.4526 35.9742V35.488C20.3011 35.5764 20.0674 35.6269 19.8527 35.6774C19.4044 35.7785 19.1834 35.8795 19.1834 36.1826C19.1834 36.4857 19.3854 36.5931 19.6886 36.5931ZM22.6468 33.8777V34.3198H22.6657C22.8867 33.9725 23.1835 33.7893 23.6255 33.7893C24.2949 33.7893 24.7432 34.2945 24.7432 35.0018V37.1172H23.8844V35.128C23.8844 34.7807 23.6824 34.5345 23.3224 34.5345C22.9435 34.5345 22.6657 34.8376 22.6657 35.2796V37.1172H21.8069V33.8777H22.6468ZM26.5861 37.2119C25.6452 37.2119 25.121 36.7572 25.0705 36.0689H25.8662C25.923 36.4415 26.1882 36.6057 26.5734 36.6057C26.9523 36.6057 27.167 36.4605 27.167 36.2331C27.167 35.9237 26.7566 35.8921 26.3145 35.8037C25.7336 35.6901 25.1652 35.5322 25.1652 34.8249C25.1652 34.124 25.7462 33.7893 26.485 33.7893C27.3375 33.7893 27.8111 34.2124 27.8743 34.8628H27.0975C27.0597 34.5155 26.8386 34.3892 26.4724 34.3892C26.1377 34.3892 25.9167 34.5155 25.9167 34.7492C25.9167 35.027 26.3461 35.0523 26.8071 35.147C27.3501 35.2607 27.95 35.4122 27.95 36.17C27.95 36.8204 27.3943 37.2119 26.5861 37.2119ZM29.9028 37.2119C28.8987 37.2119 28.2104 36.4668 28.2104 35.5006C28.2104 34.5345 28.8987 33.7893 29.9028 33.7893C30.9068 33.7893 31.5951 34.5345 31.5951 35.5006C31.5951 36.4668 30.9068 37.2119 29.9028 37.2119ZM29.9028 36.5552C30.4269 36.5552 30.7237 36.1321 30.7237 35.5006C30.7237 34.8691 30.4269 34.4397 29.9028 34.4397C29.3723 34.4397 29.0819 34.8691 29.0819 35.5006C29.0819 36.1321 29.3723 36.5552 29.9028 36.5552ZM32.5964 37.1172L31.6492 33.8777H32.5017L32.8932 35.3806C32.9627 35.6459 33.0385 35.9869 33.0385 35.9869H33.0511C33.0511 35.9869 33.1206 35.6395 33.19 35.3743L33.5942 33.8777H34.3267L34.7498 35.3743C34.8192 35.6459 34.9013 35.9869 34.9013 35.9869H34.9139C34.9139 35.9869 34.9897 35.6459 35.0592 35.3806L35.4696 33.8777H36.3032L35.337 37.1172H34.554L34.1246 35.5259C34.0551 35.267 33.9794 34.9639 33.9794 34.9639H33.9667C33.9667 34.9639 33.8846 35.267 33.8152 35.5259L33.3731 37.1172H32.5964ZM38.5542 37.1172C38.5037 37.054 38.4721 36.9025 38.4531 36.7572H38.4405C38.2763 37.0035 38.0427 37.193 37.487 37.193C36.8239 37.193 36.3567 36.8457 36.3567 36.2016C36.3567 35.488 36.9376 35.2607 37.6575 35.1596C38.1942 35.0838 38.4405 35.0396 38.4405 34.7934C38.4405 34.5597 38.2574 34.4082 37.8975 34.4082C37.4933 34.4082 37.2976 34.5534 37.2723 34.8628H36.5082C36.5335 34.2945 36.9566 33.7956 37.9038 33.7956C38.8762 33.7956 39.2677 34.2314 39.2677 34.9891V36.6373C39.2677 36.8835 39.3056 37.0288 39.3814 37.0856V37.1172H38.5542ZM37.6954 36.5931C38.1879 36.5931 38.4595 36.29 38.4595 35.9742V35.488C38.3079 35.5764 38.0743 35.6269 37.8596 35.6774C37.4112 35.7785 37.1902 35.8795 37.1902 36.1826C37.1902 36.4857 37.3923 36.5931 37.6954 36.5931ZM40.6536 33.8777V34.3198H40.6725C40.8935 33.9725 41.1903 33.7893 41.6324 33.7893C42.3017 33.7893 42.7501 34.2945 42.7501 35.0018V37.1172H41.8913V35.128C41.8913 34.7807 41.6892 34.5345 41.3293 34.5345C40.9504 34.5345 40.6725 34.8376 40.6725 35.2796V37.1172H39.8137V33.8777H40.6536ZM44.8139 37.2119C43.8099 37.2119 43.1216 36.4668 43.1216 35.5006C43.1216 34.5345 43.8099 33.7893 44.8139 33.7893C45.8179 33.7893 46.5062 34.5345 46.5062 35.5006C46.5062 36.4668 45.8179 37.2119 44.8139 37.2119ZM44.8139 36.5552C45.338 36.5552 45.6348 36.1321 45.6348 35.5006C45.6348 34.8691 45.338 34.4397 44.8139 34.4397C44.2835 34.4397 43.993 34.8691 43.993 35.5006C43.993 36.1321 44.2835 36.5552 44.8139 36.5552ZM47.8588 37.1172V36.4605L49.5259 34.5724V34.5534H48.0482V33.8777H50.5236V34.566L48.8944 36.4099V36.4289H50.6057V37.1172H47.8588ZM52.4603 37.2119C51.3868 37.2119 50.7806 36.4605 50.7806 35.4943C50.7806 34.5345 51.431 33.7893 52.3782 33.7893C53.4202 33.7893 53.9759 34.585 53.9759 35.7406H51.6268C51.6899 36.2394 51.9678 36.5489 52.454 36.5489C52.7887 36.5489 52.9845 36.3973 53.0792 36.151H53.9254C53.8054 36.7257 53.2939 37.2119 52.4603 37.2119ZM52.3909 34.4524C51.9362 34.4524 51.7152 34.7239 51.6394 35.147H53.0792C53.0539 34.7365 52.7824 34.4524 52.3909 34.4524ZM56.7475 37.2119C55.8066 37.2119 55.2825 36.7572 55.232 36.0689H56.0276C56.0844 36.4415 56.3497 36.6057 56.7349 36.6057C57.1137 36.6057 57.3284 36.4605 57.3284 36.2331C57.3284 35.9237 56.918 35.8921 56.476 35.8037C55.895 35.6901 55.3267 35.5322 55.3267 34.8249C55.3267 34.124 55.9076 33.7893 56.6465 33.7893C57.4989 33.7893 57.9725 34.2124 58.0357 34.8628H57.259C57.2211 34.5155 57.0001 34.3892 56.6338 34.3892C56.2991 34.3892 56.0781 34.5155 56.0781 34.7492C56.0781 35.027 56.5075 35.0523 56.9685 35.147C57.5116 35.2607 58.1115 35.4122 58.1115 36.17C58.1115 36.8204 57.5558 37.2119 56.7475 37.2119ZM57.701 32.5832L57.019 33.4736H56.3497L56.697 32.5832H57.701ZM59.3261 33.8777V34.3955H59.3451C59.5408 34.0293 59.7618 33.8398 60.1407 33.8398C60.2354 33.8398 60.2923 33.8462 60.3428 33.8651V34.6166H60.3238C59.7618 34.5597 59.3577 34.8565 59.3577 35.5385V37.1172H58.4989V33.8777H59.3261ZM62.1547 37.2119C61.1507 37.2119 60.4624 36.4668 60.4624 35.5006C60.4624 34.5345 61.1507 33.7893 62.1547 33.7893C63.1588 33.7893 63.8471 34.5345 63.8471 35.5006C63.8471 36.4668 63.1588 37.2119 62.1547 37.2119ZM62.1547 36.5552C62.6788 36.5552 62.9756 36.1321 62.9756 35.5006C62.9756 34.8691 62.6788 34.4397 62.1547 34.4397C61.6243 34.4397 61.3338 34.8691 61.3338 35.5006C61.3338 36.1321 61.6243 36.5552 62.1547 36.5552ZM65.4587 37.2119C64.6441 37.2119 64.0884 36.5489 64.0884 35.5006C64.0884 34.4903 64.663 33.7893 65.4713 33.7893C65.926 33.7893 66.2101 33.9977 66.387 34.2692H66.4059V32.6022H67.2647V37.1172H66.4375V36.6941H66.4248C66.2354 37.0035 65.9134 37.2119 65.4587 37.2119ZM65.6481 36.492C66.1596 36.492 66.4248 36.1131 66.4248 35.5196C66.4248 34.9007 66.2228 34.4839 65.6734 34.4839C65.1998 34.4839 64.9598 34.9007 64.9598 35.5006C64.9598 36.1258 65.2061 36.492 65.6481 36.492ZM69.9573 37.1172L69.048 35.6395L68.6755 36.0247V37.1172H67.823V32.6022H68.6755V35.1028L69.8247 33.8777H70.854L69.6606 35.1091L70.9993 37.1172H69.9573ZM72.5826 37.2119C71.5786 37.2119 70.8903 36.4668 70.8903 35.5006C70.8903 34.5345 71.5786 33.7893 72.5826 33.7893C73.5867 33.7893 74.275 34.5345 74.275 35.5006C74.275 36.4668 73.5867 37.2119 72.5826 37.2119ZM72.5826 36.5552C73.1068 36.5552 73.4035 36.1321 73.4035 35.5006C73.4035 34.8691 73.1068 34.4397 72.5826 34.4397C72.0522 34.4397 71.7617 34.8691 71.7617 35.5006C71.7617 36.1321 72.0522 36.5552 72.5826 36.5552ZM73.593 32.5832L72.911 33.4736H72.2416L72.5889 32.5832H73.593ZM75.2763 37.1172L74.3291 33.8777H75.1816L75.5731 35.3806C75.6426 35.6459 75.7183 35.9869 75.7183 35.9869H75.731C75.731 35.9869 75.8004 35.6395 75.8699 35.3743L76.274 33.8777H77.0065L77.4296 35.3743C77.4991 35.6459 77.5812 35.9869 77.5812 35.9869H77.5938C77.5938 35.9869 77.6696 35.6459 77.7391 35.3806L78.1495 33.8777H78.9831L78.0169 37.1172H77.2339L76.8045 35.5259C76.735 35.267 76.6592 34.9639 76.6592 34.9639H76.6466C76.6466 34.9639 76.5645 35.267 76.4951 35.5259L76.053 37.1172H75.2763ZM1.80738 43.2119C1.35272 43.2119 1.03067 43.0162 0.841232 42.713H0.828602V43.1172H0.00137379V38.6022H0.860176V40.2692H0.87912C1.05593 39.9977 1.33378 39.7893 1.78213 39.7893C2.59672 39.7893 3.17768 40.4903 3.17768 41.5006C3.17768 42.5489 2.62198 43.2119 1.80738 43.2119ZM1.61794 42.492C2.05997 42.492 2.30625 42.1258 2.30625 41.5006C2.30625 40.9007 2.06629 40.4839 1.58637 40.4839C1.0433 40.4839 0.841232 40.9197 0.841232 41.5196C0.841232 42.1131 1.13802 42.492 1.61794 42.492ZM6.45127 43.1172H5.62404V42.7383H5.6051C5.38408 43.0351 5.13149 43.2056 4.67683 43.2056C3.95696 43.2056 3.55281 42.7446 3.55281 42.0374V39.8777H4.4053V41.8921C4.4053 42.271 4.5758 42.4794 4.94205 42.4794C5.34619 42.4794 5.59247 42.1763 5.59247 41.7469V39.8777H6.45127V43.1172ZM8.2192 43.2119C7.4046 43.2119 6.8489 42.5489 6.8489 41.5006C6.8489 40.4903 7.42354 39.7893 8.23182 39.7893C8.68648 39.7893 8.97065 39.9977 9.14746 40.2692H9.1664V38.6022H10.0252V43.1172H9.19798V42.6941H9.18535C8.99591 43.0035 8.67386 43.2119 8.2192 43.2119ZM8.40864 42.492C8.92013 42.492 9.18535 42.1131 9.18535 41.5196C9.18535 40.9007 8.98328 40.4839 8.4339 40.4839C7.96029 40.4839 7.72033 40.9007 7.72033 41.5006C7.72033 42.1258 7.96661 42.492 8.40864 42.492ZM10.4761 43.1172V42.4605L12.1432 40.5724V40.5534H10.6656V39.8777H13.1409V40.566L11.5117 42.4099V42.4289H13.223V43.1172H10.4761ZM11.537 39.3726V38.6022H12.3958V39.3726H11.537ZM15.0777 43.2119C14.0042 43.2119 13.398 42.4605 13.398 41.4943C13.398 40.5345 14.0484 39.7893 14.9956 39.7893C16.0375 39.7893 16.5932 40.585 16.5932 41.7406H14.2441C14.3073 42.2394 14.5851 42.5489 15.0714 42.5489C15.406 42.5489 15.6018 42.3973 15.6965 42.151H16.5427C16.4227 42.7257 15.9112 43.2119 15.0777 43.2119ZM15.0082 40.4524C14.5536 40.4524 14.3325 40.7239 14.2568 41.147H15.6965C15.6713 40.7365 15.3997 40.4524 15.0082 40.4524ZM16.7396 40.4461V39.8777H17.1879V38.8674H18.0278V39.8777H18.5835V40.4461H18.0278V42.1637C18.0278 42.4036 18.1604 42.4857 18.3498 42.4857C18.4572 42.4857 18.6024 42.4794 18.6024 42.4794V43.1109C18.6024 43.1109 18.4067 43.1235 18.0657 43.1235C17.6489 43.1235 17.1879 42.9593 17.1879 42.3468V40.4461H16.7396ZM20.5294 43.2119C19.5253 43.2119 18.837 42.4668 18.837 41.5006C18.837 40.5345 19.5253 39.7893 20.5294 39.7893C21.5334 39.7893 22.2217 40.5345 22.2217 41.5006C22.2217 42.4668 21.5334 43.2119 20.5294 43.2119ZM20.5294 42.5552C21.0535 42.5552 21.3503 42.1321 21.3503 41.5006C21.3503 40.8691 21.0535 40.4397 20.5294 40.4397C19.9989 40.4397 19.7084 40.8691 19.7084 41.5006C19.7084 42.1321 19.9989 42.5552 20.5294 42.5552ZM23.223 43.1172L22.2758 39.8777H23.1283L23.5198 41.3806C23.5893 41.6459 23.6651 41.9869 23.6651 41.9869H23.6777C23.6777 41.9869 23.7471 41.6395 23.8166 41.3743L24.2208 39.8777H24.9533L25.3763 41.3743C25.4458 41.6459 25.5279 41.9869 25.5279 41.9869H25.5405C25.5405 41.9869 25.6163 41.6459 25.6858 41.3806L26.0962 39.8777H26.9298L25.9636 43.1172H25.1806L24.7512 41.5259C24.6817 41.267 24.6059 40.9639 24.6059 40.9639H24.5933C24.5933 40.9639 24.5112 41.267 24.4418 41.5259L23.9997 43.1172H23.223ZM27.3956 44.1781V43.5024H27.6987C28.0397 43.5024 28.1786 43.3256 28.1786 43.0604C28.1786 42.8835 28.1155 42.6752 27.9323 42.1826L27.0609 39.8777H27.9639L28.4438 41.3364C28.5449 41.6332 28.6522 42.0437 28.6522 42.0437H28.6648C28.6648 42.0437 28.7532 41.6332 28.8543 41.3364L29.3089 39.8777H30.1741L29.0437 43.1993C28.7974 43.9192 28.5575 44.1781 27.9008 44.1781H27.3956ZM31.8754 43.2119C30.8524 43.2119 30.2146 42.4668 30.2146 41.5006C30.2146 40.5345 30.8461 39.7893 31.8312 39.7893C32.671 39.7893 33.1888 40.2756 33.3025 40.9765H32.4626C32.4058 40.6923 32.1848 40.4776 31.8691 40.4776C31.3513 40.4776 31.086 40.8755 31.086 41.5006C31.086 42.1131 31.3323 42.5236 31.8564 42.5236C32.2037 42.5236 32.45 42.3405 32.5069 41.9742H33.3341C33.2772 42.6625 32.7405 43.2119 31.8754 43.2119ZM34.5675 38.6022V40.3008H34.5864C34.8201 39.9598 35.0853 39.7893 35.5273 39.7893C36.1967 39.7893 36.645 40.2945 36.645 41.0018V43.1172H35.7862V41.128C35.7862 40.7807 35.5841 40.5345 35.2242 40.5345C34.8453 40.5345 34.5675 40.8376 34.5675 41.2796V43.1172H33.7087V38.6022H34.5675ZM38.3045 43.1172V38.6022H39.5927L40.2305 40.8691C40.3884 41.4375 40.5147 42.0879 40.5147 42.0879H40.5273C40.5273 42.0879 40.6473 41.4375 40.8051 40.8691L41.4429 38.6022H42.7501V43.1172H41.8976V40.5282C41.8976 40.1619 41.9355 39.5936 41.9355 39.5936H41.9228C41.9228 39.5936 41.8218 40.124 41.7271 40.4524L40.9504 43.1172H40.0726L39.3149 40.4524C39.2201 40.124 39.1191 39.5936 39.1191 39.5936H39.1065C39.1065 39.5936 39.1444 40.1619 39.1444 40.5282V43.1172H38.3045ZM43.3781 43.1172V39.8777H44.2369V43.1172H43.3781ZM43.3781 39.3726V38.6022H44.2369V39.3726H43.3781ZM46.8299 43.1172C46.7794 43.054 46.7478 42.9025 46.7289 42.7572H46.7163C46.5521 43.0035 46.3184 43.193 45.7627 43.193C45.0997 43.193 44.6324 42.8457 44.6324 42.2016C44.6324 41.488 45.2134 41.2607 45.9332 41.1596C46.47 41.0838 46.7163 41.0396 46.7163 40.7934C46.7163 40.5597 46.5331 40.4082 46.1732 40.4082C45.7691 40.4082 45.5733 40.5534 45.548 40.8628H44.784C44.8092 40.2945 45.2323 39.7956 46.1795 39.7956C47.152 39.7956 47.5435 40.2314 47.5435 40.9891V42.6373C47.5435 42.8835 47.5814 43.0288 47.6572 43.0856V43.1172H46.8299ZM45.9711 42.5931C46.4637 42.5931 46.7352 42.29 46.7352 41.9742V41.488C46.5836 41.5764 46.35 41.6269 46.1353 41.6774C45.687 41.7785 45.4659 41.8795 45.4659 42.1826C45.4659 42.4857 45.668 42.5931 45.9711 42.5931ZM49.4029 43.2119C48.462 43.2119 47.9379 42.7572 47.8874 42.0689H48.683C48.7399 42.4415 49.0051 42.6057 49.3903 42.6057C49.7692 42.6057 49.9839 42.4605 49.9839 42.2331C49.9839 41.9237 49.5734 41.8921 49.1314 41.8037C48.5504 41.6901 47.9821 41.5322 47.9821 40.8249C47.9821 40.124 48.5631 39.7893 49.3019 39.7893C50.1544 39.7893 50.628 40.2124 50.6911 40.8628H49.9144C49.8765 40.5155 49.6555 40.3892 49.2893 40.3892C48.9546 40.3892 48.7336 40.5155 48.7336 40.7492C48.7336 41.027 49.163 41.0523 49.6239 41.147C50.167 41.2607 50.7669 41.4122 50.7669 42.17C50.7669 42.8204 50.2112 43.2119 49.4029 43.2119ZM50.9032 40.4461V39.8777H51.3516V38.8674H52.1914V39.8777H52.7471V40.4461H52.1914V42.1637C52.1914 42.4036 52.324 42.4857 52.5135 42.4857C52.6208 42.4857 52.7661 42.4794 52.7661 42.4794V43.1109C52.7661 43.1109 52.5703 43.1235 52.2293 43.1235C51.8125 43.1235 51.3516 42.9593 51.3516 42.3468V40.4461H50.9032ZM55.2598 43.1172C55.2093 43.054 55.1777 42.9025 55.1588 42.7572H55.1462C54.982 43.0035 54.7483 43.193 54.1926 43.193C53.5296 43.193 53.0623 42.8457 53.0623 42.2016C53.0623 41.488 53.6433 41.2607 54.3631 41.1596C54.8999 41.0838 55.1462 41.0396 55.1462 40.7934C55.1462 40.5597 54.963 40.4082 54.6031 40.4082C54.199 40.4082 54.0032 40.5534 53.9779 40.8628H53.2139C53.2391 40.2945 53.6622 39.7956 54.6094 39.7956C55.5819 39.7956 55.9734 40.2314 55.9734 40.9891V42.6373C55.9734 42.8835 56.0113 43.0288 56.0871 43.0856V43.1172H55.2598ZM54.401 42.5931C54.8936 42.5931 55.1651 42.29 55.1651 41.9742V41.488C55.0136 41.5764 54.7799 41.6269 54.5652 41.6774C54.1169 41.7785 53.8958 41.8795 53.8958 42.1826C53.8958 42.4857 54.0979 42.5931 54.401 42.5931ZM57.6495 43.1172V38.6022H59.6323C60.1565 38.6022 60.548 38.7537 60.8132 39.0252C61.0658 39.2842 61.2173 39.6378 61.2173 40.0545C61.2173 40.907 60.6553 41.4817 59.7081 41.4817H58.5967V43.1172H57.6495ZM58.5967 39.3978V40.7365H59.5439C60.0238 40.7365 60.2764 40.4713 60.2764 40.0609C60.2764 39.6378 60.0112 39.3978 59.5566 39.3978H58.5967ZM63.0427 43.2119C62.0387 43.2119 61.3504 42.4668 61.3504 41.5006C61.3504 40.5345 62.0387 39.7893 63.0427 39.7893C64.0468 39.7893 64.7351 40.5345 64.7351 41.5006C64.7351 42.4668 64.0468 43.2119 63.0427 43.2119ZM63.0427 42.5552C63.5668 42.5552 63.8636 42.1321 63.8636 41.5006C63.8636 40.8691 63.5668 40.4397 63.0427 40.4397C62.5123 40.4397 62.2218 40.8691 62.2218 41.5006C62.2218 42.1321 62.5123 42.5552 63.0427 42.5552ZM64.9344 43.1172V42.4605L66.6015 40.5724V40.5534H65.1239V39.8777H67.5992V40.566L65.97 42.4099V42.4289H67.6813V43.1172H64.9344ZM68.9465 39.8777V40.3198H68.9654C69.1865 39.9725 69.4832 39.7893 69.9253 39.7893C70.5946 39.7893 71.043 40.2945 71.043 41.0018V43.1172H70.1842V41.128C70.1842 40.7807 69.9821 40.5345 69.6222 40.5345C69.2433 40.5345 68.9654 40.8376 68.9654 41.2796V43.1172H68.1066V39.8777H68.9465ZM73.612 43.1172C73.5615 43.054 73.5299 42.9025 73.511 42.7572H73.4983C73.3341 43.0035 73.1005 43.193 72.5448 43.193C71.8818 43.193 71.4145 42.8457 71.4145 42.2016C71.4145 41.488 71.9954 41.2607 72.7153 41.1596C73.2521 41.0838 73.4983 41.0396 73.4983 40.7934C73.4983 40.5597 73.3152 40.4082 72.9553 40.4082C72.5511 40.4082 72.3554 40.5534 72.3301 40.8628H71.566C71.5913 40.2945 72.0144 39.7956 72.9616 39.7956C73.934 39.7956 74.3256 40.2314 74.3256 40.9891V42.6373C74.3256 42.8835 74.3634 43.0288 74.4392 43.0856V43.1172H73.612ZM72.7532 42.5931C73.2457 42.5931 73.5173 42.29 73.5173 41.9742V41.488C73.3657 41.5764 73.1321 41.6269 72.9174 41.6774C72.469 41.7785 72.248 41.8795 72.248 42.1826C72.248 42.4857 72.4501 42.5931 72.7532 42.5931ZM75.7114 39.8777V40.3198H75.7303C75.9513 39.9725 76.2481 39.7893 76.6902 39.7893C77.3595 39.7893 77.8079 40.2945 77.8079 41.0018V43.1172H76.9491V41.128C76.9491 40.7807 76.747 40.5345 76.3871 40.5345C76.0082 40.5345 75.7303 40.8376 75.7303 41.2796V43.1172H74.8715V39.8777H75.7114ZM78.3372 43.1172V39.8777H79.196V43.1172H78.3372ZM78.3372 39.3726V38.6022H79.196V39.3726H78.3372ZM81.7891 43.1172C81.7385 43.054 81.707 42.9025 81.688 42.7572H81.6754C81.5112 43.0035 81.2776 43.193 80.7219 43.193C80.0588 43.193 79.5915 42.8457 79.5915 42.2016C79.5915 41.488 80.1725 41.2607 80.8924 41.1596C81.4291 41.0838 81.6754 41.0396 81.6754 40.7934C81.6754 40.5597 81.4923 40.4082 81.1323 40.4082C80.7282 40.4082 80.5324 40.5534 80.5072 40.8628H79.7431C79.7683 40.2945 80.1914 39.7956 81.1386 39.7956C82.1111 39.7956 82.5026 40.2314 82.5026 40.9891V42.6373C82.5026 42.8835 82.5405 43.0288 82.6163 43.0856V43.1172H81.7891ZM80.9303 42.5931C81.4228 42.5931 81.6943 42.29 81.6943 41.9742V41.488C81.5428 41.5764 81.3091 41.6269 81.0944 41.6774C80.6461 41.7785 80.4251 41.8795 80.4251 42.1826C80.4251 42.4857 80.6272 42.5931 80.9303 42.5931Z" fill="white"/>
</svg>
