<svg width="748" height="233" viewBox="0 0 748 233" fill="none" xmlns="http://www.w3.org/2000/svg">
<path d="M545.723 181.75V205.75L518.723 232.75H241.723L214.723 205.75V181.75L241.723 154.75H518.723L545.723 181.75Z" fill="black"/>
<rect x="207.566" y="15.4023" width="360.383" height="144.121" fill="black"/>
<rect x="194.512" width="357.016" height="58.1473" fill="black"/>
<mask id="path-4-outside-1_2023_8440" maskUnits="userSpaceOnUse" x="-0.855469" y="52.75" width="749" height="133" fill="black">
<rect fill="white" x="-0.855469" y="52.75" width="749" height="133"/>
<path d="M80.4833 133.365H55.3377V158.51H26.6718V79.5531H80.4833V92.1259H93.0561V120.792H80.4833V133.365ZM64.3901 95.6463H55.3377V117.271H76.9629V108.219H64.3901V95.6463ZM155.871 92.1259H168.444V145.937H155.871V158.51H114.632V145.937H102.059V92.1259H114.632V79.5531H155.871V92.1259ZM139.778 95.6463H130.725V142.417H152.35V108.219H139.778V95.6463ZM206.113 133.365V142.417H243.831V158.51H177.447V129.844H190.02V117.271H202.593V104.699H215.165V95.6463H177.447V79.5531H243.831V108.219H231.258V120.792H218.686V133.365H206.113ZM277.98 120.792H268.928V158.51H252.835V79.5531H268.928V92.1259H281.5V104.699H294.073V117.271H303.126V79.5531H319.219V158.51H303.126V145.937H290.553V133.365H277.98V120.792ZM365.94 133.365H344.315V158.51H328.222V92.1259H340.795V79.5531H382.034V92.1259H394.606V158.51H365.94V133.365ZM365.94 95.6463H344.315V117.271H365.94V95.6463ZM428.755 120.792H419.703V158.51H403.61V92.1259H432.276V104.699H444.848V117.271H453.901V95.6463H441.328V79.5531H457.421V92.1259H469.994V158.51H453.901V145.937H441.328V133.365H428.755V120.792ZM478.997 129.844H507.663V158.51H478.997V129.844ZM583.051 120.792H570.478V145.937H557.905V158.51H541.812V145.937H529.239V133.365H516.667V79.5531H545.333V129.844H554.385V117.271H566.958V79.5531H583.051V120.792ZM645.866 95.6463H633.293V145.937H620.72V158.51H592.054V142.417H604.627V95.6463H592.054V79.5531H645.866V95.6463ZM705.16 79.5531H721.253V145.937H708.68V158.51H667.442V145.937H654.869V79.5531H683.535V142.417H705.16V79.5531Z"/>
</mask>
<path d="M80.4833 133.365H55.3377V158.51H26.6718V79.5531H80.4833V92.1259H93.0561V120.792H80.4833V133.365ZM64.3901 95.6463H55.3377V117.271H76.9629V108.219H64.3901V95.6463ZM155.871 92.1259H168.444V145.937H155.871V158.51H114.632V145.937H102.059V92.1259H114.632V79.5531H155.871V92.1259ZM139.778 95.6463H130.725V142.417H152.35V108.219H139.778V95.6463ZM206.113 133.365V142.417H243.831V158.51H177.447V129.844H190.02V117.271H202.593V104.699H215.165V95.6463H177.447V79.5531H243.831V108.219H231.258V120.792H218.686V133.365H206.113ZM277.98 120.792H268.928V158.51H252.835V79.5531H268.928V92.1259H281.5V104.699H294.073V117.271H303.126V79.5531H319.219V158.51H303.126V145.937H290.553V133.365H277.98V120.792ZM365.94 133.365H344.315V158.51H328.222V92.1259H340.795V79.5531H382.034V92.1259H394.606V158.51H365.94V133.365ZM365.94 95.6463H344.315V117.271H365.94V95.6463ZM428.755 120.792H419.703V158.51H403.61V92.1259H432.276V104.699H444.848V117.271H453.901V95.6463H441.328V79.5531H457.421V92.1259H469.994V158.51H453.901V145.937H441.328V133.365H428.755V120.792ZM478.997 129.844H507.663V158.51H478.997V129.844ZM583.051 120.792H570.478V145.937H557.905V158.51H541.812V145.937H529.239V133.365H516.667V79.5531H545.333V129.844H554.385V117.271H566.958V79.5531H583.051V120.792ZM645.866 95.6463H633.293V145.937H620.72V158.51H592.054V142.417H604.627V95.6463H592.054V79.5531H645.866V95.6463ZM705.16 79.5531H721.253V145.937H708.68V158.51H667.442V145.937H654.869V79.5531H683.535V142.417H705.16V79.5531Z" fill="white"/>
<path d="M80.4833 133.365V160.037L107.156 133.365H80.4833ZM55.3377 133.365V106.692L28.665 133.365H55.3377ZM55.3377 158.51V185.183L82.0104 158.51H55.3377ZM26.6718 158.51H-0.000962121L26.6718 185.183V158.51ZM26.6718 79.5531V52.8804L-0.000962121 79.5531H26.6718ZM80.4833 79.5531H107.156L80.4833 52.8804V79.5531ZM80.4833 92.1259H53.8106L80.4833 118.799V92.1259ZM93.0561 92.1259H119.729L93.0561 65.4532V92.1259ZM93.0561 120.792V147.465L119.729 120.792H93.0561ZM80.4833 120.792V94.1191L53.8106 120.792H80.4833ZM64.3901 95.6463H91.0628L64.3901 68.9735V95.6463ZM55.3377 95.6463V68.9735L28.665 95.6463H55.3377ZM55.3377 117.271H28.665L55.3377 143.944V117.271ZM76.9629 117.271V143.944L103.636 117.271H76.9629ZM76.9629 108.219H103.636L76.9629 81.5463V108.219ZM64.3901 108.219H37.7174L64.3901 134.892V108.219ZM80.4833 133.365V106.692H55.3377V133.365V160.037H80.4833V133.365ZM55.3377 133.365H28.665V158.51H55.3377H82.0104V133.365H55.3377ZM55.3377 158.51V131.837H26.6718V158.51V185.183H55.3377V158.51ZM26.6718 158.51H53.3445V79.5531H26.6718H-0.000962121V158.51H26.6718ZM26.6718 79.5531V106.226H80.4833V79.5531V52.8804H26.6718V79.5531ZM80.4833 79.5531H53.8106V92.1259H80.4833H107.156V79.5531H80.4833ZM80.4833 92.1259V118.799H93.0561V92.1259V65.4532H80.4833V92.1259ZM93.0561 92.1259H66.3833V120.792H93.0561H119.729V92.1259H93.0561ZM93.0561 120.792V94.1191H80.4833V120.792V147.465H93.0561V120.792ZM80.4833 120.792H53.8106V133.365H80.4833H107.156V120.792H80.4833ZM64.3901 95.6463V68.9735H55.3377V95.6463V122.319H64.3901V95.6463ZM55.3377 95.6463H28.665V117.271H55.3377H82.0104V95.6463H55.3377ZM55.3377 117.271V143.944H76.9629V117.271V90.5987H55.3377V117.271ZM76.9629 117.271H103.636V108.219H76.9629H50.2902V117.271H76.9629ZM76.9629 108.219V81.5463H64.3901V108.219V134.892H76.9629V108.219ZM64.3901 108.219H91.0628V95.6463H64.3901H37.7174V108.219H64.3901ZM155.871 92.1259H129.198L155.871 118.799V92.1259ZM168.444 92.1259H195.116L168.444 65.4532V92.1259ZM168.444 145.937V172.61L195.116 145.937H168.444ZM155.871 145.937V119.265L129.198 145.937H155.871ZM155.871 158.51V185.183L182.544 158.51H155.871ZM114.632 158.51H87.9594L114.632 185.183V158.51ZM114.632 145.937H141.305L114.632 119.265V145.937ZM102.059 145.937H75.3866L102.059 172.61V145.937ZM102.059 92.1259V65.4532L75.3866 92.1259H102.059ZM114.632 92.1259V118.799L141.305 92.1259H114.632ZM114.632 79.5531V52.8804L87.9594 79.5531H114.632ZM155.871 79.5531H182.544L155.871 52.8804V79.5531ZM139.778 95.6463H166.45L139.778 68.9735V95.6463ZM130.725 95.6463V68.9735L104.053 95.6463H130.725ZM130.725 142.417H104.053L130.725 169.09V142.417ZM152.35 142.417V169.09L179.023 142.417H152.35ZM152.35 108.219H179.023L152.35 81.5463V108.219ZM139.778 108.219H113.105L139.778 134.892V108.219ZM155.871 92.1259V118.799H168.444V92.1259V65.4532H155.871V92.1259ZM168.444 92.1259H141.771V145.937H168.444H195.116V92.1259H168.444ZM168.444 145.937V119.265H155.871V145.937V172.61H168.444V145.937ZM155.871 145.937H129.198V158.51H155.871H182.544V145.937H155.871ZM155.871 158.51V131.837H114.632V158.51V185.183H155.871V158.51ZM114.632 158.51H141.305V145.937H114.632H87.9594V158.51H114.632ZM114.632 145.937V119.265H102.059V145.937V172.61H114.632V145.937ZM102.059 145.937H128.732V92.1259H102.059H75.3866V145.937H102.059ZM102.059 92.1259V118.799H114.632V92.1259V65.4532H102.059V92.1259ZM114.632 92.1259H141.305V79.5531H114.632H87.9594V92.1259H114.632ZM114.632 79.5531V106.226H155.871V79.5531V52.8804H114.632V79.5531ZM155.871 79.5531H129.198V92.1259H155.871H182.544V79.5531H155.871ZM139.778 95.6463V68.9735H130.725V95.6463V122.319H139.778V95.6463ZM130.725 95.6463H104.053V142.417H130.725H157.398V95.6463H130.725ZM130.725 142.417V169.09H152.35V142.417V115.744H130.725V142.417ZM152.35 142.417H179.023V108.219H152.35H125.678V142.417H152.35ZM152.35 108.219V81.5463H139.778V108.219V134.892H152.35V108.219ZM139.778 108.219H166.45V95.6463H139.778H113.105V108.219H139.778ZM206.113 133.365V106.692L179.44 133.365H206.113ZM206.113 142.417H179.44L206.113 169.09V142.417ZM243.831 142.417H270.504L243.831 115.744V142.417ZM243.831 158.51V185.183L270.504 158.51H243.831ZM177.447 158.51H150.774L177.447 185.183V158.51ZM177.447 129.844V103.172L150.774 129.844H177.447ZM190.02 129.844V156.517L216.692 129.844H190.02ZM190.02 117.271V90.5987L163.347 117.271H190.02ZM202.593 117.271V143.944L229.265 117.271H202.593ZM202.593 104.699V78.026L175.92 104.699H202.593ZM215.165 104.699V131.371L241.838 104.699H215.165ZM215.165 95.6463H241.838L215.165 68.9735V95.6463ZM177.447 95.6463H150.774L177.447 122.319V95.6463ZM177.447 79.5531V52.8804L150.774 79.5531H177.447ZM243.831 79.5531H270.504L243.831 52.8804V79.5531ZM243.831 108.219V134.892L270.504 108.219H243.831ZM231.258 108.219V81.5463L204.586 108.219H231.258ZM231.258 120.792V147.465L257.931 120.792H231.258ZM218.686 120.792V94.1191L192.013 120.792H218.686ZM218.686 133.365V160.037L245.358 133.365H218.686ZM206.113 133.365H179.44V142.417H206.113H232.786V133.365H206.113ZM206.113 142.417V169.09H243.831V142.417V115.744H206.113V142.417ZM243.831 142.417H217.159V158.51H243.831H270.504V142.417H243.831ZM243.831 158.51V131.837H177.447V158.51V185.183H243.831V158.51ZM177.447 158.51H204.12V129.844H177.447H150.774V158.51H177.447ZM177.447 129.844V156.517H190.02V129.844V103.172H177.447V129.844ZM190.02 129.844H216.692V117.271H190.02H163.347V129.844H190.02ZM190.02 117.271V143.944H202.593V117.271V90.5987H190.02V117.271ZM202.593 117.271H229.265V104.699H202.593H175.92V117.271H202.593ZM202.593 104.699V131.371H215.165V104.699V78.026H202.593V104.699ZM215.165 104.699H241.838V95.6463H215.165H188.493V104.699H215.165ZM215.165 95.6463V68.9735H177.447V95.6463V122.319H215.165V95.6463ZM177.447 95.6463H204.12V79.5531H177.447H150.774V95.6463H177.447ZM177.447 79.5531V106.226H243.831V79.5531V52.8804H177.447V79.5531ZM243.831 79.5531H217.159V108.219H243.831H270.504V79.5531H243.831ZM243.831 108.219V81.5463H231.258V108.219V134.892H243.831V108.219ZM231.258 108.219H204.586V120.792H231.258H257.931V108.219H231.258ZM231.258 120.792V94.1191H218.686V120.792V147.465H231.258V120.792ZM218.686 120.792H192.013V133.365H218.686H245.358V120.792H218.686ZM218.686 133.365V106.692H206.113V133.365V160.037H218.686V133.365ZM277.98 120.792H304.653L277.98 94.1191V120.792ZM268.928 120.792V94.1191L242.255 120.792H268.928ZM268.928 158.51V185.183L295.6 158.51H268.928ZM252.835 158.51H226.162L252.835 185.183V158.51ZM252.835 79.5531V52.8804L226.162 79.5531H252.835ZM268.928 79.5531H295.6L268.928 52.8804V79.5531ZM268.928 92.1259H242.255L268.928 118.799V92.1259ZM281.5 92.1259H308.173L281.5 65.4532V92.1259ZM281.5 104.699H254.828L281.5 131.371V104.699ZM294.073 104.699H320.746L294.073 78.026V104.699ZM294.073 117.271H267.401L294.073 143.944V117.271ZM303.126 117.271V143.944L329.798 117.271H303.126ZM303.126 79.5531V52.8804L276.453 79.5531H303.126ZM319.219 79.5531H345.892L319.219 52.8804V79.5531ZM319.219 158.51V185.183L345.892 158.51H319.219ZM303.126 158.51H276.453L303.126 185.183V158.51ZM303.126 145.937H329.798L303.126 119.265V145.937ZM290.553 145.937H263.88L290.553 172.61V145.937ZM290.553 133.365H317.226L290.553 106.692V133.365ZM277.98 133.365H251.307L277.98 160.037V133.365ZM277.98 120.792V94.1191H268.928V120.792V147.465H277.98V120.792ZM268.928 120.792H242.255V158.51H268.928H295.6V120.792H268.928ZM268.928 158.51V131.837H252.835V158.51V185.183H268.928V158.51ZM252.835 158.51H279.507V79.5531H252.835H226.162V158.51H252.835ZM252.835 79.5531V106.226H268.928V79.5531V52.8804H252.835V79.5531ZM268.928 79.5531H242.255V92.1259H268.928H295.6V79.5531H268.928ZM268.928 92.1259V118.799H281.5V92.1259V65.4532H268.928V92.1259ZM281.5 92.1259H254.828V104.699H281.5H308.173V92.1259H281.5ZM281.5 104.699V131.371H294.073V104.699V78.026H281.5V104.699ZM294.073 104.699H267.401V117.271H294.073H320.746V104.699H294.073ZM294.073 117.271V143.944H303.126V117.271V90.5987H294.073V117.271ZM303.126 117.271H329.798V79.5531H303.126H276.453V117.271H303.126ZM303.126 79.5531V106.226H319.219V79.5531V52.8804H303.126V79.5531ZM319.219 79.5531H292.546V158.51H319.219H345.892V79.5531H319.219ZM319.219 158.51V131.837H303.126V158.51V185.183H319.219V158.51ZM303.126 158.51H329.798V145.937H303.126H276.453V158.51H303.126ZM303.126 145.937V119.265H290.553V145.937V172.61H303.126V145.937ZM290.553 145.937H317.226V133.365H290.553H263.88V145.937H290.553ZM290.553 133.365V106.692H277.98V133.365V160.037H290.553V133.365ZM277.98 133.365H304.653V120.792H277.98H251.307V133.365H277.98ZM365.94 133.365H392.613L365.94 106.692V133.365ZM344.315 133.365V106.692L317.643 133.365H344.315ZM344.315 158.51V185.183L370.988 158.51H344.315ZM328.222 158.51H301.549L328.222 185.183V158.51ZM328.222 92.1259V65.4532L301.549 92.1259H328.222ZM340.795 92.1259V118.799L367.468 92.1259H340.795ZM340.795 79.5531V52.8804L314.122 79.5531H340.795ZM382.034 79.5531H408.706L382.034 52.8804V79.5531ZM382.034 92.1259H355.361L382.034 118.799V92.1259ZM394.606 92.1259H421.279L394.606 65.4532V92.1259ZM394.606 158.51V185.183L421.279 158.51H394.606ZM365.94 158.51H339.268L365.94 185.183V158.51ZM365.94 95.6463H392.613L365.94 68.9735V95.6463ZM344.315 95.6463V68.9735L317.643 95.6463H344.315ZM344.315 117.271H317.643L344.315 143.944V117.271ZM365.94 117.271V143.944L392.613 117.271H365.94ZM365.94 133.365V106.692H344.315V133.365V160.037H365.94V133.365ZM344.315 133.365H317.643V158.51H344.315H370.988V133.365H344.315ZM344.315 158.51V131.837H328.222V158.51V185.183H344.315V158.51ZM328.222 158.51H354.895V92.1259H328.222H301.549V158.51H328.222ZM328.222 92.1259V118.799H340.795V92.1259V65.4532H328.222V92.1259ZM340.795 92.1259H367.468V79.5531H340.795H314.122V92.1259H340.795ZM340.795 79.5531V106.226H382.034V79.5531V52.8804H340.795V79.5531ZM382.034 79.5531H355.361V92.1259H382.034H408.706V79.5531H382.034ZM382.034 92.1259V118.799H394.606V92.1259V65.4532H382.034V92.1259ZM394.606 92.1259H367.934V158.51H394.606H421.279V92.1259H394.606ZM394.606 158.51V131.837H365.94V158.51V185.183H394.606V158.51ZM365.94 158.51H392.613V133.365H365.94H339.268V158.51H365.94ZM365.94 95.6463V68.9735H344.315V95.6463V122.319H365.94V95.6463ZM344.315 95.6463H317.643V117.271H344.315H370.988V95.6463H344.315ZM344.315 117.271V143.944H365.94V117.271V90.5987H344.315V117.271ZM365.94 117.271H392.613V95.6463H365.94H339.268V117.271H365.94ZM428.755 120.792H455.428L428.755 94.1191V120.792ZM419.703 120.792V94.1191L393.03 120.792H419.703ZM419.703 158.51V185.183L446.376 158.51H419.703ZM403.61 158.51H376.937L403.61 185.183V158.51ZM403.61 92.1259V65.4532L376.937 92.1259H403.61ZM432.276 92.1259H458.948L432.276 65.4532V92.1259ZM432.276 104.699H405.603L432.276 131.371V104.699ZM444.848 104.699H471.521L444.848 78.026V104.699ZM444.848 117.271H418.176L444.848 143.944V117.271ZM453.901 117.271V143.944L480.574 117.271H453.901ZM453.901 95.6463H480.574L453.901 68.9735V95.6463ZM441.328 95.6463H414.655L441.328 122.319V95.6463ZM441.328 79.5531V52.8804L414.655 79.5531H441.328ZM457.421 79.5531H484.094L457.421 52.8804V79.5531ZM457.421 92.1259H430.749L457.421 118.799V92.1259ZM469.994 92.1259H496.667L469.994 65.4532V92.1259ZM469.994 158.51V185.183L496.667 158.51H469.994ZM453.901 158.51H427.228L453.901 185.183V158.51ZM453.901 145.937H480.574L453.901 119.265V145.937ZM441.328 145.937H414.655L441.328 172.61V145.937ZM441.328 133.365H468.001L441.328 106.692V133.365ZM428.755 133.365H402.083L428.755 160.037V133.365ZM428.755 120.792V94.1191H419.703V120.792V147.465H428.755V120.792ZM419.703 120.792H393.03V158.51H419.703H446.376V120.792H419.703ZM419.703 158.51V131.837H403.61V158.51V185.183H419.703V158.51ZM403.61 158.51H430.282V92.1259H403.61H376.937V158.51H403.61ZM403.61 92.1259V118.799H432.276V92.1259V65.4532H403.61V92.1259ZM432.276 92.1259H405.603V104.699H432.276H458.948V92.1259H432.276ZM432.276 104.699V131.371H444.848V104.699V78.026H432.276V104.699ZM444.848 104.699H418.176V117.271H444.848H471.521V104.699H444.848ZM444.848 117.271V143.944H453.901V117.271V90.5987H444.848V117.271ZM453.901 117.271H480.574V95.6463H453.901H427.228V117.271H453.901ZM453.901 95.6463V68.9735H441.328V95.6463V122.319H453.901V95.6463ZM441.328 95.6463H468.001V79.5531H441.328H414.655V95.6463H441.328ZM441.328 79.5531V106.226H457.421V79.5531V52.8804H441.328V79.5531ZM457.421 79.5531H430.749V92.1259H457.421H484.094V79.5531H457.421ZM457.421 92.1259V118.799H469.994V92.1259V65.4532H457.421V92.1259ZM469.994 92.1259H443.321V158.51H469.994H496.667V92.1259H469.994ZM469.994 158.51V131.837H453.901V158.51V185.183H469.994V158.51ZM453.901 158.51H480.574V145.937H453.901H427.228V158.51H453.901ZM453.901 145.937V119.265H441.328V145.937V172.61H453.901V145.937ZM441.328 145.937H468.001V133.365H441.328H414.655V145.937H441.328ZM441.328 133.365V106.692H428.755V133.365V160.037H441.328V133.365ZM428.755 133.365H455.428V120.792H428.755H402.083V133.365H428.755ZM478.997 129.844V103.172L452.325 129.844H478.997ZM507.663 129.844H534.336L507.663 103.172V129.844ZM507.663 158.51V185.183L534.336 158.51H507.663ZM478.997 158.51H452.325L478.997 185.183V158.51ZM478.997 129.844V156.517H507.663V129.844V103.172H478.997V129.844ZM507.663 129.844H480.991V158.51H507.663H534.336V129.844H507.663ZM507.663 158.51V131.837H478.997V158.51V185.183H507.663V158.51ZM478.997 158.51H505.67V129.844H478.997H452.325V158.51H478.997ZM583.051 120.792V147.465L609.724 120.792H583.051ZM570.478 120.792V94.1191L543.805 120.792H570.478ZM570.478 145.937V172.61L597.151 145.937H570.478ZM557.905 145.937V119.265L531.233 145.937H557.905ZM557.905 158.51V185.183L584.578 158.51H557.905ZM541.812 158.51H515.139L541.812 185.183V158.51ZM541.812 145.937H568.485L541.812 119.265V145.937ZM529.239 145.937H502.567L529.239 172.61V145.937ZM529.239 133.365H555.912L529.239 106.692V133.365ZM516.667 133.365H489.994L516.667 160.037V133.365ZM516.667 79.5531V52.8804L489.994 79.5531H516.667ZM545.333 79.5531H572.005L545.333 52.8804V79.5531ZM545.333 129.844H518.66L545.333 156.517V129.844ZM554.385 129.844V156.517L581.058 129.844H554.385ZM554.385 117.271V90.5987L527.712 117.271H554.385ZM566.958 117.271V143.944L593.63 117.271H566.958ZM566.958 79.5531V52.8804L540.285 79.5531H566.958ZM583.051 79.5531H609.724L583.051 52.8804V79.5531ZM583.051 120.792V94.1191H570.478V120.792V147.465H583.051V120.792ZM570.478 120.792H543.805V145.937H570.478H597.151V120.792H570.478ZM570.478 145.937V119.265H557.905V145.937V172.61H570.478V145.937ZM557.905 145.937H531.233V158.51H557.905H584.578V145.937H557.905ZM557.905 158.51V131.837H541.812V158.51V185.183H557.905V158.51ZM541.812 158.51H568.485V145.937H541.812H515.139V158.51H541.812ZM541.812 145.937V119.265H529.239V145.937V172.61H541.812V145.937ZM529.239 145.937H555.912V133.365H529.239H502.567V145.937H529.239ZM529.239 133.365V106.692H516.667V133.365V160.037H529.239V133.365ZM516.667 133.365H543.339V79.5531H516.667H489.994V133.365H516.667ZM516.667 79.5531V106.226H545.333V79.5531V52.8804H516.667V79.5531ZM545.333 79.5531H518.66V129.844H545.333H572.005V79.5531H545.333ZM545.333 129.844V156.517H554.385V129.844V103.172H545.333V129.844ZM554.385 129.844H581.058V117.271H554.385H527.712V129.844H554.385ZM554.385 117.271V143.944H566.958V117.271V90.5987H554.385V117.271ZM566.958 117.271H593.63V79.5531H566.958H540.285V117.271H566.958ZM566.958 79.5531V106.226H583.051V79.5531V52.8804H566.958V79.5531ZM583.051 79.5531H556.378V120.792H583.051H609.724V79.5531H583.051ZM645.866 95.6463V122.319L672.538 95.6463H645.866ZM633.293 95.6463V68.9735L606.62 95.6463H633.293ZM633.293 145.937V172.61L659.966 145.937H633.293ZM620.72 145.937V119.265L594.047 145.937H620.72ZM620.72 158.51V185.183L647.393 158.51H620.72ZM592.054 158.51H565.381L592.054 185.183V158.51ZM592.054 142.417V115.744L565.381 142.417H592.054ZM604.627 142.417V169.09L631.3 142.417H604.627ZM604.627 95.6463H631.3L604.627 68.9735V95.6463ZM592.054 95.6463H565.381L592.054 122.319V95.6463ZM592.054 79.5531V52.8804L565.381 79.5531H592.054ZM645.866 79.5531H672.538L645.866 52.8804V79.5531ZM645.866 95.6463V68.9735H633.293V95.6463V122.319H645.866V95.6463ZM633.293 95.6463H606.62V145.937H633.293H659.966V95.6463H633.293ZM633.293 145.937V119.265H620.72V145.937V172.61H633.293V145.937ZM620.72 145.937H594.047V158.51H620.72H647.393V145.937H620.72ZM620.72 158.51V131.837H592.054V158.51V185.183H620.72V158.51ZM592.054 158.51H618.727V142.417H592.054H565.381V158.51H592.054ZM592.054 142.417V169.09H604.627V142.417V115.744H592.054V142.417ZM604.627 142.417H631.3V95.6463H604.627H577.954V142.417H604.627ZM604.627 95.6463V68.9735H592.054V95.6463V122.319H604.627V95.6463ZM592.054 95.6463H618.727V79.5531H592.054H565.381V95.6463H592.054ZM592.054 79.5531V106.226H645.866V79.5531V52.8804H592.054V79.5531ZM645.866 79.5531H619.193V95.6463H645.866H672.538V79.5531H645.866ZM705.16 79.5531V52.8804L678.487 79.5531H705.16ZM721.253 79.5531H747.926L721.253 52.8804V79.5531ZM721.253 145.937V172.61L747.926 145.937H721.253ZM708.68 145.937V119.265L682.008 145.937H708.68ZM708.68 158.51V185.183L735.353 158.51H708.68ZM667.442 158.51H640.769L667.442 185.183V158.51ZM667.442 145.937H694.114L667.442 119.265V145.937ZM654.869 145.937H628.196L654.869 172.61V145.937ZM654.869 79.5531V52.8804L628.196 79.5531H654.869ZM683.535 79.5531H710.208L683.535 52.8804V79.5531ZM683.535 142.417H656.862L683.535 169.09V142.417ZM705.16 142.417V169.09L731.833 142.417H705.16ZM705.16 79.5531V106.226H721.253V79.5531V52.8804H705.16V79.5531ZM721.253 79.5531H694.581V145.937H721.253H747.926V79.5531H721.253ZM721.253 145.937V119.265H708.68V145.937V172.61H721.253V145.937ZM708.68 145.937H682.008V158.51H708.68H735.353V145.937H708.68ZM708.68 158.51V131.837H667.442V158.51V185.183H708.68V158.51ZM667.442 158.51H694.114V145.937H667.442H640.769V158.51H667.442ZM667.442 145.937V119.265H654.869V145.937V172.61H667.442V145.937ZM654.869 145.937H681.542V79.5531H654.869H628.196V145.937H654.869ZM654.869 79.5531V106.226H683.535V79.5531V52.8804H654.869V79.5531ZM683.535 79.5531H656.862V142.417H683.535H710.208V79.5531H683.535ZM683.535 142.417V169.09H705.16V142.417V115.744H683.535V142.417ZM705.16 142.417H731.833V79.5531H705.16H678.487V142.417H705.16Z" fill="black" mask="url(#path-4-outside-1_2023_8440)"/>
<rect x="473.004" y="67.4141" width="27.8214" height="26.2143" fill="black"/>
<rect x="152.93" y="52.8867" width="508.461" height="21.3735" fill="black"/>
<rect x="152.93" y="163.887" width="466.453" height="21.2773" fill="black"/>
<mask id="path-9-outside-2_2023_8440" maskUnits="userSpaceOnUse" x="165.617" y="-0.00195312" width="428" height="78" fill="black">
<rect fill="white" x="165.617" y="-0.00195312" width="428" height="78"/>
<path d="M203.836 45.8087H193.489V57.8403H185.789V26.0768H191.805V20.061H211.537V26.0768H217.553V57.8403H203.836V45.8087ZM203.836 27.7612H193.489V38.1084H203.836V27.7612ZM253.624 39.7929H247.608V51.8245H241.592V57.8403H233.892V51.8245H227.876V45.8087H221.86V20.061H235.576V44.1242H239.908V38.1084H245.924V20.061H253.624V39.7929ZM319.751 45.8087H307.719V57.8403H294.003V20.061H325.766V27.7612H307.719V38.1084H319.751V45.8087ZM343.79 39.7929V50.14H361.838V57.8403H330.074V20.061H361.838V27.7612H343.79V32.0926H355.822V39.7929H343.79ZM391.893 38.1084H397.909V51.8245H391.893V57.8403H366.146V50.14H384.193V45.8087H372.161V39.7929H366.146V26.0768H372.161V20.061H397.909V27.7612H379.862V32.0926H391.893V38.1084ZM433.98 27.7612H421.949V57.8403H408.233V27.7612H402.217V20.061H433.98V27.7612ZM464.036 27.7612H458.02V50.14H464.036V57.8403H438.288V50.14H444.304V27.7612H438.288V20.061H464.036V27.7612ZM487.594 51.8245V45.8087H483.263V57.8403H469.547V20.061H477.247V38.1084H481.579V26.0768H489.279V44.1242H493.61V20.061H501.31V57.8403H493.61V51.8245H487.594ZM523.666 45.8087H513.318V57.8403H505.618V26.0768H511.634V20.061H531.366V26.0768H537.382V57.8403H523.666V45.8087ZM523.666 27.7612H513.318V38.1084H523.666V27.7612ZM555.406 20.061V50.14H573.453V57.8403H541.69V20.061H555.406Z"/>
</mask>
<path d="M203.836 45.8087H193.489V57.8403H185.789V26.0768H191.805V20.061H211.537V26.0768H217.553V57.8403H203.836V45.8087ZM203.836 27.7612H193.489V38.1084H203.836V27.7612ZM253.624 39.7929H247.608V51.8245H241.592V57.8403H233.892V51.8245H227.876V45.8087H221.86V20.061H235.576V44.1242H239.908V38.1084H245.924V20.061H253.624V39.7929ZM319.751 45.8087H307.719V57.8403H294.003V20.061H325.766V27.7612H307.719V38.1084H319.751V45.8087ZM343.79 39.7929V50.14H361.838V57.8403H330.074V20.061H361.838V27.7612H343.79V32.0926H355.822V39.7929H343.79ZM391.893 38.1084H397.909V51.8245H391.893V57.8403H366.146V50.14H384.193V45.8087H372.161V39.7929H366.146V26.0768H372.161V20.061H397.909V27.7612H379.862V32.0926H391.893V38.1084ZM433.98 27.7612H421.949V57.8403H408.233V27.7612H402.217V20.061H433.98V27.7612ZM464.036 27.7612H458.02V50.14H464.036V57.8403H438.288V50.14H444.304V27.7612H438.288V20.061H464.036V27.7612ZM487.594 51.8245V45.8087H483.263V57.8403H469.547V20.061H477.247V38.1084H481.579V26.0768H489.279V44.1242H493.61V20.061H501.31V57.8403H493.61V51.8245H487.594ZM523.666 45.8087H513.318V57.8403H505.618V26.0768H511.634V20.061H531.366V26.0768H537.382V57.8403H523.666V45.8087ZM523.666 27.7612H513.318V38.1084H523.666V27.7612ZM555.406 20.061V50.14H573.453V57.8403H541.69V20.061H555.406Z" fill="white"/>
<path d="M203.836 45.8087H223.841L203.836 25.8041V45.8087ZM193.489 45.8087V25.8041L173.485 45.8087H193.489ZM193.489 57.8403V77.8448L213.494 57.8403H193.489ZM185.789 57.8403H165.785L185.789 77.8448V57.8403ZM185.789 26.0768V6.07229L165.785 26.0768H185.789ZM191.805 26.0768V46.0814L211.809 26.0768H191.805ZM191.805 20.061V0.0564841L171.8 20.061H191.805ZM211.537 20.061H231.541L211.537 0.0564841V20.061ZM211.537 26.0768H191.532L211.537 46.0814V26.0768ZM217.553 26.0768H237.557L217.553 6.07229V26.0768ZM217.553 57.8403V77.8448L237.557 57.8403H217.553ZM203.836 57.8403H183.832L203.836 77.8448V57.8403ZM203.836 27.7612H223.841L203.836 7.75671V27.7612ZM193.489 27.7612V7.75671L173.485 27.7612H193.489ZM193.489 38.1084H173.485L193.489 58.113V38.1084ZM203.836 38.1084V58.113L223.841 38.1084H203.836ZM203.836 45.8087V25.8041H193.489V45.8087V65.8132H203.836V45.8087ZM193.489 45.8087H173.485V57.8403H193.489H213.494V45.8087H193.489ZM193.489 57.8403V37.8357H185.789V57.8403V77.8448H193.489V57.8403ZM185.789 57.8403H205.794V26.0768H185.789H165.785V57.8403H185.789ZM185.789 26.0768V46.0814H191.805V26.0768V6.07229H185.789V26.0768ZM191.805 26.0768H211.809V20.061H191.805H171.8V26.0768H191.805ZM191.805 20.061V40.0656H211.537V20.061V0.0564841H191.805V20.061ZM211.537 20.061H191.532V26.0768H211.537H231.541V20.061H211.537ZM211.537 26.0768V46.0814H217.553V26.0768V6.07229H211.537V26.0768ZM217.553 26.0768H197.548V57.8403H217.553H237.557V26.0768H217.553ZM217.553 57.8403V37.8357H203.836V57.8403V77.8448H217.553V57.8403ZM203.836 57.8403H223.841V45.8087H203.836H183.832V57.8403H203.836ZM203.836 27.7612V7.75671H193.489V27.7612V47.7658H203.836V27.7612ZM193.489 27.7612H173.485V38.1084H193.489H213.494V27.7612H193.489ZM193.489 38.1084V58.113H203.836V38.1084V18.1039H193.489V38.1084ZM203.836 38.1084H223.841V27.7612H203.836H183.832V38.1084H203.836ZM253.624 39.7929V59.7974L273.628 39.7929H253.624ZM247.608 39.7929V19.7883L227.603 39.7929H247.608ZM247.608 51.8245V71.829L267.613 51.8245H247.608ZM241.592 51.8245V31.8199L221.588 51.8245H241.592ZM241.592 57.8403V77.8448L261.597 57.8403H241.592ZM233.892 57.8403H213.887L233.892 77.8448V57.8403ZM233.892 51.8245H253.897L233.892 31.8199V51.8245ZM227.876 51.8245H207.872L227.876 71.829V51.8245ZM227.876 45.8087H247.881L227.876 25.8041V45.8087ZM221.86 45.8087H201.856L221.86 65.8132V45.8087ZM221.86 20.061V0.0564841L201.856 20.061H221.86ZM235.576 20.061H255.581L235.576 0.0564841V20.061ZM235.576 44.1242H215.572L235.576 64.1288V44.1242ZM239.908 44.1242V64.1288L259.912 44.1242H239.908ZM239.908 38.1084V18.1039L219.903 38.1084H239.908ZM245.924 38.1084V58.113L265.928 38.1084H245.924ZM245.924 20.061V0.0564841L225.919 20.061H245.924ZM253.624 20.061H273.628L253.624 0.0564841V20.061ZM253.624 39.7929V19.7883H247.608V39.7929V59.7974H253.624V39.7929ZM247.608 39.7929H227.603V51.8245H247.608H267.613V39.7929H247.608ZM247.608 51.8245V31.8199H241.592V51.8245V71.829H247.608V51.8245ZM241.592 51.8245H221.588V57.8403H241.592H261.597V51.8245H241.592ZM241.592 57.8403V37.8357H233.892V57.8403V77.8448H241.592V57.8403ZM233.892 57.8403H253.897V51.8245H233.892H213.887V57.8403H233.892ZM233.892 51.8245V31.8199H227.876V51.8245V71.829H233.892V51.8245ZM227.876 51.8245H247.881V45.8087H227.876H207.872V51.8245H227.876ZM227.876 45.8087V25.8041H221.86V45.8087V65.8132H227.876V45.8087ZM221.86 45.8087H241.865V20.061H221.86H201.856V45.8087H221.86ZM221.86 20.061V40.0656H235.576V20.061V0.0564841H221.86V20.061ZM235.576 20.061H215.572V44.1242H235.576H255.581V20.061H235.576ZM235.576 44.1242V64.1288H239.908V44.1242V24.1197H235.576V44.1242ZM239.908 44.1242H259.912V38.1084H239.908H219.903V44.1242H239.908ZM239.908 38.1084V58.113H245.924V38.1084V18.1039H239.908V38.1084ZM245.924 38.1084H265.928V20.061H245.924H225.919V38.1084H245.924ZM245.924 20.061V40.0656H253.624V20.061V0.0564841H245.924V20.061ZM253.624 20.061H233.619V39.7929H253.624H273.628V20.061H253.624ZM319.751 45.8087V65.8132L339.755 45.8087H319.751ZM307.719 45.8087V25.8041L287.714 45.8087H307.719ZM307.719 57.8403V77.8448L327.724 57.8403H307.719ZM294.003 57.8403H273.998L294.003 77.8448V57.8403ZM294.003 20.061V0.0564841L273.998 20.061H294.003ZM325.766 20.061H345.771L325.766 0.0564841V20.061ZM325.766 27.7612V47.7658L345.771 27.7612H325.766ZM307.719 27.7612V7.75671L287.714 27.7612H307.719ZM307.719 38.1084H287.714L307.719 58.113V38.1084ZM319.751 38.1084H339.755L319.751 18.1039V38.1084ZM319.751 45.8087V25.8041H307.719V45.8087V65.8132H319.751V45.8087ZM307.719 45.8087H287.714V57.8403H307.719H327.724V45.8087H307.719ZM307.719 57.8403V37.8357H294.003V57.8403V77.8448H307.719V57.8403ZM294.003 57.8403H314.008V20.061H294.003H273.998V57.8403H294.003ZM294.003 20.061V40.0656H325.766V20.061V0.0564841H294.003V20.061ZM325.766 20.061H305.762V27.7612H325.766H345.771V20.061H325.766ZM325.766 27.7612V7.75671H307.719V27.7612V47.7658H325.766V27.7612ZM307.719 27.7612H287.714V38.1084H307.719H327.724V27.7612H307.719ZM307.719 38.1084V58.113H319.751V38.1084V18.1039H307.719V38.1084ZM319.751 38.1084H299.746V45.8087H319.751H339.755V38.1084H319.751ZM343.79 39.7929V19.7883L323.786 39.7929H343.79ZM343.79 50.14H323.786L343.79 70.1446V50.14ZM361.838 50.14H381.842L361.838 30.1355V50.14ZM361.838 57.8403V77.8448L381.842 57.8403H361.838ZM330.074 57.8403H310.07L330.074 77.8448V57.8403ZM330.074 20.061V0.0564841L310.07 20.061H330.074ZM361.838 20.061H381.842L361.838 0.0564841V20.061ZM361.838 27.7612V47.7658L381.842 27.7612H361.838ZM343.79 27.7612V7.75671L323.786 27.7612H343.79ZM343.79 32.0926H323.786L343.79 52.0972V32.0926ZM355.822 32.0926H375.826L355.822 12.0881V32.0926ZM355.822 39.7929V59.7974L375.826 39.7929H355.822ZM343.79 39.7929H323.786V50.14H343.79H363.795V39.7929H343.79ZM343.79 50.14V70.1446H361.838V50.14V30.1355H343.79V50.14ZM361.838 50.14H341.833V57.8403H361.838H381.842V50.14H361.838ZM361.838 57.8403V37.8357H330.074V57.8403V77.8448H361.838V57.8403ZM330.074 57.8403H350.079V20.061H330.074H310.07V57.8403H330.074ZM330.074 20.061V40.0656H361.838V20.061V0.0564841H330.074V20.061ZM361.838 20.061H341.833V27.7612H361.838H381.842V20.061H361.838ZM361.838 27.7612V7.75671H343.79V27.7612V47.7658H361.838V27.7612ZM343.79 27.7612H323.786V32.0926H343.79H363.795V27.7612H343.79ZM343.79 32.0926V52.0972H355.822V32.0926V12.0881H343.79V32.0926ZM355.822 32.0926H335.817V39.7929H355.822H375.826V32.0926H355.822ZM355.822 39.7929V19.7883H343.79V39.7929V59.7974H355.822V39.7929ZM391.893 38.1084H371.889L391.893 58.113V38.1084ZM397.909 38.1084H417.914L397.909 18.1039V38.1084ZM397.909 51.8245V71.829L417.914 51.8245H397.909ZM391.893 51.8245V31.8199L371.889 51.8245H391.893ZM391.893 57.8403V77.8448L411.898 57.8403H391.893ZM366.146 57.8403H346.141L366.146 77.8448V57.8403ZM366.146 50.14V30.1355L346.141 50.14H366.146ZM384.193 50.14V70.1446L404.198 50.14H384.193ZM384.193 45.8087H404.198L384.193 25.8041V45.8087ZM372.161 45.8087H352.157L372.161 65.8132V45.8087ZM372.161 39.7929H392.166L372.161 19.7883V39.7929ZM366.146 39.7929H346.141L366.146 59.7974V39.7929ZM366.146 26.0768V6.07229L346.141 26.0768H366.146ZM372.161 26.0768V46.0814L392.166 26.0768H372.161ZM372.161 20.061V0.0564841L352.157 20.061H372.161ZM397.909 20.061H417.914L397.909 0.0564841V20.061ZM397.909 27.7612V47.7658L417.914 27.7612H397.909ZM379.862 27.7612V7.75671L359.857 27.7612H379.862ZM379.862 32.0926H359.857L379.862 52.0972V32.0926ZM391.893 32.0926H411.898L391.893 12.0881V32.0926ZM391.893 38.1084V58.113H397.909V38.1084V18.1039H391.893V38.1084ZM397.909 38.1084H377.905V51.8245H397.909H417.914V38.1084H397.909ZM397.909 51.8245V31.8199H391.893V51.8245V71.829H397.909V51.8245ZM391.893 51.8245H371.889V57.8403H391.893H411.898V51.8245H391.893ZM391.893 57.8403V37.8357H366.146V57.8403V77.8448H391.893V57.8403ZM366.146 57.8403H386.15V50.14H366.146H346.141V57.8403H366.146ZM366.146 50.14V70.1446H384.193V50.14V30.1355H366.146V50.14ZM384.193 50.14H404.198V45.8087H384.193H364.189V50.14H384.193ZM384.193 45.8087V25.8041H372.161V45.8087V65.8132H384.193V45.8087ZM372.161 45.8087H392.166V39.7929H372.161H352.157V45.8087H372.161ZM372.161 39.7929V19.7883H366.146V39.7929V59.7974H372.161V39.7929ZM366.146 39.7929H386.15V26.0768H366.146H346.141V39.7929H366.146ZM366.146 26.0768V46.0814H372.161V26.0768V6.07229H366.146V26.0768ZM372.161 26.0768H392.166V20.061H372.161H352.157V26.0768H372.161ZM372.161 20.061V40.0656H397.909V20.061V0.0564841H372.161V20.061ZM397.909 20.061H377.905V27.7612H397.909H417.914V20.061H397.909ZM397.909 27.7612V7.75671H379.862V27.7612V47.7658H397.909V27.7612ZM379.862 27.7612H359.857V32.0926H379.862H399.866V27.7612H379.862ZM379.862 32.0926V52.0972H391.893V32.0926V12.0881H379.862V32.0926ZM391.893 32.0926H371.889V38.1084H391.893H411.898V32.0926H391.893ZM433.98 27.7612V47.7658L453.985 27.7612H433.98ZM421.949 27.7612V7.75671L401.944 27.7612H421.949ZM421.949 57.8403V77.8448L441.953 57.8403H421.949ZM408.233 57.8403H388.228L408.233 77.8448V57.8403ZM408.233 27.7612H428.237L408.233 7.75671V27.7612ZM402.217 27.7612H382.212L402.217 47.7658V27.7612ZM402.217 20.061V0.0564841L382.212 20.061H402.217ZM433.98 20.061H453.985L433.98 0.0564841V20.061ZM433.98 27.7612V7.75671H421.949V27.7612V47.7658H433.98V27.7612ZM421.949 27.7612H401.944V57.8403H421.949H441.953V27.7612H421.949ZM421.949 57.8403V37.8357H408.233V57.8403V77.8448H421.949V57.8403ZM408.233 57.8403H428.237V27.7612H408.233H388.228V57.8403H408.233ZM408.233 27.7612V7.75671H402.217V27.7612V47.7658H408.233V27.7612ZM402.217 27.7612H422.221V20.061H402.217H382.212V27.7612H402.217ZM402.217 20.061V40.0656H433.98V20.061V0.0564841H402.217V20.061ZM433.98 20.061H413.976V27.7612H433.98H453.985V20.061H433.98ZM464.036 27.7612V47.7658L484.04 27.7612H464.036ZM458.02 27.7612V7.75671L438.016 27.7612H458.02ZM458.02 50.14H438.016L458.02 70.1446V50.14ZM464.036 50.14H484.04L464.036 30.1355V50.14ZM464.036 57.8403V77.8448L484.04 57.8403H464.036ZM438.288 57.8403H418.284L438.288 77.8448V57.8403ZM438.288 50.14V30.1355L418.284 50.14H438.288ZM444.304 50.14V70.1446L464.309 50.14H444.304ZM444.304 27.7612H464.309L444.304 7.75671V27.7612ZM438.288 27.7612H418.284L438.288 47.7658V27.7612ZM438.288 20.061V0.0564841L418.284 20.061H438.288ZM464.036 20.061H484.04L464.036 0.0564841V20.061ZM464.036 27.7612V7.75671H458.02V27.7612V47.7658H464.036V27.7612ZM458.02 27.7612H438.016V50.14H458.02H478.025V27.7612H458.02ZM458.02 50.14V70.1446H464.036V50.14V30.1355H458.02V50.14ZM464.036 50.14H444.031V57.8403H464.036H484.04V50.14H464.036ZM464.036 57.8403V37.8357H438.288V57.8403V77.8448H464.036V57.8403ZM438.288 57.8403H458.293V50.14H438.288H418.284V57.8403H438.288ZM438.288 50.14V70.1446H444.304V50.14V30.1355H438.288V50.14ZM444.304 50.14H464.309V27.7612H444.304H424.3V50.14H444.304ZM444.304 27.7612V7.75671H438.288V27.7612V47.7658H444.304V27.7612ZM438.288 27.7612H458.293V20.061H438.288H418.284V27.7612H438.288ZM438.288 20.061V40.0656H464.036V20.061V0.0564841H438.288V20.061ZM464.036 20.061H444.031V27.7612H464.036H484.04V20.061H464.036ZM487.594 51.8245H467.59L487.594 71.829V51.8245ZM487.594 45.8087H507.599L487.594 25.8041V45.8087ZM483.263 45.8087V25.8041L463.258 45.8087H483.263ZM483.263 57.8403V77.8448L503.267 57.8403H483.263ZM469.547 57.8403H449.542L469.547 77.8448V57.8403ZM469.547 20.061V0.0564841L449.542 20.061H469.547ZM477.247 20.061H497.252L477.247 0.0564841V20.061ZM477.247 38.1084H457.243L477.247 58.113V38.1084ZM481.579 38.1084V58.113L501.583 38.1084H481.579ZM481.579 26.0768V6.07229L461.574 26.0768H481.579ZM489.279 26.0768H509.283L489.279 6.07229V26.0768ZM489.279 44.1242H469.274L489.279 64.1288V44.1242ZM493.61 44.1242V64.1288L513.615 44.1242H493.61ZM493.61 20.061V0.0564841L473.606 20.061H493.61ZM501.31 20.061H521.315L501.31 0.0564841V20.061ZM501.31 57.8403V77.8448L521.315 57.8403H501.31ZM493.61 57.8403H473.606L493.61 77.8448V57.8403ZM493.61 51.8245H513.615L493.61 31.8199V51.8245ZM487.594 51.8245H507.599V45.8087H487.594H467.59V51.8245H487.594ZM487.594 45.8087V25.8041H483.263V45.8087V65.8132H487.594V45.8087ZM483.263 45.8087H463.258V57.8403H483.263H503.267V45.8087H483.263ZM483.263 57.8403V37.8357H469.547V57.8403V77.8448H483.263V57.8403ZM469.547 57.8403H489.551V20.061H469.547H449.542V57.8403H469.547ZM469.547 20.061V40.0656H477.247V20.061V0.0564841H469.547V20.061ZM477.247 20.061H457.243V38.1084H477.247H497.252V20.061H477.247ZM477.247 38.1084V58.113H481.579V38.1084V18.1039H477.247V38.1084ZM481.579 38.1084H501.583V26.0768H481.579H461.574V38.1084H481.579ZM481.579 26.0768V46.0814H489.279V26.0768V6.07229H481.579V26.0768ZM489.279 26.0768H469.274V44.1242H489.279H509.283V26.0768H489.279ZM489.279 44.1242V64.1288H493.61V44.1242V24.1197H489.279V44.1242ZM493.61 44.1242H513.615V20.061H493.61H473.606V44.1242H493.61ZM493.61 20.061V40.0656H501.31V20.061V0.0564841H493.61V20.061ZM501.31 20.061H481.306V57.8403H501.31H521.315V20.061H501.31ZM501.31 57.8403V37.8357H493.61V57.8403V77.8448H501.31V57.8403ZM493.61 57.8403H513.615V51.8245H493.61H473.606V57.8403H493.61ZM493.61 51.8245V31.8199H487.594V51.8245V71.829H493.61V51.8245ZM523.666 45.8087H543.67L523.666 25.8041V45.8087ZM513.318 45.8087V25.8041L493.314 45.8087H513.318ZM513.318 57.8403V77.8448L533.323 57.8403H513.318ZM505.618 57.8403H485.614L505.618 77.8448V57.8403ZM505.618 26.0768V6.07229L485.614 26.0768H505.618ZM511.634 26.0768V46.0814L531.639 26.0768H511.634ZM511.634 20.061V0.0564841L491.629 20.061H511.634ZM531.366 20.061H551.37L531.366 0.0564841V20.061ZM531.366 26.0768H511.361L531.366 46.0814V26.0768ZM537.382 26.0768H557.386L537.382 6.07229V26.0768ZM537.382 57.8403V77.8448L557.386 57.8403H537.382ZM523.666 57.8403H503.661L523.666 77.8448V57.8403ZM523.666 27.7612H543.67L523.666 7.75671V27.7612ZM513.318 27.7612V7.75671L493.314 27.7612H513.318ZM513.318 38.1084H493.314L513.318 58.113V38.1084ZM523.666 38.1084V58.113L543.67 38.1084H523.666ZM523.666 45.8087V25.8041H513.318V45.8087V65.8132H523.666V45.8087ZM513.318 45.8087H493.314V57.8403H513.318H533.323V45.8087H513.318ZM513.318 57.8403V37.8357H505.618V57.8403V77.8448H513.318V57.8403ZM505.618 57.8403H525.623V26.0768H505.618H485.614V57.8403H505.618ZM505.618 26.0768V46.0814H511.634V26.0768V6.07229H505.618V26.0768ZM511.634 26.0768H531.639V20.061H511.634H491.629V26.0768H511.634ZM511.634 20.061V40.0656H531.366V20.061V0.0564841H511.634V20.061ZM531.366 20.061H511.361V26.0768H531.366H551.37V20.061H531.366ZM531.366 26.0768V46.0814H537.382V26.0768V6.07229H531.366V26.0768ZM537.382 26.0768H517.377V57.8403H537.382H557.386V26.0768H537.382ZM537.382 57.8403V37.8357H523.666V57.8403V77.8448H537.382V57.8403ZM523.666 57.8403H543.67V45.8087H523.666H503.661V57.8403H523.666ZM523.666 27.7612V7.75671H513.318V27.7612V47.7658H523.666V27.7612ZM513.318 27.7612H493.314V38.1084H513.318H533.323V27.7612H513.318ZM513.318 38.1084V58.113H523.666V38.1084V18.1039H513.318V38.1084ZM523.666 38.1084H543.67V27.7612H523.666H503.661V38.1084H523.666ZM555.406 20.061H575.41L555.406 0.0564841V20.061ZM555.406 50.14H535.401L555.406 70.1446V50.14ZM573.453 50.14H593.458L573.453 30.1355V50.14ZM573.453 57.8403V77.8448L593.458 57.8403H573.453ZM541.69 57.8403H521.685L541.69 77.8448V57.8403ZM541.69 20.061V0.0564841L521.685 20.061H541.69ZM555.406 20.061H535.401V50.14H555.406H575.41V20.061H555.406ZM555.406 50.14V70.1446H573.453V50.14V30.1355H555.406V50.14ZM573.453 50.14H553.448V57.8403H573.453H593.458V50.14H573.453ZM573.453 57.8403V37.8357H541.69V57.8403V77.8448H573.453V57.8403ZM541.69 57.8403H561.694V20.061H541.69H521.685V57.8403H541.69ZM541.69 20.061V40.0656H555.406V20.061V0.0564841H541.69V20.061Z" fill="black" mask="url(#path-9-outside-2_2023_8440)"/>
<path d="M248.264 181.19H257.384V201.19H261.384V206.31H244.264V201.19H248.264V190.31H244.264V185.19H248.264V181.19ZM281.369 193.19H285.369V202.31H281.369V206.31H268.249V202.31H264.249V185.19H268.249V181.19H281.369V186.31H273.369V189.19H281.369V193.19ZM276.249 194.31H273.369V201.19H280.249V198.31H276.249V194.31ZM289.433 198.31V193.19H302.553V198.31H289.433ZM310.217 181.19H319.337V201.19H323.337V206.31H306.217V201.19H310.217V190.31H306.217V185.19H310.217V181.19ZM343.322 193.19H347.322V202.31H343.322V206.31H330.202V202.31H326.202V193.19H330.202V190.31H326.202V185.19H330.202V181.19H343.322V185.19H347.322V190.31H343.322V193.19ZM335.322 189.19H342.202V186.31H335.322V189.19ZM338.202 194.31H335.322V201.19H342.202V198.31H338.202V194.31ZM350.986 197.19H360.106V206.31H350.986V197.19ZM368.97 181.19H378.09V201.19H382.09V206.31H364.97V201.19H368.97V190.31H364.97V185.19H368.97V181.19ZM398.075 198.31V201.19H406.075V206.31H384.955V201.19H388.955V197.19H392.955V193.19H396.955V186.31H390.075V190.31H384.955V185.19H388.955V181.19H402.075V185.19H406.075V194.31H402.075V198.31H398.075ZM409.739 197.19H418.859V206.31H409.739V197.19ZM435.244 198.31V201.19H443.244V206.31H422.124V201.19H426.124V197.19H430.124V193.19H434.124V186.31H427.244V190.31H422.124V185.19H426.124V181.19H439.244V185.19H443.244V194.31H439.244V198.31H435.244ZM463.228 181.19V185.19H467.228V202.31H463.228V206.31H450.108V202.31H446.108V185.19H450.108V181.19H463.228ZM462.108 186.31H451.228V201.19H462.108V186.31ZM483.212 198.31V201.19H491.212V206.31H470.092V201.19H474.092V197.19H478.092V193.19H482.092V186.31H475.212V190.31H470.092V185.19H474.092V181.19H487.212V185.19H491.212V194.31H487.212V198.31H483.212ZM511.197 193.19H515.197V202.31H511.197V206.31H498.077V202.31H494.077V197.19H499.197V201.19H506.077V198.31H502.077V194.31H494.077V181.19H515.197V186.31H503.197V189.19H511.197V193.19Z" fill="white"/>
</svg>
