<svg width="65" height="35" viewBox="0 0 65 35" fill="none" xmlns="http://www.w3.org/2000/svg">
<path d="M38.554 0V0.737877H43.5347V1.29128H46.4862V2.1214H49.2532V2.85927H51.3746V3.59715H52.8504V4.24279H54.1417V5.0729H55.7097V5.71854H57.0932V6.45642H57.7388V7.00983H59.1223V7.83994H59.9524V8.48558H60.5981V9.22346H61.336V9.96133H62.0738V11.4371H62.9039V12.8206H63.4573V14.2964H64.1952V19.9227H63.4573V21.3984H62.9039V22.7819H62.0738V24.2577H61.336V24.9956H60.5981V25.6412H59.9524V26.3791H59.1223V27.2092H57.7388V27.7626H57.0932V28.5005H55.7097V29.1461H54.1417V29.9762H52.8504V30.6219H51.3746V31.3598H49.2532V32.0976H46.4862V32.9277H43.5347V33.4811H38.554V34.219H25.6412V33.4811H20.6605V32.9277H17.709V32.0976H14.942V31.3598H12.8206V30.6219H11.3448V29.9762H10.0536V29.1461H8.48558V28.5005H7.10206V27.7626H6.45642V27.2092H5.0729V26.3791H4.24279V25.6412H3.59715V24.9956H2.85927V24.2577H2.12139V22.7819H1.29128V21.3984H0.737876V19.9227H0V14.2964H0.737876V12.8206H1.29128V11.4371H2.12139V9.96133H2.85927V9.22346H3.59715V8.48558H4.24279V7.83994H5.0729V7.00983H6.45642V6.45642H7.10206V5.71854H8.48558V5.0729H10.0536V4.24279H11.3448V3.59715H12.8206V2.85927H14.942V2.1214H17.709V1.29128H20.6605V0.737877H25.6412V0H38.554ZM37.8162 1.29128H26.3791V2.1214H21.4906V2.85927H18.5391V3.59715H16.4177V4.24279H14.2041V5.0729H12.0827V5.71854H10.6992V6.45642H9.31569V7.00983H8.48558V7.83994H7.10206V8.48558H6.45642V9.22346H5.71854V9.96133H5.0729V10.6992H4.24279V11.4371H3.59715V12.0827H2.85927V13.4662H2.12139V15.0342H1.29128V19.1848H2.12139V20.7528H2.85927V22.1363H3.59715V22.7819H4.24279V23.5198H5.0729V24.2577H5.71854V24.9956H6.45642V25.6412H7.10206V26.3791H8.48558V27.2092H9.31569V27.7626H10.6992V28.5005H12.0827V29.1461H14.2041V29.9762H16.4177V30.6219H18.5391V31.3598H21.4906V32.0976H26.3791V32.9277H37.8162V32.0976H42.7046V31.3598H45.6561V30.6219H47.7775V29.9762H49.9911V29.1461H52.1125V28.5005H53.496V27.7626H54.8795V27.2092H55.7097V26.3791H57.0932V25.6412H57.7388V24.9956H58.4767V24.2577H59.1223V23.5198H59.9524V22.7819H60.5981V22.1363H61.336V20.7528H62.0738V19.1848H62.9039V15.0342H62.0738V13.4662H61.336V12.0827H60.5981V11.4371H59.9524V10.6992H59.1223V9.96133H58.4767V9.22346H57.7388V8.48558H57.0932V7.83994H55.7097V7.00983H54.8795V6.45642H53.496V5.71854H52.1125V5.0729H49.9911V4.24279H47.7775V3.59715H45.6561V2.85927H42.7046V2.1214H37.8162V1.29128Z" fill="white"/>
<path d="M15.6831 9.22461V12.0839H16.421V15.681H17.1588V19.1859H17.7122V15.681H18.5424V12.0839H19.3725V9.22461H22.7851V10.7004H23.6153V14.2975H24.1687V17.8024H24.9988V17.0645H25.6444V13.4674H26.3823V9.22461H30.0717V11.4382H29.2416V15.0354H28.5037V17.8024H27.9503V20.7539H27.1202V23.521H22.7851V19.9238H22.1395V16.4189H21.4939V13.4674H20.6637V17.0645H19.9259V20.7539H19.3725V23.521H14.9452V19.9238H14.2073V17.0645H13.4695V14.2975H12.8238V10.7004H12.0859V9.22461H15.6831Z" fill="white"/>
<path d="M45.6557 9.22461V19.1859H46.4858V20.7539H50.7286V19.9238H51.3743V9.22461H54.8792V18.5403H54.1413V21.3996H53.4957V22.1374H52.85V22.7831H52.1122V23.521H45.6557V22.7831H44.2722V22.1374H43.5343V21.3996H42.7042V17.8024H42.0586V9.22461H45.6557Z" fill="white"/>
<path d="M40.5831 9.22461V19.9238H40.0297V21.3996H39.1996V22.1374H38.554V22.7831H37.8161V23.521H32.0975V22.7831H31.2674V22.1374H30.714V21.3996H30.0684V19.1859H29.2383V17.8024H32.9277V19.9238H33.4811V20.7539H34.1267V21.3996H35.6947V20.7539H36.2481V19.9238H37.0782V9.22461H40.5831Z" fill="white"/>
<path d="M12.0854 19.9219H8.48828V23.519H12.0854V19.9219Z" fill="white"/>
</svg>
